<?xml version="1.0" encoding="UTF-8"?>
<svg id="Layer_2" data-name="Layer 2" xmlns="http://www.w3.org/2000/svg" viewBox="0 0 356.96 356.96">
  <defs>
    <style>
      .cls-1 {
        fill: #8b2942;
        stroke-width: 0px;
      }
    </style>
  </defs>
  <g id="Layer_1-2" data-name="Layer 1">
    <g>
      <g>
        <g>
          <path class="cls-1" d="m147.99,226.02c3.38,0,6.12-2.74,6.12-6.12v-32.75s7.56,0,7.56,0l.02,32.75c0,3.38,2.74,6.12,6.12,6.12s6.12-2.74,6.12-6.12v-32.75s9.02,0,9.02,0l.02,32.75c0,3.38,2.74,6.12,6.12,6.12s6.12-2.74,6.12-6.12v-32.75s7.6,0,7.6,0l.02,32.75c0,3.38,2.74,6.12,6.12,6.12s6.12-2.74,6.12-6.12l.12-35.88c0-4.59-4.05-8.3-9.05-8.3h-18.69l-6.22-8.06-.76-.99c-.52-.45-1.17-.74-1.91-.74s-1.39.3-1.91.74l-.76.99-6.22,8.05h-18.66c-5,0-9.05,3.71-9.05,8.3l-.07,35.88c0,3.38,2.74,6.12,6.12,6.12Z"/>
          <g>
            <path class="cls-1" d="m148.06,164.62c3.38,0,6.12-2.74,6.12-6.12v-30.13h48.8v30.13c0,3.38,2.74,6.12,6.12,6.12s6.12-2.74,6.12-6.12v-47.93c0-3.38-2.74-6.12-6.12-6.12s-6.12,2.74-6.12,6.12v7.07h-48.8v-7.07c0-3.38-2.74-6.12-6.12-6.12s-6.12,2.74-6.12,6.12v47.93c0,3.38,2.74,6.12,6.12,6.12Z"/>
            <path class="cls-1" d="m161.58,115.55h33.99c2.77,0,5.02-2.24,5.02-5.02s-2.25-5.02-5.02-5.02h-33.99c-2.77,0-5.02,2.25-5.02,5.02s2.25,5.02,5.02,5.02Z"/>
            <path class="cls-1" d="m191.06,129.23c-2.63,0-4.85,1.67-5.71,3.99h-13.34c-.87-2.33-3.09-3.99-5.72-3.99-3.38,0-6.12,2.74-6.12,6.12v21.11c0,3.38,2.74,6.12,6.12,6.12h24.78c3.38,0,6.12-2.74,6.12-6.12v-21.11c0-3.38-2.74-6.12-6.12-6.12Zm-18.66,23.22v-9.19h12.54v9.19h-12.54Z"/>
          </g>
          <path class="cls-1" d="m160.95,273.64c5.32,2.15,9.98,5.6,13.61,9.93.53.63,1.04,1.29,1.52,1.96.64.5,1.4.81,2.23.81,1.02,0,1.93-.47,2.65-1.16.03-.04.06-.09.1-.13,3.77-5.04,8.86-9.02,14.78-11.42,4.03-1.63,8.41-2.55,13.02-2.55,8.34,0,15.97,2.95,21.96,7.84.13.11.26.22.39.33,1.37,1.06,3.18,1.21,4.43.24.95-.74,1.36-1.95,1.2-3.19-.06-.3-.16-.59-.23-.89-.61-2.69-1.53-5.25-2.67-7.69,21.75-1.41,38.98-24.37,38.98-46.48,0-.51-.06-1.01-.08-1.52,10.22-7.6,16.87-19.73,16.87-33.44,0-9.51-3.23-18.26-8.59-25.27,1.55-4.37,2.44-9.05,2.44-13.95,0-17.87-11.25-33.06-27.05-39-4.38-18.34-20.84-31.99-40.52-31.99-2.84,0-5.62.29-8.31.83-7.53-7.45-17.88-12.05-29.31-12.05s-21.78,4.6-29.31,12.05c-2.69-.54-5.46-.83-8.31-.83-19.68,0-36.13,13.65-40.52,31.99-15.79,5.94-27.05,21.14-27.05,39,0,4.9.89,9.58,2.44,13.95-5.36,7.02-8.59,15.76-8.59,25.27,0,13.71,6.65,25.85,16.87,33.44-.02.51-.08,1.01-.08,1.52,0,22.11,17.22,45.07,38.98,46.48-1.14,2.44-2.05,5.01-2.67,7.69-.07.3-.16.59-.22.89-.16,1.23.24,2.45,1.19,3.19,1.25.98,3.06.82,4.43-.24.13-.11.26-.22.39-.33,5.98-4.89,13.62-7.84,21.96-7.84,4.61,0,9,.92,13.03,2.55Zm103.65-71.29c-2.59,3.09-5.9,5.51-9.65,7.13-.07.03-.15.06-.22.1-.62.32-1.06.95-1.06,1.7,0,.22.06.43.12.62l.05.16c.58,2.15.9,4.4.9,6.73,0,1.77-.18,3.49-.51,5.16-2.4,11.97-12.96,25.91-25.64,25.91-4.43,0-8.6-1.11-12.25-3.05-.32-.17-.62-.36-.93-.54-5.29-2.92-11.37-4.59-17.84-4.59-1.4,0-2.77.09-4.13.24-1.07.12-2.1.32-3.14.53l-8.23-12.1-1.01-1.49c-.69-.67-1.55-1.12-2.53-1.12s-1.85.45-2.53,1.12l-1.01,1.49-8.25,12.13c-1.1-.23-2.21-.44-3.35-.56-1.36-.15-2.73-.24-4.13-.24-6.47,0-12.55,1.67-17.84,4.59-.31.18-.61.37-.93.54-3.66,1.94-7.83,3.05-12.26,3.05-12.67,0-23.24-13.93-25.64-25.91-.34-1.67-.52-3.39-.52-5.16,0-2.33.33-4.58.91-6.73l.05-.16c.07-.2.13-.4.13-.62,0-.75-.44-1.39-1.07-1.7-.08-.03-.15-.06-.23-.1-3.74-1.63-7.06-4.04-9.65-7.13-3.8-4.54-6.09-10.39-6.09-16.77,0-3.92.89-7.62,2.43-10.96,1.7-3.67,4.25-6.84,7.36-9.35.11-.1.23-.19.35-.28.31-.34.51-.78.51-1.28,0-.21-.06-.41-.12-.6-.19-.27-.38-.55-.56-.84-2.04-3.2-3.44-6.84-3.92-10.79-.12-1.05-.21-2.1-.21-3.17,0-9.07,4.61-17.05,11.62-21.74,3.23-2.16,6.99-3.55,11.03-4.09l.17-.02c.95-.07,1.69-.81,1.76-1.76,0-.07-.01-.15-.01-.22v-.09c.02-4.19,1.03-8.14,2.8-11.64,4.2-8.33,12.7-14.1,22.6-14.39.25,0,.5-.04.75-.04,3.99,0,7.75.94,11.13,2.54.04.02.07.03.1.05.22.09.45.14.71.14.53,0,1.01-.22,1.36-.57.14-.23.28-.46.43-.69,2.13-3.33,4.95-6.17,8.32-8.24,3.98-2.46,8.66-3.9,13.69-3.9s9.7,1.44,13.69,3.9c3.37,2.08,6.19,4.91,8.32,8.24.15.23.29.45.43.69.35.35.83.57,1.36.57.25,0,.49-.06.71-.14.03-.02.07-.03.1-.05,3.38-1.6,7.14-2.54,11.13-2.54.25,0,.5.03.75.04,9.9.28,18.41,6.06,22.6,14.39,1.77,3.5,2.78,7.45,2.8,11.64v.09c0,.07,0,.14,0,.22.07.95.81,1.69,1.76,1.76l.17.02c4.04.54,7.8,1.92,11.03,4.09,7.01,4.69,11.62,12.68,11.62,21.74,0,1.08-.08,2.13-.21,3.17-.48,3.95-1.88,7.59-3.92,10.79-.18.29-.37.56-.56.84-.07.19-.12.39-.12.6,0,.5.2.94.51,1.28.11.09.23.19.34.28,3.11,2.51,5.66,5.68,7.36,9.35,1.54,3.34,2.43,7.04,2.43,10.96,0,6.38-2.29,12.23-6.09,16.77Z"/>
        </g>
        <path class="cls-1" d="m56.22,178.31c0-67.47,54.7-122.18,122.17-122.18s122.17,54.7,122.17,122.18-54.7,122.18-122.17,122.18-122.17-54.7-122.17-122.18Zm122.17,125.69c69.42,0,125.7-56.28,125.7-125.69s-56.28-125.7-125.7-125.7-125.7,56.28-125.7,125.7,56.28,125.69,125.7,125.69Z"/>
        <path class="cls-1" d="m3.78,178.48C3.78,82,82,3.78,178.48,3.78s174.7,78.22,174.7,174.7-78.22,174.7-174.7,174.7S3.78,274.96,3.78,178.48Zm174.7,178.48c98.57,0,178.48-79.91,178.48-178.48S277.05,0,178.48,0,0,79.91,0,178.48s79.91,178.48,178.48,178.48Z"/>
        <path class="cls-1" d="m49.98,178.41c0-70.96,57.53-128.49,128.49-128.49s128.49,57.53,128.49,128.49-57.53,128.49-128.49,128.49S49.98,249.37,49.98,178.41Zm128.47,129.65c71.61,0,129.67-58.05,129.67-129.67S250.07,48.72,178.46,48.72,48.79,106.78,48.79,178.39s58.05,129.67,129.66,129.67Z"/>
        <path class="cls-1" d="m7.66,178.41C7.66,84.08,84.14,7.6,178.47,7.6s170.82,76.48,170.82,170.82-76.48,170.82-170.82,170.82S7.66,272.75,7.66,178.41Zm170.8,172.01c95.01,0,172.04-77.02,172.04-172.04S273.47,6.35,178.46,6.35,6.42,83.38,6.42,178.39s77.03,172.04,172.03,172.04Z"/>
        <path class="cls-1" d="m324.4,147.23c2.4,0,4.34-1.94,4.34-4.34s-1.94-4.34-4.34-4.34-4.34,1.94-4.34,4.34,1.94,4.34,4.34,4.34Z"/>
        <path class="cls-1" d="m33.21,147.23c2.4,0,4.34-1.94,4.34-4.34s-1.94-4.34-4.34-4.34-4.34,1.94-4.34,4.34,1.94,4.34,4.34,4.34Z"/>
        <path class="cls-1" d="m36.97,174.99c1.92.07,4.96.35,5.63-.9h.13l-.23,6.14c-.21,5.71-5.51,9.08-13.82,8.79-8.22-.3-13.85-4.28-13.64-9.89l.22-6.01h.12c1.37,1.31,3.38,1.23,5.85,1.32l15.74.56Zm-18.54,1.9c-.23.59-.34,1.19-.36,1.82-.14,3.73,3,7.18,10.22,7.44,7.31.26,11.07-2.06,11.22-6.24.03-.75-.11-1.51-.38-2.27l-20.7-.74Z"/>
        <path class="cls-1" d="m32.63,212.57c-8.44,1.18-15.15-2.16-15.84-7.1-.68-4.91,4.62-9.88,13.11-11.06,7.86-1.1,15.01,2.08,15.53,7.32.76,5.21-5.35,9.8-12.8,10.84Zm-1.97-15.38c-5.79.81-11.42,4.1-10.87,7.99.52,3.77,5.45,5.54,11.62,4.68,6.05-.84,11.56-3.96,11.02-7.88-.53-3.84-5.51-5.66-11.76-4.79Z"/>
        <path class="cls-1" d="m27.26,223.8c-2.22.74-3.81,1.24-4.62,2.91l-.12.04-1.4-4.21.12-.04c1.65.85,3.23.32,5.45-.42l15.82-5.27c2.22-.74,3.81-1.27,4.58-2.9l.12-.04,1.15,3.47h-.04c-.44.27-.61.43-.87.7l-.68.6-15.42,14.8,15.03-5c2.22-.74,3.81-1.24,4.58-2.9l.12-.04,1.4,4.19-.12.04c-1.6-.84-3.19-.31-5.41.43l-22.24,7.41c.39-2,1.45-3.18,3.36-4.98l14.53-13.9-15.34,5.11Z"/>
        <path class="cls-1" d="m55.79,247.44l-.03-.07c1.28-1.77.97-3.74.3-5.11-1.71-3.51-6.85-4.33-12.9-1.38-6.05,2.95-9.22,8.06-7.49,11.62.5,1.04,1.26,2.01,2.24,2.78l5.41-2.64c1.73-.84,3.56-1.76,3.74-3.1l.11-.05,1.68,3.45-.11.05c-.51.11-1.11.4-1.67.68l-8.64,4.21c-.56.27-1.18.54-1.64.93-1.44-1.53-2.86-3.01-3.75-4.83-2.81-5.76.79-11.73,8.34-15.41,8.07-3.93,14.99-2.53,17.64,2.92.58,1.19.93,2.47,1.09,3.85l-4.32,2.1Z"/>
        <path class="cls-1" d="m59.03,254.78c1.57-1.1,4.18-2.7,3.96-4.11l.1-.07,3.52,5.03c3.27,4.68,1.06,10.57-5.75,15.32-6.75,4.71-13.64,4.91-16.85.31l-3.45-4.93.1-.07c1.88.21,3.44-1.06,5.46-2.47l12.91-9.01Zm-13.67,12.66c.17.61.45,1.15.81,1.67,2.14,3.06,6.72,3.93,12.64-.21,5.99-4.18,7.6-8.3,5.21-11.73-.43-.61-1-1.14-1.67-1.58l-16.98,11.86Z"/>
        <path class="cls-1" d="m64.27,291.66c-2.52.85-4.66.04-5.86-1.24-1.13-1.21-1.69-3.09-.97-5.31.86-2.62,2.93-4.5,5.13-6.56l8.14-7.63c1.37-1.29,3.72-3.25,3.42-4.72l.09-.09,3.26,3.47-.09.09c-1.43-.37-3.56,1.82-4.93,3.11l-8.13,7.63c-4.05,3.8-4.98,6.6-3.22,8.48.96,1.02,2.64,1.41,4.64.67,1.29-.46,2.04-1.19,3.13-2.22l9.17-8.61c1.37-1.29,3.7-3.26,3.42-4.72l.09-.09,3.26,3.47-.07.1c-1.46-.39-3.58,1.81-4.98,3.12l-11.49,10.78c-1.37,1.29-3.7,3.27-3.4,4.74l-.09.09-2.52-2.69,2.01-1.88Z"/>
        <path class="cls-1" d="m85.41,285.73c1.18-1.46,3.22-3.74,2.73-5.16l.08-.1,3.74,3.02-.08.1c-1.47-.22-3.3,2.28-4.48,3.74l-9.91,12.25c-1.21,1.49-3.24,3.77-2.75,5.19l-.08.1-3.74-3.03.08-.1c1.49.19,3.32-2.31,4.5-3.77l9.91-12.25Zm4.74,3.94c1.88-1.01,4.68-2.08,4.16-4.11l.08-.1,3.51,2.83-.03.03-12.23,5.96-3.03,11.79c-.47,1.82-.47,3.33-.13,4.94l-.08.1-1.83-1.48c-.96-.77-1.35-2.11-1.07-3.18l3.53-13.21,7.12-3.59Z"/>
        <path class="cls-1" d="m104.56,325.95c-.86-3.48-1.19-3.31-.08-7.55l4-15.18c.59-2.27,1.42-4.88.9-6.7l.06-.11,3.3,1.58c-.49.79-.82,2.06-1.03,2.84l-5.03,19.13,9.51-13.05c1.53-2.09,3.16-4.33,2.42-5.98l.05-.11,3.19,1.53c-.59.88-1.01,2.16-1.49,3.97l-4.68,17.82,9.17-12.56c1.44-1.95,3.65-4.65,2.37-6.51l.05-.11,3.48,1.67-17.2,23.63c-.94-3.37-1.19-3.26-.08-7.5l3.73-14.15-12.65,17.34Z"/>
        <path class="cls-1" d="m147.47,325.35c-2.32,8.2-8.08,13-12.88,11.65-4.78-1.35-7.19-8.19-4.86-16.43,2.16-7.64,7.95-12.91,12.96-11.28,5.08,1.39,6.83,8.83,4.78,16.06Zm-14.89-4.37c-1.59,5.63-.84,12.09,2.95,13.16,3.67,1.03,7.27-2.77,8.96-8.76,1.66-5.87,1.02-12.17-2.79-13.24-3.74-1.05-7.4,2.78-9.12,8.84Z"/>
        <path class="cls-1" d="m169.28,317.38c.29-.85.55-1.66.64-2.53v-.04s4.31.44,4.31.44v.13c-.64.23-.94,1.41-1.04,2.37l-.47,20.57c-.05,1.97-.04,3.1.83,4.37v.13s-4.82-.5-4.82-.5v-.13c.93-.37,1.21-1.6,1.36-3.01l.65-20.18-8.05,23.23c-1.08-1.71-1.31-2.87-1.67-5.26l-2.79-19.23-3.27,17.72c-.46,2.51-.83,4.32.26,5.32v.13s-4.07-.42-4.07-.42v-.13c1.22-1.43,1.58-3.45,2.01-5.67l3.22-17.26c.22-1.15.67-2.79-.37-3.94v-.13s4.37.45,4.37.45v.04c-.08.66.06,1.31.15,1.91l2.79,18.81,5.96-17.19Z"/>
        <path class="cls-1" d="m184.84,338.93l3.2.35c1.67.18,3.35-.78,4.52-2.67h.07s-.88,5.51-.88,5.51l-10.43.48v-.12c1.23-.81.94-3.89.86-5.77l-.72-15.74c-.09-1.92-.08-4.97-1.39-5.71v-.12s8-.37,8-.37c.43-.02.86.05,1.17-.26h.08l.22,4.88h-.08c-.85-1.47-1.88-1.58-3.03-1.53-.88.04-1.75.12-2.54.41l.36,7.76,2.98-.14c.4-.02.8-.03,1.09-.3h.07s.2,4.42.2,4.42h-.08c-.45-1.19-1.51-1.1-2.28-1.06l-1.85.08.45,9.89Z"/>
        <path class="cls-1" d="m202.24,335.46c.42,2.31.69,3.95,2.23,4.99l.02.12-4.36.79-.02-.12c1.08-1.51.78-3.16.36-5.46l-2.97-16.41c-.42-2.3-.71-3.95-2.22-4.95l-.02-.12,3.6-.65v.04c.2.48.33.66.57.96l.49.76,12.46,17.37-2.82-15.59c-.41-2.3-.69-3.95-2.22-4.95l-.03-.12,4.34-.79.02.12c-1.06,1.47-.76,3.11-.34,5.41l4.17,23.08c-1.93-.67-2.94-1.89-4.45-4.04l-11.69-16.36,2.88,15.92Z"/>
        <path class="cls-1" d="m216.39,309.81l1.11-.32,2.33,8.07-1.11.32-2.33-8.07Z"/>
        <path class="cls-1" d="m233.77,309.07c-1.51-1.21-3.31-1.55-4.62-1.05-1.33.51-2.69,2.02-1.66,4.71,2.05,5.34,10.07,2.18,12.84,9.39,1.6,4.17.47,9.08-3.18,10.48-1.43.55-2.99.74-4.64.43l-2.55-4.61c2.15,1.46,4.54,1.97,6.37,1.27,1.33-.51,2.84-2.61,1.79-5.34-2.33-6.09-9.97-1.9-13.14-10.17-1.89-4.91.42-7.94,3.27-9.04,1.17-.45,2.47-.64,3.82-.48l1.69,4.41Z"/>
        <path class="cls-1" d="m269.3,312.24c.37,2.64-.82,4.59-2.3,5.53-1.39.89-3.34,1.09-5.4-.02-2.42-1.33-3.89-3.71-5.51-6.25l-6-9.4c-1.01-1.59-2.5-4.25-4.01-4.23l-.07-.11,4.01-2.56.07.1c-.63,1.35,1.14,3.83,2.15,5.42l6,9.4c2.99,4.68,5.57,6.11,7.74,4.72,1.19-.76,1.87-2.33,1.51-4.44-.21-1.35-.79-2.22-1.6-3.48l-6.76-10.6c-1.01-1.59-2.53-4.24-4.01-4.23l-.07-.11,4.02-2.56.09.09c-.65,1.36,1.12,3.85,2.15,5.46l8.48,13.27c1.01,1.58,2.52,4.23,4.03,4.22l.07.11-3.11,1.98-1.48-2.32Z"/>
        <path class="cls-1" d="m279.34,301.52c1.54,1.77,2.61,3.04,4.46,3.15l.08.1-3.35,2.9-.08-.09c.15-1.85-.94-3.11-2.48-4.87l-10.93-12.58c-1.53-1.77-2.63-3.03-4.44-3.12l-.08-.09,2.76-2.4.03.03c.41.31.62.41.97.54l.81.4,19.58,8.56-10.38-11.95c-1.53-1.77-2.61-3.05-4.44-3.12l-.08-.1,3.33-2.89.08.09c-.16,1.8.94,3.06,2.47,4.83l15.37,17.69c-2,.41-3.49-.12-5.88-1.2l-18.4-8.09,10.6,12.21Z"/>
        <path class="cls-1" d="m283.05,275.91c-1.41-1.3-3.54-3.5-4.99-3.1l-.09-.09,3.23-3.5.09.09c-.27,1.46,2.11,3.44,3.49,4.72l11.58,10.68c1.38,1.27,3.52,3.45,4.95,3.07l.09.09-3.23,3.5-.09-.08c.3-1.43-2.08-3.42-3.46-4.69l-11.58-10.68Z"/>
        <path class="cls-1" d="m296.47,262.2c-1.97-2.32-4.19-5.06-5.96-4.45l-.1-.07,2.24-2.99,19,22.56c-2.59.25-3.2.51-6.28-.89l-15.94-7.24c-1.99-.9-4.15-2.06-5.95-2.03l-.1-.08,2.2-2.92.39.32c.73.55,2.66,1.4,3.51,1.79l16.92,7.74-9.94-11.74Z"/>
        <path class="cls-1" d="m317.42,260.07l2.02-2.51c1.04-1.31,1.14-3.25.17-5.25l.04-.06,4.18,3.71-5.21,9.06-.11-.06c-.02-1.48-2.77-2.89-4.4-3.83l-13.65-7.85c-1.67-.96-4.24-2.61-5.56-1.9l-.11-.06,4-6.96c.21-.37.5-.69.41-1.12l.04-.07,4.24,2.44-.04.07c-1.69-.08-2.35.73-2.92,1.73-.44.76-.84,1.54-1.02,2.36l6.74,3.88,1.49-2.59c.2-.35.4-.7.33-1.08l.04-.07,3.84,2.21-.04.07c-1.25-.26-1.74.68-2.13,1.35l-.92,1.61,8.58,4.94Z"/>
        <path class="cls-1" d="m304.42,232.54c1.33-3.08,4.74-3.61,8.23-2.11,3.38,1.45,5.27,4.37,5.18,6.57l8.38-.33c2.41-.11,5.03-.7,6.98-1.42l-.91,2.12c-.53,1.22-1.35,1.77-3.07,1.85l-7.01.32-6.33-.21c.33-2.04-.16-4.79-3.77-6.35-2.76-1.19-4.99-.45-5.54,1.14-.19.54-.29,1.1-.37,1.7l17.2,7.39c1.77.76,4.51,2.1,5.71,1.22l.12.05-1.89,4.4-.11-.05c-.19-1.47-3.1-2.53-4.82-3.27l-14.48-6.22c-1.77-.76-4.5-2.12-5.73-1.26l-.12-.05,2.36-5.48Z"/>
        <path class="cls-1" d="m315.9,214.78c-1.88.46-3.24,1.68-3.64,3.02-.41,1.37-.04,3.36,2.72,4.18,5.49,1.64,7.86-6.65,15.27-4.44,4.28,1.28,7.49,5.16,6.37,8.91-.44,1.47-1.23,2.82-2.48,3.94l-5.21-.79c2.46-.81,4.33-2.4,4.89-4.27.41-1.37-.34-3.84-3.14-4.68-6.25-1.86-7.58,6.74-16.07,4.21-5.04-1.5-6.04-5.18-5.17-8.11.36-1.2,1-2.34,1.94-3.32l4.52,1.35Z"/>
        <path class="cls-1" d="m318.52,207.51c-1.88-.37-4.84-1.14-5.87-.05l-.12-.02.93-4.67.12.02c.53,1.38,3.6,1.84,5.44,2.21l15.44,3.07c1.84.37,4.8,1.11,5.83.04l.12.03-.93,4.67-.12-.03c-.49-1.37-3.56-1.83-5.4-2.2l-15.44-3.08Z"/>
        <path class="cls-1" d="m336.89,193.31c2.37.14,4,.25,5.37-1h.12s-.28,4.96-.28,4.96h-.13c-.72-1.3-3.77-1.33-5.65-1.43l-18.6-1.06-.13,2.2c-.06,1.08.34,2.23,1.5,3.08v.07s-4.92-1.16-4.92-1.16v-.08c.23-.29.25-.61.35-.93l.03-.63.53-9.34c.02-.42,0-.83-.23-1.17v-.08s4.92,1.08,4.92,1.08v.07c-1.48.24-1.75,1.23-1.8,2.06l-.13,2.25,19.02,1.08Z"/>
        <path class="cls-1" d="m337.09,175.23c2.5-.19,3.75-.28,5.2-1.67h.12s.37,4.87.37,4.87h-.13c-1.13-1.14-3.83-.76-5.79-.61l-6.17.46-10.81,4.98c-1.78.81-3.12,1.41-4.11,2.7l-.17-2.27c-.06-.8.18-1.57,1.03-1.96l10.58-4.81-7.99-2.52c-1.07-.34-3.12-.77-4.14.71h-.13s-.33-4.36-.33-4.36l15.88,4.99,6.59-.49Z"/>
      </g>
      <g>
        <path class="cls-1" d="m51.93,113.02c-2.43-1.36-3.31-4.43-1.95-6.86,1.36-2.43,4.43-3.31,6.86-1.95,2.43,1.36,3.31,4.43,1.95,6.86-1.36,2.44-4.43,3.31-6.86,1.95Zm-.19-18.79l-.61,1.1-3.24-1.81c-1.68-.94-3.8-.33-4.74,1.35l-7.22,12.99-2.43-1.35,9.67-17.37-4.28-2.38-12.35,22.17,7.95,4.42c1.68.94,3.8.33,4.74-1.35l7.16-12.87,1.99,1.11-9.58,17.21,4.29,2.39,2.94-5.27c.85,1.19,1.98,2.22,3.34,2.98,4.95,2.76,11.2.98,13.96-3.97,2.76-4.95.98-11.2-3.97-13.96-1.37-.76-2.83-1.17-4.29-1.27l.97-1.74c.66-1.19.23-2.68-.95-3.34-1.18-.66-2.68-.23-3.34.95Z"/>
        <path class="cls-1" d="m71.4,67.24l-3.47-3.96,5.38-4.71h0s-3.23-3.68-3.23-3.68h0s-9.51,8.34-9.51,8.34l7.02,8.02c1.6,1.83,4.39,2.01,6.21.41l10.31-9.04-3.23-3.68-9.48,8.31Z"/>
        <path class="cls-1" d="m76.82,46.44c-1.16,1.01-1.27,2.77-.26,3.92l.67.77-3.95,3.46,3.23,3.68,3.95-3.46,6.54,7.47,4.18-3.66-10.44-11.92c-1.01-1.16-2.77-1.27-3.92-.26Z"/>
        <path class="cls-1" d="m176.36,27.36c-1.16-.85-1.87-2.13-2.12-3.78v-4.94h6.84v-4.9h-18.69v4.9h6.28v4.83h-.02s0,2.29-1.66,3.79c-1.21,1.09-2.99,1.52-5.28,1.27v4.91c.35.11,5.39,1.5,9.71-3.2h0s3.35,4.48,10.34,3.13v-4.84c-.43.06-3.33.37-5.41-1.17Z"/>
        <path class="cls-1" d="m192.03,15.25h-3.94v-.49c0-1.54-1.25-2.78-2.78-2.78s-2.78,1.25-2.78,2.78v30.29h5.56v-24.91h3.94v-4.89Z"/>
        <path class="cls-1" d="m246.31,26.61c-1.42-.6-3.05.07-3.64,1.49l-.2.47-2.36-.99.19-.45c.6-1.42-.07-3.05-1.49-3.64-1.42-.59-3.05.07-3.64,1.49l-5.35,12.74-8.27-3.47,3.86-9.19,6.22,2.62,1.9-4.51-11.31-4.75-5.9,14.02c-.97,2.31.12,4.98,2.43,5.95l9.17,3.85-4.49,10.68,5.13,2.15,9.63-22.92,2.36.99-9.63,22.91,5.13,2.15,11.74-27.93c.6-1.42-.07-3.05-1.49-3.64Z"/>
        <path class="cls-1" d="m295.57,64.33l-2.59-2.3.34-.38c1.02-1.15.92-2.91-.23-3.93-1.15-1.02-2.91-.92-3.93.23l-11.16,12.55,4.15,3.7,7.58-8.52,2.59,2.3,3.25-3.66Z"/>
        <path class="cls-1" d="m93.81,61.6c-1.08-1.23-2.95-1.35-4.18-.27l-17.42,15.27,3.23,3.68,15.46-13.55,5.47,6.24,4.18-3.66-6.74-7.7Z"/>
        <path class="cls-1" d="m278.66,72.34c1.59,1.42,1.73,3.85.32,5.44l-5.79,6.51-4.15-3.7,5.1-5.73-15.6-13.88,3.25-3.66,16.87,15.01Z"/>
        <path class="cls-1" d="m127.41,19.82c-1.44.53-2.18,2.13-1.65,3.57l.54,1.48-3.37,1.24c-2.66-1.3-5.83-1.55-8.84-.45-5.84,2.15-8.84,8.63-6.69,14.48,2.15,5.84,8.63,8.84,14.48,6.69,3.21-1.18,5.55-3.67,6.66-6.64l2.98-1.1,4.68,12.73,5.22-1.92-10.46-28.43c-.53-1.44-2.13-2.18-3.57-1.65Zm-3.34,16.81c-.15,2.33-1.64,4.47-3.97,5.33-3.16,1.16-6.65-.46-7.82-3.61-1.16-3.16.46-6.65,3.61-7.82,2.17-.8,4.5-.28,6.12,1.14l5.98-2.2,1.85,5.04-5.78,2.13Z"/>
        <path class="cls-1" d="m284.25,52.73l-5.66,6.36c-1.49,1.68-4.06,1.83-5.74.34-1.68-1.49-1.83-4.06-.34-5.74,1.49-1.68,4.06-1.83,5.74-.34l1.17,1.05c.6.54,1.53.48,2.06-.12l2.2-2.48c1.02-1.15.92-2.91-.23-3.93-1.15-1.02-2.91-.92-3.93.23l-.58.65-6.17-5.49-3.25,3.66,1.36,1.21c-.8.48-1.54,1.08-2.19,1.82-3.46,3.89-3.11,9.84.78,13.3,3.89,3.46,9.84,3.11,13.3-.78l5.49-6.17-4.02-3.57Z"/>
        <path class="cls-1" d="m307.78,120.48l-.19-.33,17.74-10.13c1.77-1.01,2.38-3.26,1.37-5.03l-10.5-18.36-4.25,2.43,9.56,16.72-16.69,9.54-1.79-3.14,10.12-5.79c1.33-.76,1.8-2.46,1.03-3.79-.76-1.33-2.46-1.8-3.79-1.03l-10.12,5.79-.98-1.71,10.12-5.79c1.33-.76,1.8-2.46,1.03-3.79-.76-1.33-2.46-1.8-3.79-1.03l-10.12,5.79-2.13-3.73-4.26,2.44,13.37,23.39c.67,1.18,2.17,1.58,3.35.91,1.18-.67,1.58-2.17.91-3.35Z"/>
      </g>
    </g>
  </g>
</svg>