<svg width="24" height="24" viewBox="0 0 24 24" fill="none" xmlns="http://www.w3.org/2000/svg">
<circle cx="12" cy="12" r="12" fill="url(#paint0_linear_7193_20553)"/>
<path d="M7.22859 16.1172C6.63094 16.1172 6.09578 16.0156 5.62313 15.8125C5.15047 15.6094 4.77938 15.3262 4.50984 14.9629C4.24031 14.5957 4.09969 14.1758 4.08797 13.7031H5.62313C5.63875 13.9258 5.71688 14.123 5.8575 14.2949C6.00203 14.4629 6.19344 14.5938 6.43172 14.6875C6.67 14.7812 6.93563 14.8281 7.22859 14.8281C7.53719 14.8281 7.81258 14.7754 8.05477 14.6699C8.30086 14.5605 8.49227 14.4102 8.62898 14.2188C8.7657 14.0273 8.83406 13.8086 8.83406 13.5625C8.83406 13.3086 8.76375 13.082 8.62313 12.8828C8.4825 12.6836 8.27938 12.5293 8.01375 12.4199C7.74813 12.3066 7.43563 12.25 7.07625 12.25H6.31453V11.0781H7.07625C7.37313 11.0781 7.6368 11.0273 7.86727 10.9258C8.10164 10.8203 8.28328 10.6738 8.41219 10.4863C8.54109 10.2949 8.60359 10.0781 8.59969 9.83594C8.60359 9.60156 8.54891 9.39453 8.43563 9.21484C8.32625 9.03125 8.16805 8.89062 7.96102 8.79297C7.75398 8.69141 7.51375 8.64062 7.24031 8.64062C6.97469 8.64062 6.72664 8.68945 6.49617 8.78711C6.26961 8.88086 6.08602 9.01562 5.94539 9.19141C5.80867 9.36719 5.73641 9.57031 5.72859 9.80078H4.26375C4.27547 9.33203 4.41219 8.91602 4.67391 8.55273C4.93953 8.18945 5.29695 7.90625 5.74617 7.70312C6.1993 7.5 6.70125 7.39844 7.25203 7.39844C7.81063 7.39844 8.30477 7.50391 8.73445 7.71484C9.16414 7.92188 9.49617 8.20508 9.73055 8.56445C9.96492 8.92383 10.0802 9.32031 10.0763 9.75391C10.0802 10.0664 10.0177 10.3496 9.88875 10.6035C9.75984 10.8574 9.5782 11.0684 9.34383 11.2363C9.10945 11.4043 8.83797 11.5195 8.52938 11.582V11.6523C8.92391 11.707 9.2618 11.8242 9.54305 12.0039C9.8243 12.1797 10.0372 12.4082 10.1817 12.6895C10.3263 12.9707 10.3966 13.2891 10.3927 13.6445C10.3966 14.1133 10.2618 14.5371 9.98836 14.916C9.71883 15.291 9.34188 15.5859 8.8575 15.8008C8.37703 16.0117 7.83406 16.1172 7.22859 16.1172ZM19.3847 17.043H18.0722V6.44922H19.3847V17.043ZM16.2206 7.57422C16.2206 9.25781 15.8398 10.7363 15.078 12.0098C14.3163 13.2793 13.0527 14.332 11.287 15.168L10.6073 14.125C11.9706 13.4766 12.996 12.7012 13.6835 11.7988C14.3749 10.8926 14.7792 9.82812 14.8964 8.60547H11.1464V7.57422H16.2206Z" fill="white"/>
<defs>
<linearGradient id="paint0_linear_7193_20553" x1="12" y1="-1.07689e-08" x2="12" y2="28.2085" gradientUnits="userSpaceOnUse">
<stop stop-color="#FFD84F"/>
<stop offset="0.225869" stop-color="#FFC554"/>
<stop offset="0.6" stop-color="#FFCE50"/>
<stop offset="1" stop-color="#FFF6A8"/>
</linearGradient>
</defs>
</svg>
