<svg width="24" height="24" viewBox="0 0 24 24" fill="none" xmlns="http://www.w3.org/2000/svg">
<path d="M12 15.7933C17.5228 15.7933 22 14.0951 22 12.0002C22 9.90527 17.5228 8.20703 12 8.20703C6.47715 8.20703 2 9.90527 2 12.0002C2 14.0951 6.47715 15.7933 12 15.7933Z" stroke="#61DAFB"/>
<path d="M8.69335 13.8966C11.4548 18.6481 15.1738 21.6509 17 20.6034C18.8262 19.556 18.0681 14.855 15.3066 10.1034C12.5452 5.35189 8.82621 2.34912 7 3.39657C5.17379 4.44401 5.93193 9.14502 8.69335 13.8966Z" stroke="#61DAFB"/>
<path d="M8.69384 10.1033C5.93242 14.8548 5.17428 19.5558 7.00049 20.6033C8.8267 21.6507 12.5457 18.6479 15.3071 13.8964C18.0686 9.14486 18.8267 4.44385 17.0005 3.3964C15.1743 2.34896 11.4553 5.35173 8.69384 10.1033Z" stroke="#61DAFB"/>
<path d="M12.0008 13.8513C13.0301 13.8513 13.8645 13.0224 13.8645 11.9998C13.8645 10.9773 13.0301 10.1484 12.0008 10.1484C10.9716 10.1484 10.1372 10.9773 10.1372 11.9998C10.1372 13.0224 10.9716 13.8513 12.0008 13.8513Z" fill="#61DAFB"/>
</svg>
