<?xml version="1.0" encoding="UTF-8"?>
<svg id="Layer_2" data-name="Layer 2" xmlns="http://www.w3.org/2000/svg" viewBox="0 0 368.73 368.73">
  <defs>
    <style>
      .cls-1 {
        fill: #fff;
      }

      .cls-1, .cls-2 {
        stroke-width: 0px;
      }

      .cls-2 {
        fill: #002970;
      }
    </style>
  </defs>
  <g id="_레이어_1" data-name="레이어 1">
    <g>
      <g>
        <g>
          <g>
            <polygon class="cls-2" points="100.41 168.51 100.41 165.78 96.1 165.78 96.1 168.51 90.48 168.51 90.48 172.09 106.17 172.09 106.17 168.51 100.41 168.51"/>
            <path class="cls-2" d="m88.33,172.09v-3.59h-6.02v-2.72h-4.31v2.72h-6.02v15.11h-1.45v3.59h1.45v15.74h4.31v-15.74h1.71v15.74h4.31v-15.74h1.71v15.74h4.31v-15.74h1.45v-3.59h-1.45v-11.52Zm-12.03,11.52v-11.52h1.71v11.52h-1.71Zm6.02,0v-11.52h1.71v11.52h-1.71Z"/>
            <polygon class="cls-2" points="101.72 176.2 94.79 176.2 90.8 176.2 90.48 176.2 90.48 202.95 94.79 202.95 94.79 179.79 101.72 179.79 101.72 202.95 106.02 202.95 106.02 176.2 104.81 176.2 101.72 176.2"/>
          </g>
          <polygon class="cls-2" points="284.41 168.51 284.41 165.78 280.1 165.78 280.1 168.51 266.32 168.51 266.32 202.95 270.62 202.95 270.62 172.09 275.5 172.09 275.5 202.95 279.81 202.95 279.81 172.09 284.69 172.09 284.69 202.95 289 202.95 289 172.09 293.88 172.09 293.88 202.95 298.19 202.95 298.19 168.51 284.41 168.51"/>
        </g>
        <g>
          <path class="cls-2" d="m55.78,184.37c0,70.89,57.69,128.57,128.59,128.57s128.57-57.68,128.57-128.57S255.26,55.79,184.37,55.79,55.78,113.48,55.78,184.37m-55.78,0C0,82.56,82.54,0,184.37,0s184.36,82.56,184.36,184.37-82.54,184.35-184.36,184.35S0,286.2,0,184.37"/>
          <g>
            <g>
              <path class="cls-2" d="m142.79,134.48c.33.39,5.25,8.4,9.18,16.77,3.93,8.37,3.81,9.78,5.94,14.99,2.13,5.22,4.04,18.29,4.04,18.29,1.92.74,4.41,6.94,4.41,6.94,0-2.24-1.34-12.13-3.15-19.09-1.79-6.98-6.63-17.98-7.73-20.55-1.1-2.57-5.76-10.77-8.8-15.57-3.04-4.76-5.48-7.03-5.48-7.03l.71,3.74s.56,1.1.88,1.51Z"/>
              <path class="cls-2" d="m135.05,128.67c2.83,3.66,10.17,16.54,10.17,16.54,2.66,4.23,6.38,14.7,7.92,19.29,2.05,6.08,3.38,13.96,3.38,13.96,2.07,2.18,4.36,9.7,4.36,9.7.07-3.92-.9-8.81-2.22-14.63-1.32-5.84-4.37-13.14-6.39-18.2-2.02-5.05-8.14-15.88-9.02-17.6-.88-1.73-7.08-11.28-10.24-15.16-3.14-3.89-5.05-5.52-5.05-5.52l2.15,4.86s2.12,3.1,4.94,6.77Z"/>
              <path class="cls-2" d="m121.61,120.86c2.28,3.26,8.37,12.47,10.6,16.03,2.24,3.56,8.12,13.06,8.67,14.07.55.96,4.22,8.57,5.89,12.68,1.7,4.11,3.61,12.14,3.61,12.14,2.02,1.06,4.26,8.42,4.26,8.42.52-.59.58-5.52.58-5.52-.69-5.96-3.66-14.23-6.28-21.69-2.6-7.43-7.84-15.66-9.6-19.06-1.76-3.43-7.5-10.94-13.36-18.47-5.87-7.52-11.51-11.59-11.51-11.43,0,.14,4.34,8.84,4.34,8.84,0,0,.53.71,2.8,3.99Z"/>
              <path class="cls-2" d="m150.08,194.9c-.11-.79-1.88-6.01-3.59-10.66-1.74-4.68-5.61-10.23-5.58-10.09.03.13-.63,8.29-.63,8.29.66,1.55,3.52,8.74,3.52,8.74,4.4,1.53,6.28,3.72,6.28,3.72Z"/>
              <path class="cls-2" d="m134.05,173.04s.33,11.67.44,11.81c.12.15,2.52,2.75,3.12,3.41.58.66,4.58,2.88,4.58,2.88-.36-2.06-2.6-7-3.34-8.68-.74-1.69-4.8-9.43-4.8-9.43Z"/>
              <path class="cls-2" d="m112.36,147.85s1.43,1.47,1.68,1.69c.26.21,5.98,6.19,7.22,7.9,1.25,1.74,5.33,7.98,6.04,9.82.7,1.77,3.33,6.47,5.65,14.05l-.41-9.74s-4.47-9.8-5.87-12.18c-1.4-2.4-9.25-15.42-10.31-16.74,0,0-12.64-17.33-14.89-18.6,0,0,5.68,10.39,6.06,10.97.37.6,4.21,10.15,4.83,12.83Z"/>
              <path class="cls-2" d="m112.72,134.77c.41.53,8.04,11.67,12.22,18.57,4.18,6.91,8.77,17.04,8.77,17.04,1.58,0,5.48,9.47,5.48,9.47l.72-6.51c-.41-1.26-4.21-12.56-5.94-16.42-1.71-3.85-7.6-14.01-8.25-15.37-.66-1.36-8.29-12.73-8.91-13.5-.63-.78-9.98-13.04-10.94-14.09-.94-1.06-5.39-5.59-5.39-5.59,0,0,4.22,9.59,4.69,10.64.48,1.07,7.15,15.23,7.55,15.75Z"/>
              <path class="cls-2" d="m106.27,111.66c.22.59.48,1.17.48,1.17,0,0,2.32,2.53,2.45,2.76.14.22,3.69,4.54,4.18,5.21.51.66,7.6,10.48,7.82,10.8.22.27,7.24,11.59,7.37,11.84.16.26,5.88,10.9,6.65,12.73.77,1.82,3.09,5.72,6.35,16.09,0,0,1.39,1.54,2.99,4.33,1.55,2.75,3.34,7.01,3.34,7.01,0,0,1.12-6.09,1.16-6.46.04-.37-.2-1.86-.48-3.04-.3-1.19-3.96-13.28-7.64-19.88-3.67-6.6-9.94-16.75-11.4-18.81-1.46-2.05-7.41-10.84-7.6-11.18-.19-.33-3.45-5.1-4.01-5.83-.54-.75-13.16-14.97-14.83-15.96,0,0-.36-.29-.02.54.32.85,2.95,8.08,3.18,8.68Z"/>
              <path class="cls-2" d="m165.72,210.98c-.13-.03,0,0,0,0h0Z"/>
              <path class="cls-2" d="m213.11,226.83c22.41-2.05,24.19-12.22,24.19-12.22,0,0-5.32,3.63-13.13,5.72-8.02,2.15-16.65,1.44-16.65,1.44-.72.26-1.54.61-1.54.61,0,0,.8,2.71.98,3.81.17.07,2.69.96,6.14.64Z"/>
              <path class="cls-2" d="m241.11,207.71l-2.41,1.26s-3.96,1.97-6.13,2.95c-2.08.93-12.13,4.81-18.21,3.98,0,0-1.19,2.31-6.15,1.13,0,0,.53,2.13,0,3.3,0,0,1.73.16,4.14.16s5.4-.16,8.15-.75c5.53-1.2,17.18-4.68,20.62-12.04Z"/>
              <path class="cls-2" d="m244.81,195.18s-4.26,2.56-7.34,3.54c-3.08.98-8.12,2.2-10.08,2.6-3.26.67-9.57.73-10.9.44,0,0-.52,1.15-2.41,1.36,0,0,1.69,1.49,1.96,3.77,0,0,6.15.76,15.66-2.09,3.2-.95,9.66-3.91,11.22-5.77,1-1.18,1.9-3.85,1.9-3.85Z"/>
              <path class="cls-2" d="m208.9,148.47c.28-.17,3.58-2.78,4.44-3.58.85-.81,3.27-3.24,4.15-5.14.87-1.89-.05-2.97-.46-3.36-.41-.4-.95-.44-.95-.44-.15.46-4.52,3.8-4.52,3.8,0,0-.13.26-.13.38s-.59,2.5-.79,3.26c-.2.74-1.73,5.07-1.73,5.07Z"/>
              <path class="cls-2" d="m248.91,187.96c-.99.33-2.3,1.22-2.49,1.33,0,0-5.16,2.86-7.18,3.67-2.02.8-7.74,2.79-9.83,3.22-2.1.43-8.58,1.05-12.19.54,0,0,1.28,2.3-.2,4.23,0,0,5.78.28,10.72-.88,4.96-1.11,11.08-2.44,16.62-6.15,0,0,5.54-6.29,4.56-5.96Z"/>
              <path class="cls-2" d="m251.84,181.83c-.22.12-1.71.85-2.08,1.03-9.05,4.19-11.66,4.26-17.09,5.63-4.29,1.08-12.91,1.77-12.91,1.77.22,3.59-2.54,5.24-2.54,5.24.34.7,8.3-.37,9.51-.5,1.21-.15,7.55-1.73,8.32-1.98.77-.26,4.44-1.36,7.53-2.98,3.56-1.88,6.99-3.96,7.47-4.35.47-.4,2.03-3.96,1.8-3.85Z"/>
              <path class="cls-2" d="m237.24,174.36c-8.47,2.39-9.49,2.52-16.94,3.19,0,0-.03,2.16-1.85,3.2l.81.91s5.4.12,13.16-1.36c4.47-.85,12.77-2.71,16.68-5.01,3.93-2.33,7.63-5.31,10.8-11.61,0,0-4.35,1.02-4.54,1.12,0,0-7.88,6.67-18.12,9.57Z"/>
              <path class="cls-2" d="m259.62,150.55s-2.93,3.82-3.77,4.59c-.84.78-4.19,4.92-12,9.1-7.81,4.19-16.55,6.52-16.8,6.52s-1.72.52-5.55,1.44l-2.94.76s1.9,1.72,1.6,3.5c0,0,6.9-.26,15.86-3.12,3.24-1.04,8.79-3.46,12.13-5.4,3.34-1.95,11.12-6.75,14.34-12.44,3.23-5.7,4.04-7.11,4.32-8.52.3-1.38-6.82,3.42-7.19,3.57Z"/>
              <path class="cls-2" d="m254.63,154.24c4.64-5.72,8.78-12.15,9.95-15.83,1.18-3.74,3.39-9.16,3.67-16.01,0,0-7.12,8.58-7.45,9.06-.33.47-3.44,6.54-4.65,8.25,0,0-4.77,6.89-7.37,9.42-2.61,2.53-6.65,5.97-10.66,9-5.47,4.14-15.3,7.92-19.45,8.68,0,0,.75,2.18-.57,5.09,0,0,10.36-3.12,16.3-5.17,5.94-2.06,15.64-6.76,20.24-12.49Z"/>
              <path class="cls-2" d="m259.13,116.48c-1.87,5.6-4.34,9.86-5.51,12.06-1.19,2.18-5.22,7.92-7.6,10.82-2.38,2.87-10.46,9.54-10.46,9.54-9.09,7.57-15.33,10.44-15.33,10.44.41,4.71-1.67,6.22-1.67,6.22.01.02.04.02.06.02.55,0,5.35-1.73,10.92-4.3,5.76-2.63,12.99-8.34,14.75-10.01,1.76-1.68,7.44-7.98,9.07-10.06,1.6-2.05,5.42-9.12,5.93-10.18.52-1.06,2.43-5.43,4.41-10.79,3.12-8.45,2.63-20.1,2.56-19.74-.07.36-4.81,7.22-4.85,7.34-.04.1-.41,3.02-2.29,8.63Z"/>
              <path class="cls-2" d="m246.17,119.09c-1.91,3.43-3.09,5.6-4.22,7.35-1.14,1.76-6.03,8.37-9.8,11.27-3.77,2.9-7.37,5.59-13.39,8.06v.04s3.9,3.42-.9,9.48c0,0,1.27.83,1.64,2.08,0,.07.06.1.17.1,1.8,0,17.19-11.29,19.74-13.57,2.72-2.39,9.51-8.75,13.32-16.49,3.82-7.75,5.91-14.32,6.68-17.66.76-3.33,2.87-12.24,3.3-20.24,0,0-9.5,8.2-9.5,8.31s-1.82,7.68-2.09,8.57c-.25.87-3.05,9.3-4.95,12.71Z"/>
              <path class="cls-2" d="m233.15,123.19c-3.18,6.71-9.21,13.03-10.09,13.91-.87.87-4.05,3.13-4.05,3.13-.45,1.45-3.66,4.42-3.66,4.42,0,0,.05.02.14.02.59,0,2.72-.49,2.72-.49,13.35-5.5,19.35-14.3,20.37-15.69,1.02-1.4,4.25-5.84,7.56-12.54,3.3-6.66,5.42-16.83,5.53-17.44.11-.63,1.85-10.1,1.33-8.18-.53,1.9-3.08,5.02-5.17,7.78-2.1,2.74-9.16,10.72-9.16,10.72-1.14,4.26-2.32,7.63-5.52,14.34Z"/>
              <path class="cls-2" d="m225.83,118.67c-.43,2.04-.83,4.69-2.86,8.37-2.01,3.65-2.76,4.81-4.92,7.41,0,0,1.84.44,1.7,3.45,0,0,5.06-5.07,6.06-6.36.98-1.27,6.08-7.84,8.57-14.71,2.49-6.86,4.03-12.88,4.55-18.35,0,0-3.9,4.81-6.48,7.98l-6.64,8.3s.41,1.97.02,3.9Z"/>
              <path class="cls-2" d="m150.31,139.52l.04.22.06.32s0,.01.02.03c.47.63,7.73,10.53,12.57,26.97,0,.02,0,.03.01.04.96,3.27,1.83,6.79,2.52,10.55.63,3.37,1.11,6.93,1.41,10.66.05.56.09,1.13.13,1.7.06.99.11,1.99.15,3,0,.01,0,.02.01.03,2.61,7.4,1.87,15.17,1.85,15.23,1.22.28,2.34.48,3.38.6,7.54.87,10.29-2.16,10.46-2.36h0c-.07.06-7.3.8-9.33-12.63h0c-.83-2.87-1.66-6.33-2.49-10.53-2.24-11.41-6.04-21.11-9.81-28.67-5.38-10.77-10.71-17.2-11.43-18.04,0,0-.01-.01-.02-.02-.04-.05-.07-.08-.07-.08v.02s.53,2.97.53,2.97Z"/>
              <path class="cls-2" d="m167.22,193.02s0-.01,0-.01h0c-.6-1.69,0,.01,0,.01Z"/>
              <path class="cls-2" d="m161.86,185.52c-.12.19.01,4.52.01,4.52,2.81,8.18,2.34,15.87,2.24,17.14,1.18.23,2.41.5,3.71.79.77-15.07-5.96-22.45-5.96-22.45Z"/>
              <path class="cls-2" d="m162.88,206.94c.23-1.61-.06-7.26-1.07-12.65-1.05-5.73-5.7-13.87-5.7-13.87,0,0-.36,6.52-.32,6.66,0,0,0,.02,0,0,0,.01,0,0,0,0-.03-.07-.17-.31,1.76,5.72,1.95,6.04,1.99,12.24,1.98,13.58,1.06.16,2.18.35,3.35.57Z"/>
              <path class="cls-2" d="m156.33,205.95c.64.07,1.3.15,1.99.25.31-3.51-.46-7.06-2.29-14.05-1.87-7.15-5.15-14.52-5.94-14.86-.23.88-1.48,7.64-1.63,8.33,1.74,4.41,2.39,7.3,2.94,9.98,3.86,3.56,4.77,9.08,4.94,10.34Z"/>
              <path class="cls-2" d="m143.2,206.23c1.61-.43,5.3-1.04,12.01-.39-.48-2.06-1.38-4.25-2.51-5.82h0c-3.58-4.81-9.89-7.09-9.9-7.1-2.85-1.28-6.85-4.04-8.77-6.77-1.92-2.73-5.92-13.62-5.92-13.63-2.39-6.49-5.8-11.87-9.4-16.06-6.07-7.06-12.13-10.79-12.32-10.9,0,0,0,0,0,0,.19.24,3.65,4.66,7.14,10.71,0,0,0,.02,0,.02,6.7,10.5,7.63,18.37,9.12,23.3,5.37,17.9,19.02,25.79,20.55,26.63Z"/>
              <path class="cls-2" d="m211.82,137.56c.07-.05.16-.11.28-.19.08-.05.17-.11.26-.18.04-.03.07-.05.11-.08.04-.03.08-.06.12-.09.03-.02.06-.04.09-.07.07-.05.14-.11.22-.16.03-.02.06-.04.08-.06.13-.1.26-.2.4-.31.12-.1.24-.2.37-.3.11-.09.23-.19.35-.29.14-.12.28-.24.43-.37.1-.09.21-.19.32-.28.06-.05.12-.11.18-.17,3.01-2.83,4.98-5.92,5.42-6.55.44-.61,1.8-3.61,2.64-5.54.92-2.76,1.46-5.89,1.29-9.39v-.03c0-.06,0-.12,0-.17-.02-.23-.04-.47-.06-.7,0-.14-.03-.27-.05-.4-.01-.13-.03-.25-.05-.38-.4-2.43-1.4-4.38-2.79-5.93-.24-.27-.49-.52-.75-.77.33,2.25.96,8.93-1.77,15.87-3.15,8.02-7.18,11.24-7.18,11.24.22.77-.05,5.42-.05,5.42,0,0,.05-.03.14-.09Z"/>
              <path class="cls-2" d="m216.83,153.9c2.01-2.07,1.52-4.62,1.5-4.85-.01-.21-.21-1.63-1.46-2.47-1.25-.86-2.52-.33-2.52-.33l-.32.4c-1.3,1.43-5.18,4.16-6.22,4.87-.16.11-.25.18-.25.18l-.46,1.04c-.42,1.16-1.73,3.59-2.71,5.41-.92,1.56-1.63,2.57-1.63,2.57l5.32-1.34c1.05-.33,1.94-.73,2.72-1.18,2.25-1.18,4.62-2.86,6.04-4.3Z"/>
              <path class="cls-2" d="m237.14,204.36c-1.69.71-3.64,1.43-5.64,2,0,0-7.87,2.88-15.71,1.96,0,0-.85,2.35-3.01,1.91,0,0,1.92,2.24,1.83,4.38,13.16.13,26.41-9.26,26.41-9.26l1.76-3.73-5.63,2.74Z"/>
              <path class="cls-2" d="m247.57,240.38c-.15,1.38-1.45,9.33-12.15,9.45,0,0,7.6-2.24,7.41-9.84l-43.73-3.6c-1.18-.21-.56-3.67,2.18-3.64.95.01,8.15-.39,8.54-.44,18.81-.95,22.18-9.28,22.18-9.28-11.4,6.7-25.27,4.46-25.27,4.46-.98,4.59-6.47,1.48-9.54-.58-3.1-2.04-4.76-4.93-6.07-8.15-1.32-3.24.49-10.96.8-11.69.28-.74,2.94-6.54,3.8-10.06.88-3.5-.5-8.21-.66-8.57-.15-.38-3.01-7.84-3.01-7.84-1.43-3.75.12-7.09,1.22-8.79.29-.39.59-.8.87-1.18.44-.59.85-1.13,1.14-1.53.3-.4.49-.65.49-.65,18.79-23.78,14.7-45.7,14.7-45.7.12,12.6-16.79,33.62-22.16,39.97h0c-.06.06-.74.71-1.61,1.87h0c-.07.1-.14.19-.22.3-1.89,2.62-4.42,7.5-3.52,13.93.28,2.02.52,3.9.87,5.63,2.6,12.96,5.28,23.86-4.42,25.58-5.65,1-8.56-1.02-14.17,1.16.05.02,7.5-.22,14.86,4.54,1.52.89-13.14,2.35-15.74,3.3-2.61.96-1.36,1.58-.89,1.71,1.46.4,3.63.44,4.73.69.83.19.94.56.27,1.17-5.47,4.99-11.12,3.7-11.04,3.88.08.19,1.52,3.65.4,6.67-.46,1.23-.99.86-1.42.09-.91-1.64-2.76-2.94-4.45-3.7-3.6-1.63-6.12-.95-6.12-.95,0,0,2.81,1.38,3.94,3.27,2.68,4.53,3.02,7.64,2.59,9.42-2.31-.24-3.98.9-3.98.9-2.64,1.9-.71,4.94-.71,4.94.05-1.65,2.07-2.16,2.07-2.16,1.4-.28,3.1,2.18,3.1,2.18-1.66,6.71-8.79,9.62-8.79,9.62-3.43,1.27-6.47-.88-8.03-3.08-1.57-2.21-4.02-.25-4.02-.25-.29.03-.58.13-1.02-.34-.44-.49-3.91-3.74-3.91-3.74-3.38-2.28-5.52,1.58-5.52,1.58-1.62.28-1.87,1.61-1.87,1.61-.49,2.24,2.06,3.62,2.06,3.62-.68-2.45.98-3.18.98-3.18,0,0,.25.32,1.08.38.83.05,1.07-.1,1.38-.15.29-.04.38-.13,2.54.75,2.14.86,1.41,2.05,1.41,2.23,0,.2-.89,1.51-1.14,2.26-.15.46-.32,1.6-.17,3.36.15,1.75,2.29,2.71,2.29,2.71,0,0-.35-1.15-.28-1.84.07-.66.25-2.08,2.09-2.92,1.01-.46,2.25.8,2.25.8,1.67,1.93,4.99,1.79,5.18,1.89.2.1,2.06,1.46,2.34,2.02,1.1,1.35-.06,3-1.09,3.64-.87.53-1.99.71-1.99.71,1.52,1.24,4.07.73,6.21-2,1.69-2.16-.86-4.73-1.71-5.18-.83-.45,1.84-2.18,3.67-2.5,1.83-.32,3.42,3.33,7.55,5.6,2.7,1.48,10.94-1.38,10.94-1.38,0,0,1.34,1.88,7.04,2.21,3.81.22,5.65-.52,6.07-.64-.17,3.13-.35,7.09-.26,8.11.16,1.73,2.2,5.34,7.67,5.42.25,0,.4,0,.4,0l-.19-2.25c-5.37-1.08-5.37-4.61-5.37-4.61.88,2.34,4.17,2.91,5.24,3.04l-1.15-13.81c.68,3.13,2.76,11.92,5.79,16.74,1.53,2.42,3.67,3.17,5.69,3.17,2.95,0,5.61-1.53,5.61-1.53l-1.32-2.56c-.64.35-5.53,2.84-8.72-2.53,0,0,3.04,3.33,8.05,1.22l-10.18-19.69c.29.45,9.57,14.79,11.45,17.31l.06.08c2.19,2.93,5.68,4.68,9.34,4.52,5.96-.26,10.93-3.92,10.93-3.92l-3.45-3.06c-.76.65-6.87,5.54-13.47,1.48,0,0,6.88,2.1,11.87-2.9l-20.67-18.34c.57.44,18.63,14.37,19.29,14.88.13.11.31.24.52.38,1.36.93,2.85,1.68,4.42,2.17,13.17,4.06,18.89-7.98,18.89-7.98l-4.46-1.62c-7.43,10.04-16.78,4.48-16.78,4.48,8.59,2.23,12.72-3.95,13.65-5.61l-30.41-11.04,23.48,5.56c13.42,3.83,19.52,1.47,19.52,1.47,9.83-2.79,9.46-12.67,9.46-12.67l-5.67-.47Zm-116.28,16.28s-.28-2.55,1.65-3c1.32-.31,2.03.26,2.1.72-.11-.04-2.38-.93-3.74,2.28Zm24.38-11.12c-2.34-1.41-2.99-.58-3.45-1.01-.39-.65,1.29-2.04,1.77-1.66.47.34,3.53,1.91,4.28,2.2,1.09.42,3.01.2,2.12,2.04-.48,1-4.19-1.24-4.72-1.57Zm4.72,13.98c-.49.13-2.5.07-3.37-3.56,0,0,.99,1.06,2.89,1.44.87.17.99.2,1.14,1.04.17.92-.4,1.02-.66,1.09Zm.04-6.6s-1-1.4-.56-2.79c.26-.84.48-1.43,1.29-1.26,0,0,1.1.09.34,1.46-.76,1.38-1.07,2.59-1.07,2.59Zm5.97,1.45c-.47,1.47-1.14,4.01-1.72,4.32-1.59.87-2.59,1.21-3.02-.28-.44-1.5.66-.86,1.49-1.47,1.2-.89,1.5-2.11,1.79-2.69.29-.59.35-1.54,1.2-1.31.77.22.86.29.25,1.44Zm1.81-7.53c-.59-.19-1.33-.16-1.7-.07-.38.06-1.88.45-2.58.81-.69.35-.58,1.22-1.09,1.15-.49-.02-1.38-1.2-1.16-1.89.22-.69.37-.78,1.03-1.02.85-.33,2.83-.54,3.21-.74.35-.17.89-.22,1.29.06.41.31,1.34,1.1,1.48,1.29.11.15.1.58-.48.41Zm7.91-8.98v-.03h0s0,.03,0,.03Z"/>
              <path class="cls-2" d="m176.13,237.87s0-.01,0-.03h0v.03Z"/>
              <path class="cls-2" d="m196.4,170.45c32.13-4.17,20.03-13.98,20.03-13.98-5.24,5.02-14.91,5.96-14.91,5.96-1.12,4.22-5.11,8.02-5.11,8.02Z"/>
              <path class="cls-2" d="m195.59,171.67c-3.21,1.88-2.74,5.88-2.74,5.88,0,0,19.98-1.2,23.87-5.41,1.95-2.11.5-5.32.5-5.32-10.91,5.04-21.63,4.85-21.63,4.85Z"/>
              <path class="cls-2" d="m217.22,174.14c-5.66,4.06-24.3,4.45-24.3,4.45-.02,1.39,1.43,4.44,1.43,4.44,0,0,20.81.53,23.54-3.18,2.98-4.05-.67-5.71-.67-5.71Z"/>
              <path class="cls-2" d="m217.47,181.77s-2.78,3.06-22.72,2.33c0,0,1.52,2.57,1.95,5.13,0,0,27.59,1.02,20.77-7.46Z"/>
              <path class="cls-2" d="m196.82,190.25s.69,2.91.52,4.97c0,0,28.25,3.44,19.4-7.02,0,0-2.19,2.66-19.92,2.05Z"/>
              <path class="cls-2" d="m215.94,195.9s-4.37,2.55-18.79.38c0,0-.36,2.61-1.31,4.3,0,0,25.57,6.89,20.09-4.68Z"/>
              <path class="cls-2" d="m194.08,205.24s1.25,2.6,12.81,4.1c13.37,1.74,6.06-5.8,6.06-5.8-11.66.62-17.34-1.92-17.34-1.92-.86,2.33-1.52,3.62-1.52,3.62Zm8.52,2.06s-.01,0-.01,0c0,0-.07-.05.01,0Z"/>
              <path class="cls-2" d="m202.59,207.3c-.08-.04-.01,0-.01,0,0,0,0,0,.01,0Z"/>
              <path class="cls-2" d="m192.22,210.87c29.99,12.26,19.07-.11,19.07-.11-14.3-.61-17.83-4.35-17.83-4.35-1.13,2.46-1.24,4.45-1.24,4.45Z"/>
              <path class="cls-2" d="m207.11,216.93c-11.27-2.68-15.05-5.2-15.05-5.2-.58,3.21.17,4.15.17,4.15,17.93,11.93,14.88,1.05,14.88,1.05Z"/>
              <path class="cls-2" d="m192.03,216.59s.6,5.9,7.14,10.04c4.45,2.82,7.94,3.27,5.44-3.84,0,0-3.56,1.3-12.58-6.2Z"/>
              <path class="cls-2" d="m246.5,177.84c-6.81,2.91-17.79,4.51-21.4,4.8-3.45.28-5.54.04-5.54.04,1.05,3.76-2.09,4.86-2.09,4.86,1.35.33,1.84,1.22,1.84,1.22,7.01-.29,16.99-3.1,19.34-3.66,5.61-1.33,8.98-3.11,12.69-5.02,2.05-1.06,3.04-3.13,3.51-4.8h-3.14c-1.29.74-2.99,1.61-5.2,2.55Z"/>
              <path class="cls-2" d="m125.26,231.96c.47.04.9.03,1.29-.02.02,0,.03,0,.05,0,2.25-.2,3.2-1.24,3.2-1.24,0,0-3.21-2.01-3.52-6.74,0,0-.97.25-2.63-.22,0,0-3.75,2.59-3.04,6.1.71,3.51,3.68,5.51,4.16,5.7,0,0-1.59-2.41-.94-3.85.31.11.78.22,1.43.27Z"/>
            </g>
            <path class="cls-2" d="m161.81,218.97c2.23-2.32,15.84-3.45,15.84-3.45-9.9-4.91-15.72-2.54-15.72-3.87,0-1.03,5.95-2.18,5.95-2.18,0,0-12.66-4.14-26.82-1.79-13.12,2.17-18.66,9.02-18.8,11.92-.05.94-.07,3.68,3.58,3.35.38-.03.71-.12,1.01-.25l.08,1.08s1.05,10.43,11.66,7.33c2.01-.59,5.3-3.66,9.24-3.5,5.53-.25,9.15,4.9,9.15,4.9,1.07-6.05-4.19-7.99.71-7.49,4.91.5,9.25-2.62,9.25-2.62-3.67.05-7.17-1.3-5.13-3.43Zm-26.1,5.24c-.94,2.07-5.2,3.09-7.44-1.11-.06-.12-.04-.26.05-.35.64-.69,3.48-3.23,9.36-1.97,0,0-.77.79-1.97,3.43Z"/>
            <path class="cls-2" d="m130.12,222.34c.74-.53,2.24-1.26,4.4-1.07.24.02.41.07.17.33-.33.35-1.07.57-1.41,1.56-.51,1.51-2.87,1.61-3.67.34-.24-.37-.32-.56.52-1.15Z"/>
          </g>
        </g>
        <g>
          <path class="cls-2" d="m166.9,301.61h-1.79v-11.86l-3.59,1.32v-1.62l5.1-1.91h.28v14.07Z"/>
          <path class="cls-2" d="m179.51,295.45c-.37.44-.81.8-1.33,1.07-.52.27-1.08.4-1.7.4-.81,0-1.51-.2-2.11-.6-.6-.4-1.06-.96-1.39-1.68-.33-.72-.49-1.52-.49-2.39,0-.94.18-1.78.53-2.53.36-.75.86-1.32,1.51-1.72.65-.4,1.42-.6,2.29-.6,1.38,0,2.48.52,3.27,1.55.8,1.04,1.2,2.45,1.2,4.24v.52c0,2.72-.54,4.71-1.62,5.97-1.08,1.25-2.7,1.9-4.87,1.93h-.35v-1.51h.37c1.47-.02,2.6-.41,3.39-1.15.79-.74,1.22-1.91,1.29-3.51Zm-2.74,0c.6,0,1.14-.18,1.65-.55.5-.36.87-.82,1.1-1.36v-.71c0-1.17-.25-2.12-.76-2.85-.51-.73-1.15-1.1-1.92-1.1s-1.41.3-1.88.9c-.48.6-.71,1.39-.71,2.37s.23,1.74.69,2.36c.46.62,1.07.93,1.84.93Z"/>
          <path class="cls-2" d="m185.95,294.59l.71-6.98h7.17v1.64h-5.66l-.42,3.82c.69-.4,1.47-.61,2.34-.61,1.28,0,2.29.42,3.04,1.26.75.84,1.12,1.98,1.12,3.42s-.39,2.58-1.17,3.41c-.78.83-1.87,1.25-3.26,1.25-1.24,0-2.25-.34-3.03-1.03-.78-.68-1.23-1.63-1.34-2.85h1.68c.11.8.39,1.41.86,1.81.46.41,1.07.61,1.83.61.83,0,1.47-.28,1.95-.85.47-.56.71-1.34.71-2.34,0-.94-.25-1.69-.76-2.25-.51-.57-1.19-.85-2.03-.85-.77,0-1.38.17-1.83.51l-.47.39-1.42-.37Z"/>
          <path class="cls-2" d="m206.74,301.61h-9.17v-1.28l4.85-5.39c.72-.81,1.21-1.48,1.49-1.99.27-.51.41-1.04.41-1.58,0-.73-.22-1.33-.66-1.8-.44-.47-1.03-.7-1.77-.7-.89,0-1.57.25-2.06.76-.49.5-.73,1.2-.73,2.1h-1.78c0-1.29.42-2.33,1.25-3.13.83-.79,1.94-1.19,3.33-1.19,1.3,0,2.33.34,3.08,1.02.76.68,1.14,1.59,1.14,2.73,0,1.38-.88,3.02-2.64,4.92l-3.75,4.07h7.03v1.45Z"/>
        </g>
      </g>
      <g>
        <polygon class="cls-1" points="28.71 191.17 37.08 197.23 33.89 187.4 42.24 181.33 31.91 181.33 28.71 171.5 25.54 181.33 15.2 181.33 23.54 187.4 20.36 197.23 28.71 191.17"/>
        <polygon class="cls-1" points="353.53 181.33 343.2 181.33 340 171.5 336.83 181.33 326.49 181.33 334.83 187.4 331.65 197.23 340 191.17 348.37 197.23 345.18 187.4 353.53 181.33"/>
        <path class="cls-1" d="m68.02,60.99l2.94,2.94c.69.69,1.34,1.4,1.96,2.14.6.73,1.08,1.45,1.39,2.16l-15.34,15.35,2.55,2.55,9.26-9.26,3.65,3.65-6.62,6.62,2.55,2.55,13.12-13.12,6.65,6.65,4.01-4.01-7.11-7.11c-1.41-1.41-2.89-1.28-4.19.02l-4.4,4.4-3.65-3.65,9.44-9.44-2.55-2.55-3.86,3.86c-.08-.63-.42-1.43-1.03-2.41-.6-.98-1.23-1.81-1.91-2.49l-3.31-3.31c-1.41-1.41-2.89-1.28-4.2.02l-14.99,14.99,2.55,2.55,13.09-13.09Z"/>
        <path class="cls-1" d="m18.91,136.91l3.33,1.38,1.7-4.11c.28,1.16.8,2.2,1.54,3.14.75.95,1.67,1.66,2.78,2.12,2.02.84,4.08.75,6.18-.27,2.09-1.01,3.6-2.61,4.51-4.8.92-2.23.99-4.43.22-6.61-.78-2.18-2.17-3.7-4.19-4.53-1.11-.46-2.26-.62-3.45-.49-1.19.13-2.29.51-3.31,1.14l1.69-4.07-3.33-1.38-2.75,6.64-1.11-.46c-1.85-.76-3.16-.09-3.87,1.62l-1.03,2.48,3.84,1.59-2.75,6.63Zm8.8-7.21c.34-.83,1.03-1.4,2.06-1.71,1.03-.32,2.08-.26,3.15.19,1.07.44,1.87,1.14,2.38,2.1.52.95.61,1.85.26,2.67-.33.8-1.03,1.36-2.07,1.69-1.05.32-2.11.26-3.18-.19-1.07-.44-1.86-1.15-2.36-2.11-.5-.97-.59-1.85-.26-2.65Z"/>
        <path class="cls-1" d="m49.55,118.57l-11.03-4.57,2.17-5.25-3.37-1.39-2.17,5.25-4.64-1.92c-1.85-.77-3.16-.09-3.87,1.61h-.03s-1.03,2.47-1.03,2.47l21.81,9.03,2.17-5.23Z"/>
        <path class="cls-1" d="m41.47,137.8l-1.03,2.48,6.91,2.86c1.08.45,2.07.47,2.97.04.91-.43,1.57-1.16,2-2.2l7.52-18.15-3.33-1.38-6.84,16.52-4.33-1.8c-1.84-.76-3.16-.08-3.87,1.62Z"/>
        <path class="cls-1" d="m312.61,114.95l-3.34,1.38,12.77,30.83,3.34-1.38-2.09-5.04c.61.17,1.48.16,2.62-.03,1.14-.18,2.14-.44,3.03-.81l13.93-5.77c1.84-.76,2.29-2.18,1.59-3.89l-9.19-22.19-3.33,1.38,8.16,19.7-13.45,5.57c-.9.37-1.81.7-2.72.99-.91.28-1.75.44-2.53.46l-1.28-3.08,8.74-3.62c1.85-.77,2.3-2.17,1.6-3.87h.04s-1.03-2.5-1.03-2.5l-11.51,4.77-1.28-3.09,8.74-3.62c1.85-.77,2.3-2.17,1.6-3.87h.03s-1.03-2.5-1.03-2.5l-11.51,4.77-1.89-4.58Z"/>
        <path class="cls-1" d="m232.08,42.36l5.91,2.73c1.07.49,2.12.83,3.18,1.03.61.11,1.11.1,1.65.14l-5.02,10.87,4.84,2.24,9.28-20.08,2.62,1.21-9.28,20.08,4.84,2.24,13.51-29.25c.84-1.82.21-3.16-1.46-3.93l-2.14-.99-3.96,8.58-2.62-1.21,2.72-5.89c.84-1.82.21-3.16-1.47-3.94l-2.14-.99-8.54,18.49c-.45-.09-.86-.13-1.38-.27-.94-.27-1.94-.64-2.97-1.12l-4.62-2.13,6.97-15.08,7.21,3.33,1.34-2.89-12.36-5.71-8.11,17.56c-.47,1.01-.52,1.97-.18,2.88.36.9,1.07,1.61,2.17,2.11Z"/>
        <path class="cls-1" d="m103.13,36.13l4.11-1.7c-.62,1.02-.99,2.12-1.13,3.31-.14,1.2,0,2.35.47,3.46.84,2.02,2.35,3.41,4.56,4.18,2.19.77,4.39.7,6.58-.21,2.23-.92,3.84-2.43,4.83-4.52.99-2.09,1.08-4.15.24-6.17-.46-1.11-1.16-2.04-2.09-2.79-.93-.75-1.98-1.26-3.15-1.54l4.07-1.69-1.38-3.33-6.64,2.75-.46-1.11c-.77-1.85-2.18-2.3-3.88-1.59l-2.48,1.03,1.59,3.84-6.63,2.75,1.38,3.33Zm8.25-.14c.33-1.04.9-1.73,1.7-2.06.83-.34,1.72-.26,2.67.25.96.5,1.65,1.29,2.1,2.36.44,1.07.51,2.13.19,3.17-.31,1.04-.88,1.74-1.7,2.08-.8.33-1.69.24-2.66-.27-.96-.52-1.67-1.31-2.11-2.38-.44-1.07-.5-2.12-.18-3.16Z"/>
        <path class="cls-1" d="m134.99,38.14l-3.18-7.68,5.25-2.17-1.4-3.37-5.25,2.17-1.92-4.64c-.77-1.85-2.17-2.3-3.87-1.6v-.04s-2.5,1.03-2.5,1.03l7.64,18.45,5.23-2.17Z"/>
        <path class="cls-1" d="m127.04,42.51c-4.8,1.99-7.36,6.82-5.72,10.79,1.64,3.97,6.87,5.58,11.67,3.59,4.8-1.99,7.36-6.82,5.72-10.79-1.64-3.97-6.87-5.58-11.67-3.59Zm4.55,10.97c-1.98.82-4.29-.21-5.15-2.3-.87-2.09.04-4.45,2.02-5.27,1.98-.82,4.29.21,5.15,2.3.87,2.09-.04,4.45-2.02,5.27Z"/>
        <path class="cls-1" d="m288.6,93.46l4.01,4.01,7.11-7.11c1.41-1.41,1.28-2.89-.02-4.19l-15.02-15.02-2.25,2.25,13.12,13.12-6.95,6.95Z"/>
        <path class="cls-1" d="m296.3,76.16c2.31.12,4.25-.59,5.79-2.14.85-.85,1.44-1.85,1.78-3,.34-1.15.41-2.31.21-3.5l3.12,3.12,2.55-2.55-5.08-5.08.85-.85c1.41-1.41,1.29-2.89-.01-4.2l-1.9-1.9-2.94,2.94-5.07-5.07-2.55,2.55,3.15,3.15c-1.18-.18-2.33-.1-3.49.22-1.16.33-2.17.91-3.02,1.76-1.55,1.55-2.25,3.48-2.12,5.81.13,2.32,1.04,4.32,2.72,6,1.71,1.71,3.71,2.61,6.02,2.73Zm-4.2-7.88c.11-1.09.57-2.04,1.39-2.86.82-.82,1.77-1.28,2.85-1.37,1.08-.09,1.94.17,2.55.78.63.63.9,1.49.79,2.56-.1,1.08-.56,2.02-1.38,2.84-.82.82-1.77,1.29-2.85,1.39-1.08.11-1.94-.15-2.57-.78-.61-.61-.87-1.47-.77-2.56Z"/>
        <path class="cls-1" d="m303.38,86.68l5.87-5.87,4.02,4.02,2.58-2.58-4.02-4.02,3.55-3.55c1.41-1.41,1.29-2.89,0-4.19l.03-.03-1.9-1.9-14.12,14.12,4,4Z"/>
        <path class="cls-1" d="m200.43,25.9h-5.46c.39-.5.72-1.31.98-2.43.27-1.12.41-2.15.41-3.11v-6.76c0-1.99-1.14-2.95-2.99-2.95h-22.76v3.61h20.08v6.24c0,.98-.05,1.94-.13,2.9-.09.94-.26,1.79-.55,2.51h-4.6v-4.36c0-2-1.13-2.96-2.97-2.96v-.04h-2.69v7.36h-11.43v3.61h32.12v-3.61Z"/>
        <path class="cls-1" d="m174.18,39.14c0,4.3,4.56,7.78,10.19,7.78s10.19-3.48,10.19-7.78-4.56-7.78-10.19-7.78-10.19,3.48-10.19,7.78Zm14.57,0c0,2.26-1.96,4.1-4.38,4.1s-4.38-1.83-4.38-4.1,1.96-4.1,4.38-4.1,4.38,1.83,4.38,4.1Z"/>
        <polygon class="cls-1" points="45.27 232.33 44.25 228.68 32.97 222.33 41.78 219.87 41.01 217.1 23.03 222.12 23.81 224.9 29.7 223.25 33.12 225.25 26.36 234.04 27.33 237.51 35.57 226.68 45.27 232.33"/>
        <path class="cls-1" d="m43.53,252.57c1.26-.52,2.35-1.22,3.25-2.08.9-.86,1.6-1.85,2.09-2.94.49-1.1.74-2.25.76-3.46.02-1.21-.22-2.42-.73-3.64-.5-1.22-1.19-2.24-2.06-3.09-.87-.84-1.86-1.48-2.97-1.91-1.11-.43-2.29-.64-3.54-.61-1.25.03-2.51.31-3.8.84-1.28.53-2.37,1.23-3.27,2.09-.9.86-1.59,1.84-2.07,2.94-.48,1.09-.73,2.25-.75,3.46-.02,1.21.23,2.42.73,3.64.5,1.22,1.19,2.24,2.06,3.09.87.84,1.86,1.48,2.99,1.91,1.12.43,2.31.63,3.56.61,1.25-.03,2.51-.3,3.77-.83Zm-6.29-2.47c-.78-.27-1.47-.7-2.07-1.26-.6-.57-1.08-1.27-1.42-2.11-.35-.84-.51-1.67-.49-2.5.02-.83.21-1.62.55-2.36.34-.75.84-1.42,1.5-2.02.66-.6,1.44-1.09,2.34-1.46.92-.38,1.82-.59,2.7-.63.88-.04,1.71.09,2.48.37.77.29,1.46.71,2.06,1.28.6.57,1.08,1.27,1.42,2.11.35.84.51,1.67.49,2.5s-.21,1.61-.57,2.36c-.36.74-.86,1.42-1.5,2.02-.64.6-1.42,1.09-2.32,1.47-.9.37-1.8.58-2.68.61-.88.03-1.71-.09-2.49-.37Z"/>
        <path class="cls-1" d="m49.33,265.99c.89.51,1.85.79,2.87.82,1.02.03,1.97-.2,2.85-.7.97-.55,1.72-1.28,2.23-2.19.52-.91.78-1.88.79-2.92.01-1.04-.25-2.02-.77-2.95l-3.93-6.91-16.22,9.24,1.43,2.5,6.09-3.47,2.11,3.7-4.14,6.9,1.71,3.05,4.39-7.52c.2.15.37.33.59.45Zm3.06-10.98l2.27,3.99c.33.57.5,1.15.53,1.74.03.59-.09,1.13-.35,1.61-.26.49-.67.89-1.21,1.19-.48.27-.97.42-1.48.44-.51.02-.98-.08-1.4-.31-.43-.23-.77-.57-1.02-1.01l-2.64-4.63,5.31-3.02Z"/>
        <polygon class="cls-1" points="50.97 277.63 55.35 274.45 59.7 280.45 61.95 278.82 57.6 272.82 61.59 269.93 66.8 277.11 69.05 275.49 62.14 265.97 47.03 276.93 53.94 286.45 56.18 284.82 50.97 277.63"/>
        <path class="cls-1" d="m74.63,281.94l-18.68,7.19,1.97,2.17,4.62-1.81,5.25,5.78-2.25,4.42,2.06,2.27,9-17.86-1.97-2.17Zm-2.32,4.74c-.3.54-.58,1.03-.84,1.46-.25.43-.41.71-.47.84l-1.86,3.66-3.83-4.22,3.72-1.46c.3-.12.67-.28,1.11-.47.44-.19.91-.39,1.41-.61.5-.22.96-.43,1.41-.63.08-.04.14-.06.22-.1-.01.02-.02.03-.03.05-.25.45-.53.94-.84,1.48Z"/>
        <path class="cls-1" d="m90.71,297.47l-17.38,9.93,2.28,1.85,4.3-2.49,6.06,4.93-1.56,4.71,2.38,1.93,6.21-19.01-2.28-1.85Zm-1.58,5.04c-.22.58-.42,1.1-.61,1.57-.19.47-.3.77-.33.9l-1.29,3.9-4.43-3.6,3.46-2c.27-.17.62-.38,1.03-.63.41-.25.84-.52,1.3-.82.46-.29.89-.57,1.3-.84.08-.05.13-.08.2-.13,0,.02-.01.03-.02.05-.18.48-.39,1.01-.6,1.59Z"/>
        <polygon class="cls-1" points="103.2 319.23 104.7 316.9 98.47 312.89 101.14 308.74 108.61 313.55 110.11 311.22 100.23 304.85 90.11 320.54 100 326.91 101.5 324.58 94.04 319.77 96.97 315.22 103.2 319.23"/>
        <path class="cls-1" d="m123.31,321.3c-.08-1.04-.4-2-.97-2.87-.57-.87-1.33-1.54-2.29-2.02l-7.11-3.55-8.33,16.7,2.58,1.29,3.13-6.28,3.81,1.9.4,8.04,3.11,1.58-.54-8.69c.25.02.49.07.74.05,1.03-.07,1.98-.38,2.84-.92.87-.54,1.53-1.26,1.98-2.17.5-1,.71-2.02.64-3.07Zm-3.25,1.73c-.25.49-.57.89-.98,1.19-.41.3-.85.48-1.34.53-.48.05-.95-.04-1.41-.27l-4.77-2.38,2.73-5.47,4.1,2.05c.59.29,1.06.68,1.41,1.15.35.47.55.99.6,1.54.05.55-.06,1.11-.34,1.66Z"/>
        <path class="cls-1" d="m138.74,324.5c-.89-.82-1.95-1.45-3.19-1.89-1.24-.44-2.47-.62-3.67-.53-1.21.08-2.34.39-3.41.93-1.07.54-2.01,1.28-2.82,2.23-.81.95-1.45,2.07-1.91,3.38-.46,1.31-.67,2.59-.63,3.83.04,1.25.31,2.42.8,3.51.49,1.09,1.18,2.04,2.07,2.87.89.82,1.95,1.45,3.19,1.89,1.24.44,2.47.62,3.67.53,1.21-.08,2.35-.4,3.42-.94,1.07-.55,2.01-1.29,2.83-2.24.81-.95,1.45-2.07,1.91-3.36.46-1.29.66-2.56.62-3.81-.04-1.25-.3-2.42-.79-3.52-.49-1.1-1.18-2.06-2.07-2.88Zm-.53,9.23c-.33.92-.77,1.72-1.34,2.4-.57.68-1.21,1.21-1.94,1.61s-1.5.63-2.32.69c-.83.07-1.67-.05-2.52-.35-.86-.3-1.58-.74-2.18-1.31-.6-.57-1.06-1.23-1.39-1.99-.33-.76-.49-1.58-.5-2.47,0-.89.15-1.79.48-2.72.33-.94.78-1.75,1.34-2.43.56-.68,1.2-1.21,1.93-1.59.73-.38,1.51-.61,2.33-.68.82-.07,1.66.05,2.52.35.85.3,1.58.74,2.18,1.31.6.57,1.06,1.24,1.37,2,.31.76.48,1.58.5,2.47.02.88-.14,1.79-.46,2.71Z"/>
        <path class="cls-1" d="m148.64,330.49c.37-.31.83-.51,1.38-.61.55-.1,1.16-.07,1.84.08.59.13,1.12.36,1.6.67.48.32.89.72,1.23,1.21.35.49.63,1.06.85,1.71l2.42-1.51c-.24-.78-.62-1.48-1.12-2.1-.5-.61-1.11-1.13-1.84-1.55s-1.56-.73-2.49-.94c-.88-.2-1.74-.26-2.56-.18-.82.08-1.56.29-2.23.62-.67.33-1.23.78-1.69,1.33-.46.55-.77,1.19-.94,1.92-.17.75-.2,1.44-.11,2.09.09.65.32,1.26.68,1.83.36.57.86,1.09,1.48,1.56.62.47,1.38.9,2.28,1.3.57.24,1.06.48,1.48.73.42.25.77.51,1.07.77.3.27.53.54.69.81.17.27.27.56.31.86.04.3.03.61-.04.92-.1.47-.35.85-.75,1.14-.39.29-.88.49-1.47.57-.58.09-1.21.06-1.87-.09-1.08-.24-1.95-.68-2.63-1.33-.68-.64-1.3-1.67-1.88-3.07l-2.42,1.78c.36.9.83,1.69,1.39,2.38.57.68,1.24,1.25,2.03,1.7.78.45,1.67.78,2.66,1.01,1.37.31,2.6.34,3.69.1,1.09-.24,2-.72,2.73-1.45.73-.73,1.22-1.67,1.48-2.84.14-.63.14-1.24-.01-1.83-.15-.6-.43-1.17-.86-1.72-.42-.55-.97-1.07-1.65-1.56-.67-.49-1.46-.94-2.37-1.37-.65-.29-1.19-.58-1.64-.87-.44-.29-.78-.59-1.02-.88-.23-.3-.39-.61-.46-.95s-.07-.68.02-1.05c.11-.5.35-.91.72-1.22Z"/>
        <path class="cls-1" d="m173.45,333.77c-.39-.92-.97-1.68-1.74-2.28-.76-.6-1.65-.96-2.65-1.07l-7.55-.87-2.14,18.54,2.86.33.82-7.1,4.69.54c1.01.12,1.95-.04,2.83-.46.88-.43,1.62-1.04,2.21-1.85.59-.81.95-1.74,1.08-2.8.12-1.06-.01-2.05-.41-2.97Zm-2.51,2.64c-.06.55-.24,1.03-.53,1.46-.29.42-.65.75-1.07.98-.42.23-.87.32-1.35.26l-4.64-.54.68-5.93,4.64.54c.48.05.89.24,1.25.55.36.31.63.7.82,1.17.19.47.25.98.19,1.53Z"/>
        <path class="cls-1" d="m180.62,331.15l-7.53,18.55,2.93.05,1.84-4.61,7.81.13,1.68,4.67,3.07.05-6.87-18.78-2.93-.05Zm-1.66,11.23l1.48-3.71c.11-.3.25-.68.42-1.13.17-.45.34-.93.52-1.45.18-.51.35-1,.5-1.46.03-.08.05-.15.08-.23,0,.02.01.03.02.05.15.49.32,1.03.51,1.62.19.59.35,1.13.49,1.61.14.48.24.79.29.91l1.39,3.86-5.7-.09Z"/>
        <path class="cls-1" d="m204.83,345.08c-.47.35-.98.63-1.53.84-.55.21-1.12.35-1.7.4-.96.09-1.84.02-2.66-.22-.82-.24-1.54-.62-2.16-1.15-.62-.53-1.13-1.19-1.52-1.99-.39-.79-.63-1.69-.73-2.7-.09-.96-.02-1.85.23-2.69.24-.84.61-1.57,1.12-2.21.5-.64,1.11-1.16,1.83-1.55.72-.4,1.52-.64,2.38-.72.55-.05,1.1-.02,1.66.11.56.13,1.11.34,1.67.63.55.3,1.11.68,1.67,1.14l1.72-2.17c-.5-.58-1.13-1.08-1.87-1.5-.75-.42-1.56-.73-2.45-.92-.88-.19-1.78-.25-2.68-.16-1.27.12-2.44.47-3.49,1.06-1.05.58-1.95,1.35-2.7,2.29-.75.95-1.3,2.01-1.66,3.2-.36,1.19-.48,2.44-.35,3.77.13,1.4.47,2.66,1.02,3.79.55,1.13,1.26,2.08,2.13,2.86.88.78,1.88,1.35,3,1.71,1.12.36,2.33.47,3.62.35.87-.08,1.72-.28,2.56-.58.84-.3,1.59-.68,2.25-1.14.66-.46,1.17-.94,1.54-1.46l-1.66-2.2c-.37.45-.79.84-1.25,1.19Z"/>
        <polygon class="cls-1" points="214.77 344.28 213.68 338.97 220.94 337.48 220.38 334.76 213.12 336.26 212.12 331.43 220.82 329.63 220.26 326.92 208.74 329.29 212.51 347.57 224.03 345.2 223.47 342.48 214.77 344.28"/>
        <path class="cls-1" d="m242.11,319.59l-2.58.95,3.9,10.59c.31.85.39,1.69.24,2.51-.15.82-.49,1.56-1.02,2.21-.53.65-1.21,1.13-2.04,1.43-.78.29-1.58.35-2.39.2-.81-.16-1.53-.5-2.18-1.03-.65-.53-1.13-1.22-1.44-2.07l-3.9-10.59-2.7.99,3.98,10.81c.48,1.32,1.22,2.39,2.22,3.21.99.82,2.13,1.33,3.42,1.53,1.29.2,2.6.05,3.96-.45,1.35-.5,2.45-1.24,3.3-2.22.85-.99,1.39-2.11,1.61-3.38.22-1.27.1-2.56-.39-3.88l-3.98-10.81Z"/>
        <path class="cls-1" d="m256.88,312.17l2.85,5.43c.36.69.72,1.36,1.08,2,.35.64.7,1.24,1.03,1.82.33.58.66,1.12.97,1.63.31.51.62.98.91,1.42.09.14.18.26.27.39l-16.37-7.84-2.29,1.2,8.66,16.54,2.55-1.34-3.6-6.87c-.07-.14-.17-.31-.27-.49-.11-.19-.24-.42-.41-.7-.17-.28-.39-.65-.68-1.09-.28-.44-.63-.99-1.03-1.63-.29-.46-.64-1.02-1.03-1.62l16.23,7.58,2.34-1.22-8.66-16.54-2.55,1.34Z"/>
        <polygon class="cls-1" points="275.89 319.07 268.48 307.98 270.99 306.31 269.51 304.09 262.1 309.04 263.58 311.26 266.09 309.58 273.49 320.67 270.99 322.34 272.47 324.56 279.88 319.62 278.39 317.4 275.89 319.07"/>
        <path class="cls-1" d="m281.86,294.3l4.01,11.38c.23.7.45,1.33.66,1.87.21.54.4,1.04.59,1.49.03.08.06.14.09.22-.26-.16-.52-.33-.81-.5-.33-.2-.7-.42-1.11-.66-.41-.24-.88-.5-1.39-.79l-10.64-5.92-2.53,2.08,17.63,9.67,2.16-1.78-6.05-19.19-2.6,2.13Z"/>
        <polygon class="cls-1" points="299.14 299.76 295.25 295.98 300.42 290.67 298.44 288.73 293.27 294.05 289.73 290.61 295.92 284.24 293.94 282.31 285.73 290.74 299.11 303.76 307.32 295.33 305.33 293.39 299.14 299.76"/>
        <path class="cls-1" d="m311.38,277.95c.13-1.02.02-2.01-.34-2.97-.36-.96-.94-1.75-1.74-2.37-.88-.69-1.84-1.1-2.88-1.23-1.04-.13-2.04,0-3,.38-.97.39-1.78,1-2.43,1.84l-4.89,6.26,14.72,11.49,1.77-2.27-5.53-4.32,2.62-3.36,7.96,1.2,2.17-2.74-8.63-1.2c.06-.24.16-.47.2-.72Zm-6.5,5.11l-4.81-3.76,2.82-3.62c.4-.52.87-.9,1.41-1.15.53-.25,1.08-.34,1.63-.29.55.06,1.07.28,1.56.66.43.34.76.74.97,1.2.21.46.3.93.25,1.41-.05.48-.23.92-.55,1.33l-3.28,4.2Z"/>
        <path class="cls-1" d="m324.22,262.35c-.55-.34-1.12-.53-1.74-.59-.61-.05-1.25.03-1.91.25-.66.22-1.33.57-2.01,1.05-.68.48-1.37,1.08-2.06,1.8-.48.52-.94.94-1.36,1.26-.42.33-.81.55-1.17.68-.36.12-.71.16-1.05.12-.34-.04-.67-.16-.99-.36-.44-.27-.74-.63-.92-1.08-.17-.45-.21-.95-.12-1.5.09-.55.32-1.12.68-1.71.32-.51.7-.95,1.16-1.29s.97-.6,1.54-.77c.57-.17,1.2-.25,1.89-.24l-.64-2.77c-.82-.02-1.6.1-2.34.37-.74.27-1.43.69-2.06,1.24-.63.55-1.2,1.23-1.7,2.05-.48.77-.81,1.56-1,2.36-.19.8-.24,1.57-.14,2.31.1.74.33,1.42.7,2.03.37.62.88,1.12,1.51,1.51.65.4,1.3.66,1.94.79.64.13,1.29.11,1.96-.05.66-.16,1.31-.45,1.96-.89.65-.44,1.3-1.01,1.97-1.73.41-.46.8-.84,1.17-1.16.37-.31.73-.57,1.08-.76.35-.19.68-.32.99-.39.31-.07.62-.07.92-.01.3.06.58.17.86.34.41.25.69.61.84,1.08s.17.99.06,1.57c-.11.58-.34,1.16-.69,1.73-.58.94-1.28,1.62-2.11,2.05-.83.43-2,.69-3.52.78l.89,2.87c.97-.05,1.87-.23,2.7-.54.83-.31,1.59-.77,2.26-1.36.68-.59,1.28-1.32,1.82-2.18.74-1.19,1.17-2.35,1.3-3.46.13-1.11-.03-2.13-.48-3.05-.45-.93-1.19-1.7-2.2-2.33Z"/>
        <polygon class="cls-1" points="330.98 255.31 319.03 249.39 320.37 246.69 317.98 245.5 314.03 253.48 316.42 254.67 317.76 251.97 329.7 257.89 328.36 260.59 330.75 261.78 334.71 253.8 332.32 252.61 330.98 255.31"/>
        <polygon class="cls-1" points="326.24 232.46 323.65 231.46 318.75 244.03 321.33 245.03 323.23 240.17 338.04 245.94 339.08 243.26 324.28 237.48 326.24 232.46"/>
        <polygon class="cls-1" points="328.29 214.85 327.42 218.04 333.58 224.81 324.71 227.97 323.8 231.32 335.77 226.95 343.75 229.12 344.5 226.34 336.48 224.16 328.29 214.85"/>
      </g>
    </g>
  </g>
</svg>