<?xml version="1.0" encoding="UTF-8"?>
<svg id="Layer_2" data-name="Layer 2" xmlns="http://www.w3.org/2000/svg" viewBox="0 0 78.6 57.43">
  <defs>
    <style>
      .cls-1 {
        fill: #231916;
      }

      .cls-1, .cls-2, .cls-3, .cls-4, .cls-5 {
        stroke-width: 0px;
      }

      .cls-2 {
        fill: #00a051;
      }

      .cls-3 {
        fill: #f39800;
      }

      .cls-4 {
        fill: #ea5506;
      }

      .cls-5 {
        fill: #004ea2;
      }
    </style>
  </defs>
  <g id="_레이어_1" data-name="레이어 1">
    <g>
      <g>
        <g>
          <polygon class="cls-2" points="72.12 8.24 72.12 49.05 78.6 57.43 78.6 0 72.12 8.24"/>
          <polygon class="cls-3" points="51.19 12.3 72.12 8.24 78.6 0 44.95 6.78 51.19 12.3"/>
          <polygon class="cls-4" points="51.19 17.68 51.19 12.3 44.95 6.78 44.95 17.68 51.19 17.68"/>
          <g>
            <path class="cls-1" d="m.25,20.09h4.83v7.17h.05l5.46-7.17h5.82l-6.7,8.17,7.22,9.38h-6.16l-5.64-7.98h-.05v7.98H.25v-17.56Z"/>
            <path class="cls-1" d="m29.17,19.79c-6.65,0-11.46,2.54-11.46,9.15s5.59,9.01,10.42,9.01c1.66,0,3.95-.05,7.01-.81v-9.01h-4.67v6.04c-.44.2-1.07.3-1.71.3-3.54,0-6.06-2.09-6.06-5.53,0-4.1,3.22-5.68,7.14-5.68,1.98,0,4.1.73,5.3,1.43v-3.94c-1.5-.57-4.28-.96-5.98-.96Z"/>
            <path class="cls-1" d="m56.03,30.99c0,4.8-3.22,6.97-7.95,6.97s-7.95-2.16-7.95-6.97v-10.89h4.83v10.11c0,2.31.65,4.28,3.12,4.28s3.12-1.96,3.12-4.28v-10.11h4.84v10.89Z"/>
          </g>
        </g>
        <polygon class="cls-5" points="72.12 49.05 51.19 45.13 51.19 40.4 44.95 40.4 44.95 50.66 78.6 57.43 72.12 49.05"/>
      </g>
      <g>
        <g>
          <path class="cls-1" d="m4.11,43.5v.72c0,1.12-.57,2.03-1.38,2.54-.8.5-1.65.68-2.69.71v-1.05c.93,0,1.7-.2,2.23-.61.53-.41.66-.87.66-1.28H.15v-1.03h3.96Z"/>
          <path class="cls-1" d="m5.82,47.47c-.48-.4-1.05-.61-1.7-.61s-1.21.2-1.69.61c-.51.43-.76.97-.76,1.62s.25,1.19.76,1.61c.48.41,1.04.61,1.69.61s1.21-.2,1.7-.61c.52-.43.78-.97.78-1.61s-.26-1.19-.78-1.62Zm-.78,2.48c-.25.23-.56.34-.9.34s-.64-.12-.9-.34c-.27-.24-.4-.52-.4-.86s.13-.63.4-.86c.26-.22.56-.33.9-.33s.65.11.9.33c.26.23.4.51.4.86s-.13.63-.4.86Z"/>
          <polygon class="cls-1" points="5.51 44.07 5.51 43.3 6.63 43.3 6.63 47.55 5.51 47.55 5.51 46.49 4.51 46.49 4.51 45.54 5.51 45.54 5.51 45.03 4.51 45.03 4.51 44.07 5.51 44.07"/>
          <path class="cls-1" d="m11.54,43.8c.32,0,.67,0,.67,0,0,0,0,.45,0,.57v.26c0,1.49-.36,2.37-.93,2.98-.56.61-1.76,1.45-3.15,1.45v-1.08c.75-.02,2.03-.53,2.56-1.37.35-.55.38-1.13.38-1.75h-2.84v-1.06h3.3m1.84-.29h1.18v7.23h-1.18v-7.23Z"/>
          <path class="cls-1" d="m29.65,43.79h-1.84v-.72h-1.22v.72h-1.85v.97h.79c-.43.35-.65.77-.65,1.27s.24.96.71,1.32c.45.33.99.48,1.59.48s1.12-.15,1.58-.48c.49-.35.73-.79.73-1.32s-.22-.92-.66-1.27h.81v-.97Zm-1.67,2.88c-.22.17-.47.24-.77.24s-.57-.07-.79-.24c-.23-.18-.35-.4-.35-.65s.12-.47.35-.65c.22-.17.48-.25.78-.25s.56.08.78.25c.23.17.34.39.34.65s-.12.47-.34.65Z"/>
          <polygon class="cls-1" points="31.37 51.16 30.25 51.16 30.25 49.21 25.17 49.21 25.17 48.15 31.36 48.15 31.37 51.16"/>
          <polygon class="cls-1" points="31.37 46.1 31.37 47.67 30.25 47.67 30.25 43.28 31.37 43.28 31.37 45.04 32.27 45.04 32.27 46.1 31.37 46.1"/>
          <polygon class="cls-1" points="37.68 49.55 37.68 46.46 36.57 46.46 36.57 49.55 35.68 49.55 35.68 46.46 34.57 46.46 34.57 49.55 33.21 49.55 33.21 50.61 40.14 50.61 40.14 49.55 37.68 49.55"/>
          <polygon class="cls-1" points="39.8 43.62 33.52 43.62 33.52 44.69 38.68 44.7 38.66 48.89 39.8 48.89 39.8 43.62"/>
          <polygon class="cls-1" points="17.44 48.41 17.44 44.75 19.76 44.75 19.76 43.69 16.31 43.69 16.31 49.47 20.39 49.47 20.39 48.41 17.44 48.41"/>
          <polygon class="cls-1" points="21.99 43.5 21.99 46.14 21.44 46.14 21.44 43.5 20.39 43.5 20.39 50.85 21.44 50.85 21.44 47.32 21.99 47.32 21.99 50.84 23.07 50.84 23.07 43.5 21.99 43.5"/>
        </g>
        <g>
          <g>
            <path class="cls-1" d="m0,52.57h.65v1.17h0l.73-1.17h.79l-.9,1.33.97,1.53h-.83l-.76-1.3h0v1.3h-.65v-2.86Z"/>
            <path class="cls-1" d="m3.2,54.35l-.9-1.78h.75l.48,1.15.47-1.15h.75l-.9,1.78v1.08h-.65v-1.08Z"/>
            <path class="cls-1" d="m5.44,54c0-.49.16-.91.55-.91s.56.42.56.91-.16.91-.56.91-.55-.44-.55-.91Zm-.67,0c0,.91.43,1.48,1.23,1.48s1.23-.57,1.23-1.48-.42-1.48-1.23-1.48-1.23.56-1.23,1.48Z"/>
            <path class="cls-1" d="m7.67,52.57h.83l.83,1.94h0v-1.94s.59,0,.59,0v2.86h-.81l-.86-1.95h0l.02,1.95h-.6v-2.86Z"/>
            <path class="cls-1" d="m12.76,55.34c-.41.12-.72.13-.95.13-.65,0-1.4-.39-1.4-1.47s.65-1.49,1.54-1.49c.16,0,.5.02.74.13l-.05.62c-.2-.14-.44-.18-.6-.18-.53,0-.96.26-.96.92,0,.56.34.9.81.9.09,0,.17-.02.23-.05v-.56h-.38v-.54h1.01v1.58Z"/>
            <path class="cls-1" d="m15.53,55.34c-.42.12-.72.13-.95.13-.65,0-1.4-.39-1.4-1.47s.65-1.49,1.54-1.49c.16,0,.5.02.74.13l-.05.62c-.21-.14-.44-.18-.6-.18-.53,0-.96.26-.96.92,0,.56.34.9.82.9.09,0,.17-.02.23-.05v-.56h-.38v-.54h1.01v1.58Z"/>
            <path class="cls-1" d="m16.1,52.57h.65v2.86h-.65v-2.86Z"/>
          </g>
          <g>
            <path class="cls-1" d="m20.65,54.34c0,.78-.43,1.13-1.07,1.13s-1.07-.35-1.07-1.13v-1.77h.65v1.65c0,.38.09.69.42.69s.42-.32.42-.69v-1.65h.65v1.77Z"/>
            <path class="cls-1" d="m21.16,52.57h.83l.82,1.94h0v-1.94s.58,0,.58,0v2.86h-.81l-.86-1.95h0l.02,1.95h-.6v-2.86Z"/>
            <path class="cls-1" d="m23.98,52.57h.65v2.86h-.65v-2.86Z"/>
            <path class="cls-1" d="m25,52.57h.7l.54,2.24h0l.55-2.24h.67l-.83,2.86h-.81l-.82-2.86Z"/>
            <path class="cls-1" d="m27.78,52.57h1.72v.54h-1.07v.59h1.01v.54h-1.01v.65h1.11v.54h-1.76v-2.86Z"/>
            <path class="cls-1" d="m30.65,53.11h.17c.25,0,.48.05.48.31,0,.33-.27.33-.48.33h-.17v-.65Zm-.65,2.32h.65v-1.13h.14c.24,0,.33.12.46.61l.14.52h.68l-.24-.78c-.12-.35-.13-.56-.34-.63h0c.31-.09.47-.35.47-.73,0-.49-.36-.72-.79-.72h-1.16v2.86Z"/>
            <path class="cls-1" d="m32.44,54.72c.17.11.41.19.67.19.21,0,.4-.05.4-.28,0-.53-1.16-.19-1.16-1.24,0-.69.57-.87,1.07-.87.23,0,.46.04.63.11l-.04.59c-.17-.09-.36-.13-.54-.13-.16,0-.44.02-.44.26,0,.46,1.16.15,1.16,1.18,0,.74-.53.94-1.08.94-.22,0-.51-.04-.73-.12l.05-.63Z"/>
            <path class="cls-1" d="m34.68,52.57h.65v2.86h-.65v-2.86Z"/>
            <path class="cls-1" d="m36.32,53.13h-.6v-.57h1.86v.57h-.6v2.29h-.65v-2.29Z"/>
            <path class="cls-1" d="m38.64,54.35l-.9-1.78h.75l.48,1.15.47-1.15h.75l-.9,1.78v1.08h-.65v-1.08Z"/>
          </g>
        </g>
      </g>
    </g>
  </g>
</svg>