<?xml version="1.0" encoding="UTF-8"?>
<svg id="Layer_2" data-name="Layer 2" xmlns="http://www.w3.org/2000/svg" viewBox="0 0 133.01 131.03">
  <defs>
    <style>
      .cls-1 {
        fill: #60513a;
      }

      .cls-1, .cls-2 {
        stroke-width: 0px;
      }

      .cls-2 {
        fill: #0c2e86;
      }
    </style>
  </defs>
  <g id="Layer_1-2" data-name="Layer 1">
    <g>
      <g>
        <polygon class="cls-1" points="24.44 124.8 38.07 124.8 38.07 125.78 24.44 125.78 24.44 130.63 40.59 130.63 40.59 128.77 27.33 128.77 27.33 127.64 40.59 127.64 40.59 122.94 24.44 122.94 24.44 124.8"/>
        <polygon class="cls-1" points="34.01 118.9 40.74 118.9 40.74 117.1 27.19 117.1 27.19 116.19 40.43 116.19 40.43 114.39 27.19 114.39 27.19 113.43 40.74 113.43 40.74 111.64 24.31 111.64 24.31 118.91 27.19 118.91 27.19 118.9 31.12 118.9 31.12 119.92 22.82 119.92 22.82 122.08 42.21 122.08 42.21 119.92 34.01 119.92 34.01 118.9"/>
        <polygon class="cls-1" points="128.11 113.77 128.11 126.2 131.5 126.2 131.5 111.61 114.62 111.61 114.34 111.97 115.72 113.77 128.11 113.77"/>
        <polygon class="cls-1" points="45.95 116.09 45.95 122.79 60.21 121.63 60.21 122.94 63.6 122.94 63.6 111.11 60.21 111.11 60.21 119.71 49.34 120.5 49.34 118.13 57.38 118.13 57.38 111.73 45.09 111.73 44.82 112.09 46.2 113.89 53.99 113.89 53.99 116.09 45.95 116.09"/>
        <polygon class="cls-1" points="17.36 111.11 13.97 111.11 13.97 131.03 17.36 131.03 17.36 119.01 19.75 119.01 19.75 116.85 17.36 116.85 17.36 111.11"/>
        <polygon class="cls-1" points="109.04 111.11 105.65 111.11 105.65 122.82 109.04 122.82 109.04 119.01 112.27 119.01 112.27 116.85 109.04 116.85 109.04 111.11"/>
        <polygon class="cls-1" points="125.88 127.76 125.88 119.74 123.01 119.74 123.01 127.76 120.5 127.76 120.5 119.74 117.64 119.74 117.64 127.76 113.36 127.76 113.08 128.12 114.47 129.93 133.01 129.93 133.01 127.76 125.88 127.76"/>
        <polygon class="cls-1" points="46.07 124.38 47.45 126.18 60.22 126.18 60.22 131.01 63.61 131.01 63.61 124.02 46.34 124.02 46.07 124.38"/>
        <polygon class="cls-1" points="91.42 124.38 92.8 126.18 105.62 126.18 105.62 131.01 109.01 131.01 109.01 124.02 91.7 124.02 91.42 124.38"/>
        <polygon class="cls-1" points="83.39 116.85 81.83 116.85 81.83 111.11 78.84 111.11 78.84 123.03 71.52 123.78 71.52 113.89 76.75 113.89 76.75 111.73 68.12 111.73 68.12 126.18 78.84 125.08 78.84 131.03 81.83 131.03 81.83 119.01 83.39 119.01 83.39 131.03 86.38 131.03 86.38 111.11 83.39 111.11 83.39 116.85"/>
        <path class="cls-1" d="m97.12,123.04c3.46,0,6.26-2.47,6.26-5.51,0-1.43-.62-2.73-1.64-3.71h2.1v-2.16h-4.93v-1.92h-3.39v1.92h-5.98l-.28.36,1.38,1.8h1.86c-1.02.98-1.64,2.28-1.64,3.71,0,3.04,2.8,5.51,6.26,5.51Zm0-8.88c1.83,0,3.32,1.49,3.32,3.32s-1.49,3.32-3.32,3.32-3.32-1.48-3.32-3.32,1.49-3.32,3.32-3.32Z"/>
        <path class="cls-1" d="m11.25,111.87H.3l-.28.36,1.38,1.8h6.3s-.16,2.24-1.64,4.96c-2.09,3.83-4.29,5.19-6.02,6.13l.65,1.5c1.67-.7,4.24-2.16,6.03-4.24,4.76-5.56,4.53-10.5,4.53-10.5Z"/>
      </g>
      <path class="cls-2" d="m126.15,15.38c-18.32-7.69-40.29-11.59-60.28-11.59S23.9,7.69,5.59,15.38c-1.19.59-1.77,1.12-1.77,2.47v62.03c0,1.36.58,1.88,1.77,2.47,18.31,7.69,40.29,11.59,60.28,11.59s41.97-3.9,60.28-11.59c1.19-.59,1.77-1.12,1.77-2.47V17.85c0-1.35-.58-1.88-1.77-2.47Zm-18.09.99c.61-2.21,2.47-3.35,4.52-2.78.56.16,1.02.39,1.39.72l.03.02-.39,1.09-.06-.06c-.33-.37-.73-.63-1.2-.76-.65-.18-1.29-.11-1.84.2-.65.37-1.13,1.04-1.37,1.89-.24.85-.16,1.68.21,2.33.31.55.81.94,1.42,1.11.42.12,1.09.17,1.48.04l.08-.03-.25,1.13h-.03c-.43.08-.94.03-1.57-.15-2.11-.58-3.06-2.46-2.41-4.77Zm-8.76-5.79v-.05s1.05.21,1.05.21l-1.5,7.44-1.04-.21,1.49-7.39Zm-12.32-1.98v-.05s1.06.14,1.06.14c0,0-.84,6.39-.86,6.49.09.01,2.79.37,2.79.37l-.14,1.03-3.85-.51.99-7.47Zm-15.68,2.52c.06-1.26.51-2.33,1.25-2.99.6-.54,1.37-.8,2.24-.75,1.97.1,3.21,1.74,3.09,4.08-.06,1.28-.5,2.34-1.23,3-.59.54-1.38.8-2.26.75-.88-.05-1.64-.38-2.17-.98-.66-.73-.98-1.83-.91-3.11Zm-13.06-3.7s.1,3.03.1,3.13c.09,0,3.03-.1,3.12-.11,0-.09-.1-3.13-.1-3.13l1.02-.03h.05s.25,7.58.25,7.58l-1.06.04s-.11-3.31-.11-3.41c-.09,0-3.03.1-3.12.1,0,.09.11,3.41.11,3.41l-1.06.04-.25-7.58,1.06-.03Zm-2.03,10.48c3.4-.2,6.67-.3,9.67-.3,14.37,0,34.8,2.31,47.41,6.77h-57.09v-6.47Zm0,9.93h60.04c0,.14.01.28.02.41v1.71h-53.49v14.63h24.62v2.12h-31.19v-18.87Zm10.03,13.29v-2.12h50.03v2.12h-50.03Zm50.03,3.46v2.12h-25.41v-2.12h25.41Zm-50.03-9.04v-2.12h50.03v2.12h-50.03Zm21.16,14.62v13.29h-42.62v-2.12h35.23v-9.04h-35.23v-27.94h-26.22c9.09-3.2,22.21-5.29,34.2-6.21v32.03h34.65ZM48.56,8.07h.05s.12,1.03.12,1.03c0,0-1.99.23-2.08.24,0,.09.73,6.5.73,6.5l-1.06.12s-.72-6.41-.73-6.5c-.09,0-2.08.24-2.08.24l-.12-1.04,5.17-.58Zm-16.04,2.36l1.03-.2h.03s4.26,6.9,4.26,6.9l-1.14.22s-.99-1.67-1.03-1.73c-.07.01-3.11.6-3.18.61,0,.07-.32,1.98-.32,1.98l-1.1.21,1.43-8Zm-14.35,4.36c.45-.81,1.2-1.37,2.15-1.65.56-.16,1.07-.19,1.57-.1h.03s.23,1.14.23,1.14l-.08-.03c-.47-.15-.95-.16-1.42-.03-.65.18-1.16.57-1.47,1.13-.36.65-.43,1.48-.19,2.33.45,1.61,1.79,2.49,3.18,2.1.42-.12,1.02-.42,1.29-.73l.06-.07.38,1.1-.03.02c-.33.28-.81.51-1.42.68-.97.27-1.9.19-2.68-.25-.88-.49-1.52-1.38-1.85-2.57-.31-1.12-.22-2.21.27-3.08Zm-2.66,13.44c0-.13,0-.28.02-.44h25.78v24.48H15.51v-24.04Zm0,27.5h61.03v2.12h-35.23v9.04h49.55v-16.75h25.41v17.69c-.01.71-.1,1.8-.59,2.44-.41.53-.97.87-1.34,1.04-6.29,2.36-14.75,4.15-23.48,5.35v-7.66H15.62c-.08-.42-.1-.84-.11-1.18v-12.11Zm71.89,16.75v4.64c-7.55.9-15.12,1.36-21.51,1.36-13.51,0-32.34-2.05-45.05-6h66.57Zm-72.33,9.83c-.72-.25-1.22-.66-1.5-1.23-.35-.71-.33-1.63.04-2.73l1.43-4.15.02-.05,1,.35-1.39,4.06c-.31.91-.35,1.59-.12,2.07.16.33.44.55.86.7.41.14.79.14,1.11-.02.48-.23.86-.79,1.18-1.71l1.39-4.06,1,.34-1.44,4.2c-.69,2-1.96,2.79-3.59,2.23Zm8.43,2.5s-1.13-6.33-1.19-6.63c-.09.3-1.68,5.8-1.68,5.8l-1.02-.3,2.1-7.24v-.05s1.35.39,1.35.39c0,0,1.09,6.17,1.15,6.48.09-.31,1.65-5.67,1.65-5.67l1.02.3-2.11,7.28-1.26-.37Zm4.41,1.16l-1.03-.26,1.85-7.3v-.05s1.04.26,1.04.26l-1.86,7.35Zm3.78.89l-.89-7.89v-.07s1.15.25,1.15.25c0,0,.6,6.52.62,6.75.12-.2,3.44-5.86,3.44-5.86l1.09.24-4.17,6.85-1.25-.27Zm10.08-4.71s-2.67-.47-2.77-.49c-.02.09-.35,1.97-.36,2.06.09.02,2.52.44,2.52.44l-.18,1.03s-2.43-.43-2.52-.44c-.02.09-.39,2.24-.41,2.33.09.02,2.77.49,2.77.49l-.18,1.03-3.81-.67,1.31-7.42v-.05s3.82.67,3.82.67l-.18,1.02Zm5.7,1.86c-.12.85-.74,1.44-1.57,1.52.24.17.37.36.5.81l.88,3.2-1.2-.16-.68-2.74c-.19-.73-.47-.77-.98-.84,0,0-.45-.06-.53-.07-.01.09-.45,3.29-.45,3.29l-1.05-.14,1.02-7.47v-.05s1.69.23,1.69.23c.77.1,1.61.29,2.06.89.22.29.33.65.33,1.1,0,.14-.01.28-.03.44Zm3.51,1.36c.78.52,1.66,1.12,1.52,2.54-.15,1.44-1.14,2.18-2.73,2.02-.49-.05-.94-.25-1.36-.45l-.03-.02.22-1.09.06.04c.18.1.79.44,1.34.49.28.03.69-.03,1-.28.23-.19.36-.44.39-.76.07-.74-.47-1.09-1.1-1.51-.73-.48-1.56-1.02-1.43-2.31.12-1.26,1.07-1.99,2.41-1.86.48.05,1,.2,1.42.42l.03.02-.26,1.07-.06-.03c-.47-.26-.72-.38-1.21-.43-.22-.02-.63-.02-.91.21-.17.14-.28.35-.3.62-.06.59.44.92,1.01,1.31Zm3.98,4.87l-1.06-.08.55-7.52v-.05s1.06.08,1.06.08l-.56,7.56Zm6.94-6.19s-2-.09-2.09-.09c0,.1-.29,6.54-.29,6.54l-1.06-.05s.29-6.44.29-6.54c-.09,0-2.09-.09-2.09-.09l.05-.99v-.05s5.25.23,5.25.23l-.05,1.04Zm7.15-.92s-2.62,4.33-2.63,4.33c0,0,0,3.18,0,3.18h-1.06s0-3.14,0-3.17c-.01-.02-2.62-4.35-2.62-4.35l-.04-.08h1.24s1.89,3.18,1.97,3.32c.08-.13,1.94-3.31,1.94-3.31h1.24s-.04.08-.04.08Zm8.85,6.35c-.53.6-1.28.94-2.16,1-2,.12-3.38-1.34-3.52-3.72-.14-2.34,1.09-3.99,3.05-4.11,1.97-.12,3.38,1.38,3.52,3.72.08,1.28-.24,2.38-.89,3.11Zm3.79.4l-1.06.11-.76-7.55,3.61-.37h.05s.1,1.03.1,1.03c0,0-2.51.25-2.6.26,0,.09.2,1.99.21,2.08.09,0,2.49-.25,2.49-.25l.11,1.04s-2.39.24-2.49.25c0,.1.34,3.39.34,3.39Zm12-1.61s-1.39.22-1.43.21c0,0-3.24-2.9-3.43-3.07.04.25.55,3.54.55,3.54l-1.05.16-1.17-7.5,1.05-.16s.46,2.94.49,3.17c.34-.53,2.27-3.59,2.3-3.61l1.27-.2.11-.02s-2.58,3.97-2.62,4.04c.06.05,4.03,3.42,4.03,3.42l-.11.02Zm3.66-.59c-1.96.39-3.53-.86-4-3.2-.46-2.3.53-4.11,2.46-4.49,1.93-.39,3.54.9,4,3.2.47,2.33-.5,4.1-2.46,4.49Zm8.42-2.05l-1.65-2.3c-.45-.61-.72-.54-1.22-.42,0,0-.44.11-.51.13.02.09.8,3.23.8,3.23l-1.03.26-1.83-7.36,1.65-.41c.75-.19,1.6-.32,2.24.06.41.25.69.68.85,1.31.04.16.06.31.06.46,0,.65-.35,1.22-.95,1.53.28.06.47.2.77.57l2,2.65-1.17.29Zm2.63-.7l-2.12-7.28,3.67-1.07h.05s.29.99.29.99c0,0-2.61.76-2.7.78.03.09.56,1.92.58,2.01.09-.03,2.46-.71,2.46-.71l.29,1s-2.37.69-2.46.71c.03.09.64,2.19.66,2.28.09-.03,2.7-.78,2.7-.78l.29,1-3.72,1.08Zm10.1-3.18s-1.21-1.52-1.25-1.57c-.06.02-3,1.01-3.07,1.03,0,.07-.05,2.01-.05,2.01l-1.06.36.34-8.12.99-.34h.03s5.16,6.26,5.16,6.26l-1.1.37ZM74.45,14.16c.55.03,1.03-.13,1.41-.48.53-.48.86-1.31.91-2.29.05-.97-.2-1.84-.69-2.38-.35-.38-.79-.59-1.33-.61-.53-.03-1,.13-1.38.47-.54.49-.88,1.32-.93,2.29-.07,1.33.42,2.91,2.02,2.99Zm39.74,66.02c.12-.04,2.29-.77,2.41-.81-.08-.1-2.18-2.74-2.33-2.93,0,.25-.08,3.61-.08,3.74Zm16.78-66.08c-.59-.9-1.43-1.42-1.91-1.66C110.49,4.45,87.39,0,65.88,0S21.26,4.45,2.69,12.45c-.47.24-1.31.76-1.9,1.66-.65.97-.76,2.64-.78,3.72v62.07c.02,1.08.14,2.74.78,3.72.54.82,1.28,1.32,1.77,1.59,18.61,8.04,41.76,12.51,63.33,12.51s44.71-4.47,63.32-12.51c.49-.27,1.23-.77,1.77-1.59.64-.98.76-2.64.78-3.72V17.82c-.02-1.07-.14-2.74-.78-3.72Zm-1.74,65.82c0,1.31-.15,1.66-.35,2.12-.29.67-1.08,1.09-1.08,1.09-18.38,8.1-41.33,12.13-61.92,12.13s-43.55-4.03-61.93-12.13c0,0-.8-.42-1.08-1.09-.2-.46-.35-.81-.35-2.12V17.86c0-1.31.15-1.66.35-2.12.29-.67,1.08-1.09,1.08-1.09C22.33,6.55,45.28,2.51,65.88,2.51s43.54,4.04,61.92,12.14c0,0,.79.42,1.08,1.09.2.46.35.81.35,2.12v62.06Zm-52.53,4.23c-.39-.34-.85-.5-1.39-.46-.53.03-.98.24-1.32.62-.49.54-.73,1.41-.67,2.38.06.98.4,1.81.93,2.28.38.34.86.5,1.41.46.55-.03,1-.24,1.34-.63.47-.53.71-1.4.65-2.37-.06-.97-.4-1.8-.95-2.29Zm-31.51-1.5s-.78-.11-.87-.12c-.01.09-.28,2.07-.29,2.16.09.01.77.11.77.11.48.07.88,0,1.16-.22.21-.16.34-.4.39-.7,0-.06.01-.12.01-.17,0-.57-.41-.95-1.16-1.05Zm52.24-1.37c-.43-.29-.91-.37-1.44-.26-.53.1-.94.37-1.22.79-.41.61-.53,1.5-.34,2.46.26,1.3,1.12,2.71,2.7,2.4.54-.11.96-.38,1.24-.81.4-.59.51-1.48.32-2.44-.19-.95-.65-1.73-1.25-2.13Zm5.01-1.57s-.77.19-.85.21c.02.09.5,2.02.52,2.11.12-.03.75-.19.75-.19.73-.18,1.13-.6,1.13-1.14,0-.09-.01-.19-.04-.29-.16-.65-.72-.91-1.52-.71ZM33.24,11.52c-.04.25-.57,3.57-.59,3.7.13-.02,2.37-.46,2.5-.48-.07-.11-1.79-3-1.91-3.22Z"/>
    </g>
  </g>
</svg>