<?xml version="1.0" encoding="UTF-8"?>
<svg id="Layer_2" data-name="Layer 2" xmlns="http://www.w3.org/2000/svg" xmlns:xlink="http://www.w3.org/1999/xlink" viewBox="0 0 123.08 119.85">
  <defs>
    <style>
      .cls-1 {
        fill: url(#radial-gradient);
      }

      .cls-1, .cls-2, .cls-3, .cls-4, .cls-5, .cls-6, .cls-7, .cls-8, .cls-9, .cls-10, .cls-11, .cls-12, .cls-13, .cls-14, .cls-15, .cls-16, .cls-17 {
        stroke-width: 0px;
      }

      .cls-2 {
        fill: url(#radial-gradient-14);
      }

      .cls-3 {
        fill: url(#radial-gradient-13);
      }

      .cls-4 {
        fill: url(#radial-gradient-12);
      }

      .cls-5 {
        fill: url(#radial-gradient-11);
      }

      .cls-6 {
        fill: url(#radial-gradient-10);
      }

      .cls-7 {
        fill: url(#radial-gradient-2);
      }

      .cls-8 {
        fill: url(#radial-gradient-3);
      }

      .cls-9 {
        fill: url(#radial-gradient-4);
      }

      .cls-10 {
        fill: url(#radial-gradient-6);
      }

      .cls-11 {
        fill: url(#radial-gradient-9);
      }

      .cls-12 {
        fill: url(#radial-gradient-8);
      }

      .cls-13 {
        fill: url(#radial-gradient-5);
      }

      .cls-14 {
        fill: url(#radial-gradient-7);
      }

      .cls-15 {
        fill: #fff;
      }

      .cls-16 {
        fill: #008596;
      }

      .cls-17 {
        fill: #007168;
      }
    </style>
    <radialGradient id="radial-gradient" cx="-1612.91" cy="-449.01" fx="-1612.91" fy="-449.01" r="69.19" gradientTransform="translate(1658.26 477.36)" gradientUnits="userSpaceOnUse">
      <stop offset="0" stop-color="#0ac"/>
      <stop offset=".51" stop-color="#008997"/>
      <stop offset="1" stop-color="#00676c"/>
    </radialGradient>
    <radialGradient id="radial-gradient-2" cx="-1612.91" cy="-449.01" fx="-1612.91" fy="-449.01" r="35.63" gradientTransform="translate(1666.75 486.46)" gradientUnits="userSpaceOnUse">
      <stop offset="0" stop-color="#0ac"/>
      <stop offset=".51" stop-color="#0091a2"/>
      <stop offset="1" stop-color="#00676c"/>
    </radialGradient>
    <radialGradient id="radial-gradient-3" r="33.81" gradientTransform="translate(1663.83 484.04)" xlink:href="#radial-gradient-2"/>
    <radialGradient id="radial-gradient-4" cx="-1612.91" cy="-449.01" fx="-1612.91" fy="-449.01" r="33.82" gradientTransform="translate(1668.9 464.94) rotate(-.68)" gradientUnits="userSpaceOnUse">
      <stop offset="0" stop-color="#5dc3e2"/>
      <stop offset=".51" stop-color="#53adbe"/>
      <stop offset="1" stop-color="#378086"/>
    </radialGradient>
    <radialGradient id="radial-gradient-5" r="33.82" gradientTransform="translate(1668.9 464.94) rotate(-.68)" xlink:href="#radial-gradient-4"/>
    <radialGradient id="radial-gradient-6" r="33.81" gradientTransform="translate(1668.91 464.94) rotate(-.68)" xlink:href="#radial-gradient-4"/>
    <radialGradient id="radial-gradient-7" r="33.82" gradientTransform="translate(1668.91 464.94) rotate(-.68)" xlink:href="#radial-gradient-4"/>
    <radialGradient id="radial-gradient-8" r="33.81" gradientTransform="translate(1668.9 464.81) rotate(-.68)" xlink:href="#radial-gradient-4"/>
    <radialGradient id="radial-gradient-9" r="33.82" gradientTransform="translate(1668.9 464.94) rotate(-.68)" xlink:href="#radial-gradient-4"/>
    <radialGradient id="radial-gradient-10" r="33.81" gradientTransform="translate(1683.39 403.98) rotate(-2.82)" xlink:href="#radial-gradient-4"/>
    <radialGradient id="radial-gradient-11" r="34.08" gradientTransform="translate(1683.82 403.81) rotate(-2.82)" xlink:href="#radial-gradient-4"/>
    <radialGradient id="radial-gradient-12" cx="-1612.91" cy="-449.01" fx="-1612.91" fy="-449.01" r="52.38" gradientTransform="translate(1663.37 476.79)" gradientUnits="userSpaceOnUse">
      <stop offset="0" stop-color="#fff"/>
      <stop offset="1" stop-color="#d9d8cd"/>
    </radialGradient>
    <radialGradient id="radial-gradient-13" r="52.49" gradientTransform="translate(1666.44 476.61)" xlink:href="#radial-gradient-12"/>
    <radialGradient id="radial-gradient-14" r="44.91" gradientTransform="translate(1667.1 480.02)" xlink:href="#radial-gradient"/>
  </defs>
  <g id="Layer_1-2" data-name="Layer 1">
    <path class="cls-1" d="m105,44.94c0,24.82-20.16,44.94-45.02,44.94S14.95,69.76,14.95,44.94,35.11,0,59.98,0s45.02,20.12,45.02,44.94h0Z"/>
    <path class="cls-17" d="m21.58,46.04h1.77c.57.01.58-.25.59-.62h.21c-.01.37-.02.69-.02,1.02,0,.3.01.6.01.91h-.21c0-.37-.01-.63-.58-.63l-4.07-.02c-.57,0-.58.26-.59.63h-.21c0-.31.02-.62.02-.93,0-.32,0-.64-.01-1h.21c0,.37.01.63.58.63h1.97s.02-2.78.02-2.78h-1.97c-.57-.02-.58.25-.59.61h-.21c0-.33.02-.63.02-.93,0-.33,0-.66,0-1h.21c0,.37.01.63.58.63l4.07.02c.57,0,.58-.26.59-.62h.21c-.01.33-.02.64-.02.95,0,.32,0,.64.01.98h-.21c0-.37-.01-.63-.58-.63h-1.77s-.02,2.78-.02,2.78h0Z"/>
    <path class="cls-17" d="m19.03,50.07v.08c.03.17.11.34.24.32.1-.01.16-.04.26-.09l.78-.35-.14-1.17-.54-.09c-.11-.01-.39-.07-.54-.05-.19.02-.2.25-.18.38v.08s-.2.03-.2.03c-.02-.23-.04-.47-.07-.7-.02-.18-.05-.38-.08-.56l.21-.02c.04.35.22.43.4.47l3.06.63c.1.02.2.05.27.04l.11-.03.3.5-3.29,1.44c-.36.15-.45.27-.41.63l-.21.03c-.02-.26-.04-.52-.08-.77-.03-.25-.07-.51-.11-.77l.21-.03h0Zm3.1-.83h0s-1.69-.32-1.69-.32l.12,1.01,1.57-.69h0Z"/>
    <path class="cls-17" d="m22.52,52.01c.36-.08.28-.49.25-.62l.21-.05c.03.16.06.32.09.48.03.14.08.31.12.45l-2.36,2.7,2.07-.47c.55-.12.51-.31.43-.67l.21-.05c.04.22.09.45.14.67.04.2.1.41.15.6l-.21.05c-.07-.32-.12-.46-.52-.37l-3.35.77-.04-.16,2.6-2.99-2.11.48c-.57.13-.69.23-.57.73l-.2.05c-.04-.22-.09-.48-.15-.71-.05-.23-.11-.46-.17-.68l.21-.05c.13.55.45.48,1.02.35l2.2-.5h0Z"/>
    <path class="cls-17" d="m23.59,56.13c.29-.1.28-.29.17-.6l.2-.07c.08.25.16.51.24.76.09.26.19.53.28.77l-.2.07c-.11-.31-.21-.47-.5-.37l-2.69.92c-.29.1-.28.29-.17.6l-.2.07c-.08-.24-.16-.52-.25-.78-.08-.25-.18-.5-.27-.75l.2-.07c.11.31.21.47.5.37l2.69-.92h0Zm-1.89,3.15c-.15.2-.26.43-.19.66l-.2.07c-.04-.13-.08-.29-.12-.41-.05-.15-.11-.3-.17-.45l1.46-1.99,1.71.63.21.02.08-.17-.05-.14.2-.07c.06.19.12.41.19.6.06.19.15.39.21.58l-.2.07c-.13-.39-.3-.49-1.95-1.11l-1.18,1.73h0Z"/>
    <path class="cls-17" d="m24.91,59.57c.26-.12.14-.39.06-.55l.19-.09c.1.24.21.49.32.72.1.22.22.45.32.66l-.19.09c-.09-.19-.19-.41-.44-.29l-2,.93c-.68.31-.78.8-.56,1.28.41.88,1.21.5,1.95.16l.87-.4c.74-.34.76-.43.57-.85l.19-.09c.09.21.18.43.28.63.08.17.17.34.26.51l-.19.09c-.1-.21-.21-.36-.69-.14l-1.49.69c-.85.39-1.65.35-2.08-.56-.37-.8-.24-1.45.62-1.85l2.02-.94h0Z"/>
    <path class="cls-17" d="m26.75,63.45c.26-.16.21-.34.04-.62l.18-.11c.13.23.26.46.39.69.14.24.3.48.44.7l-.18.11c-.17-.28-.3-.41-.57-.25l-2.44,1.46c-.26.16-.21.34-.04.62l-.18.11c-.12-.22-.27-.48-.41-.71-.13-.23-.28-.45-.42-.67l.18-.11c.17.28.3.41.57.25l2.44-1.46h0Zm-1.19,3.47c-.1.23-.17.48-.05.68l-.18.11c-.06-.12-.14-.26-.21-.38-.08-.14-.17-.27-.26-.41l1.01-2.25,1.8.26.21-.03.04-.18-.08-.13.18-.11c.1.18.21.38.31.55.1.17.23.35.33.52l-.18.11c-.21-.35-.39-.42-2.14-.68l-.8,1.94h0Z"/>
    <path class="cls-17" d="m34.04,69.95c-.36-.42-.59-.21-1.35.43l-1.78,1.51c-.84.71-1.85.8-2.64-.13-.74-.87-.68-1.81.35-2.72l2.26-1.92c.43-.37.27-.57.04-.86l.16-.14c.2.25.4.5.6.74.2.24.42.48.65.74l-.16.14c-.24-.27-.42-.47-.85-.1l-2.1,1.78c-.74.62-1.27,1.43-.58,2.25.74.88,1.61.29,2.03-.07l1.76-1.5c1.02-.86.97-.88.59-1.36l.16-.14c.18.23.36.45.55.67.15.18.31.34.46.52l-.16.14h0Z"/>
    <path class="cls-17" d="m33.08,71.83c.25-.27-.04-.56-.14-.66l.14-.15c.12.12.23.23.34.34.11.1.24.21.35.3l-.43,3.56,1.45-1.56c.38-.41.25-.54-.02-.79l.14-.15c.16.16.33.33.49.48.15.14.31.28.47.41l-.14.15c-.24-.22-.36-.31-.64-.02l-2.34,2.52-.12-.11.47-3.93-1.47,1.59c-.4.43-.44.58-.06.93l-.14.15c-.16-.16-.35-.35-.52-.5-.17-.16-.35-.31-.53-.47l.14-.16c.42.39.64.14,1.04-.29l1.54-1.65h0Z"/>
    <path class="cls-17" d="m34.53,76.87c-.19.24-.37.17-.62-.04l-.13.17c.21.16.43.32.63.48.22.17.44.36.64.52l.13-.17c-.26-.2-.37-.35-.18-.6l1.75-2.23c.19-.24.37-.17.62.03l.13-.17c-.21-.15-.44-.32-.66-.49-.21-.16-.41-.34-.62-.5l-.13.17c.26.2.37.35.18.6l-1.75,2.24h0Z"/>
    <path class="cls-17" d="m37.83,75.85c.08-.31.09-.4-.18-.58l.12-.18c.19.14.39.28.59.42.21.14.43.28.65.41l-.12.18-.14-.09c-.13-.09-.23-.1-.31.02l-.08.2-.69,2.65,2.02-1.57c.11-.08.2-.17.26-.25.12-.18-.06-.29-.26-.43l.12-.18c.18.13.37.27.56.39.14.09.3.19.44.27l-.12.18c-.18-.12-.25-.16-.68.16l-2.88,2.12-.2-.13.89-3.58h0Z"/>
    <path class="cls-17" d="m41.64,82.07c-.44-.24-.86-.48-1.3-.71-.39-.21-.79-.41-1.18-.61l.1-.19c.29.15.47.2.62-.07l1.34-2.5c.15-.27,0-.4-.28-.56l.1-.19c.27.15.54.31.81.45.5.27,1.01.53,1.51.79l-.37.78-.13-.07c.19-.53.11-.62-.52-.96l-.45-.24-.72,1.35.51.27c.3.16.44.23.71-.27l.16.09c-.11.18-.21.37-.32.57-.1.19-.2.4-.31.6l-.16-.08c.21-.39.15-.48-.21-.67l-.51-.27-.56,1.04c-.17.31-.08.5.43.77.62.33.71.26,1.2-.09l.15.08-.61.69h0Z"/>
    <path class="cls-17" d="m44.25,79.53c.12-.28-.03-.4-.33-.53l.08-.19c.24.11.49.22.73.32.31.13.74.29.96.38.53.22.83.71.58,1.31-.18.43-.54.61-1.05.6.1,1.68.19,1.93.55,2.21l-.08.19c-.12-.06-.25-.12-.38-.17-.14-.06-.28-.11-.42-.16-.11-.43-.18-1.37-.25-2.14l-.22-.07-.21-.11-.51,1.21c-.13.31.05.41.33.53l-.08.19c-.23-.11-.5-.23-.75-.33-.24-.1-.49-.2-.74-.29l.08-.2c.3.12.49.15.61-.13l1.1-2.62h0Zm.29,1.51c.54.22.94.11,1.18-.45.2-.47.02-.83-.47-1.03l-.32-.11-.62,1.49.24.1h0Z"/>
    <path class="cls-17" d="m46.58,83.07l.15.05c-.04.58.07.93.55,1.09.51.16.75-.2.83-.44.1-.32.01-.57-.34-.98-.58-.67-.68-1.03-.49-1.63.17-.53.71-.88,1.28-.7.25.08.54.25.75.33l-.18.78-.14-.05c.03-.33-.01-.7-.45-.84-.34-.11-.66.08-.77.43-.12.37-.07.55.45,1.11.57.63.6.99.44,1.48-.2.62-.83.9-1.5.69-.3-.1-.54-.25-.75-.47l.16-.85h0Z"/>
    <path class="cls-17" d="m50.6,81.74c.07-.3-.1-.39-.41-.47l.05-.21c.25.07.51.14.77.21.27.07.55.13.8.18l-.05.21c-.32-.08-.51-.07-.58.22l-.68,2.76c-.07.3.1.39.41.47l-.05.21c-.25-.07-.53-.15-.79-.21-.25-.06-.52-.12-.78-.17l.05-.2c.32.08.51.07.58-.22l.68-2.76h0Z"/>
    <path class="cls-17" d="m53.41,82.03l-.52-.09c-.42-.07-.51-.02-.72.5l-.18-.03.27-1.04.14.02c-.03.15.12.22.27.24l2.17.37c.16.03.24.04.39-.13l.14.02-.25,1.04-.18-.03c.04-.52,0-.62-.27-.67l-.68-.11-.52,3.1c-.05.3.12.38.49.44l-.04.21c-.29-.06-.58-.11-.85-.16-.26-.04-.53-.08-.83-.12l.04-.21c.36.06.55.04.6-.26l.52-3.1h0Z"/>
    <path class="cls-17" d="m57.32,85.75c-.02.28.23.29.54.32l-.02.21c-.28-.03-.56-.06-.84-.08-.28-.02-.57-.03-.85-.05l.02-.21c.34.03.54.04.56-.28l.09-1.22-.97-1.84c-.12-.2-.22-.27-.41-.28l.02-.21c.22.02.49.05.73.07.25.02.52.03.78.04l-.02.21c-.13,0-.38-.03-.39.08,0,.07.03.12.08.23l.67,1.34.75-1.04c.08-.11.16-.22.17-.32,0-.12-.01-.19-.39-.22l.02-.21c.21.02.45.05.66.07.17.01.37.01.57.03l-.02.21c-.23-.02-.35,0-.67.41l-.98,1.3-.11,1.44h0Z"/>
    <path class="cls-17" d="m63.31,82.12c1.12-.09,1.92.73,2.02,1.9.08,1-.53,2.16-1.72,2.26-1.14.09-1.96-.7-2.06-1.94-.11-1.27.75-2.14,1.76-2.22h0Zm.35,3.89c.87-.07,1.07-.99,1-1.86-.09-1.13-.7-1.83-1.43-1.77-.83.07-1.08.95-1.01,1.82.09,1.08.73,1.87,1.45,1.81h0Z"/>
    <path class="cls-17" d="m66.94,85.2c.06.3-.12.39-.43.45l.04.21c.26-.06.52-.12.78-.17.37-.07.65-.12.92-.16l-.04-.21-.14.03c-.32.06-.49,0-.57-.42l-.22-1.17.64-.12c.4-.08.5-.05.59.46l.18-.03c-.05-.22-.1-.44-.14-.66s-.08-.43-.11-.64l-.18.03c.09.49-.05.52-.39.59l-.64.12-.29-1.51.73-.14c.6-.12.75-.07.95.46l.14-.03-.19-.87c-.39.08-.79.17-1.43.29-.44.08-.88.16-1.32.24l.04.21c.32-.06.51-.05.57.25l.53,2.79h0Z"/>
    <path class="cls-17" d="m73.05,83.43c.19.54.44.46.79.35l.07.2c-.33.11-.63.2-.93.31-.29.1-.59.21-.92.34l-.07-.2c.57-.2.58-.34.32-1.08l-1.18-3.4c-.22-.63-.33-.62-.86-.47l-.07-.2c.46-.16.95-.31,1.42-.47.59-.21,1.2-.41,1.77-.63l.41,1.07-.14.08c-.29-.63-.64-.75-1.35-.5l-.77.27.75,2.18.77-.27c.54-.19.55-.29.45-.87l.15-.05c.04.15.17.57.26.84.08.25.22.6.31.8l-.13.04c-.26-.5-.33-.67-.9-.47l-.8.28.64,1.86h0Z"/>
    <path class="cls-17" d="m76.07,78.69c1.01-.48,2.06.02,2.55,1.08.43.91.25,2.21-.82,2.72-1.03.49-2.08.03-2.61-1.1-.54-1.15-.04-2.27.88-2.7h0Zm1.69,3.53c.79-.37.66-1.3.28-2.09-.48-1.03-1.29-1.47-1.96-1.16-.75.35-.69,1.26-.31,2.06.46.98,1.33,1.5,1.99,1.19h0Z"/>
    <path class="cls-17" d="m79,77.93c-.16-.26-.35-.21-.62-.04l-.11-.18c.23-.13.46-.26.69-.4.28-.17.67-.43.87-.55.49-.3,1.06-.26,1.4.29.24.39.18.79-.13,1.2,1.42.9,1.67.97,2.11.85l.11.18c-.12.06-.25.13-.36.2-.13.08-.25.16-.37.25-.42-.16-1.22-.65-1.88-1.05l-.19.13-.21.11.69,1.12c.17.28.36.2.62.04l.11.18c-.22.13-.47.27-.71.42-.22.14-.45.29-.67.43l-.11-.18c.28-.17.41-.31.25-.57l-1.48-2.42h0Zm1.39.65c.5-.3.64-.7.33-1.22-.27-.44-.66-.5-1.11-.22l-.28.2.84,1.38.22-.13h0Z"/>
    <path class="cls-17" d="m86.09,77.22c-.4.29-.8.58-1.2.88-.35.26-.71.54-1.06.81l-.13-.17c.26-.19.38-.35.19-.59l-1.7-2.27c-.19-.25-.36-.17-.62.02l-.13-.17c.25-.18.51-.36.76-.55.45-.34.91-.69,1.35-1.03l.55.66-.12.09c-.4-.39-.52-.36-1.09.07l-.41.31.92,1.23.46-.34c.28-.21.39-.31.06-.75l.14-.11c.12.17.25.35.38.53.13.17.27.35.41.53l-.14.11c-.27-.36-.37-.34-.7-.1l-.46.34.71.95c.21.28.42.28.88-.06.56-.42.53-.53.43-1.12l.14-.1.37.85h0Z"/>
    <path class="cls-17" d="m86.81,75.86c.2.23.09.39-.15.61l.14.16c.19-.18.39-.36.59-.53.21-.18.43-.37.63-.53l-.14-.16c-.24.21-.42.3-.62.07l-1.87-2.14c-.2-.23-.09-.39.15-.61l-.14-.16c-.19.17-.4.37-.61.55-.2.17-.41.34-.61.51l.14.16c.24-.21.42-.3.62-.07l1.87,2.14h0Z"/>
    <path class="cls-17" d="m88.96,70.54l-.11.11c-.44-.19-.9-.39-1.4.13-.52.54-.58,1.37.35,2.27.54.53,1.55,1.01,2.32.22.12-.12.2-.27.25-.44l-.44-.45c-.33-.32-.45-.36-.78-.02l-.15-.15c.19-.18.41-.38.59-.57.14-.15.31-.34.45-.49l.15.15c-.23.23-.24.32-.05.51l.37.36c.1.1.19.19.31.13l.11.11c-.16.33-.4.81-.79,1.21-.77.8-1.98.72-2.79-.07-.93-.9-.92-2.09-.17-2.87.12-.13.24-.22.5-.42l.54-.36.73.63h0Z"/>
    <path class="cls-17" d="m89.43,69.24c-.29-.22-.56.09-.64.2l-.17-.13c.11-.13.21-.25.31-.37.09-.12.19-.26.27-.38l3.59.12-1.68-1.3c-.44-.34-.56-.2-.79.09l-.17-.13c.14-.17.3-.36.43-.53.12-.16.25-.34.37-.5l.17.13c-.2.26-.28.39.04.64l2.71,2.11-.1.13-3.96-.12,1.71,1.33c.46.36.61.39.93-.02l.17.13c-.15.17-.31.38-.46.56-.14.19-.28.38-.42.57l-.17-.13c.35-.45.09-.65-.38-1.01l-1.78-1.38h0Z"/>
    <path class="cls-17" d="m94.48,65.69l.08-.14c.59.2,1.29.15,1.57-.35.26-.46.08-1.04-.48-1.35-1.32-.74-1.93,1.26-3.6.32-.91-.51-1.07-1.33-.66-2.07.14-.25.34-.46.52-.67l.96.41-.08.14c-.53-.21-.98-.1-1.22.34-.26.46-.02.94.5,1.23,1.32.74,2-1.32,3.62-.4.92.52,1.04,1.51.64,2.22-.18.31-.44.59-.76.79l-1.1-.46h0Z"/>
    <path class="cls-17" d="m94.45,60.67l-.22.48c-.17.38-.15.49.3.82l-.07.16-.94-.53.06-.13c.14.06.24-.06.3-.2l.91-2.01c.07-.15.1-.22-.03-.41l.06-.13.95.5-.08.17c-.49-.18-.6-.17-.72.09l-.29.63,2.87,1.3c.28.13.4-.02.55-.36l.19.09c-.13.27-.26.53-.37.78-.11.24-.21.49-.33.77l-.19-.09c.15-.33.18-.52-.1-.65l-2.87-1.3h0Z"/>
    <path class="cls-17" d="m95.74,58.27c-.28-.09-.37.18-.43.36l-.2-.07c.09-.24.19-.5.27-.74.08-.23.15-.47.22-.7l.2.07c-.07.2-.14.43.12.51l2.09.7c.71.24,1.12-.04,1.29-.54.31-.92-.53-1.2-1.3-1.46l-.91-.3c-.77-.26-.85-.21-1,.22l-.2-.07c.08-.21.16-.43.24-.65.06-.18.11-.36.17-.55l.2.07c-.08.22-.09.41.41.57l1.56.52c.88.3,1.44.88,1.12,1.84-.28.84-.83,1.22-1.72.92l-2.12-.71h0Z"/>
    <path class="cls-17" d="m97.09,54.19c-.3-.06-.39.11-.46.43l-.21-.04c.06-.25.13-.52.19-.81.07-.34.13-.69.2-1.03.29-1.36,1.4-1.73,2.32-1.54,1.5.32,1.78,1.41,1.57,2.39-.06.3-.15.63-.21.9-.06.3-.12.6-.18.91l-.21-.04c.07-.32.06-.51-.24-.57l-2.78-.59h0Zm2.7-.04c.46.1.55-.11.62-.43.14-.65.07-1.55-1.32-1.84-.98-.21-1.83.02-2.02.92-.04.2-.1.54-.13.75l2.86.6h0Z"/>
    <path class="cls-17" d="m97.92,49.7c-.31-.04-.38.14-.42.47l-.21-.03c.04-.26.08-.53.11-.79.03-.27.06-.56.08-.82l.21.03c-.04.32-.01.51.29.55l2.82.34c.31.04.38-.14.41-.47l.21.03c-.04.25-.08.54-.11.81-.03.26-.06.53-.08.79l-.21-.03c.04-.32.01-.51-.29-.55l-2.82-.34h0Z"/>
    <path class="cls-17" d="m101.65,45.39c-.03.5-.06.99-.08,1.48-.02.44-.03.89-.05,1.33h-.21c.02-.33-.02-.52-.33-.54l-2.84-.13c-.31-.01-.37.17-.38.49h-.21c.02-.32.04-.63.06-.94.03-.57.04-1.14.06-1.7h.86s0,.14,0,.14c-.55.06-.61.17-.64.88l-.02.51,1.53.07.03-.57c.02-.35.02-.5-.54-.52v-.18c.22.02.44.03.66.04.22.01.45.01.67.02v.18c-.45-.02-.51.07-.53.47l-.03.57,1.18.05c.35.02.49-.14.51-.72.03-.7-.07-.75-.59-1.04v-.17s.9.26.9.26h0Z"/>
    <path class="cls-17" d="m100.67,44.37v-.16c.56-.16.85-.38.83-.89-.02-.53-.45-.64-.7-.63-.33.01-.54.18-.8.65-.43.78-.73.99-1.37,1.01-.55.02-1.07-.37-1.09-.97,0-.26.05-.59.05-.82l.79-.09v.14c-.32.09-.65.25-.63.71.01.36.3.59.67.58.39-.01.54-.12.9-.8.39-.75.73-.9,1.24-.92.65-.02,1.13.47,1.16,1.18.01.32-.05.6-.19.86l-.86.14h0Z"/>
    <path class="cls-15" d="m21.58,46.04h1.77c.57.01.58-.25.59-.62h.21c-.01.37-.02.69-.02,1.02,0,.3.01.6.01.91h-.21c0-.37-.01-.63-.58-.63l-4.07-.02c-.57,0-.58.26-.59.63h-.21c0-.31.02-.62.02-.93,0-.32,0-.64-.01-1h.21c0,.37.01.63.58.63h1.97s.02-2.78.02-2.78h-1.97c-.57-.02-.58.25-.59.61h-.21c0-.33.02-.63.02-.93,0-.33,0-.66,0-1h.21c0,.37.01.63.58.63l4.07.02c.57,0,.58-.26.59-.62h.21c-.01.33-.02.64-.02.95,0,.32,0,.64.01.98h-.21c0-.37-.01-.63-.58-.63h-1.77s-.02,2.78-.02,2.78h0Z"/>
    <path class="cls-15" d="m19.03,50.07v.08c.03.17.11.34.24.32.1-.01.16-.04.26-.09l.78-.35-.14-1.17-.54-.09c-.11-.01-.39-.07-.54-.05-.19.02-.2.25-.18.38v.08s-.2.03-.2.03c-.02-.23-.04-.47-.07-.7-.02-.18-.05-.38-.08-.56l.21-.02c.04.35.22.43.4.47l3.06.63c.1.02.2.05.27.04l.11-.03.3.5-3.29,1.44c-.36.15-.45.27-.41.63l-.21.03c-.02-.26-.04-.52-.08-.77-.03-.25-.07-.51-.11-.77l.21-.03h0Zm3.1-.83h0s-1.69-.32-1.69-.32l.12,1.01,1.57-.69h0Z"/>
    <path class="cls-15" d="m22.52,52.01c.36-.08.28-.49.25-.62l.21-.05c.03.16.06.32.09.48.03.14.08.31.12.45l-2.36,2.7,2.07-.47c.55-.12.51-.31.43-.67l.21-.05c.04.22.09.45.14.67.04.2.1.41.15.6l-.21.05c-.07-.32-.12-.46-.52-.37l-3.35.77-.04-.16,2.6-2.99-2.11.48c-.57.13-.69.23-.57.73l-.2.05c-.04-.22-.09-.48-.15-.71-.05-.23-.11-.46-.17-.68l.21-.05c.13.55.45.48,1.02.35l2.2-.5h0Z"/>
    <path class="cls-15" d="m23.59,56.13c.29-.1.28-.29.17-.6l.2-.07c.08.25.16.51.24.76.09.26.19.53.28.77l-.2.07c-.11-.31-.21-.47-.5-.37l-2.69.92c-.29.1-.28.29-.17.6l-.2.07c-.08-.24-.16-.52-.25-.78-.08-.25-.18-.5-.27-.75l.2-.07c.11.31.21.47.5.37l2.69-.92h0Zm-1.89,3.15c-.15.2-.26.43-.19.66l-.2.07c-.04-.13-.08-.29-.12-.41-.05-.15-.11-.3-.17-.45l1.46-1.99,1.71.63.21.02.08-.17-.05-.14.2-.07c.06.19.12.41.19.6.06.19.15.39.21.58l-.2.07c-.13-.39-.3-.49-1.95-1.11l-1.18,1.73h0Z"/>
    <path class="cls-15" d="m24.91,59.57c.26-.12.14-.39.06-.55l.19-.09c.1.24.21.49.32.72.1.22.22.45.32.66l-.19.09c-.09-.19-.19-.41-.44-.29l-2,.93c-.68.31-.78.8-.56,1.28.41.88,1.21.5,1.95.16l.87-.4c.74-.34.76-.43.57-.85l.19-.09c.09.21.18.43.28.63.08.17.17.34.26.51l-.19.09c-.1-.21-.21-.36-.69-.14l-1.49.69c-.85.39-1.65.35-2.08-.56-.37-.8-.24-1.45.62-1.85l2.02-.94h0Z"/>
    <path class="cls-15" d="m26.75,63.45c.26-.16.21-.34.04-.62l.18-.11c.13.23.26.46.39.69.14.24.3.48.44.7l-.18.11c-.17-.28-.3-.41-.57-.25l-2.44,1.46c-.26.16-.21.34-.04.62l-.18.11c-.12-.22-.27-.48-.41-.71-.13-.23-.28-.45-.42-.67l.18-.11c.17.28.3.41.57.25l2.44-1.46h0Zm-1.19,3.47c-.1.23-.17.48-.05.68l-.18.11c-.06-.12-.14-.26-.21-.38-.08-.14-.17-.27-.26-.41l1.01-2.25,1.8.26.21-.03.04-.18-.08-.13.18-.11c.1.18.21.38.31.55.1.17.23.35.33.52l-.18.11c-.21-.35-.39-.42-2.14-.68l-.8,1.94h0Z"/>
    <path class="cls-15" d="m34.04,69.95c-.36-.42-.59-.21-1.35.43l-1.78,1.51c-.84.71-1.85.8-2.64-.13-.74-.87-.68-1.81.35-2.72l2.26-1.92c.43-.37.27-.57.04-.86l.16-.14c.2.25.4.5.6.74.2.24.42.48.65.74l-.16.14c-.24-.27-.42-.47-.85-.1l-2.1,1.78c-.74.62-1.27,1.43-.58,2.25.74.88,1.61.29,2.03-.07l1.76-1.5c1.02-.86.97-.88.59-1.36l.16-.14c.18.23.36.45.55.67.15.18.31.34.46.52l-.16.14h0Z"/>
    <path class="cls-15" d="m33.08,71.83c.25-.27-.04-.56-.14-.66l.14-.15c.12.12.23.23.34.34.11.1.24.21.35.3l-.43,3.56,1.45-1.56c.38-.41.25-.54-.02-.79l.14-.15c.16.16.33.33.49.48.15.14.31.28.47.41l-.14.15c-.24-.22-.36-.31-.64-.02l-2.34,2.52-.12-.11.47-3.93-1.47,1.59c-.4.43-.44.58-.06.93l-.14.15c-.16-.16-.35-.35-.52-.5-.17-.16-.35-.31-.53-.47l.14-.16c.42.39.64.14,1.04-.29l1.54-1.65h0Z"/>
    <path class="cls-15" d="m34.53,76.87c-.19.24-.37.17-.62-.04l-.13.17c.21.16.43.32.63.48.22.17.44.36.64.52l.13-.17c-.26-.2-.37-.35-.18-.6l1.75-2.23c.19-.24.37-.17.62.03l.13-.17c-.21-.15-.44-.32-.66-.49-.21-.16-.41-.34-.62-.5l-.13.17c.26.2.37.35.18.6l-1.75,2.24h0Z"/>
    <path class="cls-15" d="m37.83,75.85c.08-.31.09-.4-.18-.58l.12-.18c.19.14.39.28.59.42.21.14.43.28.65.41l-.12.18-.14-.09c-.13-.09-.23-.1-.31.02l-.08.2-.69,2.65,2.02-1.57c.11-.08.2-.17.26-.25.12-.18-.06-.29-.26-.43l.12-.18c.18.13.37.27.56.39.14.09.3.19.44.27l-.12.18c-.18-.12-.25-.16-.68.16l-2.88,2.12-.2-.13.89-3.58h0Z"/>
    <path class="cls-15" d="m41.64,82.07c-.44-.24-.86-.48-1.3-.71-.39-.21-.79-.41-1.18-.61l.1-.19c.29.15.47.2.62-.07l1.34-2.5c.15-.27,0-.4-.28-.56l.1-.19c.27.15.54.31.81.45.5.27,1.01.53,1.51.79l-.37.78-.13-.07c.19-.53.11-.62-.52-.96l-.45-.24-.72,1.35.51.27c.3.16.44.23.71-.27l.16.09c-.11.18-.21.37-.32.57-.1.19-.2.4-.31.6l-.16-.08c.21-.39.15-.48-.21-.67l-.51-.27-.56,1.04c-.17.31-.08.5.43.77.62.33.71.26,1.2-.09l.15.08-.61.69h0Z"/>
    <path class="cls-15" d="m44.25,79.53c.12-.28-.03-.4-.33-.53l.08-.19c.24.11.49.22.73.32.31.13.74.29.96.38.53.22.83.71.58,1.31-.18.43-.54.61-1.05.6.1,1.68.19,1.93.55,2.21l-.08.19c-.12-.06-.25-.12-.38-.17-.14-.06-.28-.11-.42-.16-.11-.43-.18-1.37-.25-2.14l-.22-.07-.21-.11-.51,1.21c-.13.31.05.41.33.53l-.08.19c-.23-.11-.5-.23-.75-.33-.24-.1-.49-.2-.74-.29l.08-.2c.3.12.49.15.61-.13l1.1-2.62h0Zm.29,1.51c.54.22.94.11,1.18-.45.2-.47.02-.83-.47-1.03l-.32-.11-.62,1.49.24.1h0Z"/>
    <path class="cls-15" d="m46.58,83.07l.15.05c-.04.58.07.93.55,1.09.51.16.75-.2.83-.44.1-.32.01-.57-.34-.98-.58-.67-.68-1.03-.49-1.63.17-.53.71-.88,1.28-.7.25.08.54.25.75.33l-.18.78-.14-.05c.03-.33-.01-.7-.45-.84-.34-.11-.66.08-.77.43-.12.37-.07.55.45,1.11.57.63.6.99.44,1.48-.2.62-.83.9-1.5.69-.3-.1-.54-.25-.75-.47l.16-.85h0Z"/>
    <path class="cls-15" d="m50.6,81.74c.07-.3-.1-.39-.41-.47l.05-.21c.25.07.51.14.77.21.27.07.55.13.8.18l-.05.21c-.32-.08-.51-.07-.58.22l-.68,2.76c-.07.3.1.39.41.47l-.05.21c-.25-.07-.53-.15-.79-.21-.25-.06-.52-.12-.78-.17l.05-.2c.32.08.51.07.58-.22l.68-2.76h0Z"/>
    <path class="cls-15" d="m53.41,82.03l-.52-.09c-.42-.07-.51-.02-.72.5l-.18-.03.27-1.04.14.02c-.03.15.12.22.27.24l2.17.37c.16.03.24.04.39-.13l.14.02-.25,1.04-.18-.03c.04-.52,0-.62-.27-.67l-.68-.11-.52,3.1c-.05.3.12.38.49.44l-.04.21c-.29-.06-.58-.11-.85-.16-.26-.04-.53-.08-.83-.12l.04-.21c.36.06.55.04.6-.26l.52-3.1h0Z"/>
    <path class="cls-15" d="m57.32,85.75c-.02.28.23.29.54.32l-.02.21c-.28-.03-.56-.06-.84-.08-.28-.02-.57-.03-.85-.05l.02-.21c.34.03.54.04.56-.28l.09-1.22-.97-1.84c-.12-.2-.22-.27-.41-.28l.02-.21c.22.02.49.05.73.07.25.02.52.03.78.04l-.02.21c-.13,0-.38-.03-.39.08,0,.07.03.12.08.23l.67,1.34.75-1.04c.08-.11.16-.22.17-.32,0-.12-.01-.19-.39-.22l.02-.21c.21.02.45.05.66.07.17.01.37.01.57.03l-.02.21c-.23-.02-.35,0-.67.41l-.98,1.3-.11,1.44h0Z"/>
    <path class="cls-15" d="m63.31,82.12c1.12-.09,1.92.73,2.02,1.9.08,1-.53,2.16-1.72,2.26-1.14.09-1.96-.7-2.06-1.94-.11-1.27.75-2.14,1.76-2.22h0Zm.35,3.89c.87-.07,1.07-.99,1-1.86-.09-1.13-.7-1.83-1.43-1.77-.83.07-1.08.95-1.01,1.82.09,1.08.73,1.87,1.45,1.81h0Z"/>
    <path class="cls-15" d="m66.94,85.2c.06.3-.12.39-.43.45l.04.21c.26-.06.52-.12.78-.17.37-.07.65-.12.92-.16l-.04-.21-.14.03c-.32.06-.49,0-.57-.42l-.22-1.17.64-.12c.4-.08.5-.05.59.46l.18-.03c-.05-.22-.1-.44-.14-.66s-.08-.43-.11-.64l-.18.03c.09.49-.05.52-.39.59l-.64.12-.29-1.51.73-.14c.6-.12.75-.07.95.46l.14-.03-.19-.87c-.39.08-.79.17-1.43.29-.44.08-.88.16-1.32.24l.04.21c.32-.06.51-.05.57.25l.53,2.79h0Z"/>
    <path class="cls-15" d="m73.05,83.43c.19.54.44.46.79.35l.07.2c-.33.11-.63.2-.93.31-.29.1-.59.21-.92.34l-.07-.2c.57-.2.58-.34.32-1.08l-1.18-3.4c-.22-.63-.33-.62-.86-.47l-.07-.2c.46-.16.95-.31,1.42-.47.59-.21,1.2-.41,1.77-.63l.41,1.07-.14.08c-.29-.63-.64-.75-1.35-.5l-.77.27.75,2.18.77-.27c.54-.19.55-.29.45-.87l.15-.05c.04.15.17.57.26.84.08.25.22.6.31.8l-.13.04c-.26-.5-.33-.67-.9-.47l-.8.28.64,1.86h0Z"/>
    <path class="cls-15" d="m76.07,78.69c1.01-.48,2.06.02,2.55,1.08.43.91.25,2.21-.82,2.72-1.03.49-2.08.03-2.61-1.1-.54-1.15-.04-2.27.88-2.7h0Zm1.69,3.53c.79-.37.66-1.3.28-2.09-.48-1.03-1.29-1.47-1.96-1.16-.75.35-.69,1.26-.31,2.06.46.98,1.33,1.5,1.99,1.19h0Z"/>
    <path class="cls-15" d="m79,77.93c-.16-.26-.35-.21-.62-.04l-.11-.18c.23-.13.46-.26.69-.4.28-.17.67-.43.87-.55.49-.3,1.06-.26,1.4.29.24.39.18.79-.13,1.2,1.42.9,1.67.97,2.11.85l.11.18c-.12.06-.25.13-.36.2-.13.08-.25.16-.37.25-.42-.16-1.22-.65-1.88-1.05l-.19.13-.21.11.69,1.12c.17.28.36.2.62.04l.11.18c-.22.13-.47.27-.71.42-.22.14-.45.29-.67.43l-.11-.18c.28-.17.41-.31.25-.57l-1.48-2.42h0Zm1.39.65c.5-.3.64-.7.33-1.22-.27-.44-.66-.5-1.11-.22l-.28.2.84,1.38.22-.13h0Z"/>
    <path class="cls-15" d="m86.09,77.22c-.4.29-.8.58-1.2.88-.35.26-.71.54-1.06.81l-.13-.17c.26-.19.38-.35.19-.59l-1.7-2.27c-.19-.25-.36-.17-.62.02l-.13-.17c.25-.18.51-.36.76-.55.45-.34.91-.69,1.35-1.03l.55.66-.12.09c-.4-.39-.52-.36-1.09.07l-.41.31.92,1.23.46-.34c.28-.21.39-.31.06-.75l.14-.11c.12.17.25.35.38.53.13.17.27.35.41.53l-.14.11c-.27-.36-.37-.34-.7-.1l-.46.34.71.95c.21.28.42.28.88-.06.56-.42.53-.53.43-1.12l.14-.1.37.85h0Z"/>
    <path class="cls-15" d="m86.81,75.86c.2.23.09.39-.15.61l.14.16c.19-.18.39-.36.59-.53.21-.18.43-.37.63-.53l-.14-.16c-.24.21-.42.3-.62.07l-1.87-2.14c-.2-.23-.09-.39.15-.61l-.14-.16c-.19.17-.4.37-.61.55-.2.17-.41.34-.61.51l.14.16c.24-.21.42-.3.62-.07l1.87,2.14h0Z"/>
    <path class="cls-15" d="m88.96,70.54l-.11.11c-.44-.19-.9-.39-1.4.13-.52.54-.58,1.37.35,2.27.54.53,1.55,1.01,2.32.22.12-.12.2-.27.25-.44l-.44-.45c-.33-.32-.45-.36-.78-.02l-.15-.15c.19-.18.41-.38.59-.57.14-.15.31-.34.45-.49l.15.15c-.23.23-.24.32-.05.51l.37.36c.1.1.19.19.31.13l.11.11c-.16.33-.4.81-.79,1.21-.77.8-1.98.72-2.79-.07-.93-.9-.92-2.09-.17-2.87.12-.13.24-.22.5-.42l.54-.36.73.63h0Z"/>
    <path class="cls-15" d="m89.43,69.24c-.29-.22-.56.09-.64.2l-.17-.13c.11-.13.21-.25.31-.37.09-.12.19-.26.27-.38l3.59.12-1.68-1.3c-.44-.34-.56-.2-.79.09l-.17-.13c.14-.17.3-.36.43-.53.12-.16.25-.34.37-.5l.17.13c-.2.26-.28.39.04.64l2.71,2.11-.1.13-3.96-.12,1.71,1.33c.46.36.61.39.93-.02l.17.13c-.15.17-.31.38-.46.56-.14.19-.28.38-.42.57l-.17-.13c.35-.45.09-.65-.38-1.01l-1.78-1.38h0Z"/>
    <path class="cls-15" d="m94.48,65.69l.08-.14c.59.2,1.29.15,1.57-.35.26-.46.08-1.04-.48-1.35-1.32-.74-1.93,1.26-3.6.32-.91-.51-1.07-1.33-.66-2.07.14-.25.34-.46.52-.67l.96.41-.08.14c-.53-.21-.98-.1-1.22.34-.26.46-.02.94.5,1.23,1.32.74,2-1.32,3.62-.4.92.52,1.04,1.51.64,2.22-.18.31-.44.59-.76.79l-1.1-.46h0Z"/>
    <path class="cls-15" d="m94.45,60.67l-.22.48c-.17.38-.15.49.3.82l-.07.16-.94-.53.06-.13c.14.06.24-.06.3-.2l.91-2.01c.07-.15.1-.22-.03-.41l.06-.13.95.5-.08.17c-.49-.18-.6-.17-.72.09l-.29.63,2.87,1.3c.28.13.4-.02.55-.36l.19.09c-.13.27-.26.53-.37.78-.11.24-.21.49-.33.77l-.19-.09c.15-.33.18-.52-.1-.65l-2.87-1.3h0Z"/>
    <path class="cls-15" d="m95.74,58.27c-.28-.09-.37.18-.43.36l-.2-.07c.09-.24.19-.5.27-.74.08-.23.15-.47.22-.7l.2.07c-.07.2-.14.43.12.51l2.09.7c.71.24,1.12-.04,1.29-.54.31-.92-.53-1.2-1.3-1.46l-.91-.3c-.77-.26-.85-.21-1,.22l-.2-.07c.08-.21.16-.43.24-.65.06-.18.11-.36.17-.55l.2.07c-.08.22-.09.41.41.57l1.56.52c.88.3,1.44.88,1.12,1.84-.28.84-.83,1.22-1.72.92l-2.12-.71h0Z"/>
    <path class="cls-15" d="m97.09,54.19c-.3-.06-.39.11-.46.43l-.21-.04c.06-.25.13-.52.19-.81.07-.34.13-.69.2-1.03.29-1.36,1.4-1.73,2.32-1.54,1.5.32,1.78,1.41,1.57,2.39-.06.3-.15.63-.21.9-.06.3-.12.6-.18.91l-.21-.04c.07-.32.06-.51-.24-.57l-2.78-.59h0Zm2.7-.04c.46.1.55-.11.62-.43.14-.65.07-1.55-1.32-1.84-.98-.21-1.83.02-2.02.92-.04.2-.1.54-.13.75l2.86.6h0Z"/>
    <path class="cls-15" d="m97.92,49.7c-.31-.04-.38.14-.42.47l-.21-.03c.04-.26.08-.53.11-.79.03-.27.06-.56.08-.82l.21.03c-.04.32-.01.51.29.55l2.82.34c.31.04.38-.14.41-.47l.21.03c-.04.25-.08.54-.11.81-.03.26-.06.53-.08.79l-.21-.03c.04-.32.01-.51-.29-.55l-2.82-.34h0Z"/>
    <path class="cls-15" d="m101.65,45.39c-.03.5-.06.99-.08,1.48-.02.44-.03.89-.05,1.33h-.21c.02-.33-.02-.52-.33-.54l-2.84-.13c-.31-.01-.37.17-.38.49h-.21c.02-.32.04-.63.06-.94.03-.57.04-1.14.06-1.7h.86s0,.14,0,.14c-.55.06-.61.17-.64.88l-.02.51,1.53.07.03-.57c.02-.35.02-.5-.54-.52v-.18c.22.02.44.03.66.04.22.01.45.01.67.02v.18c-.45-.02-.51.07-.53.47l-.03.57,1.18.05c.35.02.49-.14.51-.72.03-.7-.07-.75-.59-1.04v-.17s.9.26.9.26h0Z"/>
    <path class="cls-15" d="m100.67,44.37v-.16c.56-.16.85-.38.83-.89-.02-.53-.45-.64-.7-.63-.33.01-.54.18-.8.65-.43.78-.73.99-1.37,1.01-.55.02-1.07-.37-1.09-.97,0-.26.05-.59.05-.82l.79-.09v.14c-.32.09-.65.25-.63.71.01.36.3.59.67.58.39-.01.54-.12.9-.8.39-.75.73-.9,1.24-.92.65-.02,1.13.47,1.16,1.18.01.32-.05.6-.19.86l-.86.14h0Z"/>
    <path class="cls-15" d="m20.63,30.13l.48-1.11c.41.18.68.29.79.34l.64-1.49.59.25-.32.74c.15-.04.31-.06.48-.05.16,0,.32.05.48.11.38.16.64.44.79.85.15.4.14.81-.04,1.21-.17.4-.45.69-.85.86-.39.17-.78.18-1.16.01-.15-.07-.29-.15-.41-.27-.12-.11-.22-.24-.29-.38l-.31.73-.59-.25.63-1.48-.08-.03c-.35-.15-.56-.15-.83-.04h0Zm3.99,1.89l.51-1.2,1.28.55h.08s.06-.05.06-.05l1.26-2.95.59.25-1.42,3.32c-.08.18-.18.29-.3.35-.12.05-.28.04-.46-.04l-.75-.32c-.26-.11-.57-.01-.85.1h0Zm-1.76-1c.2.09.41.1.63.04.22-.06.37-.17.45-.36.08-.18.06-.37-.04-.56-.1-.2-.26-.34-.46-.42-.21-.09-.42-.1-.63-.05-.22.06-.36.17-.44.35-.07.17-.06.36.04.56.1.2.25.35.46.43h0Zm-.98-3.72l.51-1.18,1.65.7.37-.85.59.25-.37.86,2.11.9-.34.79-3.64-1.55c-.26-.11-.57-.03-.88.09h0Z"/>
    <path class="cls-15" d="m31,19.14l-1.8,1.98-.48-.43,3.06-3.38c-.04-.16-.12-.31-.22-.44-.11-.13-.27-.29-.48-.49l-.28-.25-.1-.05-.1.07-2.66,2.93-.48-.43,3.29-3.63.05-.03.06.03.86.77c.23.2.38.37.46.49.08.12.13.26.16.4l.61-.67.48.43-1.79,1.98.8.72,1.26-1.4.05-.03.05.02,1.7,1.54-.6.66-1.22-1.1-.05-.02-.05.03-2.58,2.84-.48-.43,1.26-1.39-.8-.72h0Z"/>
    <path class="cls-15" d="m41.28,7.34l1.14-.61,3.13,5.79-.76.41-.87-1.61c-.09.16-.21.29-.37.41-.16.12-.4.26-.71.43l-2.98,1.6-.3-.57,1.66-.89c-.16-.3-.36-.52-.76-.64l1.08-.58.44.81.81-.44c.25-.13.43-.26.55-.37.12-.11.21-.23.27-.34l-1.58-2.91c-.13-.24-.41-.38-.75-.49h0Zm-2.44,3.17c-.2-.37-.23-.76-.1-1.16.14-.41.4-.71.8-.93.39-.21.8-.26,1.22-.16.42.11.72.34.92.71.2.37.23.76.09,1.16-.14.41-.4.72-.8.93-.4.21-.8.27-1.21.16-.41-.11-.72-.35-.92-.71h0Zm.75-.41c.12.21.27.35.48.43.21.08.41.07.59-.03.19-.1.3-.26.35-.47.05-.22.02-.43-.1-.64-.11-.21-.27-.35-.49-.43-.21-.08-.41-.07-.59.04-.19.1-.3.26-.35.47-.05.22-.02.43.1.64h0Z"/>
    <path class="cls-15" d="m53.41,6.66l-2.65.43-.1-.64,4.5-.73c.07-.15.1-.31.1-.49,0-.17-.02-.39-.07-.67l-.06-.37-.04-.1h-.12s-3.91.62-3.91.62l-.1-.64,4.85-.78h.05s.03.07.03.07l.19,1.14c.05.3.07.53.05.67-.02.15-.06.29-.12.41l.89-.14.1.63-2.64.43.17,1.06,1.86-.3h.06s.03.06.03.06l.37,2.26-.88.14-.26-1.62-.03-.05h-.05s-3.79.6-3.79.6l-.1-.63,1.86-.3-.17-1.06h0Z"/>
    <path class="cls-15" d="m68.81,3.83l1.26.22-1.15,6.48-.84-.15.67-3.81-.98-.17c-.16.4-.43.71-.82.92-.39.22-.81.29-1.27.21-.52-.09-.93-.35-1.23-.77-.3-.42-.41-.88-.32-1.38.09-.5.35-.9.77-1.19.43-.29.9-.39,1.42-.3.47.08.85.3,1.15.66.3.36.44.76.43,1.21l.96.17.22-1.23c.05-.31-.06-.57-.28-.88h0Zm-3.8,1.72c-.06.31-.01.61.13.89.14.28.36.45.65.5.29.05.55-.03.79-.24.23-.21.37-.47.43-.79.06-.32.01-.61-.13-.9-.14-.28-.36-.45-.65-.5-.27-.05-.53.03-.77.24-.24.21-.39.47-.44.79h0Z"/>
    <path class="cls-15" d="m82.05,9.12l1.03.58-3.23,5.74-.71-.4,1.89-3.37-.47-.27-1.9,3.37-.71-.4,1.03-1.84c-.14-.02-.3-.07-.46-.14-.16-.07-.37-.18-.62-.31l-1.07-.6c-.25-.14-.4-.31-.46-.5-.06-.2,0-.42.14-.69l1.17-2.08c.14-.26.12-.62.03-.94l2.6,1.46-.32.56-1.47-.82-1.31,2.33-.02.11.07.08,1.2.67c.18.1.33.17.47.22.13.05.25.08.36.08l1.52-2.7c.1-.18.15-.46.04-.82l1.03.58-1.02,1.81.47.27.66-1.17c.1-.18.15-.46.04-.83h0Z"/>
    <path class="cls-15" d="m90.39,15.7l.8.91-.62.54,1.07,1.22-.48.42-.53-.6c-.03.15-.08.29-.16.42-.08.13-.17.25-.29.35-.3.27-.67.38-1.09.34-.42-.04-.77-.22-1.06-.55-.28-.32-.42-.69-.4-1.12.01-.42.17-.77.48-1.03.12-.1.25-.19.39-.24.14-.06.29-.09.44-.1,0,0-.17-.19-.52-.59l.48-.42,1.07,1.21.08-.07c.18-.16.33-.37.35-.69h0Zm-.38,6.01l.04.1-.05.1-1.72,1.51-.59-.67,1.29-1.13.03-.05-.02-.05-2.39-2.71.48-.43,2.94,3.33h0Zm-1.3-4.43c-.16.14-.27.32-.31.53-.04.21,0,.39.13.53.13.15.3.21.51.2.21-.01.39-.09.56-.24.17-.15.27-.32.32-.53.04-.2,0-.38-.13-.53-.12-.14-.29-.2-.5-.2-.22,0-.41.08-.57.23h0Zm3.67.83l.85.97-1.02.9.62.7-.54.47-.62-.7-1.35,1.18-.57-.65,2.32-2.04c.23-.2.28-.47.3-.84h0Z"/>
    <path class="cls-15" d="m96.45,29.71l.45,1.11-2.45.99.88,2.16-.6.24-2.38-5.83.6-.24.61,1.49,1.8-.73c.26-.11.39-.31.52-.6l.45,1.11-2.45,1,.26.63,1.79-.73c.26-.1.4-.32.52-.6h0Zm2,1.28l.09-.07-.02-.12-1.46-3.57.6-.24,1.82,4.46v.06s-.04.03-.04.03l-1.93.78c-.44.18-.81.3-1.1.36-.29.06-.57.06-.83.02l-.32-.78c.27.04.55.03.86-.05.3-.07.68-.2,1.13-.39l1.2-.49h0Z"/>
    <path class="cls-7" d="m84.59,45.24c0,14.15-11.09,25.62-24.77,25.62s-24.77-11.47-24.77-25.62,11.09-25.62,24.77-25.62,24.77,11.47,24.77,25.62h0Z"/>
    <path class="cls-8" d="m84.59,45.24c0,14.15-11.09,25.62-24.77,25.62s-24.77-11.47-24.77-25.62,11.09-25.62,24.77-25.62,24.77,11.47,24.77,25.62h0Z"/>
    <path class="cls-9" d="m59.59,26.9c4.76,2.6,9.66,8.66,11.66,14.41,2.96,8.53,2.22,18.6-2.05,27.63l.78.37c4.36-9.23,5.12-19.53,2.08-28.28-2.09-6.03-7.05-12.15-12.05-14.88l-.42.76h0Z"/>
    <path class="cls-13" d="m61.26,25.49c7.77,1.25,14.78,7.62,17.43,12.99,3.2,6.48,3.24,14.13.12,22.75l.81.29c3.2-8.85,3.15-16.73-.15-23.42-2.75-5.56-10.01-12.17-18.07-13.46l-.14.85h0Z"/>
    <path class="cls-10" d="m74.41,22.91c1.25,2.56.99,5.84-.71,8.97-2.65,4.89-7.96,8.38-13.86,9.13-9.51,1.19-18.66.73-21.2-10.71l-.84.18c2.69,12.14,12.71,12.57,22.15,11.38,6.17-.77,11.73-4.44,14.52-9.57,1.84-3.39,2.1-6.94.73-9.76l-.78.38h0Z"/>
    <path class="cls-14" d="m84.78,38.86c-.44,8.96-9.73,20.04-21.51,21.45-12.85,1.54-24.12-4.08-28.19-10.16l-.72.48c4.32,6.44,15.67,12.13,29.01,10.54,12.2-1.46,21.82-12.96,22.27-22.26l-.86-.04h0Z"/>
    <path class="cls-12" d="m68.48,18.57c.39,1.13-.09,3.02-1.25,4.91-.87,1.42-4.2,6.11-10.69,7.08-5.33.79-12.05-.35-13.45-6.16l-.84.2c1.43,5.97,8.28,7.72,14.42,6.81,4.63-.69,8.86-3.48,11.3-7.48,1.3-2.13,1.8-4.24,1.32-5.63l-.82.28h0Z"/>
    <path class="cls-11" d="m80.5,29.71c.67,4.2-.46,8.55-3.17,12.26-3.44,4.71-9.03,7.88-15.72,8.9-11.73,1.8-21.37-2.17-26.45-10.88l-.75.43c5.27,9.03,15.23,13.15,27.33,11.29,6.92-1.06,12.71-4.34,16.29-9.24,2.85-3.9,4.03-8.48,3.32-12.9l-.85.13h0Z"/>
    <path class="cls-6" d="m49.66,32.58c-7.34,9.25-8.81,23.12-3.65,34.51l.79-.36c-5.03-11.1-3.6-24.61,3.54-33.62l-.68-.54h0Z"/>
    <path class="cls-5" d="m46.98,28.8c-7.32,5.3-11.34,15.5-10.42,25.59l.86-.08c-.89-9.8,2.99-19.69,10.08-24.82l-.51-.69h0Z"/>
    <path class="cls-4" d="m60.06,13.96c-17.22,0-31.18,13.93-31.18,31.12s13.96,31.12,31.18,31.12,31.17-13.93,31.17-31.12-13.96-31.12-31.17-31.12h0Zm0,55.7c-13.6,0-24.63-11-24.63-24.58s11.03-24.58,24.63-24.58,24.63,11,24.63,24.58-11.03,24.58-24.63,24.58h0Z"/>
    <polygon class="cls-3" points="75.09 25.66 75.09 13.72 46.96 13.72 46.96 76.18 75.09 76.18 75.09 64.52 65.83 64.52 65.83 25.66 75.09 25.66 75.09 25.66"/>
    <polygon class="cls-2" points="72.88 66.74 72.88 73.97 49.17 73.97 49.17 15.93 72.88 15.93 72.88 23.44 63.62 23.44 63.62 66.74 72.88 66.74 72.88 66.74"/>
    <path class="cls-16" d="m6.79,116.76v-1.7c0-.54-.25-.55-.6-.56v-.2c.35,0,.66.02.98.02.29,0,.58-.02.88-.02v.2c-.35,0-.6.02-.6.56v3.91c0,.55.25.55.6.56v.2c-.3,0-.6-.02-.89-.02s-.62,0-.96.02v-.2c.35,0,.6-.02.6-.56v-1.89h-2.68v1.89c0,.55.25.55.6.56v.2c-.32,0-.6-.02-.89-.02-.32,0-.63,0-.96.02v-.2c.35,0,.6-.02.6-.56v-3.91c0-.54-.25-.55-.6-.56v-.2c.31,0,.62.02.91.02s.61,0,.94-.02v.2c-.35,0-.6.02-.6.56v1.7h2.68Z"/>
    <path class="cls-16" d="m10.25,119.53h.08c.17,0,.33-.05.33-.19,0-.09-.02-.16-.05-.26l-.25-.79h-1.13l-.15.51c-.03.1-.11.37-.11.51,0,.19.22.22.34.22h.08v.2c-.22,0-.45-.02-.68-.02-.17,0-.36,0-.54.02v-.2c.34,0,.44-.16.49-.33l.95-2.84c.03-.09.07-.19.07-.26v-.11s.5-.23.5-.23l.99,3.3c.11.36.21.46.56.46v.2c-.25,0-.5-.02-.74-.02s-.5,0-.74.02v-.2h0Zm-.44-3.05h-.01l-.48,1.57h.97l-.48-1.57h0Z"/>
    <path class="cls-16" d="m12.44,116.49c0-.35-.4-.37-.53-.37v-.2c.16,0,.31.02.46.02.14,0,.3,0,.44-.02l2.02,2.79v-2.04c0-.54-.18-.54-.53-.54v-.2c.21,0,.44.02.66.02.19,0,.4,0,.6-.02v.2c-.31,0-.46.02-.46.4v3.3h-.16l-2.24-3.07v2.08c0,.56.07.69.56.69v.2c-.22,0-.47-.02-.7-.02s-.45,0-.68.02v-.2c.54,0,.54-.32.54-.88v-2.17h0Z"/>
    <path class="cls-16" d="m16.46,116.46c0-.3-.18-.34-.49-.34v-.2c.25,0,.51.02.76.02.27,0,.54,0,.79-.02v.2c-.31,0-.49.05-.49.34v2.73c0,.3.18.34.49.34v.2c-.25,0-.52-.02-.79-.02-.25,0-.51,0-.76.02v-.2c.31,0,.49-.05.49-.34v-2.73h0Zm2.27,2.7c.14.19.31.37.54.37v.2c-.13,0-.29-.02-.41-.02-.15,0-.3,0-.46.02l-1.35-1.95,1.11-1.36.08-.19-.13-.12h-.15v-.2c.19,0,.41.02.6.02s.4-.02.59-.02v.2c-.39,0-.54.12-1.62,1.43l1.2,1.61h0Z"/>
    <path class="cls-16" d="m19.94,116.4c0-.28-.28-.28-.46-.28v-.2c.25,0,.51.02.75.02.23,0,.48,0,.7-.02v.2c-.2,0-.43,0-.43.26v2.12c0,.72.38,1.01.89,1.01.93,0,.93-.85.93-1.63v-.92c0-.78-.07-.84-.51-.84v-.2c.22,0,.44.02.66.02.18,0,.36,0,.55-.02v.2c-.23,0-.4.04-.4.54v1.58c0,.9-.36,1.58-1.33,1.58-.85,0-1.36-.38-1.36-1.29v-2.14h0Z"/>
    <path class="cls-16" d="m24,116.46c0-.3-.18-.34-.49-.34v-.2c.25,0,.51.02.76.02.26,0,.54,0,.79-.02v.2c-.31,0-.49.05-.49.34v2.73c0,.3.18.34.49.34v.2c-.25,0-.52-.02-.79-.02s-.51,0-.76.02v-.2c.31,0,.49-.05.49-.34v-2.73h0Zm2.26,2.7c.14.19.31.37.54.37v.2c-.13,0-.29-.02-.41-.02-.15,0-.3,0-.46.02l-1.35-1.95,1.11-1.36.08-.19-.13-.12h-.15v-.2c.19,0,.41.02.6.02s.4-.02.59-.02v.2c-.39,0-.54.12-1.62,1.43l1.2,1.61h0Z"/>
    <path class="cls-16" d="m33.21,114.5c-.53,0-.52.3-.52,1.25v2.24c0,1.06-.56,1.85-1.73,1.85-1.09,0-1.75-.62-1.77-1.95v-2.84c0-.54-.25-.55-.6-.56v-.2c.31,0,.62.02.91.02s.61,0,.94-.02v.2c-.35,0-.6.02-.6.56v2.65c0,.93.26,1.82,1.29,1.82,1.1,0,1.21-1,1.21-1.54v-2.22c0-1.28-.04-1.25-.63-1.28v-.2c.28,0,.56.02.83.02.23,0,.44-.02.67-.02v.2h0Z"/>
    <path class="cls-16" d="m33.92,116.49c0-.35-.4-.37-.53-.37v-.2c.16,0,.31.02.46.02.14,0,.3,0,.44-.02l2.02,2.79v-2.04c0-.54-.18-.54-.53-.54v-.2c.21,0,.44.02.66.02.19,0,.4,0,.6-.02v.2c-.31,0-.46.02-.46.4v3.3h-.16l-2.24-3.07v2.08c0,.56.07.69.56.69v.2c-.22,0-.47-.02-.7-.02s-.45,0-.68.02v-.2c.54,0,.54-.32.54-.88v-2.17h0Z"/>
    <path class="cls-16" d="m37.95,116.46c0-.3-.18-.34-.49-.34v-.2c.25,0,.51.02.76.02.27,0,.54,0,.79-.02v.2c-.31,0-.49.05-.49.34v2.73c0,.3.18.34.49.34v.2c-.25,0-.52-.02-.79-.02s-.51,0-.76.02v-.2c.31,0,.49-.05.49-.34v-2.73h0Z"/>
    <path class="cls-16" d="m39.78,116.49c-.1-.29-.14-.37-.45-.37v-.2c.22,0,.46.02.7.02.25,0,.49,0,.74-.02v.2h-.16c-.15,0-.24.05-.24.19l.05.2.85,2.49.78-2.33c.05-.12.07-.24.07-.34,0-.2-.21-.2-.44-.2v-.2c.21,0,.44.02.65.02.16,0,.34,0,.5-.02v.2c-.21,0-.29,0-.46.48l-1.17,3.23h-.23l-1.19-3.34h0Z"/>
    <path class="cls-16" d="m45.97,118.87h-.17c-.26.51-.3.62-.97.62-.55,0-.71-.12-.71-.46v-1.14h.55c.39,0,.48.05.48.48h.17c0-.22-.01-.44-.01-.65s0-.42.01-.62h-.17c0,.54-.15.55-.48.55h-.55v-1.47h.49c.68,0,.79.05.87.58h.14l-.04-.83c-.54,0-1.09.02-1.63.02-.3,0-.6,0-.89-.02v.2c.31,0,.49.05.49.34v2.73c0,.3-.18.34-.49.34v.2c.42,0,.85-.02,1.28-.02.48,0,.95,0,1.42.02l.21-.87h0Z"/>
    <path class="cls-16" d="m46.77,116.46c0-.3-.18-.34-.49-.34v-.2c.25,0,.51.02.76.02.32,0,.76-.02.99-.02.55,0,1,.32,1,.94,0,.44-.25.74-.71.92.71,1.45.88,1.64,1.3,1.75v.2c-.13,0-.27-.02-.4-.02-.15,0-.29,0-.43.02-.26-.34-.67-1.15-1.01-1.81l-.22.02-.22-.02v1.26c0,.32.2.34.49.34v.2c-.25,0-.52-.02-.79-.02s-.51,0-.76.02v-.2c.31,0,.49-.05.49-.34v-2.73h0Zm.82,1.23c.56,0,.87-.25.87-.83,0-.49-.29-.74-.8-.74l-.32.02v1.55h.25Z"/>
    <path class="cls-16" d="m49.88,118.79h.15c.13.55.34.83.82.83.51,0,.63-.41.63-.65,0-.32-.15-.52-.6-.8-.73-.44-.92-.74-.92-1.35,0-.53.39-1.01.97-1.01.25,0,.56.07.78.08l.06.76h-.14c-.07-.31-.22-.64-.66-.64-.34,0-.58.26-.58.62s.1.52.73.89c.7.41.83.73.83,1.22,0,.62-.49,1.07-1.17,1.07-.3,0-.57-.07-.82-.21l-.1-.83h0Z"/>
    <path class="cls-16" d="m53.11,116.46c0-.3-.18-.34-.49-.34v-.2c.25,0,.51.02.76.02.27,0,.54,0,.79-.02v.2c-.31,0-.49.05-.49.34v2.73c0,.3.18.34.49.34v.2c-.25,0-.52-.02-.79-.02-.25,0-.51,0-.76.02v-.2c.31,0,.49-.05.49-.34v-2.73h0Z"/>
    <path class="cls-16" d="m55.77,119.19c0,.3-.18.34-.53.34v.2c.29,0,.55-.02.8-.02.26,0,.54,0,.83.02v-.2c-.35,0-.53-.05-.53-.34v-3.02h.66c.27,0,.32.09.36.59h.18l.07-1.03h-.13c-.12.19-.2.19-.35.19h-2.11c-.14,0-.29-.04-.29-.19h-.13l-.09,1.03h.17c.11-.53.19-.59.6-.59h.5v3.02h0Z"/>
    <path class="cls-16" d="m59.74,119.27c0,.27.25.27.54.27v.2c-.26,0-.54-.02-.81-.02s-.55,0-.82.02v-.2c.33,0,.52,0,.52-.3v-1.18l-1.05-1.69c-.13-.18-.23-.24-.41-.24v-.2c.21,0,.47.02.7.02.25,0,.5,0,.75-.02v.2c-.13,0-.36,0-.36.1,0,.07.03.11.09.21l.74,1.24.64-1.05c.07-.11.14-.23.14-.32,0-.12-.03-.18-.38-.18v-.2c.2,0,.44.02.64.02.17,0,.36-.02.55-.02v.2c-.22,0-.34.02-.62.44l-.85,1.32v1.39h0Z"/>
    <path class="cls-16" d="m65.19,115.82c1.07,0,1.77.86,1.77,1.98,0,.97-.68,2.03-1.82,2.03s-1.81-.83-1.81-2.02.89-1.99,1.86-1.99h0Zm.03,3.76c.83,0,1.1-.86,1.1-1.7,0-1.09-.52-1.81-1.23-1.81-.79,0-1.11.82-1.11,1.66,0,1.04.54,1.85,1.24,1.85h0Z"/>
    <path class="cls-16" d="m68.07,116.46c0-.3-.18-.34-.49-.34v-.2c.43,0,.85.02,1.29.02.62,0,1.01,0,1.4-.02l.03.86h-.13c-.09-.54-.22-.61-.81-.61h-.71v1.47h.62c.33,0,.48,0,.48-.48h.17c0,.2-.01.41-.01.62s0,.43.01.65h-.17c0-.49-.09-.54-.48-.54h-.62v1.15c0,.41.15.5.46.5h.14v.2c-.26,0-.54-.02-.89-.02-.25,0-.51,0-.76.02v-.2c.31,0,.49-.05.49-.34v-2.73h0Z"/>
    <path class="cls-16" d="m73.7,118.97c0,.55.25.55.6.56v.2c-.33,0-.64-.02-.94-.02s-.6,0-.94.02v-.2c.58,0,.63-.12.63-.88v-3.46c0-.64-.11-.67-.63-.69v-.2c.47,0,.95.02,1.44.02.6,0,1.21,0,1.8-.02l.04,1.1-.15.03c-.07-.66-.34-.88-1.07-.88h-.78v2.21h.78c.54,0,.59-.09.68-.65h.15c-.01.15-.03.57-.03.85,0,.25.01.62.03.83h-.13c-.08-.54-.09-.71-.67-.71h-.81v1.89h0Z"/>
    <path class="cls-16" d="m77.93,115.82c1.07,0,1.78.86,1.78,1.98,0,.97-.68,2.03-1.82,2.03s-1.82-.83-1.82-2.02.89-1.99,1.86-1.99h0Zm.03,3.76c.83,0,1.1-.86,1.1-1.7,0-1.09-.52-1.81-1.23-1.81-.79,0-1.11.82-1.11,1.66,0,1.04.54,1.85,1.24,1.85h0Z"/>
    <path class="cls-16" d="m80.73,116.46c0-.3-.18-.34-.49-.34v-.2c.25,0,.51.02.76.02.32,0,.76-.02.99-.02.55,0,1,.32,1,.94,0,.44-.25.74-.71.92.71,1.45.88,1.64,1.3,1.75v.2c-.13,0-.27-.02-.4-.02-.15,0-.28,0-.43.02-.26-.34-.67-1.15-1.01-1.81l-.22.02-.23-.02v1.26c0,.32.2.34.49.34v.2c-.25,0-.52-.02-.79-.02s-.51,0-.76.02v-.2c.31,0,.49-.05.49-.34v-2.73h0Zm.81,1.23c.56,0,.88-.25.88-.83,0-.49-.29-.74-.79-.74l-.33.02v1.55h.25Z"/>
    <path class="cls-16" d="m86.53,119.74c-.48,0-.95-.02-1.42-.02-.42,0-.85,0-1.28.02v-.2c.31,0,.49-.05.49-.34v-2.73c0-.3-.18-.34-.49-.34v-.2c.3,0,.6.02.89.02.54,0,1.09,0,1.63-.02l.04.83h-.14c-.08-.53-.19-.58-.87-.58h-.49v1.47h.55c.33,0,.48,0,.48-.55h.17c0,.2-.01.41-.01.62s0,.43.01.65h-.17c0-.43-.09-.48-.48-.48h-.55v1.14c0,.34.16.46.71.46.67,0,.72-.1.97-.62h.17l-.21.87h0Z"/>
    <path class="cls-16" d="m87.61,119.19c0,.3-.18.34-.49.34v.2c.25,0,.51-.02.76-.02.27,0,.54,0,.79.02v-.2c-.31,0-.49-.05-.49-.34v-2.73c0-.3.18-.34.49-.34v-.2c-.25,0-.52.02-.79.02-.25,0-.51,0-.76-.02v.2c.31,0,.49.05.49.34v2.73h0Z"/>
    <path class="cls-16" d="m92.43,116.95h-.15c-.16-.43-.33-.88-1.02-.88s-1.33.51-1.33,1.76c0,.72.34,1.75,1.4,1.75.16,0,.32-.05.47-.12,0-.07.01-.5.01-.6,0-.44-.05-.55-.51-.55v-.2c.25,0,.54.02.79.02.2,0,.44-.02.64-.02v.2c-.31,0-.38.05-.38.31v.5c0,.14,0,.26.12.3v.15c-.34.11-.83.27-1.37.27-1.07,0-1.81-.88-1.81-1.97,0-1.25.82-2.03,1.86-2.03.17,0,.31.02.62.07.09.02.52.11.61.13l.05.93h0Z"/>
    <path class="cls-16" d="m93.58,116.49c0-.35-.4-.37-.53-.37v-.2c.16,0,.31.02.46.02.14,0,.3,0,.44-.02l2.02,2.79v-2.04c0-.54-.18-.54-.53-.54v-.2c.21,0,.44.02.66.02.19,0,.4,0,.6-.02v.2c-.31,0-.46.02-.46.4v3.3h-.16l-2.24-3.07v2.08c0,.56.07.69.56.69v.2c-.22,0-.47-.02-.7-.02s-.45,0-.68.02v-.2c.54,0,.54-.32.54-.88v-2.17h0Z"/>
    <path class="cls-16" d="m98.83,118.45h.15c.11.58.48,1.15,1.03,1.15.51,0,.91-.42.91-1.04,0-1.45-1.96-1.02-1.96-2.86,0-1.01.61-1.53,1.42-1.53.27,0,.54.07.81.12l.11,1h-.15c-.07-.55-.38-.87-.85-.87-.5,0-.79.43-.79,1,0,1.45,2.04,1.05,2.04,2.84,0,1.01-.77,1.58-1.56,1.58-.34,0-.7-.09-1.01-.27l-.13-1.14h0Z"/>
    <path class="cls-16" d="m103,119.19c0,.3-.18.34-.53.34v.2c.29,0,.55-.02.8-.02.26,0,.54,0,.83.02v-.2c-.35,0-.53-.05-.53-.34v-3.02h.66c.27,0,.33.09.36.59h.18l.07-1.03h-.13c-.12.19-.2.19-.35.19h-2.11c-.14,0-.29-.04-.29-.19h-.13l-.09,1.03h.17c.11-.53.19-.59.6-.59h.5v3.02h0Z"/>
    <path class="cls-16" d="m105.54,116.4c0-.28-.28-.28-.46-.28v-.2c.25,0,.51.02.75.02.23,0,.48,0,.7-.02v.2c-.2,0-.43,0-.43.26v2.12c0,.72.38,1.01.89,1.01.93,0,.93-.85.93-1.63v-.92c0-.78-.07-.84-.51-.84v-.2c.22,0,.44.02.66.02.19,0,.36,0,.55-.02v.2c-.23,0-.4.04-.4.54v1.58c0,.9-.36,1.58-1.33,1.58-.85,0-1.36-.38-1.36-1.29v-2.14h0Z"/>
    <path class="cls-16" d="m109.6,116.46c0-.3-.18-.34-.49-.34v-.2c.25,0,.52.02.79.02.34,0,.68-.02,1.01-.02,1.33,0,1.9.97,1.9,1.87,0,1.47-.97,1.95-1.93,1.95-.29,0-.62-.02-.88-.02-.3,0-.59,0-.89.02v-.2c.31,0,.49-.05.49-.34v-2.73h0Zm.57,2.53c0,.45.21.49.53.49.64,0,1.46-.24,1.46-1.61,0-.96-.38-1.71-1.27-1.71-.19,0-.52.02-.73.02v2.81h0Z"/>
    <path class="cls-16" d="m113.92,116.46c0-.3-.18-.34-.49-.34v-.2c.25,0,.51.02.76.02.26,0,.54,0,.79-.02v.2c-.31,0-.49.05-.49.34v2.73c0,.3.18.34.49.34v.2c-.25,0-.52-.02-.79-.02s-.51,0-.76.02v-.2c.31,0,.49-.05.49-.34v-2.73h0Z"/>
    <path class="cls-16" d="m118.15,119.74c-.48,0-.95-.02-1.42-.02-.42,0-.85,0-1.28.02v-.2c.31,0,.49-.05.49-.34v-2.73c0-.3-.18-.34-.49-.34v-.2c.3,0,.6.02.89.02.54,0,1.09,0,1.63-.02l.04.83h-.14c-.08-.53-.19-.58-.87-.58h-.49v1.47h.55c.33,0,.48,0,.48-.55h.17c0,.2-.01.41-.01.62s0,.43.01.65h-.17c0-.43-.09-.48-.48-.48h-.55v1.14c0,.34.16.46.71.46.67,0,.72-.1.97-.62h.17l-.21.87h0Z"/>
    <path class="cls-16" d="m118.94,119.62c.25.14.52.21.82.21.68,0,1.17-.44,1.17-1.07,0-.49-.13-.82-.83-1.22-.64-.37-.74-.51-.74-.89s.23-.62.58-.62c.44,0,.58.33.66.64h.14l-.06-.76c-.22,0-.53-.08-.78-.08-.58,0-.97.48-.97,1.01,0,.61.19.9.92,1.35.44.27.6.48.6.8,0,.24-.12.65-.63.65-.48,0-.69-.29-.82-.83h-.15l.1.83h0Z"/>
    <path class="cls-16" d="m2.49,98.88h2.85v1.58h3.11v1.56h-1.52c.14.22.25.46.33.72.08.26.11.52.11.8,0,.81-.31,1.51-.92,2.1-.62.59-1.36.88-2.24.88s-1.61-.29-2.24-.88c-.62-.59-.93-1.29-.93-2.1,0-.28.04-.55.11-.8.08-.26.19-.5.33-.72H0v-1.56h3.08v-.14c0-.59-.23-1.07-.59-1.43h0Zm-.26,8.63h3.05v2.7l.06.16.16.06h6.18v1.58h-7.42c-.39,0-.68-.09-.87-.28-.19-.19-.29-.48-.29-.88v-1.68c0-.54-.31-1.09-.86-1.64h0Zm1-3.97c0,.37.1.71.29,1,.2.3.43.45.7.45s.51-.15.71-.44c.2-.29.29-.62.29-.98s-.1-.71-.29-1c-.19-.3-.42-.45-.7-.45s-.5.15-.7.44c-.2.29-.3.62-.3.98h0Zm5.29-4.59h3.01v3.44h1.86v1.65h-1.86v4.37h-2.15v-7.91c0-.58-.35-1.09-.86-1.55h0Z"/>
    <path class="cls-16" d="m26.8,103.78h1.71v1.58h-5.13v1.86h3.48l.11.04.04.11v4.77h-2.22v-3.22l-.04-.11-.11-.04h-7.24v-1.55h3.62v-1.86h-5.14v-1.58h8.77c.14-.26.24-.55.28-.87.04-.33.07-.75.07-1.26v-.41c0-.1-.02-.18-.06-.21-.04-.04-.11-.06-.23-.06h-7.48v-1.58h9.82l.11.04.04.12v2.26c0,.55-.03.97-.09,1.25-.06.28-.16.52-.29.73h0Z"/>
    <path class="cls-16" d="m34.91,105.75h2.79v1.83h1.86c.4,0,.74-.02,1.02-.07.28-.05.51-.11.7-.19v-6.83c0-.53-.29-.99-.86-1.56h2.98v13.18h-2.12v-3.24c-.26.09-.57.16-.92.19-.36.03-.81.04-1.37.04h-7.05v-1.53h3.7v-.36c0-.41-.22-.96-.73-1.47h0Zm4.89-3.61c0,.84-.32,1.55-.95,2.13-.63.58-1.41.88-2.31.88s-1.66-.29-2.3-.88c-.63-.58-.95-1.29-.95-2.13s.32-1.55.95-2.14c.63-.58,1.4-.87,2.3-.87s1.68.29,2.31.87c.63.58.95,1.29.95,2.14h0Zm-2.14-.07c0-.4-.11-.74-.33-1.02-.22-.28-.49-.42-.8-.42s-.58.14-.79.42c-.21.28-.32.62-.32,1.02s.11.74.32,1.02c.21.28.48.41.79.41s.58-.14.8-.41c.22-.28.33-.62.33-1.02h0Z"/>
    <path class="cls-16" d="m58.33,103.78h1.71v1.58h-5.13v1.86h3.48l.11.04.04.11v4.77h-2.22v-3.22l-.04-.11-.11-.04h-7.24v-1.55h3.63v-1.86h-5.15v-1.58h8.77c.14-.26.24-.55.28-.87.04-.33.06-.75.06-1.26v-.41c0-.1-.02-.18-.06-.21-.04-.04-.11-.06-.23-.06h-7.48v-1.58h9.82l.11.04.04.12v2.26c0,.55-.03.97-.09,1.25-.06.28-.16.52-.29.73h0Z"/>
    <path class="cls-16" d="m71.92,98.94h3.01v13.18h-2.15v-7.59h-1.46c-.2.83-.66,1.52-1.37,2.08-.71.55-1.52.83-2.43.83-1.07,0-1.99-.37-2.76-1.11-.77-.74-1.15-1.63-1.15-2.67s.38-1.93,1.14-2.67c.77-.74,1.68-1.11,2.75-1.11.92,0,1.73.28,2.44.84.71.56,1.17,1.26,1.38,2.09h1.45v-2.12c0-.73-.38-1.25-.86-1.74h0Zm-6.08,4.72c0,.57.16,1.09.47,1.56.32.47.72.7,1.22.7s.92-.23,1.23-.69c.31-.46.47-.98.47-1.55s-.15-1.09-.46-1.56c-.31-.47-.72-.7-1.22-.7-.47,0-.87.23-1.21.69-.33.46-.5.98-.5,1.55h0Z"/>
    <path class="cls-16" d="m88.2,98.94h2.65v13.18h-1.92v-7.59h-.8v7.59h-1.92c0-2.75,0-4.12,0-4.11-.24.07-.52.11-.85.14-.33.02-.72.04-1.19.04h-2.52c-.57,0-1-.14-1.29-.43-.29-.29-.43-.73-.43-1.35v-4.67c0-.69-.3-1.22-.86-1.78h6.03v1.58h-3.04v4.78c0,.1.03.17.08.22l.2.07h2.41c.32,0,.59-.01.83-.04.24-.03.45-.07.63-.13v-5.94c0-.59-.28-1.1-.73-1.55h2.65v3.94h.8v-2.41c0-.57-.26-1.06-.73-1.53h0Z"/>
    <path class="cls-16" d="m97.07,98.74h2.85v1.5h3.11v1.56h-1.5c.12.21.22.43.28.66.06.23.09.47.09.72,0,.8-.31,1.49-.92,2.06-.61.57-1.34.86-2.19.86s-1.58-.29-2.19-.86c-.61-.57-.92-1.26-.92-2.06,0-.25.03-.49.1-.72.07-.23.16-.45.27-.66h-1.47v-1.56h3.08v-.15c0-.39-.19-.95-.59-1.35h0Zm8.9,8.4l.11.04.04.11v4.86h-2.22v-3.31l-.04-.11-.11-.04h-7.02v-1.55h9.24Zm-8.09-3.96c0,.35.09.67.26.94.18.27.4.41.67.41s.49-.13.67-.39c.18-.26.27-.57.27-.92s-.09-.68-.27-.95c-.18-.27-.4-.4-.67-.4-.25,0-.47.13-.66.39-.19.26-.29.57-.29.92h0Zm5.23-4.23h3.01v2.58h1.86v1.65h-1.86v3.38h-2.15v-6.02c0-.63-.35-1.08-.86-1.59h0Z"/>
    <path class="cls-16" d="m115.72,104.11h2.76v5h4.6v1.59h-12.62v-1.59h2.95v-3.67c0-.47-.3-.9-.73-1.33h2.76v5h1v-3.67c0-.47-.27-.87-.73-1.33h0Zm3.8-2.59c0-.11-.02-.18-.06-.22-.04-.04-.12-.06-.23-.06h-7.35v-1.58h9.62l.11.04.04.12v4.3c0,.96-.06,1.73-.17,2.33-.12.6-.32,1.11-.62,1.53h-2.03c.28-.47.46-1.01.56-1.62s.14-1.41.13-2.39v-2.45h0Z"/>
  </g>
</svg>