<svg width="24" height="24" viewBox="0 0 24 24" fill="none" xmlns="http://www.w3.org/2000/svg">
<path d="M8.25 23C10.32 23 12 21.152 12 18.875V14.75H8.25C6.18 14.75 4.5 16.598 4.5 18.875C4.5 21.152 6.18 23 8.25 23Z" fill="#0ACF83"/>
<path d="M4.5 11.3125C4.5 9.415 6.18 7.875 8.25 7.875H12V14.75H8.25C6.18 14.75 4.5 13.21 4.5 11.3125Z" fill="#A259FF"/>
<path d="M4.5 4.4375C4.5 2.54 6.18 1 8.25 1H12V7.875H8.25C6.18 7.875 4.5 6.335 4.5 4.4375Z" fill="#F24E1E"/>
<path d="M12 1H15.75C17.82 1 19.5 2.54 19.5 4.4375C19.5 6.335 17.82 7.875 15.75 7.875H12V1Z" fill="#FF7262"/>
<path d="M19.5 11.3125C19.5 13.21 17.82 14.75 15.75 14.75C13.68 14.75 12 13.21 12 11.3125C12 9.415 13.68 7.875 15.75 7.875C17.82 7.875 19.5 9.415 19.5 11.3125Z" fill="#1ABCFE"/>
</svg>
