<?xml version="1.0" encoding="UTF-8"?>
<svg id="Layer_2" data-name="Layer 2" xmlns="http://www.w3.org/2000/svg" viewBox="0 0 170.08 150.82">
  <defs>
    <style>
      .cls-1 {
        fill: #0098d8;
        stroke-width: 0px;
      }
    </style>
  </defs>
  <g id="_레이어_1" data-name="레이어 1">
    <g>
      <path class="cls-1" d="m147.72,0v6.96c0,9.09-7.4,16.49-16.49,16.49s-16.49-7.4-16.49-16.49V0h-4.57v6.96c0,11.62,9.45,21.06,21.06,21.06s21.06-9.45,21.06-21.06v-2.59h13.21v142.08H4.57V4.37h13.42c-.17.82-.21,1.81-.21,2.59,0,11.62,9.45,21.06,21.06,21.06s21.06-9.45,21.06-21.06v-.29h-21.36v4.37h16.22c-1.74,7.35-8.43,12.42-15.92,12.42-9.09,0-16.49-7.4-16.49-16.49,0-2.27.46-4.47,1.36-6.55l.18-.41H0v150.82h170.08V0h-22.36Z"/>
      <rect class="cls-1" x="65.37" width="4.57" height="27.21"/>
      <polygon class="cls-1" points="103.67 27.21 103.67 0 99.1 0 99.1 20.22 78.89 0 72.42 0 99.63 27.21 103.67 27.21"/>
      <g>
        <g>
          <path class="cls-1" d="m54.41,58.81h-1.96l1.43-3.75-3.25-8.55h2.03l2.25,6.1,2.25-6.1h2.04l-4.78,12.31Z"/>
          <path class="cls-1" d="m63.65,46.45c2.44,0,3.5,2.19,3.53,2.27.6,1.16.37,2.69.37,2.69h-6.1c.24,1.03,1.24,1.71,2.22,1.71,1.19,0,1.81-.92,1.81-.92l1.66.73s-1.08,1.96-3.48,1.96c-2.27,0-4.04-1.93-4.04-4.21s1.78-4.23,4.04-4.23Zm0,1.81c-.87,0-1.81.57-2.22,1.54h4.34c-.43-.98-1.25-1.54-2.12-1.54Z"/>
          <path class="cls-1" d="m72.84,46.45c2.25,0,3.98,1.95,3.98,4.23s-1.73,4.23-3.98,4.23-3.98-1.95-3.98-4.23,1.74-4.23,3.98-4.23Zm2.23,4.23c0-1.38-1.03-2.42-2.23-2.42s-2.23,1.05-2.23,2.42,1.03,2.44,2.23,2.44,2.23-1.05,2.23-2.44Z"/>
          <path class="cls-1" d="m82.03,48.36c-1.14,0-2.04.86-2.01,1.98v4.51h-1.88v-8.35h1.88v1.17c.46-.86,1.46-1.17,2.2-1.17,1.93,0,3.69,1.12,3.69,3.55v4.8h-1.89v-4.51c0-1.14-.62-1.98-2-1.98Z"/>
          <path class="cls-1" d="m91.2,46.49c.7,0,1.82.25,2.49,1.28v-1.33h1.9v7.94c-.02,2.82-2.15,4.37-4.48,4.37-1.47,0-2.9-.73-3.68-1.89l1.6-1.08c.55.86,1.49,1.12,2.08,1.12.95,0,2.57-.65,2.58-2.3v-1.05c-.75,1.03-1.78,1.35-2.49,1.35-2.22,0-3.98-1.81-3.98-4.23s1.76-4.2,3.98-4.2Zm2.34,4.18c0-1.33-1.03-2.36-2.2-2.36s-2.19,1.03-2.19,2.36,1.01,2.41,2.19,2.41,2.2-1.03,2.2-2.41Z"/>
          <path class="cls-1" d="m101.33,48.56c-.44-.3-.9-.35-1.33-.3-.36.03-.62.1-.76.3-.1.27-.06.32.05.41.05.08.08.13.28.24.22.14.4.24.59.29l.51.16c1.44.4,2.03.79,2.38,1.17.51.55.82,1.54.32,2.53-.29.51-.68.82-1.22,1.12-.39.19-.9.33-1.3.36-.93.08-1.74-.13-2.57-.62-.87-.55-1.24-1.38-1.31-1.55l1.74-.89c.11.21.25.52.62.76.52.32.81.38,1.38.33.16,0,.33-.05.52-.14.27-.14.33-.19.4-.32.1-.16.08-.16-.03-.29-.14-.16-.33-.3-1.46-.59l-.52-.17c-.36-.09-.78-.3-1.05-.49-.35-.21-.62-.46-.76-.62-.52-.59-.71-1.63-.33-2.55.49-.97,1.51-1.33,2.34-1.43.67-.06,1.71.03,2.6.62.51.33.86.76,1.05,1.08l-1.68,1.01c-.11-.17-.21-.29-.44-.44Z"/>
          <path class="cls-1" d="m108.55,46.55c.9,0,1.82.41,2.49,1.3v-1.35h1.9v8.35h-1.9v-1.19c-.67.9-1.58,1.31-2.49,1.31-2.22,0-3.98-1.95-3.98-4.21s1.76-4.21,3.98-4.21Zm2.39,4.21c-.02-1.38-1.06-2.42-2.23-2.42s-2.23,1.05-2.23,2.42,1.05,2.41,2.23,2.41,2.22-1.03,2.23-2.41Z"/>
          <path class="cls-1" d="m118.67,48.36c-1.14,0-2.04.86-2.01,1.98v4.51h-1.88v-8.35h1.88v1.17c.46-.86,1.46-1.17,2.2-1.17,1.93,0,3.69,1.12,3.69,3.55v4.8h-1.89v-4.51c0-1.14-.62-1.98-2-1.98Z"/>
          <path class="cls-1" d="m127.84,46.49c.7,0,1.82.25,2.49,1.28v-1.33h1.9v7.94c-.02,2.82-2.15,4.37-4.48,4.37-1.47,0-2.9-.73-3.68-1.89l1.6-1.08c.55.86,1.49,1.12,2.08,1.12.95,0,2.57-.65,2.58-2.3v-1.05c-.75,1.03-1.78,1.35-2.49,1.35-2.22,0-3.98-1.81-3.98-4.23s1.76-4.2,3.98-4.2Zm2.34,4.18c0-1.33-1.03-2.36-2.2-2.36s-2.19,1.03-2.19,2.36,1.01,2.41,2.19,2.41,2.2-1.03,2.2-2.41Z"/>
          <path class="cls-1" d="m44.13,48.37v1.82h3.61c-.41,1.96-2.33,2.84-3.67,2.88-2.22,0-4.01-1.79-4.01-4.1s1.79-4.09,4.01-4.09c1.52,0,2.5.83,2.99,1.38l1.38-1.37c-.74-.83-2.14-1.93-4.37-1.93-3.39,0-5.89,2.66-5.89,6s2.5,6.02,5.89,6.02c2.93-.03,5.39-2.08,5.72-5.12,0,0,.08-1.11.02-1.5h-5.67Z"/>
        </g>
        <g>
          <path class="cls-1" d="m64.73,77.64h-2.47l-6.46-9.16v9.16h-1.93v-11.79h2.41l6.56,9.14v-9.14h1.9v11.79Z"/>
          <path class="cls-1" d="m70.22,69.32c.9,0,1.82.41,2.49,1.3v-1.35h1.9v8.35h-1.9v-1.19c-.67.9-1.58,1.31-2.49,1.31-2.22,0-3.98-1.95-3.98-4.21s1.76-4.21,3.98-4.21Zm2.39,4.21c-.02-1.38-1.06-2.42-2.23-2.42s-2.23,1.05-2.23,2.42,1.05,2.41,2.23,2.41,2.22-1.03,2.23-2.41Z"/>
          <path class="cls-1" d="m79.83,77.71c-1.38,0-2.63-1.27-2.63-2.71v-4.13h-1.44v-1.84h1.44v-2.72h1.96v2.72h2.2v1.84h-2.2v4.13c0,.51.24.74.66.74.22,0,.3-.05.52-.27l1.36,1.43c-.51.48-1.14.81-1.89.81Z"/>
          <path class="cls-1" d="m85.03,65.23v1.93h-1.93v-1.93h1.93Zm-1.89,3.98h1.85v8.46h-1.85v-8.46Z"/>
          <path class="cls-1" d="m90.48,69.22c2.25,0,3.98,1.95,3.98,4.23s-1.73,4.23-3.98,4.23-3.98-1.95-3.98-4.23,1.74-4.23,3.98-4.23Zm2.23,4.23c0-1.38-1.03-2.42-2.23-2.42s-2.23,1.05-2.23,2.42,1.03,2.44,2.23,2.44,2.23-1.05,2.23-2.44Z"/>
          <path class="cls-1" d="m99.72,71.13c-1.14,0-2.04.86-2.01,1.98v4.51h-1.88v-8.35h1.88v1.17c.46-.86,1.46-1.17,2.2-1.17,1.93,0,3.69,1.12,3.69,3.55v4.8h-1.89v-4.51c0-1.14-.62-1.98-2-1.98Z"/>
          <path class="cls-1" d="m108.89,69.32c.9,0,1.82.41,2.49,1.3v-1.35h1.9v8.35h-1.9v-1.19c-.67.9-1.58,1.31-2.49,1.31-2.22,0-3.98-1.95-3.98-4.21s1.76-4.21,3.98-4.21Zm2.39,4.21c-.02-1.38-1.06-2.42-2.23-2.42s-2.23,1.05-2.23,2.42,1.05,2.41,2.23,2.41,2.22-1.03,2.23-2.41Z"/>
          <path class="cls-1" d="m116.88,65.52v12.15h-1.89v-12.15h1.89Z"/>
        </g>
        <g>
          <path class="cls-1" d="m53.44,99.44c-2.61,0-4.74-2.14-4.74-4.8v-7.1h1.92v7.05c0,1.66,1.24,2.91,2.82,2.91,1.49,0,2.8-1.25,2.8-2.91v-7.05h1.92v7.1c0,2.66-2.25,4.8-4.72,4.8Z"/>
          <path class="cls-1" d="m63.88,92.82c-1.14,0-2.04.86-2.01,1.98v4.51h-1.88v-8.35h1.88v1.17c.46-.86,1.46-1.17,2.2-1.17,1.93,0,3.69,1.12,3.69,3.55v4.8h-1.89v-4.51c0-1.14-.62-1.98-2-1.98Z"/>
          <path class="cls-1" d="m71.46,86.92v1.93h-1.93v-1.93h1.93Zm-1.89,3.98h1.85v8.46h-1.85v-8.46Z"/>
          <path class="cls-1" d="m77.84,99.31h-1.66l-3.52-8.35h2.08l2.31,5.88,2.31-5.88h2.07l-3.6,8.35Z"/>
          <path class="cls-1" d="m85.54,90.92c2.44,0,3.5,2.19,3.53,2.27.6,1.16.37,2.69.37,2.69h-6.1c.24,1.03,1.24,1.71,2.22,1.71,1.19,0,1.81-.92,1.81-.92l1.66.73s-1.08,1.96-3.48,1.96c-2.27,0-4.04-1.93-4.04-4.21s1.78-4.23,4.04-4.23Zm0,1.81c-.87,0-1.81.57-2.22,1.54h4.34c-.43-.98-1.25-1.54-2.12-1.54Z"/>
          <path class="cls-1" d="m95.35,90.69v1.81c-1.51,0-2.49,1.33-2.49,2.42v4.48h-1.88v-8.71h1.88v1.51c.55-1.05,1.76-1.51,2.49-1.51Z"/>
          <path class="cls-1" d="m100.2,93.02c-.44-.3-.9-.35-1.33-.3-.36.03-.62.09-.76.3-.1.27-.06.32.05.41.05.08.08.13.28.24.22.14.4.24.59.29l.51.16c1.44.4,2.03.79,2.38,1.17.51.55.82,1.54.32,2.53-.29.51-.68.82-1.22,1.12-.39.19-.9.33-1.3.36-.93.08-1.74-.13-2.57-.62-.87-.55-1.24-1.38-1.31-1.55l1.74-.89c.11.21.25.52.62.76.52.32.81.38,1.38.33.16,0,.33-.05.52-.14.27-.14.33-.19.4-.32.1-.16.08-.16-.03-.28-.14-.16-.33-.3-1.46-.59l-.52-.17c-.36-.1-.78-.3-1.05-.49-.35-.21-.62-.46-.76-.62-.52-.59-.71-1.63-.33-2.55.49-.97,1.51-1.33,2.34-1.43.67-.06,1.71.03,2.6.62.51.33.86.76,1.05,1.08l-1.68,1.01c-.11-.17-.21-.29-.44-.44Z"/>
          <path class="cls-1" d="m105.83,86.92v1.93h-1.93v-1.93h1.93Zm-1.89,3.98h1.85v8.46h-1.85v-8.46Z"/>
          <path class="cls-1" d="m111.24,99.4c-1.38,0-2.63-1.27-2.63-2.71v-4.13h-1.44v-1.84h1.44v-2.72h1.96v2.72h2.2v1.84h-2.2v4.13c0,.51.24.74.66.74.22,0,.3-.05.52-.27l1.36,1.43c-.51.48-1.14.81-1.89.81Z"/>
          <path class="cls-1" d="m117.43,103.05h-1.96l1.43-3.75-3.25-8.55h2.03l2.25,6.1,2.25-6.1h2.04l-4.78,12.31Z"/>
        </g>
      </g>
      <g>
        <rect class="cls-1" x="88.14" y="113.49" width="2.69" height="10.6"/>
        <polygon class="cls-1" points="132.23 130.59 150.64 130.59 150.64 128.34 143.75 128.34 143.75 121.04 141.06 121.04 141.06 128.34 138.75 128.34 138.75 121.04 136.06 121.04 136.06 128.34 132.23 128.34 132.23 130.59"/>
        <polygon class="cls-1" points="32.37 124.63 35.06 124.63 35.06 113.49 32.37 113.49 32.37 115.83 29.29 115.83 29.29 118.07 32.37 118.07 32.37 120.02 29.29 120.02 29.29 122.26 32.37 122.26 32.37 124.63"/>
        <path class="cls-1" d="m19.44,122.88l1.12,2.05c3.55-1.62,7.17-3.71,7.17-6.99v-3.99h-8.14v2.24h5.43v1.71c0,.67,0,2.23-5.57,4.98Z"/>
        <path class="cls-1" d="m28.79,125.23c-4.15,0-6.67,1.69-6.67,4.46s2.52,4.46,6.67,4.46,6.67-1.69,6.67-4.46-2.52-4.46-6.67-4.46Zm0,6.66c-2.47,0-3.97-.83-3.97-2.2s1.5-2.21,3.97-2.21,3.97.83,3.97,2.21-1.5,2.2-3.97,2.2Z"/>
        <path class="cls-1" d="m46.55,125.23c-4.15,0-6.67,1.69-6.67,4.46s2.52,4.46,6.67,4.46,6.67-1.69,6.67-4.46-2.52-4.46-6.67-4.46Zm0,6.66c-2.47,0-3.97-.83-3.97-2.2s1.5-2.21,3.97-2.21,3.97.83,3.97,2.21-1.5,2.2-3.97,2.2Z"/>
        <polygon class="cls-1" points="50.13 124.63 52.82 124.63 52.82 119.95 55.9 119.95 55.9 117.71 52.82 117.71 52.82 113.49 50.13 113.49 50.13 124.63"/>
        <polygon class="cls-1" points="126.26 124.3 128.95 124.3 128.95 119.95 132.04 119.95 132.04 117.71 128.95 117.71 128.95 113.49 126.26 113.49 126.26 124.3"/>
        <path class="cls-1" d="m79.64,133.75h11.2v-8.41h-2.69v2.44h-5.81v-2.44h-2.69v8.41Zm8.5-1.97h-5.81v-2.03h5.81v2.03Z"/>
        <polygon class="cls-1" points="75.89 124.02 84.89 124.02 84.89 121.88 78.58 121.88 78.58 119.91 84.89 119.91 84.89 113.77 75.89 113.77 75.89 115.91 82.2 115.91 82.2 117.77 75.89 117.77 75.89 124.02"/>
        <polygon class="cls-1" points="93.9 126.25 101.71 126.25 101.71 124.01 96.59 124.01 96.59 116.02 101.71 116.02 101.71 113.77 93.9 113.77 93.9 126.25"/>
        <path class="cls-1" d="m113.22,116.46h2.41l-.12.1c-.95.81-1.46,1.96-1.46,3.32,0,2.67,1.99,4.47,4.95,4.47s4.95-1.79,4.95-4.47c0-1.37-.5-2.52-1.46-3.32l-.12-.1h2.41v-2.24h-4.43v-2.33h-2.69v2.33h-4.43v2.24Zm5.78,5.67c-1.37,0-2.29-.93-2.29-2.33s.92-2.33,2.29-2.33,2.29.93,2.29,2.33-.92,2.33-2.29,2.33Z"/>
        <polygon class="cls-1" points="108.37 133.75 111.06 133.75 111.06 113.49 108.37 113.49 108.37 119.75 106.41 119.75 106.41 113.49 103.72 113.49 103.72 133.75 106.41 133.75 106.41 121.99 108.37 121.99 108.37 133.75"/>
        <polygon class="cls-1" points="146.26 125.54 148.95 125.54 148.95 114.21 134.45 114.21 134.45 116.35 146.26 116.35 146.26 125.54"/>
        <polygon class="cls-1" points="126.26 133.75 128.95 133.75 128.95 126.04 117.17 126.04 117.17 128.18 126.26 128.18 126.26 133.75"/>
        <polygon class="cls-1" points="68.82 133.75 71.51 133.75 71.51 126.26 65.38 126.26 65.38 123.43 73.54 123.43 73.54 121.2 71.02 121.2 71.02 113.94 58.26 113.94 58.26 116.18 68.33 116.18 68.33 121.2 56.24 121.2 56.24 123.43 62.68 123.43 62.68 126.26 58.26 126.26 58.26 128.5 68.82 128.5 68.82 133.75"/>
        <path class="cls-1" d="m36.73,122.33l1.35,2.08c2.08-1.35,3.75-2.47,4.79-3.58l.04-.04.04.04,4.19,3.56,1.71-2-4.62-3.93v-.03c.16-.59.24-1.25.24-2.02v-2.46h-2.77v2.46c0,2.08-.21,2.83-4.97,5.92Z"/>
      </g>
    </g>
  </g>
</svg>