<?xml version="1.0" encoding="UTF-8"?>
<svg id="Layer_2" data-name="Layer 2" xmlns="http://www.w3.org/2000/svg" viewBox="0 0 194.7 194.7">
  <defs>
    <style>
      .cls-1 {
        fill: #948a85;
        stroke-width: 0px;
      }
    </style>
  </defs>
  <g id="Layer_1-2" data-name="Layer 1">
    <path class="cls-1" d="m179.51,96.21c-3.17-.04-7.12.7-7.15,4.69-.05,3.7,3.62,4.78,7.04,4.81,2.87.04,7.04-.45,7.09-4.66.04-3.95-3.8-4.82-6.97-4.84Zm-.09,6.77c-1.76-.02-5.07-.06-5.03-2.06.02-2.03,3.33-2,5.08-1.98,1.72.02,5,.03,4.98,2.09-.02,2.01-3.3,1.95-5.02,1.94ZM22,67.88c1.2,0,2.17-.97,2.17-2.17s-.97-2.17-2.17-2.17-2.17.97-2.17,2.17.98,2.17,2.17,2.17Zm16.63-28.35l-5.61,5.47,1.42,1.45,12.98-12.67-1.4-1.45-5.64,5.49-1.15-1.17c.23-.23,4.1-4,4.1-4l-1.4-1.46-8.14,7.94-1.49-1.53,7.99-7.78-1.42-1.45-9.69,9.46,4.31,4.41s3.76-3.66,3.99-3.89l1.14,1.17Zm2.9,1.19c-1.67,1.64-2.71,3.09-3.13,4.44-.45,1.37-.31,2.46.43,3.22.74.75,1.82.92,3.22.5,1.34-.38,2.86-1.39,4.51-3,1.63-1.58,2.68-3.09,3.11-4.44.44-1.37.29-2.46-.44-3.22h-.01c-.74-.75-1.83-.92-3.19-.52-1.36.41-2.83,1.39-4.5,3.03Zm5.79-.64c.32.33.31.9-.05,1.68-.38.84-1.09,1.76-2.07,2.73-1,.97-1.95,1.66-2.81,2.02-.79.33-1.37.33-1.68,0-.17-.17-.25-.39-.25-.66,0-.3.1-.64.29-1.05.37-.84,1.08-1.76,2.08-2.73,1-.98,1.95-1.65,2.78-2,.81-.34,1.37-.34,1.7,0Zm23.46-22.37c-.08-.87-.3-1.93-.67-3.24l-.93-3.02-12.96,5.81.85,1.86s10.13-4.53,10.47-4.69c.09.32.66,2.39.66,2.39.27,1,.4,1.86.4,1.86l-11.64,5.2.84,1.88,6.88-3.08c.12.27,1.08,2.43,1.2,2.7l-4.97,2.23.85,1.86,10.37-4.64,1.65,3.68,2.22-.99-2.49-5.54-5.39,2.41-1.2-2.69,7.46-3.34-.83-1.87-2.74,1.23ZM13.63,127.23l.99,3.2,13.04-4.05-.77-2.5-9.76,3.02,8.21-8.03-1-3.23-13.06,4.05.79,2.51,9.82-3.05-8.25,8.08Zm12.72,9.58l-1.91,1.01,1.37,2.56-3.14,1.69c-.31-.36-.66-.84-1.02-1.5-1.38-2.58-.35-5.09,2.1-6.39,2.47-1.33,5.2-.79,6.71,2.02.51.97.95,2.29,1.03,3.45l2.12-.93c-.26-1.2-.66-2.4-1.41-3.81-2.19-4.09-5.84-5.37-9.97-3.15-4.07,2.18-4.58,5.94-2.48,9.83.69,1.29,1.67,2.48,2.71,3.57l6.49-3.47-2.61-4.87Zm151.35-28.68c-3.17-.5-6.41-.18-7.02,3.58-.48,3.04,1.21,4.79,4.13,5.26,2.5.39,4.35-.74,4.76-3.28.18-1.14-.1-2.04-.94-2.83l.05-.03c1.99.4,4.03,1.54,3.66,3.88-.15.91-.5,1.61-.92,2.28l2.14.69c.47-.88.77-1.78.93-2.77.7-4.36-3.12-6.19-6.78-6.78Zm-.06,4.63c-.2,1.29-1.5,1.64-2.82,1.43-1.2-.19-2.34-.92-2.14-2.17.22-1.33,1.43-1.69,2.71-1.49,1.35.21,2.46.91,2.25,2.22ZM14.29,97.96c5.4.54,7.16-3,7.58-7.17l.37-3.72-13.59-1.36-.37,3.73c-.41,4.16.62,7.99,6.01,8.53Zm-3.92-7.79l.15-1.52,9.31.93-.15,1.52c-.23,2.28-2.14,4.31-5.1,4.01-2.97-.29-4.44-2.66-4.21-4.94Zm5.6,24.08c4.12-.41,6.76-3.09,6.33-7.37-.44-4.32-3.5-6.38-7.67-5.95-4.15.41-6.83,3-6.39,7.37.43,4.31,3.63,6.37,7.73,5.95Zm-5.6-6.17c-.28-2.79,2.09-4.06,4.56-4.32,2.39-.24,4.96.63,5.22,3.33.28,2.7-2.07,4.07-4.46,4.31-2.46.24-5.04-.54-5.32-3.32ZM138.06,23.8l.81-1.95-2.34-.96c.13-.29,1.89-4.51,1.89-4.51l-2.17-.89-4.5,10.77,2.16.9s1.69-4.03,1.81-4.33l2.34.97Zm15.63,20.06c.23-.23,4.26-4.36,4.26-4.36l-1.7-1.68-4.27,4.38-1.65-1.63,4.27-4.36-1.69-1.68-4.29,4.38-2.98-2.92-1.41,1.46,12.97,12.7,1.43-1.46-4.94-4.84Zm-119,105.41l-1.69,1.35,1.83,2.25-2.77,2.25c-.38-.3-.82-.7-1.29-1.28-1.83-2.27-1.29-4.93.88-6.67,2.16-1.76,4.96-1.74,6.96.74.7.85,1.37,2.06,1.65,3.19l1.91-1.32c-.47-1.14-1.08-2.24-2.09-3.47-2.91-3.61-6.75-4.19-10.39-1.24-3.58,2.91-3.38,6.69-.59,10.13.91,1.14,2.11,2.12,3.32,2.99l5.72-4.62-3.46-4.29ZM125.99,13.16l5.78,2.42.72-1.75-5.78-2.42-.72,1.75Zm36.24,25.47s-2.64,2.47-6.13,4.83l1.64,1.63c4.96-3.4,7.78-6.12,7.78-6.12l-10.29-10.07-1.43,1.49,8.44,8.26Zm9.84,47.54c-.2.98-.23,1.93-.09,2.92.63,4.38,4.82,4.99,8.48,4.47,3.18-.45,6.18-1.72,5.66-5.48-.44-3.06-2.57-4.23-5.51-3.8-2.5.35-3.93,1.98-3.57,4.54.16,1.15.71,1.91,1.73,2.42l-.04.05c-2.02.21-4.29-.28-4.63-2.62-.14-.92,0-1.68.19-2.44l-2.23-.04Zm9.35.76c1.2-.17,2.51.19,2.68,1.44.19,1.33-.87,2.04-2.14,2.22-1.35.19-2.62-.14-2.81-1.46-.18-1.3.96-2.01,2.27-2.2ZM97.25,20.3v-2.09c-2.78.35-5.58.27-5.58.27v-7.81h4.89v-2.08h-7.23v12.04s4.44.08,7.92-.32Zm74.63,47.58c1.19,0,2.16-.97,2.16-2.17s-.97-2.17-2.16-2.17-2.18.97-2.18,2.17.97,2.17,2.18,2.17ZM122.46,14.66l10.73,4.49.73-1.76-10.72-4.47-.74,1.75Zm-22.06.78h1.95v9.04h2.29s.02-17.94.02-17.94h-2.31v6.72h-1.95v-6.74h-2.32v17.05h2.32s0-8.12,0-8.12Zm28.8,16.78l2.23.93,2.2-5.29-12.45-5.2-.77,1.78,10.25,4.28-1.47,3.5Zm-4-9.09c1.42.6,2.67.81,3.74.61,1.05-.21,1.76-.73,2.1-1.56.34-.81.22-1.68-.37-2.57-.59-.87-1.58-1.6-3.05-2.2-1.39-.59-2.63-.79-3.67-.61-1.11.18-1.82.68-2.16,1.52-.13.29-.19.59-.19.9,0,.55.21,1.13.61,1.72.62.88,1.62,1.62,2.99,2.19Zm-1.09-3.84c.14-.35.45-.55.89-.6.49-.07,1.13.06,1.93.39.78.33,1.33.7,1.62,1.07.26.36.31.7.19,1.04-.15.35-.45.56-.91.64-.46.08-1.11-.04-1.9-.37-.78-.33-1.32-.7-1.62-1.1-.28-.38-.34-.73-.21-1.07ZM97.36,0C43.68,0,0,43.67,0,97.35s43.68,97.35,97.36,97.35,97.34-43.68,97.34-97.35S151.03,0,97.36,0Zm0,192.88C44.68,192.88,1.82,150.02,1.82,97.35S44.68,1.81,97.36,1.81s95.53,42.86,95.53,95.54-42.85,95.53-95.53,95.53Zm49.86-38.31l9.22,10.08,2.02-1.85-9.23-10.08-2.01,1.85Zm-10.16,15.54l-.02-.04c1.44-1,1.78-2.68,1.04-4.11-1.74-3.37-4.8-1.68-7.42-.34l-2.63,1.36,6.28,12.14,2.42-1.26-2.6-5.04.78-.4c1.02-.54,1.53-.35,2.34.37l3.42,3.04,2.71-1.39-4.4-3.75c-.52-.41-1.25-.87-1.93-.58Zm-3.1.39l-.81.42-1.69-3.28.8-.42c1.21-.62,2.63-1.2,3.39.26.79,1.51-.51,2.39-1.7,3.01Zm8.93-7.67c-.87-1.21-.13-2.25.62-2.81.78-.56,1.69-.95,2.6-1.16l-1.12-1.97c-1,.32-1.99.84-2.94,1.53-1.95,1.42-3.2,3.72-1.4,6.18,2.66,3.66,6.87-.73,8.39,1.37.74.99-.07,2.24-.92,2.85-.87.63-1.94,1-2.99,1.14l1.24,2.15c1.29-.52,1.95-.76,3.15-1.63,2.22-1.63,3.46-3.95,1.7-6.37-2.69-3.7-6.95.63-8.35-1.28Zm-18.58,17.73l-1.24-3.63,4.62-1.55-.69-2.04-4.62,1.55-1.07-3.19,5.03-1.7-.68-2.04-7.64,2.57,4.37,12.95,7.68-2.59-.69-2.04-5.07,1.72Zm40.08-47.77l-1.52,2.47,3.15,5.81-6.58-.28-1.69,2.73,9.66.11,4.59,2.84,1.44-2.33-4.59-2.84-4.45-8.51Zm-5.27,12.36l-1.63-1.42-6.94,7.97,1.61,1.4,2.58-2.94,8.68,7.57,1.8-2.07-8.69-7.57,2.58-2.95Zm-47.05,37.6h-.04s-5.23-10-5.23-10l-2.91.49,6.91,12.71,3.32-.57,2.28-14.24-2.69.45-1.64,11.16Zm-14.73-137.86c-28.93,0-52.46,23.53-52.46,52.45s23.53,52.45,52.46,52.45,52.44-23.53,52.44-52.45-23.52-52.45-52.44-52.45Zm0,102.7c-27.72,0-50.26-22.54-50.26-50.25s22.54-50.26,50.26-50.26,50.24,22.55,50.24,50.26-22.55,50.25-50.24,50.25Zm59.53-55.31c-2.78,0-5.07,2.27-5.07,5.07s2.28,5.07,5.07,5.07,5.06-2.26,5.06-5.07-2.27-5.07-5.06-5.07Zm-59.53-40.32c-25.05,0-45.39,20.36-45.39,45.38s20.35,45.38,45.39,45.38,45.38-20.36,45.38-45.38-20.37-45.38-45.38-45.38Zm0,88.54c-23.83,0-43.18-19.36-43.18-43.16s19.35-43.18,43.18-43.18,43.15,19.36,43.15,43.18-19.37,43.16-43.15,43.16Zm0-81.4c-21.1,0-38.27,17.16-38.27,38.25s17.16,38.24,38.27,38.24,38.23-17.16,38.23-38.24-17.15-38.25-38.23-38.25Zm0,74.3c-19.89,0-36.06-16.17-36.06-36.05s16.17-36.05,36.06-36.05,36.04,16.17,36.04,36.05-16.17,36.05-36.04,36.05Zm2.15,39.82l.57,13.65,2.74-.11-.58-13.66-2.73.11Zm66.75-75.87c0-38-30.92-68.92-68.92-68.92S28.43,59.35,28.43,97.35s30.9,68.92,68.92,68.92,68.92-30.93,68.92-68.92Zm-68.92,67.04c-36.98,0-67.06-30.08-67.06-67.04S60.37,30.29,97.35,30.29s67.05,30.08,67.05,67.06-30.07,67.04-67.05,67.04Zm-45.67-28.53h0c-.95.95-1.48,2.23-1.48,3.58s.52,2.63,1.48,3.58c1.99,1.96,5.2,1.96,7.16,0,.97-.96,1.49-2.23,1.49-3.59,0-1.35-.53-2.62-1.49-3.57-1.95-1.97-5.17-1.97-7.15,0Zm87.76-75.54c1.36,0,2.63-.52,3.59-1.48,1.98-1.98,1.98-5.19,0-7.16-1.98-1.97-5.19-1.97-7.15,0-.96.96-1.49,2.23-1.49,3.58s.53,2.63,1.49,3.58c.95.96,2.21,1.48,3.57,1.48Zm-47.31,126.43l3.33.29,1.19-13.61-2.61-.23-.9,10.17-4.33-10.64-3.35-.29-1.19,13.61,2.62.24.89-10.25,4.35,10.71Zm-30.05-22.29l-7.22,2.61,2.95-5.08-2.37-1.37-6.84,11.83,2.37,1.37,3.17-5.49.04.02,1.07,7.95,3.1,1.8-1.45-9.18,8.09-2.76-2.91-1.69Zm35.26-121.58c2.78,0,5.06-2.27,5.06-5.05s-2.28-5.06-5.06-5.06-5.07,2.27-5.07,5.06,2.28,5.05,5.07,5.05Zm-19.36,135.96c-.62,2.25-1.74,3.52-3.75,2.97-2.02-.56-2.33-2.22-1.73-4.47l2.12-7.6-2.65-.73-2.32,8.41c-.97,3.54.62,5.54,4,6.46,3.38.94,5.79.04,6.76-3.49l2.32-8.42-2.64-.73-2.1,7.61Zm-26.32-119.99c1.98,1.97,5.2,1.97,7.15,0,.96-.95,1.49-2.22,1.49-3.58s-.52-2.64-1.49-3.59c-1.96-1.96-5.17-1.96-7.16,0-.95.96-1.48,2.22-1.48,3.57s.52,2.63,1.48,3.59h0Zm84.2,77.03c-1.98,1.97-1.98,5.17,0,7.15,1.97,1.96,5.18,1.96,7.15,0,.95-.95,1.49-2.23,1.49-3.58s-.53-2.62-1.49-3.57c-1.98-1.98-5.19-1.98-7.15,0Zm-84.94,21.32l-5.11,6.02c-1.51,1.77-3.06,2.46-4.66,1.1-1.6-1.36-1.17-3,.34-4.78l5.11-6.01-2.1-1.79-5.64,6.66c-2.36,2.79-1.77,5.29.91,7.55,2.67,2.27,5.23,2.46,7.59-.32l5.65-6.65-2.08-1.78Zm46.41-5.38c-2.8,0-5.07,2.28-5.07,5.06s2.28,5.07,5.07,5.07,5.06-2.27,5.06-5.07-2.28-5.06-5.06-5.06Zm71.09-29.67l1.85,4.78,2.12-.76-1.1-2.77,10.05,3.22.83-2.61-13-4.16-.74,2.31Zm-130.63-29.86c-2.79,0-5.06,2.27-5.06,5.07s2.28,5.07,5.06,5.07,5.08-2.26,5.08-5.07-2.29-5.07-5.08-5.07Zm59.54-26.04c-17.15,0-31.12,13.95-31.12,31.1s13.97,31.09,31.12,31.09,31.1-13.95,31.1-31.09-13.96-31.1-31.1-31.1Zm1.15,2.26c5.48.21,10.56,1.96,14.85,4.82h-14.85v-4.82Zm0,12.18h11.11c.25,0,2.04.62,2.04,2.76h-13.15v-2.76Zm0,5.08h13.17c0,2.25-1.84,2.76-2.06,2.76h-11.11v-2.76Zm-2.31-17.25v4.82h-14.84c4.28-2.86,9.37-4.6,14.84-4.82Zm-15.41,40.66v11.8c-7.44-5.23-12.31-13.86-12.31-23.62,0-8.66,3.84-16.44,9.91-21.74h17.81v2.75h-11.52s-4.14.24-4.14,6.33,4.14,6.13,4.14,6.13h11.52v2.76h-10.41c-1.5.07-2.68.57-3.61,1.53-1.38,1.45-1.38,3.32-1.38,3.52v3.89c0,.65.55,1.2,1.22,1.2s1.18-.54,1.18-1.2v-4.02c0-.13.03-1.11.73-1.81.54-.56,1.21-.79,2.2-.8h10.07v8.24h-10.41c-1.5.08-2.68.57-3.61,1.53-1.38,1.45-1.38,3.32-1.38,3.52Zm2.26-25.73c0-2.14,1.8-2.76,2.04-2.76h11.11v2.76h-13.15Zm13.15,2.32v2.76h-11.11c-.22,0-2.05-.5-2.05-2.76h13.16Zm-6.72,39.35c-2.21-.63-4.32-1.51-6.28-2.62v-13.46c0-.13.03-1.11.73-1.81.54-.56,1.21-.79,2.2-.8h3.35v18.7Zm13.42.57c-1.79.35-3.64.54-5.53.54s-3.76-.19-5.55-.54v-19.26h11.09v19.26Zm8.62-3.18c-1.96,1.11-4.07,1.99-6.28,2.62v-18.7h3.35c1,.01,1.66.25,2.2.8.7.7.73,1.69.73,1.81v13.46Zm2.4-1.52v-11.81c0-.2,0-2.08-1.38-3.52-.93-.96-2.11-1.46-3.61-1.53h-10.41v-8.24h10.07c1,.01,1.66.25,2.2.8.7.7.73,1.69.73,1.81v4.02c0,.65.53,1.2,1.18,1.2s1.22-.54,1.22-1.2v-3.89c0-.2,0-2.08-1.38-3.52-.93-.96-2.11-1.46-3.61-1.53h-10.41v-2.76h11.52s4.14-.05,4.14-6.13-4.14-6.33-4.14-6.33h-11.52v-2.75h17.82c6.06,5.3,9.9,13.07,9.9,21.74,0,9.76-4.87,18.4-12.31,23.63Z"/>
  </g>
</svg>