<svg width="24" height="24" viewBox="0 0 24 24" fill="none" xmlns="http://www.w3.org/2000/svg">
<path d="M16.8327 14.9653C16.3505 14.9653 15.9583 14.5671 15.9583 14.0781C15.9583 13.5891 16.3505 13.1913 16.8327 13.1913C17.3149 13.1913 17.7071 13.589 17.7071 14.0781C17.7071 14.5672 17.3149 14.9653 16.8327 14.9653ZM7.16735 14.9653C6.68518 14.9653 6.29296 14.5671 6.29296 14.0781C6.29296 13.5891 6.6851 13.1913 7.16735 13.1913C7.64952 13.1913 8.04173 13.589 8.04173 14.0781C8.04173 14.5672 7.6496 14.9653 7.16735 14.9653ZM17.1463 9.62284L18.8939 6.55295C18.942 6.46823 18.955 6.36761 18.9301 6.27318C18.9051 6.17874 18.8443 6.0982 18.7608 6.04923C18.6773 6.00046 18.5781 5.98728 18.485 6.01258C18.3919 6.03789 18.3125 6.09961 18.2642 6.18421L16.4947 9.2929C15.1414 8.66662 13.6217 8.31768 12 8.31768C10.3783 8.31768 8.85858 8.66662 7.50538 9.2929L5.7358 6.18421C5.6875 6.09961 5.60809 6.03789 5.51499 6.01258C5.42189 5.98728 5.32269 6.00046 5.23915 6.04923C5.15567 6.09815 5.09476 6.17869 5.06981 6.27315C5.04485 6.3676 5.05789 6.46824 5.10606 6.55295L6.85372 9.62284C3.85274 11.2782 1.80027 14.3596 1.5 18H22.5C22.1995 14.3597 20.147 11.2782 17.1463 9.62276" fill="#3DDB85"/>
</svg>
