<?xml version="1.0" encoding="UTF-8"?>
<svg id="Layer_2" data-name="Layer 2" xmlns="http://www.w3.org/2000/svg" viewBox="0 0 752.06 865.02">
  <defs>
    <style>
      .cls-1 {
        fill: #0c2d83;
      }

      .cls-1, .cls-2 {
        stroke-width: 0px;
      }

      .cls-2 {
        fill: #1f60a9;
      }
    </style>
  </defs>
  <g id="Layer_1-2" data-name="Layer 1">
    <g>
      <polygon class="cls-2" points="46.17 568.22 28.09 599.5 53.12 613.58 89.17 592.77 46.17 568.22"/>
      <polygon class="cls-2" points="57.66 650.7 93.79 650.67 94.02 601.22 57.98 622.04 57.66 650.7"/>
      <polygon class="cls-2" points="693.48 215.33 657.35 215.35 657.14 264.86 693.17 244.06 693.48 215.33"/>
      <polygon class="cls-2" points="704.96 297.82 723.06 266.53 698.08 252.48 662.03 273.3 704.96 297.82"/>
      <polygon class="cls-2" points="662.02 592.26 698.06 613.07 723.06 598.99 704.96 567.72 662.02 592.26"/>
      <polygon class="cls-2" points="657.14 600.71 657.35 650.19 693.48 650.2 693.17 621.51 657.14 600.71"/>
      <polygon class="cls-2" points="89.16 272.78 53.11 251.97 28.09 266.03 46.17 297.31 89.16 272.78"/>
      <polygon class="cls-2" points="94.02 264.34 93.79 214.86 57.66 214.83 57.98 243.52 94.02 264.34"/>
      <polygon class="cls-2" points="405.58 48.1 380.92 62.71 380.92 104.33 423.61 79.41 405.58 48.1"/>
      <polygon class="cls-2" points="371.17 62.74 346.47 48.1 328.39 79.41 371.17 104.36 371.17 62.74"/>
      <polygon class="cls-2" points="371.17 125.78 319.22 94.92 301.29 125.96 371.17 167.36 371.17 125.78"/>
      <polygon class="cls-2" points="432.77 94.92 380.92 125.75 380.92 167.32 450.72 125.96 432.77 94.92"/>
      <polygon class="cls-2" points="380.92 801.85 405.58 816.44 423.61 785.13 380.92 760.22 380.92 801.85"/>
      <polygon class="cls-2" points="346.47 816.44 371.17 801.81 371.17 760.19 328.39 785.13 346.47 816.44"/>
      <path class="cls-2" d="m391.45,22.76c0,12.56-6.9,22.75-15.43,22.75s-15.4-10.19-15.4-22.75,6.9-22.76,15.4-22.76,15.43,10.19,15.43,22.76Z"/>
      <path class="cls-2" d="m391.45,842.28c0,12.56-6.9,22.74-15.43,22.74s-15.4-10.19-15.4-22.74,6.9-22.77,15.4-22.77,15.43,10.19,15.43,22.77Z"/>
      <path class="cls-2" d="m738.61,240.99c-10.89,6.28-23.15,5.39-27.42-1.97-4.27-7.39,1.11-18.46,12-24.74,10.88-6.28,23.16-5.41,27.43,1.97,4.24,7.38-1.14,18.45-12.01,24.74Z"/>
      <path class="cls-2" d="m28.89,650.75c-10.88,6.29-23.17,5.4-27.42-1.97-4.25-7.38,1.11-18.46,12-24.74,10.87-6.29,23.15-5.4,27.41,1.98,4.26,7.39-1.12,18.46-12,24.74Z"/>
      <path class="cls-2" d="m28.88,214.28c10.89,6.28,16.25,17.34,12,24.74-4.27,7.36-16.55,8.26-27.42,1.97-10.89-6.29-16.27-17.33-12-24.73,4.25-7.39,16.52-8.26,27.41-1.97Z"/>
      <path class="cls-2" d="m738.61,624.03c10.87,6.29,16.25,17.36,12,24.74-4.27,7.37-16.54,8.26-27.43,1.97-10.88-6.28-16.26-17.35-11.99-24.74,4.27-7.37,16.52-8.26,27.42-1.98Z"/>
      <polygon class="cls-2" points="601.1 543.14 668.94 504.93 651.17 473.86 583.08 512.21 601.1 543.14"/>
      <polygon class="cls-2" points="548.34 571.74 549.17 650.52 584.98 650.38 584.12 571.74 548.34 571.74"/>
      <polygon class="cls-2" points="168.93 513.18 99.99 474.35 82.23 505.43 151.01 544.17 168.93 513.18"/>
      <polygon class="cls-2" points="167.03 571.74 166.19 650.88 201.98 651.02 202.81 571.74 167.03 571.74"/>
      <polygon class="cls-2" points="603.49 215.14 602.61 293.09 608.24 293.09 638.58 275.57 639.32 215.17 603.49 215.14"/>
      <polygon class="cls-2" points="643.49 284 611.73 302.33 609.62 306 678.21 344.56 696.12 313.53 643.49 284"/>
      <polygon class="cls-2" points="678.21 520.99 610.4 559.12 613.34 564.16 643.47 581.56 696.12 552.02 678.21 520.99"/>
      <polygon class="cls-2" points="638.58 589.99 606.98 571.74 602.6 571.74 603.49 650.39 639.32 650.38 638.58 589.99"/>
      <g>
        <polygon class="cls-2" points="368.6 698.71 301.29 738.59 319.22 769.62 371.17 738.77 371.17 703.17 368.6 698.71"/>
        <polygon class="cls-2" points="380.92 703.01 380.92 738.8 432.77 769.62 450.72 738.59 383.41 698.71 380.92 703.01"/>
      </g>
      <polygon class="cls-2" points="145.11 571.74 112.57 590.52 111.82 650.88 147.65 650.89 148.55 571.74 145.11 571.74"/>
      <polygon class="cls-2" points="141.77 560.16 72.93 521.47 55.03 552.53 107.72 582.07 139.83 563.52 141.77 560.16"/>
      <polygon class="cls-2" points="140.42 302.38 107.69 283.48 55.03 313.02 72.93 344.07 142.05 305.21 140.42 302.38"/>
      <polygon class="cls-2" points="148.55 293.09 147.65 214.65 111.82 214.67 112.57 275.04 143.84 293.09 148.55 293.09"/>
      <polygon class="cls-2" points="341.6 651.63 274.02 691.61 292.03 722.54 359.41 682.68 341.6 651.63"/>
      <polygon class="cls-2" points="392.71 682.73 459.99 722.54 478 691.61 410.7 651.79 392.71 682.73"/>
      <polygon class="cls-2" points="600.41 322.02 582.58 353.04 651.17 391.68 668.94 360.61 600.41 322.02"/>
      <polygon class="cls-2" points="584.13 293.09 584.96 215.17 549.17 215.02 548.34 293.09 584.13 293.09"/>
      <polygon class="cls-2" points="410.16 213.06 478 172.95 459.99 142.02 392.23 182.11 410.16 213.06"/>
      <polygon class="cls-2" points="359.77 182.1 292.03 142.02 274.02 172.95 341.9 213.09 359.77 182.1"/>
      <polygon class="cls-2" points="151.27 321.23 82.23 360.1 99.99 391.18 169.11 352.25 151.27 321.23"/>
      <polygon class="cls-2" points="202.82 293.09 201.98 214.52 166.19 214.67 167.02 293.09 202.82 293.09"/>
      <polygon class="cls-2" points="555.74 465.28 573.79 496.25 641.98 457.85 629.6 436.46 606.8 436.46 555.74 465.28"/>
      <polygon class="cls-2" points="486.26 230.5 498.75 208.85 487.27 188.9 419.42 229.05 436.8 259.06 486.26 230.5"/>
      <polygon class="cls-2" points="494.23 293.09 529.88 293.09 530.73 214.97 506.02 215 494.23 235.43 494.23 293.09"/>
      <polygon class="cls-2" points="573.38 369.05 556.29 398.78 605.43 427.1 630.74 427.1 641.98 407.69 573.38 369.05"/>
      <polygon class="cls-2" points="494.23 571.74 494.23 627.78 507.28 650.39 530.73 650.56 529.87 571.74 494.23 571.74"/>
      <polygon class="cls-2" points="437.89 605.01 419.98 635.83 487.27 675.65 499.23 655.19 486.48 633.11 437.89 605.01"/>
      <polygon class="cls-2" points="264.31 632.92 252.16 653.99 264.76 675.65 332.41 635.62 314.35 604.12 264.31 632.92"/>
      <polygon class="cls-2" points="256.21 571.74 221.29 571.74 220.44 651.07 243.04 651.04 256.21 628.21 256.21 571.74"/>
      <polygon class="cls-2" points="145.48 436.46 121.68 436.46 109.18 458.35 178.16 497.2 196.32 465.78 145.48 436.46"/>
      <polygon class="cls-2" points="195.54 398.16 178.33 368.24 109.19 407.19 120.71 427.1 145.59 427.1 195.54 398.16"/>
      <polygon class="cls-2" points="277.57 238.19 315.03 259.71 332.68 229.09 264.76 188.9 252.56 210.07 264.24 230.3 277.57 238.19"/>
      <polygon class="cls-2" points="256.21 293.09 256.21 235.13 244.3 214.51 220.44 214.47 221.28 293.09 256.21 293.09"/>
      <path class="cls-2" d="m270.38,277.3c3.51-1.68,7.92-2.06,12.21-.7l19.21,6.05,8.54-14.84-44.74-25.71v39.28c1.17-1.72,2.83-3.12,4.78-4.09Z"/>
      <path class="cls-2" d="m465.69,278.99l5.36.39s7.92.33,13.83,5.96v-43.25l-43.4,25.05,6.87,11.84h17.34Z"/>
      <path class="cls-2" d="m281.65,592.85c-1.78.28-3.81.36-5.27.36-.51,0-1.05,0-1.57-.08-.56.07-1.69-.28-1.69-.28-2.4-.57-4.61-1.73-6.38-3.37-.42-.38-.76-.83-1.13-1.25v33.16l44.09-25.38-4.24-7.4c-8.8,2.19-17.02,3.53-23.81,4.24Z"/>
      <path class="cls-2" d="m476.1,593.17s-1.1.36-1.68.29c-.56.07-1.55,0-2.22-.07-1.43-.15-3-.26-4.06-.47-5-.52-10.49-1.41-16.66-2.73-1.41-.29-2.91-.72-4.36-1.06l-4.44,7.63,42.2,24.47-.04-34.24c-1.96,3.06-5.07,5.32-8.74,6.17Z"/>
      <path class="cls-1" d="m428.92,583.78c-3.85-1.41-7.57-2.98-11.09-4.66-2.56-1.23-5.02-2.48-7.38-3.83-.18-.12-.4-.25-.62-.37-1.72-.98-3.34-1.93-4.93-2.98-1.98-1.31-3.94-2.62-5.8-4.03-.22-.15-.43-.31-.62-.43-2-1.54-3.92-3.11-5.78-4.71-7.06-6.26-12.96-13.37-17.64-21.27-4.73,7.95-10.68,15.07-17.81,21.35-2.08,1.79-4.19,3.55-6.47,5.21-.11.07-.21.15-.3.21-3.54,2.62-7.33,5.05-11.36,7.29-1.12.63-2.22,1.23-3.36,1.81-1.19.66-2.39,1.22-3.67,1.84-3.47,1.64-7.13,3.16-10.91,4.57-2.16.79-4.3,1.53-6.43,2.21l61.19,106.71,61.22-106.23c-2.74-.84-5.47-1.65-8.26-2.69Z"/>
      <polygon class="cls-2" points="550.93 457.02 594.89 431.81 551.62 406.89 536.77 432.73 550.93 457.02"/>
      <polygon class="cls-2" points="200.22 406.3 156.16 431.81 201.01 457.67 215.43 432.73 200.22 406.3"/>
      <path class="cls-1" d="m600.74,302.53h-109.56c0,.3.03.56.02.87v.43c-.25,14.23-1,14.84-2.57,26.5-.4,2.77-.82,5.49-1.28,8.08-.03.25-.09.5-.11.73-.72,4.36-1.56,8.48-2.44,12.47-.04.21-.11.44-.17.68-.56,2.52-1.19,4.99-1.81,7.33-2.97,11.52-6.55,21.43-10.29,29.85,5.64,8.7,12.45,17.7,20.64,26.58.24.18.45.41.62.6,2.18,2.19,3.54,5.11,3.54,8.28,0,1.04-.16,2.05-.46,3.07-.53,2.05-1.68,3.87-3.19,5.35-.11.11-.25.23-.35.35-2.37,2.11-5.58,3.43-9.06,3.43s-6.53-1.25-8.89-3.29l-.13.16s-7.45-7.33-16.9-19.44c-8.95,12.47-16.18,17.46-16.18,17.46l-.18-.12c-2.3,2-5.44,3.24-8.85,3.24-5.73,0-10.63-3.48-12.36-8.26-2.29,3.36-6.29,5.57-10.94,5.57-2.92,0-5.63-.9-7.81-2.41,0,0-.05-.06-.17-.15-1.3-.95-2.39-2.13-3.21-3.48-5.28-6.8-14.65-24.48-11.37-61.97v-.03s0-.12.03-.2c.18-1.67.8-3.25,1.67-4.6,2.23-3.55,6.37-5.9,11.12-5.9s8.89,2.35,11.15,5.9c1.12,1.77,1.77,3.85,1.77,6.06,0,.84-.12,1.68-.31,2.48-.24,2.75-2.19,26.76,8.26,46.3.43.66.77,1.41,1.06,2.13.7-1.1,1.64-2.07,2.65-2.91,6.93-7.2,12.72-14.87,17.44-22.73-5.71-9.44-11.06-20.08-15.06-31.33-.93-2.4-1.72-4.85-2.44-7.33-.09-.24-.11-.47-.21-.68-1.18-4.1-2.19-8.26-2.93-12.47-.08-.23-.09-.47-.12-.73-.48-2.66-.87-5.33-1.12-8.08-.2-2.13-.33-4.23-.4-6.35h.05c0-.2-.04-.34-.04-.49,0-6.61,5.8-11.96,12.93-11.96s12.33,4.82,12.85,10.99h.01s.32,2.86,1.43,7.81c.52,2.28,1.19,4.99,2.07,8.08.02.25.15.5.18.73,1.08,3.68,2.38,7.9,4.11,12.47.09.21.15.44.23.68.83,2.17,1.74,4.43,2.72,6.73.71-2.27,1.37-4.49,1.95-6.73.04-.24.11-.47.17-.68,1.12-4.32,2.05-8.46,2.79-12.47,0-.23.08-.47.08-.73.55-2.75.94-5.46,1.29-8.08,1.44-10.78,1.81-14.65,1.62-21.34-.89-5.63-5.57-5.13-5.57-5.13h-27.33l-1.68.07c-6.85-.1-12.36-5.63-12.36-12.27,0-1.62-.02-3.56.39-5.04,1.24-4.4,4.78-7.69,10.08-7.75l2.38.11h7.23l-61.47-106.14-65.08,112.9c5.96,3.06,9.09,9.3,6.94,14.81-2.34,6.35-10.5,9.47-18.08,7l-16.12-5.04h-132.27l74.93,130.2-74.93,129.62h138.1c4.53-.97,9.05-1.94,14.2-3.57,12.32-3.99,26.28-9.34,36.19-19.52,2.37-2.43,4.53-4.64,6.52-7.5.16-.25.29-.47.44-.68,2.45-3.69,4.53-7.68,6.18-12.1.11-.21.16-.46.25-.69.79-2.29,1.5-4.64,2.04-7.1.34-1.45.64-2.99.88-4.55h-74.78c-8.34,0-15.19-6.34-15.19-14.08v-1.28c0-7.73,6.85-14.08,15.19-14.08h77.7v-18.34c0-7.7,7.15-14.05,15.92-14.05h1.43c8.79,0,15.96,6.35,15.96,14.05v18.34h77.17c8.31,0,15.18,6.34,15.18,14.08v1.28c0,7.74-6.87,14.08-15.18,14.08h-75.59c.27,1.56.52,3.11.89,4.55.54,2.46,1.24,4.81,2.05,7.1.06.23.16.47.25.69,1.69,4.42,3.72,8.41,6.16,12.1.19.2.34.42.49.68,1.98,2.87,4,5.58,6.49,7.86,12.33,11.18,25.46,15.97,39.62,19.96,3.83,1.09,6.67,1.99,9.35,2.78h141.5l-74.83-129.62,74.83-130.2Zm-339.6,17.75c.86-2.31,2.51-4.19,4.67-5.54,3.64-2.28,8.64-2.97,13.48-1.44l29.87,9.67c4.25,1.42,7.5,4.31,9.07,7.68,1.15,2.59,1.37,5.4.43,8.08,0,.03,0,.14-.09.15-.02.22-.1.38-.16.59-2.66,5.9-10.57,8.76-17.91,6.38l-19.78-6.38-2.19-.74-7.92-2.53c-3.35-1.07-6.01-3.1-7.81-5.54-.36-.47-.66-.95-.98-1.47-1.47-2.78-1.81-5.92-.69-8.89Zm48.6,48.51c1.53,32.48-26.4,61.21-28.42,63.25-2.48,2.8-6.22,4.6-10.46,4.6-2.67,0-5.15-.72-7.26-1.99-2.63-1.51-4.65-3.88-5.62-6.65-.02-.06-.02-.07-.04-.11-.37-1.15-.55-2.38-.55-3.66,0-3.77,1.81-7.14,4.7-9.43.27-.26.52-.51.81-.78,21.41-21.91,20.3-48.19,20.3-48.19l.32.03c.3-2.38,1.38-4.52,3.01-6.23,2.42-2.54,6.07-4.2,10.13-4.2s7.71,1.66,10.19,4.2c1.87,2.02,3.05,4.63,3.05,7.5,0,.56-.04,1.1-.15,1.66Zm24.88,57.64c-.81,1.35-1.86,2.53-3.18,3.48-.09.09-.16.15-.16.15-2.21,1.51-4.91,2.41-7.82,2.41-7.12,0-12.92-5.35-12.92-11.92,0-2.21.69-4.31,1.79-6.09,10.47-19.55,8.5-43.55,8.24-46.3-.18-.8-.29-1.64-.29-2.48,0-2.21.66-4.29,1.79-6.06,2.23-3.55,6.4-5.9,11.12-5.9s8.91,2.35,11.13,5.9c.87,1.36,1.46,2.93,1.67,4.6h0c.03.07.03.16.03.2v.03c3.26,37.49-6.05,55.17-11.41,61.97Zm47.58-74.81v73.8c0,7.95-7.06,14.53-15.72,14.53h-.21c-8.64,0-15.69-6.57-15.69-14.53v-82.41h-11.18c-4.49,0-8.51-1.49-11.41-3.87-.26-.23-.56-.47-.81-.73-2.17-2.1-3.48-4.77-3.48-7.67,0-.15,0-.26.01-.41.25-6.55,7.22-11.86,15.69-11.86h11.18v-39.62c0-3.11,1.08-6.02,2.93-8.41,2.83-3.67,7.5-6.09,12.76-6.09h.21c8.66,0,15.72,6.55,15.72,14.5v4.14h15.13c8.59,0,15.67,5.51,15.67,12.26s-7.08,12.26-15.67,12.26h-15.13v10.96h16.3c8.47,0,15.4,5.31,15.65,11.86,0,.15.04.26.04.41,0,2.89-1.32,5.57-3.49,7.67-.27.25-.56.5-.84.73-2.82,2.38-6.87,3.87-11.36,3.87h-16.3v8.61Z"/>
    </g>
  </g>
</svg>