<?xml version="1.0" encoding="UTF-8"?>
<svg id="Layer_2" data-name="Layer 2" xmlns="http://www.w3.org/2000/svg" viewBox="0 0 98.91 114.21">
  <defs>
    <style>
      .cls-1 {
        fill: #73c4ef;
      }

      .cls-1, .cls-2, .cls-3, .cls-4, .cls-5, .cls-6, .cls-7 {
        stroke-width: 0px;
      }

      .cls-2 {
        fill: #265aa6;
      }

      .cls-3 {
        fill: #95d3e6;
      }

      .cls-4 {
        fill: #8baddc;
      }

      .cls-5 {
        fill: #fff;
      }

      .cls-6 {
        fill: #00b4cd;
      }

      .cls-7 {
        fill: #0091d3;
      }
    </style>
  </defs>
  <g id="Layer_1-2" data-name="Layer 1">
    <g>
      <path class="cls-5" d="m97.33,68.22c-.21-2.41-1.59-4.56-3.69-5.77l-9.26-5.35,9.26-5.35c2.1-1.21,3.47-3.37,3.69-5.77l1.58-17.43-15.88-7.35c-2.19-1.01-4.74-.9-6.84.31l-9.26,5.35v-10.69c0-2.41-1.18-4.69-3.16-6.09L49.45,0l-14.31,10.08c-1.97,1.4-3.15,3.67-3.15,6.09v10.7l-9.27-5.35c-2.1-1.2-4.66-1.32-6.84-.31L0,28.56l1.58,17.43c.22,2.4,1.59,4.56,3.68,5.77l9.27,5.35-9.27,5.35c-2.09,1.21-3.47,3.36-3.68,5.77l-1.58,17.44,15.89,7.35c.99.46,2.05.68,3.12.68,1.29,0,2.58-.33,3.72-.99l9.27-5.35v10.7c0,2.42,1.18,4.69,3.15,6.07l14.31,10.08,14.31-10.08c1.98-1.39,3.16-3.66,3.16-6.07v-10.7l9.26,5.35c1.15.66,2.43.99,3.72.99,1.06,0,2.13-.22,3.12-.68l15.88-7.35-1.58-17.44Z"/>
      <g>
        <polygon class="cls-2" points="48.74 55.86 48.74 39.01 34.14 47.44 48.74 55.86"/>
        <path class="cls-2" d="m33.42,98.05c0,1.95.95,3.78,2.54,4.9l12.77,9v-34.27l-15.31,8.84v11.53Z"/>
        <path class="cls-2" d="m48.74,2.25l-12.77,8.99c-1.59,1.13-2.55,2.97-2.55,4.92v30.03l15.31-8.84V2.25Z"/>
        <polygon class="cls-2" points="50.17 39.01 50.17 55.86 64.76 47.44 50.17 39.01"/>
      </g>
      <g>
        <path class="cls-4" d="m50.17,111.96l12.77-9c1.59-1.12,2.54-2.95,2.54-4.9v-11.53l-15.31-8.84v34.27Z"/>
        <path class="cls-4" d="m62.93,11.25l-12.77-8.99v35.1l15.31,8.84v-30.03c0-1.95-.95-3.79-2.55-4.92Z"/>
      </g>
      <g>
        <path class="cls-7" d="m16.49,22.5l-14.18,6.56,29.68,17.13h0v-17.68l-9.98-5.77c-1.7-.97-3.76-1.07-5.52-.25Z"/>
        <path class="cls-7" d="m97.31,83.91l-1.41-15.56c-.17-1.94-1.29-3.68-2.97-4.66l-26.01-15.02v17.68l30.4,17.55Z"/>
        <polygon class="cls-7" points="65.48 65.53 65.48 48.68 50.88 57.1 65.48 65.53"/>
        <polygon class="cls-7" points="50.17 75.21 64.76 66.77 50.17 58.34 50.17 75.21"/>
      </g>
      <g>
        <path class="cls-1" d="m3,45.86c.17,1.94,1.29,3.68,2.97,4.66l9.98,5.76,15.32-8.84L1.59,30.3l1.41,15.56Z"/>
        <path class="cls-1" d="m66.19,67.6h0l-15.31,8.84,26.01,15.02c1.69.97,3.76,1.07,5.53.25l14.17-6.56-30.4-17.55Z"/>
      </g>
      <g>
        <polygon class="cls-6" points="33.42 48.68 33.42 65.53 48.02 57.1 33.42 48.68"/>
        <polygon class="cls-6" points="48.73 75.21 48.73 58.34 34.14 66.77 48.73 75.21"/>
        <path class="cls-6" d="m32.71,67.6L2.31,85.15l14.17,6.56c1.77.82,3.83.72,5.53-.25l26.01-15.02-15.31-8.84h0Z"/>
        <path class="cls-6" d="m67.63,47.44l15.32,8.84,9.98-5.76c1.69-.98,2.8-2.72,2.97-4.66l1.41-15.56-29.68,17.13Z"/>
      </g>
      <g>
        <path class="cls-3" d="m3,68.35l-1.41,15.56,10.1-5.83,20.3-11.72v-17.68l-26.01,15.02c-1.69.97-2.8,2.71-2.97,4.66Z"/>
        <path class="cls-3" d="m82.42,22.5c-1.76-.82-3.83-.72-5.52.25l-9.98,5.77v17.68h0s29.68-17.13,29.68-17.13l-14.18-6.56Z"/>
      </g>
    </g>
  </g>
</svg>