<svg width="24" height="24" viewBox="0 0 24 24" fill="none" xmlns="http://www.w3.org/2000/svg">
<circle cx="12" cy="12" r="12" fill="url(#paint0_linear_7193_1395)"/>
<path d="M7.74617 17.1172C7.18758 17.1172 6.68367 17.0137 6.23445 16.8066C5.78523 16.5996 5.42977 16.3145 5.16805 15.9512C4.91023 15.584 4.77352 15.168 4.75789 14.7031H6.24617C6.2618 14.9297 6.33602 15.1328 6.46883 15.3125C6.60555 15.4922 6.78523 15.6328 7.00789 15.7344C7.23445 15.8359 7.48055 15.8867 7.74617 15.8867C8.05867 15.8867 8.33797 15.8164 8.58406 15.6758C8.83406 15.5352 9.02742 15.3418 9.16414 15.0957C9.30477 14.8457 9.37508 14.5664 9.37508 14.2578C9.37508 13.9375 9.30281 13.6523 9.15828 13.4023C9.01375 13.1484 8.81453 12.9512 8.56063 12.8105C8.30672 12.666 8.01961 12.5938 7.6993 12.5938C7.02742 12.582 6.55867 12.8242 6.29305 13.3203H4.87508L5.3907 8.51562H10.4063V9.79297H6.64461L6.3868 12.043H6.46883C6.6368 11.8516 6.86727 11.6973 7.16023 11.5801C7.4532 11.459 7.76961 11.3984 8.10945 11.3984C8.62898 11.3984 9.09773 11.5195 9.5157 11.7617C9.93367 12.0039 10.2598 12.3398 10.4942 12.7695C10.7325 13.1953 10.8516 13.6758 10.8516 14.2109C10.8516 14.7695 10.7188 15.2695 10.4532 15.7109C10.1915 16.1523 9.8243 16.498 9.35164 16.748C8.88289 16.9941 8.34773 17.1172 7.74617 17.1172ZM19.7968 18.043H18.4843V7.44922H19.7968V18.043ZM16.6327 8.57422C16.6327 10.2578 16.2519 11.7363 15.4902 13.0098C14.7284 14.2793 13.4648 15.332 11.6991 16.168L11.0195 15.125C12.3827 14.4766 13.4081 13.7012 14.0956 12.7988C14.787 11.8926 15.1913 10.8281 15.3085 9.60547H11.5585V8.57422H16.6327Z" fill="white"/>
<defs>
<linearGradient id="paint0_linear_7193_1395" x1="12" y1="-1.07689e-08" x2="12" y2="28.2085" gradientUnits="userSpaceOnUse">
<stop stop-color="#86FFC5"/>
<stop offset="0.225869" stop-color="#62FFC6"/>
<stop offset="0.6" stop-color="#71EFEF"/>
<stop offset="1" stop-color="#49E9FF"/>
</linearGradient>
</defs>
</svg>
