<?xml version="1.0" encoding="UTF-8"?>
<svg id="Layer_2" data-name="Layer 2" xmlns="http://www.w3.org/2000/svg" viewBox="0 0 121.57 98.82">
  <defs>
    <style>
      .cls-1 {
        stroke-width: .56px;
      }

      .cls-1, .cls-2 {
        fill: none;
        stroke: #003976;
      }

      .cls-3 {
        fill: #0099d8;
      }

      .cls-3, .cls-4 {
        stroke-width: 0px;
      }

      .cls-4 {
        fill: #003976;
      }

      .cls-2 {
        stroke-width: 1.4px;
      }
    </style>
  </defs>
  <g id="Layer_1-2" data-name="Layer 1">
    <g>
      <g>
        <path class="cls-4" d="m47.72,71.72c-10.82-1.6-19.07-10.67-19.07-21.95s8.36-20.38,19.15-22.02l.12-.02c-7.81,4.33-13.19,12.48-13.19,22.04s5.14,17.49,12.83,21.85l.16.1Z"/>
        <path class="cls-4" d="m83.47,49.77c0-11.48-8.59-20.96-19.7-22.35l5.06,22.35h-8.05v31.92l2.4-9.5c11.39-1.12,20.29-10.74,20.29-22.43Z"/>
      </g>
      <path class="cls-2" d="m60.78,98.12c33.18,0,60.08-21.81,60.08-48.71S93.97.7,60.78.7.7,22.51.7,49.41s26.9,48.71,60.08,48.71Z"/>
      <path class="cls-1" d="m60.78,84.26c24.42,0,44.22-15.61,44.22-34.87S85.2,14.52,60.78,14.52,16.56,30.13,16.56,49.39s19.8,34.87,44.22,34.87Z"/>
      <g>
        <g>
          <path class="cls-3" d="m74.26,71.72c10.82-1.6,19.07-10.67,19.07-21.95s-8.36-20.38-19.15-22.02l-.13-.02c7.81,4.33,13.19,12.48,13.19,22.04s-5.14,17.49-12.83,21.85l-.16.1Z"/>
          <path class="cls-3" d="m58.29,27.39c-11.2,1.31-19.89,10.83-19.89,22.38s8.43,20.78,19.38,22.31l-5.05-22.31h8.06V17.39l-2.49,9.99Z"/>
        </g>
        <g>
          <path class="cls-3" d="m19.34,69.14l-6.01,3.8-1.11-1.76c-.45-.71-.9-1.37-.96-2.21-.05-.83.28-1.56.89-1.95.59-.37,1.35-.43,2.1-.08.78.36,1.3,1.25,1.76,1.99l.17.27,2.28-1.44.87,1.38Zm-4.39.49c-.22-.34-.45-.74-.74-1.03-.36-.33-.82-.43-1.17-.21-.36.23-.43.7-.27,1.17.13.34.41.76.6,1.05l.16.25,1.57-.99-.16-.25Z"/>
          <path class="cls-3" d="m8.78,64.75l4.14-1.58c.31-.12.63-.21.84-.5.26-.35.33-.83.15-1.31-.15-.4-.49-.75-.86-.86-.39-.12-.73.02-1.08.16l-4.14,1.59-.58-1.53,4.14-1.58c.65-.25,1.3-.42,2.03-.08.71.34,1.37,1.01,1.7,1.85.29.78.26,1.72,0,2.42-.32.81-.9,1.11-1.6,1.37l-4.14,1.58-.58-1.53Z"/>
          <path class="cls-3" d="m6.52,57.94l-.23-1.62,3.05-.44-3.43-2.28-.27-1.94,3.92,2.81,3.12-3.81.27,1.94-2.7,3.16,3.09-.44.23,1.62-7.04,1.01Z"/>
          <path class="cls-3" d="m10.26,47.64l-4.7,2.53.14-1.8,3.42-1.66-3.11-2.17.14-1.78,4.23,3.24,2.62.21-.13,1.63-2.61-.21Z"/>
          <path class="cls-3" d="m12.84,33.59c1.94.68,2.79,3.2,1.95,5.56-.83,2.36-3.07,3.79-5.01,3.1-1.95-.69-2.82-3.17-1.98-5.57.85-2.4,3.09-3.78,5.04-3.08Zm-2.55,7.11c1.25.44,2.75-.45,3.29-1.97.54-1.52-.07-3.16-1.31-3.6-1.26-.45-2.71.43-3.26,1.98-.55,1.55.03,3.15,1.29,3.6Z"/>
          <path class="cls-3" d="m10.82,30.05l1.04-1.51,6.36-.07-4.27-2.96.93-1.34,5.85,4.04-1.03,1.49-6.36.1,4.26,2.94-.93,1.35-5.85-4.04Z"/>
          <path class="cls-3" d="m23.04,19.09c-.78-.08-1.69.25-2.35.85-.56.5-.95,1.15-1.1,1.82-.16.73,0,1.53.45,2.01.4.45,1.07.69,1.74.66.79-.02,1.6-.37,2.22-.93.77-.7,1.21-1.79,1.06-2.68l-2.74,2.47-.83-.92,4.27-3.85.1.11c1.39,1.54.83,4.17-1.04,5.85-1.89,1.7-4.57,1.97-5.97.42-1.4-1.56-.89-4.22.98-5.91,1.33-1.2,3.25-1.78,4.66-1.21l-1.45,1.31Z"/>
          <path class="cls-3" d="m28.38,12.79l1.64-.83,5.62,2.98-2.34-4.64,1.46-.73,3.2,6.35-1.62.82-5.63-2.96,2.33,4.62-1.46.73-3.21-6.34Z"/>
          <path class="cls-3" d="m39.93,7.72l1.22-.39,5.68,5.66-1.72.54-1.46-1.47-2.99.94-.37,2.04-1.72.55,1.36-7.89Zm2.72,3.33l-1.55-1.77-.25,2.34,1.8-.57Z"/>
          <path class="cls-3" d="m47.31,7.09l-1.59.3-.24-1.25,4.82-.93.24,1.26-1.62.31,1.09,5.73-1.61.31-1.09-5.73Z"/>
          <path class="cls-3" d="m51.5,5.09l1.62-.2.86,7.06-1.63.2-.86-7.06Z"/>
          <path class="cls-3" d="m64.17,8c.04,2.06-2.03,3.73-4.53,3.77-2.51.04-4.62-1.56-4.65-3.62-.03-2.06,1.99-3.75,4.53-3.8,2.54-.04,4.62,1.58,4.65,3.65Zm-7.55.09c.02,1.31,1.39,2.42,3,2.4,1.61-.03,2.94-1.17,2.92-2.49-.02-1.34-1.35-2.4-3-2.37-1.64.02-2.94,1.13-2.92,2.46Z"/>
          <path class="cls-3" d="m66.19,4.59l1.83.24,2.97,5.63.67-5.15,1.62.21-.92,7.04-1.8-.23-3-5.61-.68,5.13-1.62-.22.92-7.05Z"/>
          <path class="cls-3" d="m78.54,6.81l1.23.35,1.63,7.85-1.74-.5-.41-2.03-3.01-.85-1.44,1.51-1.73-.5,5.47-5.84Zm.44,4.27l-.32-2.33-1.49,1.82,1.81.51Z"/>
          <path class="cls-3" d="m84.77,8.83l1.51.64-2.26,5.37,2.48,1.04-.5,1.18-3.99-1.68,2.76-6.56Z"/>
          <path class="cls-3" d="m94.82,13.87l-2.46,3.69c-.18.28-.39.54-.39.9,0,.44.21.87.63,1.15.36.24.83.32,1.2.2.39-.13.58-.44.79-.75l2.46-3.69,1.37.9-2.46,3.69c-.39.59-.82,1.09-1.6,1.25-.79.14-1.72-.03-2.46-.53-.7-.46-1.22-1.25-1.39-1.97-.21-.85.09-1.43.5-2.05l2.46-3.69,1.36.91Z"/>
          <path class="cls-3" d="m100.55,17.89l1.32,1.28-.98,6.29,3.62-3.74,1.17,1.14-4.95,5.1-1.31-1.26.95-6.29-3.61,3.72-1.18-1.14,4.96-5.11Z"/>
          <path class="cls-3" d="m107.17,24.86l.99,1.3-5.66,4.31-.99-1.3,5.66-4.3Z"/>
          <path class="cls-3" d="m109.4,27.59l.81,1.52-3.66,4.63,5.89-.44.8,1.52-7.87.33-.63-1.19,4.67-6.36Z"/>
          <path class="cls-3" d="m113.83,36.77l1.28,4.56-1.23.34-.84-2.99-1.57.44.8,2.86-1.23.34-.8-2.86-1.57.44.84,2.99-1.24.34-1.27-4.56,6.85-1.92Z"/>
          <path class="cls-3" d="m115.56,43.84l.18,2.55c.05.83.06,1.62-.34,2.32-.38.66-1.01,1.1-1.67,1.15-.52.04-1.18-.22-1.6-.62-.41-.4-.65-.92-.8-1.51l-2.46,2.57-.14-2.01,2.55-2.5-2.71.19-.12-1.63,7.09-.5Zm-3.2,2.77c.03.43.11.97.39,1.27.22.25.5.37.79.35.31-.02.6-.21.76-.53.21-.4.2-.78.16-1.24l-.07-.9-2.1.15.06.89Z"/>
          <path class="cls-3" d="m110.62,52.22c-.55-.07-.96.45-1.04,1.1-.08.61.23,1.18.74,1.25.78.1,1.11-.67,1.39-1.37.23-.56.43-1.04.85-1.43.41-.38.96-.58,1.44-.51,1.15.14,1.85,1.44,1.67,2.84-.17,1.35-1.23,2.45-2.33,2.3l.21-1.67c.44.03.8-.38.86-.89.07-.53-.21-.92-.63-.96-.52-.08-.79.49-1,.99-.25.59-.46,1.16-.87,1.62-.48.58-1.03.8-1.72.72-1.26-.16-2.07-1.58-1.88-3.13.2-1.49,1.29-2.71,2.52-2.55l-.22,1.7Z"/>
          <path class="cls-3" d="m114.67,58.68l-.44,1.57-6.85-1.9.44-1.57,6.85,1.9Z"/>
          <path class="cls-3" d="m112,62.84l.62-1.5,1.18.49-1.87,4.53-1.18-.49.63-1.52-5.39-2.22.62-1.51,5.39,2.22Z"/>
          <path class="cls-3" d="m106.22,67.35l5.34-.07-.96,1.53-3.79-.12,1.75,3.37-.95,1.51-2.25-4.83-2.22-1.4.87-1.38,2.22,1.39Z"/>
        </g>
      </g>
      <path class="cls-4" d="m66.22,86.6h-2.5v.62h-1.24v-.62h-6.44v.95h3.98c.05.63,0,3.26-4.42,3.46l.56.92s3.06.08,5.17-1.57h2.39s0,1.51,0,1.51c-.71-.18-1.53-.28-2.39-.28-2.7,0-4.88,1-4.88,2.22s2.18,2.22,4.88,2.22,4.89-1,4.89-2.22v-7.21Zm-4.17,2.75c.16-.33.28-.7.35-1.12h1.32s0,1.12,0,1.12h-1.67Zm-3.06,4.43c0-.66,1.06-1.18,2.37-1.18s2.37.53,2.37,1.18-1.06,1.19-2.37,1.19-2.37-.53-2.37-1.19Z"/>
      <g>
        <polygon class="cls-4" points="53.27 91.85 42.74 89.64 42.54 90.62 46.69 91.5 46.11 94.28 48.53 94.8 49.12 92.01 53.06 92.84 53.27 91.85"/>
        <path class="cls-4" d="m44.18,89.14l7.25,1.53,1.51.32.92-4.37-2.43-.51-.28,1.32-4.8-1.01.28-1.31-2.43-.51-.72,3.4c-.11.52.14,1.02.69,1.16Zm6.77-.74l-.23,1.09-4.8-1.01.23-1.09,4.8,1.01Z"/>
      </g>
      <path class="cls-4" d="m38.81,83.51l-.9,1.93-4.11-1.91-.41.88s3.58,1.66,3.92,1.82c.6.28.91.09.91.09l1.57-3.38,2.35,1.09-2.23,4.81-2.35-1.09.26-.56s-.37.23-1.19-.16c-.48-.22-5.28-2.45-5.28-2.45-.22-.1-.36-.23-.41-.4-.07-.19-.04-.44.1-.73l.87-1.87,4.15,1.92.46-.99-4.15-1.92.41-.89,5.65,2.62s.75.4.38,1.2Zm-.52,8.77l-8.24-3.83c-.22-.1-.36-.24-.42-.42-.07-.19-.04-.44.09-.72l.98-2.1,2.35,1.09-.2.44,4.24,1.97.2-.44,2.36,1.09-1.35,2.93Zm-1.64-2.66l-4.24-1.97-.31.66,4.24,1.97.3-.66Z"/>
      <path class="cls-4" d="m26.72,83.4l-1.69,2.07-2.01-1.65,1.68-2.05-5.44-4.46.59-.72,2.77,2.27.76-.92-3.27-2.68.63-.77,5.86,4.81,1.49-1.82-5.39-4.42.62-.76,6.8,5.57c.49.4.21,1.07.05,1.27-.17.2-1.51,1.84-1.51,1.84l.5.41-.63.77-3.22-2.64-.75.92,2.04,1.67c.74.61.13,1.29.13,1.29Z"/>
      <path class="cls-4" d="m69.9,93.42c.11.51.6.88,1.16.77h.01s3.48-.74,3.48-.74c.11-.02.92-.19,1.1-.6l.28,1.32,2.1-.44-1.05-5,.63-.13,1.05,4.98,2.11-.44-1.87-8.91-2.1.44.62,2.95-.63.13-.62-2.95-2.11.44,1.39,6.63c-.19.44-.89.56-.89.56l-2.21.47-1.26-6.01,2.43-.51-.21-.98-4.86,1.02,1.47,6.99h0Z"/>
      <polygon class="cls-4" points="91.81 79.71 90.71 80.21 90.16 79 87.9 80.03 90.04 84.74 92.3 83.71 91.13 81.13 92.23 80.63 91.81 79.71"/>
      <path class="cls-4" d="m91.64,84.64l-8.32,3.77.42.91,6.96-3.15.97,2.15,2.26-1.02-.99-2.18c-.21-.47-.78-.71-1.29-.48"/>
      <path class="cls-4" d="m86.2,81.9l1.32-.6-.38-.84-2.16.98-.22-.48-2.26,1.02.22.49-2.11.95.38.84,1.36-.62c-.8.72-1.06,1.62-.7,2.4.57,1.26,2.55,1.58,4.44.72,1.88-.85,2.95-2.56,2.38-3.81-.35-.78-1.24-1.21-2.27-1.05Zm-.6,3.8c-.71.32-1.54.05-1.84-.62-.3-.66.04-1.46.75-1.79.71-.32,1.53-.04,1.83.62.3.66-.04,1.46-.75,1.79Z"/>
      <path class="cls-4" d="m100.1,72.64c-.33-.4-.86-.5-1.33-.16l-6.45,5.45.65.77,5.25-4.44,4.59,5.43-.72.61-2.56-3.03-1.64,1.39,2.56,3.03-.63.53-2.56-3.03-1.64,1.39,2.56,3.03-1.22,1.03.65.77,8.21-6.95-.65-.77-.46.39-4.61-5.45"/>
    </g>
  </g>
</svg>