<svg width="24" height="24" viewBox="0 0 24 24" fill="none" xmlns="http://www.w3.org/2000/svg">
<path d="M11.0976 1.23471C11.6441 0.922469 12.3559 0.921059 12.9019 1.23471C15.6488 2.78408 18.3966 4.33102 21.1431 5.88132C21.6597 6.17178 22.0052 6.74564 21.9999 7.3398V16.6614C22.0038 17.2801 21.6241 17.8677 21.0791 18.1516C18.3412 19.6924 15.6047 21.2351 12.8673 22.776C12.3095 23.0943 11.5834 23.0698 11.0431 22.7253C10.2223 22.2504 9.40002 21.7777 8.57912 21.3032C8.41137 21.2034 8.22228 21.124 8.10383 20.9616C8.20854 20.8207 8.39575 20.8032 8.54788 20.7417C8.89051 20.6329 9.20519 20.4583 9.51996 20.2889C9.59955 20.2346 9.69673 20.2554 9.77303 20.3041C10.4749 20.7058 11.1706 21.1192 11.8749 21.5171C12.0251 21.6036 12.1772 21.4887 12.3057 21.4172C14.9924 19.9015 17.6824 18.3914 20.3687 16.8752C20.4682 16.8274 20.5232 16.722 20.5151 16.6131C20.517 13.5381 20.5156 10.4626 20.5161 7.3876C20.5275 7.26411 20.4559 7.15058 20.344 7.10004C17.6156 5.56626 14.8886 4.03014 12.1607 2.49597C12.1134 2.46354 12.0574 2.44613 12.0001 2.44605C11.9427 2.44596 11.8867 2.4632 11.8393 2.4955C9.11139 4.03014 6.38487 5.56767 3.65694 7.10137C3.54548 7.15199 3.47067 7.26364 3.48394 7.3876C3.48441 10.4626 3.48394 13.5381 3.48394 16.6136C3.47921 16.6667 3.49089 16.72 3.51741 16.7662C3.54394 16.8125 3.58403 16.8496 3.63229 16.8724C4.36025 17.2845 5.08916 17.6936 5.81759 18.1043C6.22796 18.3248 6.73182 18.4558 7.18395 18.2868C7.58294 18.144 7.86262 17.7376 7.855 17.3147C7.85877 14.2577 7.85312 11.2001 7.85783 8.14355C7.84786 8.00784 7.97683 7.89572 8.10901 7.90849C8.45879 7.90614 8.80903 7.90379 9.1588 7.90943C9.3048 7.90614 9.40528 8.05227 9.38722 8.189C9.38581 11.2654 9.39099 14.3419 9.38487 17.4183C9.38581 18.2382 9.04836 19.1303 8.28861 19.5315C7.35264 20.0155 6.19578 19.9128 5.27111 19.4487C4.47062 19.0499 3.7067 18.5793 2.92042 18.152C2.37402 17.8697 1.99622 17.2798 2.00007 16.6615V7.3398C1.99434 6.73334 2.35361 6.14906 2.88628 5.86283C5.62371 4.32075 8.36067 2.77749 11.0976 1.23471Z" fill="#8CC84B"/>
<path d="M13.5043 7.02964C14.7688 6.95234 16.1226 6.98385 17.2605 7.57551C18.1415 8.02892 18.63 8.9805 18.6455 9.91013C18.6209 10.0355 18.4829 10.1047 18.3569 10.0961C17.99 10.0956 17.623 10.1008 17.2561 10.0937C17.1005 10.0994 17.01 9.96311 16.9905 9.83243C16.8851 9.38763 16.6297 8.9471 16.1888 8.73256C15.5122 8.41078 14.7276 8.42697 13.9897 8.43368C13.4511 8.46084 12.8718 8.50514 12.4155 8.80599C12.0651 9.03388 11.9587 9.49391 12.0837 9.86441C12.2016 10.1304 12.525 10.2163 12.7895 10.2954C14.3135 10.6739 15.9284 10.6363 17.4232 11.1344C18.0421 11.3375 18.6475 11.7324 18.8594 12.3478C19.1365 13.1726 19.015 14.1586 18.3971 14.8207C17.896 15.3657 17.1662 15.6622 16.4383 15.8233C15.47 16.0284 14.4651 16.0336 13.4817 15.9426C12.5571 15.8424 11.5948 15.6117 10.881 15.0133C10.2705 14.5099 9.97241 13.7256 10.002 12.9686C10.0091 12.8408 10.1431 12.7516 10.272 12.7621C10.6415 12.7593 11.011 12.7583 11.3805 12.7626C11.528 12.7526 11.6374 12.8737 11.645 13.0058C11.7132 13.4296 11.8809 13.8744 12.27 14.1256C13.0209 14.5857 13.9631 14.5542 14.8229 14.5671C15.5353 14.5371 16.3349 14.528 16.9162 14.0809C17.2229 13.8258 17.3138 13.3991 17.2309 13.032C17.1411 12.7221 16.7998 12.5776 16.5066 12.4832C15.0022 12.0312 13.3692 12.1952 11.8794 11.6841C11.2745 11.4811 10.6897 11.0973 10.4573 10.5071C10.133 9.67182 10.2816 8.63867 10.9643 7.99883C11.6299 7.36239 12.5907 7.11729 13.5043 7.02956V7.02964Z" fill="#8CC84B"/>
</svg>
