<?xml version="1.0" encoding="UTF-8"?>
<svg id="Layer_2" data-name="Layer 2" xmlns="http://www.w3.org/2000/svg" viewBox="0 0 257.67 108.53">
  <defs>
    <style>
      .cls-1 {
        fill: #5ac5c4;
      }

      .cls-1, .cls-2, .cls-3 {
        stroke-width: 0px;
      }

      .cls-2 {
        fill: #00a3c9;
      }

      .cls-3 {
        fill: #00678f;
      }
    </style>
  </defs>
  <g id="Layer_1-2" data-name="Layer 1">
    <g>
      <path class="cls-2" d="m93.47,108.53h-29.49c.34,0,1.41-1.44,1.69-1.71.57-.65,1.11-1.31,1.63-2.01,1.28-1.73,2.26-3.67,2.99-5.67,2.56-6.91,2.38-14.97-.48-21.14-2.99-6.46-7.65-12.1-10.92-17.44-5.31-8.68-9.04-18.41-8.25-28.76.5-6.56,3.5-13.75,7.94-18.67h28.38c-8.04,7.63-10.41,18.35-7.55,29.39,1.56,6.11,5.51,11.82,8.55,16.47,3.19,4.91,6.52,9.88,8.89,15.24,2.9,6.51,3.8,13.98,2.41,21.01-.65,3.4-1.81,6.74-3.45,9.78-.27.48-1.71,3.54-2.35,3.54Z"/>
      <path class="cls-1" d="m109.84,80.67h48.95V0h-64.42c-4.87,4.27-7.85,12.85-5.71,21.63,1.67,6.88,6.65,13.09,11.09,18.97,7.04,9.36,14.75,19.88,12.6,32.33-.43,2.55-1.26,5.45-2.51,7.73Z"/>
      <path class="cls-3" d="m0,0v80.67h48.17c2.31-5.16,1.46-11.23-.08-14.95-4.65-11.36-12.22-17.51-16.43-27.42-3.98-9.39-4.44-17.98-1-30.32.19-.7,2.11-5.61,3.39-7.98H0Z"/>
      <path class="cls-2" d="m257.67,0h-39.99v63.98c.01.32-.07,1.87-.14,3.46-.45,10.03-2.8,12.03-5.3,13.23h45.43V0Z"/>
      <path class="cls-3" d="m169.67,13.2v79.96l.04,1.29c.23,7.12,6.03,12.79,13.21,12.79s12.82-5.55,13.23-12.52l.02-1.56V13.2h-26.49Z"/>
    </g>
  </g>
</svg>