<?xml version="1.0" encoding="UTF-8"?>
<svg id="Layer_2" data-name="Layer 2" xmlns="http://www.w3.org/2000/svg" viewBox="0 0 209.49 206.98">
  <defs>
    <style>
      .cls-1 {
        fill: #1e6917;
        stroke-width: 0px;
      }
    </style>
  </defs>
  <path class="cls-1" d="m128.25,47.83c1.36.53,2.74.79,4.14.79h.15c1.28,0,2.47-.25,3.58-.69.43.64.85,1.42,1.26,2.36.42.95.76,1.87,1.01,2.75v.05s2.13-.56,2.13-.56l-.02-.06c-.8-2.08-1.69-3.91-2.65-5.45.82-.49,1.57-1.01,2.24-1.57.96-.79,1.75-1.62,2.38-2.49l3.64,1.99.88-1.62-8.42-4.62c1.21-1.01,2.25-2.07,3.11-3.18l.03-.04-1.44-1.76-.03.06c-.45.63-.99,1.3-1.63,2-.63.69-1.26,1.32-1.89,1.89l-5.23-2.87-.88,1.63,4.71,2.59c-.54.58-1.3,1.22-2.3,1.92-1.02.71-1.93,1.27-2.76,1.66l-.05.02,1.37,1.65.04-.03c.38-.19.6-.29.66-.31.2-.11.41-.24.63-.4.33.33.71.76,1.11,1.3.41.53.71,1,.9,1.38-.72.32-1.53.47-2.4.47-.36,0-.74-.03-1.12-.08-1.19-.17-2.38-.59-3.58-1.25l-.09-.05.49,2.52h.02Zm6.26-5.58c.39-.28.86-.65,1.41-1.09.56-.45.97-.83,1.27-1.13l3.48,1.92c-.48.56-1.1,1.17-1.88,1.83-.78.65-1.46,1.12-2.04,1.43-.34-.56-.71-1.1-1.11-1.63-.4-.52-.78-.96-1.12-1.32Z"/>
  <path class="cls-1" d="m101.09,152.7c.05-1.5,1.15-3.18,1.16-3.2l.06-.09-.08-.06-1.38-.95-.09-.06-.06.09s-1.26,1.69-1.66,3.97c-.22,1.18.29,2.09.8,2.99.48.85.92,1.66.74,2.67-.33,1.85-2.76,3.76-2.78,3.79l-.12.08.12.09,1.34,1.04.08.06.07-.06c.13-.12,3-2.79,3.38-4.88.23-1.34-.35-2.47-.88-3.47-.36-.71-.72-1.39-.7-2.01Z"/>
  <path class="cls-1" d="m67.09,48.4l1.6.35c.11-.11.21-.32.3-.62.04-.1.09-.23.13-.42.12-.25.24-.59.37-1.02.05-.14.1-.33.16-.56l3.07,5.92,1.65-.87-3.68-7.1c-.04-.09-.07-.21-.08-.39-.01-.04-.01-.12,0-.21-.03-.05-.1-.09-.23-.15-.12-.05-.2-.09-.21-.11-.07-.14-.04-.55.12-1.23.05-.22.13-.53.25-.96-.06-.12-.29-.2-.7-.24-.73-.06-1.17-.05-1.35.04-.07.03-.1.19-.07.42.02.24.04.5.07.78.05.78-.1,1.87-.43,3.25-.29,1.2-.62,2.24-.99,3.12Z"/>
  <path class="cls-1" d="m109.54,153.32c-.66-.59-1.21-1.12-1.22-1.53-.04-1.47.86-2.5.87-2.51l.09-.1-.12-.07-1.35-.81-.06-.04-.07.04c-.06.05-1.48,1.21-1.44,3.54.03.72.75,1.41,1.59,2.2,1.15,1.08,2.44,2.3,2.48,3.97.04,1.88-1.4,4.33-1.41,4.35l-.07.11.13.05,1.58.64.1.04.04-.09c.54-1.04,1.66-3.71,1.57-5.41-.09-1.97-1.6-3.36-2.71-4.39Z"/>
  <path class="cls-1" d="m98.29,111.51c0-.14.03-.36.09-.66.02-.08.05-.22.11-.4,0-.26-.12-.43-.36-.48-.24-.07-.54-.15-.91-.23h-.94v12.04h4.51c-.56.39-1.27.76-2.13,1.13-1.05.46-2.06.75-3.03.89l1.12,2.07c1.04-.23,2.18-.67,3.44-1.31,1.08-.54,1.79-1,2.12-1.36l-.96-1.43h6.81l-1.2,1.39c1.07.86,2.01,1.53,2.81,1.99.7.41,1.42.72,2.14.93l1.27-2.02c-.74-.23-1.57-.58-2.46-1.06-.84-.43-1.5-.84-2-1.22h5.11v-1.82h-15.56v-8.45Z"/>
  <path class="cls-1" d="m130.23,142.99h1.83v-.86h7.95v.7h1.87v-5.97h-11.64v6.13Zm1.83-4.21h7.95v1.43h-7.95v-1.43Z"/>
  <path class="cls-1" d="m140.94,132.85c.08-.25.19-.6.29-1.06h3.52v-1.98h-7.77v-1.02h5.89v-2h-5.89v-1.04h7.44v-2h-4.95c.2-.37.39-.74.57-1.16.17-.41.33-.81.47-1.23l-1.89-.88c-.12.58-.27,1.13-.43,1.69-.18.55-.39,1.08-.65,1.58h-3.55l.94-.7c-.19-.45-.43-.92-.74-1.43-.29-.5-.59-.91-.86-1.24l-1.53,1.14c.62.8,1.08,1.53,1.37,2.23h-5.39v2h7.37v1.04h-5.82v2h5.82v1.02h-7.69v1.98h3.54c.18.33.32.68.42,1.03.11.36.18.71.23,1.08h-4.53v1.95h18v-1.95h-4.61c.21-.44.36-.8.44-1.04Zm-5.8,1.04h-1.64c-.1-.48-.2-.88-.29-1.2-.09-.31-.21-.61-.35-.91h2.28v2.11Zm3.91-1c-.13.37-.27.71-.43,1h-1.64v-2.11h2.37c-.06.37-.16.73-.3,1.11Z"/>
  <path class="cls-1" d="m75.08,136.43h6.37v-2.07h-7v-1.45h7.51v-2.07h-7.51v-1.37h5.8v-2.07h-5.8v-1.33h7.25v-2.07h-4.43c.27-.52.52-1.05.72-1.61.02-.09.12-.43.31-1.04l-1.75-.96c-.15.67-.31,1.3-.5,1.9-.23.75-.46,1.31-.68,1.71h-3.84l.98-.88c-.21-.48-.45-.98-.73-1.44-.29-.48-.58-.9-.87-1.29l-1.48,1.14c.29.38.57.8.84,1.25.27.45.46.86.58,1.22h-5.4v2.07h7.21v1.33h-5.81v2.07h5.81v1.37h-7.54v2.07h7.54v1.45h-7.01v2.07h6.4c-.54,1.05-1.58,2.01-3.12,2.9-1.42.81-2.94,1.38-4.55,1.7l1.56,1.97c1.46-.42,2.87-1.11,4.24-2.06,1.45-1,2.59-2.1,3.4-3.3.73,1.25,1.83,2.35,3.26,3.3,1.35.9,2.87,1.57,4.55,2.02l1.52-1.92c-1.71-.22-3.34-.78-4.89-1.68-1.55-.9-2.53-1.88-2.95-2.93Z"/>
  <path class="cls-1" d="m104.61,152.22c-.23-1.46,1.14-2.87,1.15-2.9l.1-.09-.12-.08-1.35-.84-.04-.04-.06.06c-.08.07-1.77,1.59-1.77,3.91,0,1.21.78,2.03,1.54,2.8.72.76,1.45,1.47,1.45,2.48,0,1.88-2.05,4.62-2.07,4.65l-.08.1.13.07,1.41.83.11.05.06-.09c.43-.6,2.51-3.74,2.51-5.83,0-1.35-.91-2.35-1.71-3.23-.62-.63-1.14-1.24-1.24-1.86Z"/>
  <path class="cls-1" d="m99.8,119.06h11.38v-9.29h-11.38v9.29Zm2.01-7.67h7.37v1.02h-7.37v-1.02Zm0,2.55h7.37v.98h-7.37v-.98Zm0,2.49h7.37v1h-7.37v-1Z"/>
  <path class="cls-1" d="m98.72,108.61c.38.19,1.11.28,2.18.28h9.15c.69,0,1.33-.09,1.93-.51.72-.49,1.24-1.14,1.56-2.15l-1.4-1.22c-.43.88-.88,1.35-1.35,1.66-.48.3-1.17.35-2.05.35h-7.85c-.23,0-.49-.02-.78-.06-.29-.03-.44-.06-.44-.29v-.42c.18,0,.92-.05,2.23-.15,1.3-.09,2.76-.19,4.31-.37,1.89-.26,3.3-.51,4.22-.78l-.61-1.94c-1.03.29-2.69.56-4.98.82-2.28.33-4,.43-5.17.43v-.53c.03-.1.08-.23.13-.34.05-.13.07-.26.07-.34,0-.16-.15-.29-.43-.36-.29-.04-.58-.09-.85-.13h-.63v4.53c0,.82.25,1.23.75,1.51Z"/>
  <path class="cls-1" d="m167.65,143.62l-7.67-5.97-1.35,1.77,7.48,5.83c2.57,2,1.85,4.36.6,5.99-1.22,1.59-3.25,2.79-5.82.77l-7.44-5.8-1.36,1.78,7.88,6.14c2.21,1.72,5.41,1.8,8.11-1.74,2.75-3.6,2-6.88-.43-8.77Z"/>
  <polygon class="cls-1" points="144.31 155.59 147.67 167.38 147.64 167.41 138.62 158.94 136.59 160.13 139.43 172.24 139.39 172.27 130.89 163.49 128.87 164.67 139.75 175.22 141.71 174.05 138.85 161.7 138.89 161.69 148.07 170.32 150.03 169.16 146.36 154.38 144.31 155.59"/>
  <path class="cls-1" d="m174.59,110.76c.83.87,1.19,1.96,1.02,3.07-.29,1.91-1.71,3.24-3.91,2.91-1.91-.3-3.31-1.79-3.01-3.79.27-1.73,1.24-2.94,3.05-2.88l.31-1.99c-3.47-.15-4.67,2.31-4.96,4.34-.72,4.83,2.83,6.15,4.52,6.42,3.15.48,5.28-1.81,5.65-4.32.21-1.38-.1-2.39-.5-3.13l4.09,1.3-.98,6.54,1.86.29,1.21-7.99-8.02-2.42-.33,1.65Z"/>
  <path class="cls-1" d="m44.3,105.91c0,33.43,27.07,60.54,60.43,60.54s60.44-27.11,60.44-60.54-27.06-60.54-60.44-60.54-60.43,27.11-60.43,60.54Zm60.43,58.4c-4.26,0-8.42-.45-12.42-1.33l1.66-16.26.07-.87,5.53-6.38,5.22,6.82,5.01-6.81,5.72,6.42.07.91h.18s-.18.01-.18.01l1.6,16.16c-4.01.87-8.17,1.34-12.46,1.34Zm-.05-30.29l-3.21,4.4-1.8-2.33-5.32,6.15.09-1.02c.5-5.84,4.65-10.58,10.32-10.58s9.87,4.73,10.37,10.58l.1,1.12-5.59-6.27-1.68,2.3-3.28-4.35Zm1.97,6.16l-1.9,2.54-1.93-2.54,1.9-2.56,1.92,2.56Zm39.32,7.03c-7.16,7.17-16.17,12.48-26.25,15.16l-2.13-21.19c-.62-7.16-5.73-13.04-12.83-13.04s-12.17,5.88-12.79,13.05l-2.17,21.18c-10.09-2.67-19.12-7.99-26.28-15.16-8.54-8.55-14.42-19.73-16.38-32.22l10.23-4.54v-4.71h7.19v4.61h12.08v-4.61h7.02v4.52h10.95v-2.58h-1.61v-7.58c3.65.13,7.74.24,11.74.24,3.74,0,7.6-.1,11.09-.22v7.56h-1.57v2.58h11.93v-4.52h7.01v4.61h12.08v-4.61h7.19v4.71l9.89,4.4c-1.92,12.55-7.83,23.78-16.39,32.36Zm-68.15-52.36c-.82-.16-1.6-.34-2.34-.52v-6.01c.08-.02.13-.04.2-.06.73-.24,1.45-.61,2.14-1.04v7.64Zm12.79-22.18c-.83-.08-1.63-.17-2.39-.26v-12.62c.64.18,1.47.4,2.39.62v12.27Zm.16,11.1v12.6c-.8-.05-1.58-.11-2.34-.17v-12.43h2.34Zm-.8-6.77v4.2h-3.65v-4.2h3.65Zm-3.52,6.77v12.24c-.8-.07-1.59-.16-2.34-.25v-12h2.34Zm-.21-11.62c-.85-.13-1.65-.26-2.39-.39v-7.16c.82-.87,1.49-1.91,2.09-2.9.1-.18.2-.34.3-.51v10.96Zm3.19,27.81v7.72h-3.2v-4.52h-4.92v-3.63c1.12.08,4.16.26,8.13.44Zm-7.3-4.44c-.81-.11-1.59-.21-2.33-.33v-9.41c.16-.14.32-.26.47-.4.74-.63,1.37-1.22,1.76-1.61h.1v11.75Zm14.58-18.52v4.2h-4.16v-4.2h4.16Zm-4.12-4.16v-12.04c.77.13,1.56.25,2.35.3.01,0,.03,0,.05,0v11.9c-.83-.05-1.63-.11-2.39-.17Zm2.5,10.93v12.86c-.8-.04-1.58-.09-2.34-.12v-12.74h2.34Zm8.63-22.43v11.94c-.81,0-1.61-.02-2.38-.03v-11.93c.56,0,1.12,0,1.67,0h0c.23,0,.48,0,.71,0Zm-.29,15.66v4.2h-4.16v-4.2h4.16Zm.28,6.77v13.07c-.78,0-1.57-.01-2.32-.02v-13.04h2.32Zm-4.31,0v13.01c-.8-.01-1.58-.04-2.34-.06v-12.95h2.34Zm-.06-10.57c-.81-.02-1.61-.06-2.39-.09v-11.89c.76.03,1.56.05,2.39.07v11.91Zm10.81,3.79v4.2h-4.17v-4.2h4.17Zm-.07-3.79v-11.92c.82-.02,1.63-.04,2.38-.08v11.91c-.77.04-1.57.07-2.38.09Zm2.28,10.57v12.95c-.77.02-1.54.05-2.34.06v-13.01h2.34Zm-4.26-10.52c-.78,0-1.57.02-2.4.03v-11.94h.51c.61,0,1.24,0,1.89-.02v11.94Zm-.05,10.52v13.04c-.76.01-1.54.02-2.34.02v-13.07h2.34Zm8.84-6.77v4.2h-4.15v-4.2h4.15Zm-2.43-3.99v-11.92c.8-.06,1.61-.18,2.39-.32v12.08c-.76.06-1.57.12-2.39.17Zm2.23,10.76v12.74c-.76.04-1.54.08-2.33.12v-12.86h2.33Zm11.45,15.75v3.63h-4.53v4.52h-4.22v-7.69c4.27-.19,7.56-.38,8.75-.46Zm-.84-4v-11.75h.1c.4.39,1.02.97,1.76,1.61.15.13.31.26.48.4v9.41c-.75.12-1.53.22-2.34.33Zm-1.71-23.76c-.74.13-1.54.26-2.39.39v-10.96c.1.17.19.33.3.51.6.99,1.28,2.03,2.09,2.9v7.16Zm-.27,12.01v12c-.74.08-1.53.17-2.33.25v-12.24h2.33Zm-2.21-2.57h-3.65v-4.2h3.65v4.2Zm-1.89-8.79c-.76.09-1.56.17-2.39.26v-12.32c.94-.22,1.77-.45,2.39-.64v12.7Zm-.21,11.36v12.43c-.76.07-1.55.13-2.35.17v-12.6h2.35Zm-16.28-36.26c16.11,0,30.68,6.54,41.24,17.11,10.55,10.58,17.07,25.17,17.07,41.3,0,2.12-.11,4.21-.34,6.27l-7.65-3.4v-5.62h-12.35v4.62h-6.92v-4.62h-4.08v-5.9c8.67-1.61,13.47-5.08,13.58-5.15l.73-.54-1.71-4.53h-.84s-.09.01-.27.01c-1.12.02-5.67-.08-8.71-1.06-1.06-.33-2.61-1.42-3.77-2.42-.59-.51-1.11-.98-1.47-1.34-.37-.35-.56-.56-.56-.56l-.35-.47h-1.63v-7.22c8.33-1.6,10.49-3.79,10.75-4.04l.43-.47-.93-3.73-.79-.11s-1.49-.22-3.25-.57c-1.74-.35-3.81-.88-4.67-1.35-.67-.29-1.88-1.82-2.69-3.24-.43-.7-.79-1.39-1.04-1.88-.24-.5-.39-.81-.39-.81l-.33.16.33-.16-.73-1.84-2.77.15v1.13c-1.4.41-4.17,1.13-6.51,1.31-2.4.19-6.34.23-9.41.23-3.12,0-7.12-.04-9.54-.23-1.65-.12-3.53-.52-4.99-.9-.49-.12-.93-.25-1.31-.34v-1.18l-2.77-.15-.73,1.82h0s-.14.31-.39.81c-.38.74-1,1.9-1.71,2.94-.7,1.04-1.54,1.95-2.02,2.18-.86.47-2.92,1.01-4.67,1.35-1.76.35-3.25.57-3.26.57l-.79.11-.93,3.73.44.47c.26.25,2.42,2.44,10.75,4.04v7.22h-1.63l-.35.47s-.21.21-.57.56c-1.06,1.06-3.62,3.28-5.25,3.76-3.04.98-7.59,1.07-8.71,1.06h-1.1s-1.71,4.52-1.71,4.52l.73.54c.1.07,4.91,3.54,13.57,5.15v5.9h-3.68v4.62h-6.93v-4.62h-12.34v5.62l-8,3.55c-.23-2.1-.35-4.25-.35-6.41,0-16.13,6.52-30.72,17.07-41.3,10.55-10.57,25.13-17.1,41.22-17.11Zm26.9,47.33v-7.63c.69.43,1.41.81,2.14,1.04.06.02.13.04.2.06v6.01c-.74.18-1.52.36-2.34.52Zm4.31-1.07v-4.97c.79.15,1.58.27,2.34.36v3.8c-.71.27-1.49.55-2.34.81Zm4.32-1.63v-2.8c.97.06,1.81.09,2.39.09l.47,1.23c-.61.37-1.56.89-2.86,1.48Zm-12.69-20.77v-5.34c.7.31,1.53.56,2.4.79v3.95c-.72.2-1.52.39-2.4.59Zm4.37-1.21v-2.87c.16.04.33.07.49.1,1.04.21,1.97.37,2.59.47l.21.81c-.53.34-1.55.89-3.28,1.49Zm-50.08-4.14v5.34c-.88-.2-1.68-.39-2.39-.59v-3.95c.87-.23,1.69-.49,2.39-.8Zm-4.37,1.27v2.88c-1.34-.47-2.26-.91-2.84-1.24-.17-.09-.32-.18-.44-.26l.2-.81c.63-.1,1.56-.26,2.59-.47.16-.03.33-.07.49-.1Zm-3.99,21.51v4.97c-.85-.26-1.63-.53-2.34-.81v-3.8c.76-.09,1.55-.21,2.34-.36Zm-4.32.54v2.8s-.06-.02-.08-.02c-1.18-.54-2.09-1.04-2.68-1.39-.03-.02-.07-.04-.1-.07l.47-1.23c.57,0,1.41-.03,2.39-.09Z"/>
  <polygon class="cls-1" points="155.68 162.35 157.2 164.08 159.05 162.42 157.52 160.68 155.68 162.35"/>
  <path class="cls-1" d="m104.68,167.27c-5.14,0-9.27,4.19-9.28,9.35.01,5.17,4.15,9.37,9.28,9.37s9.24-4.2,9.25-9.37c0-5.16-4.15-9.35-9.25-9.35Zm4.08,4.88c-2.45,0-4.41,2.01-4.42,4.47,0,2.12-1.69,3.83-3.78,3.83s-3.78-1.71-3.79-3.83c0-4.41,3.53-7.96,7.9-7.97,3.24,0,6.03,1.99,7.23,4.83-.8-.82-1.92-1.33-3.15-1.33Z"/>
  <path class="cls-1" d="m67.84,174.96l1.93.79,3.08-3.47,5.55,2.29-.27,4.62,2.04.84.61-16.03-2.12-.88-10.82,11.84Zm10.99-9.34l-.44,6.99-4.3-1.77,4.7-5.24.04.02Z"/>
  <polygon class="cls-1" points="70.8 158.7 67.39 163.9 60.89 159.54 64.3 154.34 62.62 153.22 54.36 165.78 56.04 166.91 59.89 161.05 66.4 165.41 62.54 171.27 64.22 172.4 72.48 159.83 70.8 158.7"/>
  <path class="cls-1" d="m161.4,52.01c.34-.14.57-.28.72-.42.09-.08.13-.18.13-.3,0-.13-.06-.3-.17-.48-.19-.33-.47-.69-.82-1.07l-.3-.32-.04.03-3.51,3.26-5.17-5.68-1.36,1.27,5.16,5.68c-1.42,1.31-3.33,1.95-5.76,1.95h-.21c-2.28-.02-4.24-.57-5.89-1.62l-.06-.05-.14,2.58.03.02c1.45.61,3.15.98,5.08,1.1.38.02.74.04,1.1.04,1.5,0,2.77-.21,3.81-.64-.54,1.22-.84,2.87-.9,4.94-.01.31-.02.61-.02.91,0,1.55.15,2.88.45,4.02v.03s2.49.15,2.49.15l-.04-.07c-.54-1.14-.81-2.55-.81-4.27,0-.49.02-1,.06-1.53.22-2.65.95-4.66,2.17-6.07l5.16,5.66,1.36-1.26-5.16-5.67,2-1.87c.09-.09.31-.21.63-.33Z"/>
  <path class="cls-1" d="m104.74,21.77c-46.02,0-83.46,37.51-83.46,83.62-.01,22.32,8.68,43.34,24.45,59.13,15.76,15.79,36.73,24.48,59.02,24.48,46.04,0,83.49-37.5,83.49-83.61S150.78,21.77,104.74,21.77Zm57.5,141.21c-14.73,14.75-35.05,23.89-57.5,23.89s-42.14-8.48-57.5-23.86c-15.37-15.41-23.83-35.85-23.83-57.62,0-22.47,9.12-42.83,23.86-57.59,14.73-14.75,35.06-23.89,57.48-23.89s42.76,9.14,57.5,23.89c14.73,14.76,23.85,35.12,23.85,57.59s-9.12,42.83-23.85,57.59Z"/>
  <path class="cls-1" d="m204.52,72.62h0s0-.01,0-.01c-4.24-12.45-9.9-22.93-16.11-30.5-8.41-10.23-17.83-15.15-26.14-12.45-1.77.58-3.39,1.53-4.82,2.78.74-1.75,1.13-3.58,1.13-5.43,0-8.76-7.59-16.21-19.9-21.06C129.56,2.35,117.87.2,104.74,0c-13.14.2-24.83,2.35-33.94,5.94-12.32,4.84-19.9,12.3-19.9,21.06,0,1.85.4,3.69,1.15,5.45-1.45-1.26-3.05-2.18-4.81-2.77-8.32-2.7-17.74,2.22-26.14,12.47-6.22,7.57-11.88,18.04-16.12,30.49h0C1.1,85.21-.47,97.01.12,106.8c.79,13.23,5.52,22.75,13.84,25.46,1.77.58,3.63.76,5.53.6-1.63.98-3.01,2.22-4.1,3.73-5.13,7.09-3.38,17.58,3.75,28.75,5.26,8.27,13.46,16.9,23.97,24.79h0s0,.01,0,.01h0c10.74,7.56,21.46,12.71,30.93,15.17,12.81,3.34,23.31,1.77,28.44-5.31,1.11-1.51,1.87-3.23,2.26-5.08.44,1.86,1.2,3.55,2.3,5.06,5.14,7.08,15.65,8.65,28.45,5.31,9.47-2.46,20.2-7.6,30.93-15.17h0c10.51-7.9,18.7-16.53,23.96-24.8,7.12-11.16,8.88-21.66,3.74-28.75-1.09-1.52-2.48-2.75-4.12-3.74,1.9.17,3.75-.03,5.52-.6,8.31-2.71,13.03-12.24,13.83-25.47.58-9.77-.98-21.58-4.85-34.15Zm-9.01,56.64c-2.02,1.03-4.08,1.58-6.18,1.68-.58.01-1.48,0-2.33-.18-.96-.19-1.75-.05-1.96.46-.13.53.44,1.12,1.33,1.53.8.36,1.53.88,1.99,1.23,1.64,1.33,2.99,2.98,4.02,5,4.78,9.39-2.1,22.26-17.14,29.81-12.68,6.36-17.09,9.84-17.13,9.86-.05.03-4.7,3.16-14.67,13.27-11.8,11.99-26.14,14.58-33.59,7.12-1.6-1.6-2.76-3.4-3.51-5.36-.17-.55-.45-1.41-.54-2.28-.13-.98-.51-1.68-1.08-1.72-.51.04-.89.76-1.02,1.73-.09.88-.36,1.73-.54,2.28-.75,1.96-1.91,3.77-3.51,5.37-7.45,7.46-21.78,4.88-33.59-7.12-9.95-10.12-14.62-13.24-14.66-13.27-.04-.04-4.45-3.51-17.13-9.87-15.03-7.55-21.91-20.41-17.13-29.81,1.02-2.02,2.37-3.67,4.01-5,.46-.35,1.19-.86,2-1.23.89-.41,1.44-.99,1.31-1.52-.2-.5-1.01-.64-1.97-.45-.86.18-1.75.2-2.33.18-2.1-.12-4.16-.65-6.18-1.68-9.39-4.79-11.36-19.24-3.62-34.19,6.51-12.59,8.05-18,8.07-18.08,0-.02,1.95-5.29,4.08-19.37,2.51-16.66,12.6-27.19,23-25.53,2.24.35,4.23,1.13,5.99,2.27.49.34,1.2.87,1.79,1.51.66.74,1.39,1.07,1.84.79.42-.35.3-1.16-.17-2.02-.44-.76-.72-1.61-.89-2.17-.54-2.03-.67-4.17-.32-6.41,1.65-10.41,14.76-16.76,31.35-14.01,13.99,2.31,19.62,2.1,19.66,2.1.03,0,5.66.21,19.65-2.1,16.59-2.75,29.7,3.6,31.35,14.01.36,2.24.23,4.38-.31,6.41-.17.57-.46,1.41-.9,2.17-.47.85-.59,1.65-.17,2,.46.29,1.19-.08,1.86-.8.59-.65,1.3-1.19,1.78-1.52,1.76-1.14,3.75-1.92,5.99-2.28,10.4-1.64,20.48,8.88,23,25.53,2.12,14.02,4.05,19.31,4.08,19.37.01.02,1.53,5.44,8.07,18.08,7.74,14.95,5.76,29.41-3.62,34.19Z"/>
  <path class="cls-1" d="m173.82,80.64c-2.98.73-4.38,3.14-3.71,5.96.35,1.4,1.35,2.76,2.63,3.04l-.03.05c-4.01.48-6-.2-6.5-2.28-.36-1.55.36-2.69,1.85-3.16l-.46-1.9c-1.45.35-3.79,1.93-2.94,5.49,1.25,5.23,8.18,3.83,9.78,3.44,2.43-.6,6.85-2.18,5.7-7.01-.77-3.2-3.6-4.3-6.33-3.62Zm4.64,4.06c.53,2.18-.76,3.42-2.47,3.84-2.97.73-3.89-1.08-4.11-2.08-.31-1.27-.38-3.17,2.5-3.87,2.01-.5,3.65.34,4.08,2.11Z"/>
  <path class="cls-1" d="m161.15,77.97l.82,1.91,14.19-6.16-.6-1.41c-2.56.44-3.19-.42-4.34-2.68l-1.42.62,1.43,3.34-10.08,4.38Z"/>
  <path class="cls-1" d="m170.76,94.69l.29,6.81-3.75.16.08,1.94,3.75-.18.1,2.31,1.66-.07-.09-2.27,10.01-.44-.07-1.63-10.09-6.73-1.89.08Zm8.96,6.45l-7,.3-.21-5.02,7.21,4.68v.04Z"/>
  <polygon class="cls-1" points="171.85 142.13 173.89 143.19 175.02 140.96 172.98 139.9 171.85 142.13"/>
  <path class="cls-1" d="m78.45,38.51c-.1.21-.25.43-.46.68-.47.59-.96,1.13-1.46,1.63-.5.49-.88.8-1.11.92l-.85-1.65c-.12-.24-.19-.56-.21-.96,0-.12,0-.29.01-.48-.08-.14-.34-.14-.8.03-.67.22-1.05.35-1.13.36l-.25.14,4.72,9.1c.25.47.67.68,1.28.62.47-.07,1.11-.31,1.89-.73l1.71-.9c1.05-.55,1.75-1.12,2.12-1.69.5-.79.51-1.75.04-2.88-.21.01-.41.03-.56.04-.51.02-.99-.01-1.44-.07.1.56.21,1.17.36,1.82-.03.41-.47.84-1.31,1.28l-2.03,1.08c-.19.05-.31.08-.4.1-.29.03-.48-.03-.55-.21l-1.79-3.42c.05-.07.51-.48,1.39-1.22.61-.51,1.32-1.23,2.12-2.12.06-.07.22-.22.49-.45.27-.22.37-.4.29-.53-.03-.06-.32-.22-.88-.5-.56-.27-.86-.4-.92-.37-.08.04-.17.17-.27.37Z"/>
  <path class="cls-1" d="m63.8,41.73l4.52-2.39.69,1.34,1.59-.85-.69-1.33,2.78-1.48.64,1.23,1.54-.83-.63-1.21,1.71-.9,3.01-1.47-.82-1.58-4.66,2.47-.5-.92c-.03-.07-.06-.19-.08-.36-.02-.17-.05-.3-.1-.37-.05-.1-.18-.1-.4-.01-.22.09-.55.24-.98.47l-.44.24.93,1.78-2.78,1.47-.45-.86c-.07-.23-.09-.4-.07-.56.03-.15.04-.22.03-.24-.08-.18-.33-.19-.68-.03-.37.16-.85.39-1.45.7l.96,1.86-4.45,2.35.76,1.48Z"/>
  <path class="cls-1" d="m59.96,50.14c-.05.23-.23.5-.55.84l-.3.31,1.97.29c.48-.49.74-1,.79-1.52.04-.52-.1-.94-.42-1.27l-4.41-4.32c-.11-.11-.21-.33-.29-.67-.03-.15-.08-.24-.11-.27-.1-.09-.38.02-.85.34-.47.32-.8.58-1,.79l4.8,4.69c.3.3.41.56.37.79Z"/>
  <polygon class="cls-1" points="59.34 149.81 48.63 155.49 48.61 155.46 55.43 145.21 54.04 143.57 42.99 148.84 42.96 148.81 50.14 138.98 48.75 137.35 40.22 149.78 41.57 151.36 52.85 146.04 52.87 146.06 45.92 156.5 47.26 158.08 60.73 151.47 59.34 149.81"/>
  <path class="cls-1" d="m105.02,44.57c5.42,0,9.81-4.44,9.82-9.92,0-5.48-4.4-9.92-9.82-9.92s-9.84,4.44-9.84,9.92c0,5.48,4.4,9.92,9.84,9.92Zm0-18.4c4.62,0,8.37,3.78,8.37,8.47s-3.76,8.47-8.37,8.48c-4.63-.01-8.39-3.8-8.39-8.48s3.76-8.47,8.39-8.47Z"/>
  <path class="cls-1" d="m58.37,51.2l-4.11-4.04c-.09-.09-.17-.24-.21-.44-.06-.2-.1-.32-.13-.34-.08-.08-.35.04-.81.37-.46.32-.77.58-.94.75l5.02,4.93,1.18-1.22Z"/>
  <path class="cls-1" d="m100.32,35.73h3.46v3.48c-.27.31-.51.72-.51,1.16,0,.64.36,1.2.89,1.47.35.25.77.37.77.82l.03-.03c0-.43.4-.55.74-.79.54-.27.89-.84.89-1.47,0-.46-.24-.88-.55-1.18v-3.46h3.49c.3.29.7.51,1.14.51.64,0,1.19-.36,1.46-.89.25-.35.36-.78.81-.78l-.02-.02c-.44,0-.55-.39-.79-.75-.27-.52-.82-.89-1.45-.89-.45,0-.87.24-1.16.54h-3.47v-3.55c.29-.3.52-.7.52-1.15,0-.63-.35-1.19-.9-1.47-.34-.24-.74-.35-.74-.8l-.03-.02c0,.45-.42.56-.77.81-.52.28-.88.83-.88,1.48,0,.46.25.88.54,1.18v3.53h-3.49c-.3-.29-.7-.52-1.14-.52-.63,0-1.18.36-1.46.89-.23.36-.35.75-.78.75l-.02.03c.44,0,.55.41.81.77.27.52.82.9,1.46.9.46,0,.86-.25,1.17-.54Z"/>
  <path class="cls-1" d="m30.7,107.23c1.46.04,2.52-.72,3.05-2.05.63,1.66,1.82,2.68,3.71,2.71.75.01,2.42.04,3.7-1.53.99-1.23,1.24-2.89,1.25-3.73.06-3.69-2.31-5.34-4.79-5.38-1.17-.03-2.89.39-3.8,2.49-.34-.69-1-2.02-3.22-2.05-1.8-.04-4.01,1.28-4.06,4.74-.07,3.74,2.55,4.78,4.15,4.8Zm7.12-7.88c2.42.04,2.89,1.76,2.87,3.19-.05,2.71-1.9,3.28-3.14,3.27-1.43-.03-2.84-1.08-2.79-3.26.03-1.79.97-3.24,3.07-3.2Zm-7.17.36c1.41.02,2.46,1.13,2.43,2.83-.02,1.4-.95,2.72-2.42,2.69-.98-.02-2.41-.58-2.37-2.63.04-2.3,1.42-2.9,2.37-2.88Z"/>
  <path class="cls-1" d="m48.18,54.44c.4-.5.62-.78.67-.82l.81.8-2.75,2.85,1.13,1.1,2.36-2.45c.19.68.25,1.48.18,2.39-.06.91-.24,1.76-.54,2.54l1.75.02c.19-.6.31-1.32.37-2.15.04-.7.03-1.32-.03-1.88l2.19,2.15,1.19-1.23-2.3-2.26c.8-.17,1.75-.19,2.85-.08l1.38,1.36-5.37,5.6,1.13,1.11,4.31-4.48c.15.85.01,1.87-.4,3.04-.41,1.16-1.04,2.3-1.89,3.42h1.98c.77-1.09,1.32-2.29,1.64-3.59.28-1.15.37-2.28.29-3.42l2.64,2.59,1.18-1.24-2.67-2.62c1,0,2.18-.23,3.56-.66,1.07-.33,2.11-.74,3.12-1.23l-.02-1.96c-.86.55-1.86,1.05-2.99,1.48-1.24.46-2.3.72-3.15.76l4.23-4.39-1.13-1.11-5.27,5.48-.62-.61c-.09-.09-.17-.3-.22-.6-.03-.14-.07-.22-.1-.26-.06-.06-.24-.01-.53.15-.29.16-.63.39-1.03.7l-.14-1.37c-.5-.02-1.04-.01-1.59.02-.71.05-1.39.16-2.06.31l2.13-2.22-1.14-1.11-2.49,2.6-.94-.93c.42-.54.78-1,1.07-1.38.28-.39.55-.79.79-1.21l-2.02-.15c-.48.81-1.07,1.71-1.8,2.68-.72.98-1.45,1.84-2.17,2.59l-.19.21,1.82.41c.13-.14.39-.45.8-.95Z"/>
  <polygon class="cls-1" points="41.08 137.99 42.64 137.24 39.27 130 43.28 128.09 46.94 135.94 48.51 135.19 44.02 125.55 30.91 131.79 35.47 141.56 37.04 140.81 33.32 132.83 37.7 130.74 41.08 137.99"/>
  <path class="cls-1" d="m32.24,117.35l-.54-3.6,10.85-1.63-.3-2.07-15.29,2.32.23,1.5c2.59.25,2.98,1.24,3.53,3.71l1.52-.22Z"/>
  <path class="cls-1" d="m31.85,92.46c1.42.31,2.61-.23,3.39-1.42.3,1.75,1.28,2.98,3.12,3.38.73.16,2.37.52,3.92-.78,1.21-1.01,1.77-2.58,1.95-3.43.76-3.59-1.24-5.67-3.67-6.2-1.13-.24-2.91-.17-4.2,1.7-.2-.75-.6-2.17-2.76-2.64-1.76-.38-4.17.47-4.9,3.87-.77,3.64,1.6,5.18,3.16,5.52Zm4.86-3.82c.37-1.74,1.58-2.98,3.62-2.53,2.37.52,2.5,2.3,2.21,3.68-.57,2.65-2.5,2.87-3.71,2.61-1.39-.31-2.58-1.61-2.13-3.75Zm-6.35-1.23c.48-2.23,1.94-2.55,2.86-2.36,1.38.3,2.21,1.6,1.85,3.24-.3,1.39-1.45,2.48-2.89,2.17-.97-.21-2.26-1.02-1.83-3.06Z"/>
  <path class="cls-1" d="m39.32,80.47c1.85.81,3.7,1.32,5.39,1.05,2.01-.33,3.17-1.69,3.64-2.8.86-2.01.68-3.1.18-4.23-.63-1.44-1.52-2.28-2.97-2.91-3.39-1.47-5.67.76-6.41,2.51-.84,1.96-.31,3.38.28,4.17l-.06.03c-1.49-.66-4.99-2.89-3.79-5.71.66-1.55,1.89-1.83,3.24-1.51l.75-1.75c-2.96-1.07-4.86.88-5.56,2.53-1.83,4.28,2.21,7.26,5.32,8.62Zm1.31-5.41c.95-2.22,2.98-2.13,4.23-1.59,1.92.84,2.77,2.52,2.04,4.23-.9,2.1-2.92,2.31-4.44,1.64-1.67-.72-2.67-2.3-1.83-4.28Z"/>
</svg>