<?xml version="1.0" encoding="UTF-8"?>
<svg id="Layer_2" data-name="Layer 2" xmlns="http://www.w3.org/2000/svg" viewBox="0 0 45.27 45.27">
  <defs>
    <style>
      .cls-1, .cls-2, .cls-3, .cls-4, .cls-5, .cls-6 {
        stroke-width: 0px;
      }

      .cls-1, .cls-2, .cls-6 {
        fill-rule: evenodd;
      }

      .cls-1, .cls-5 {
        fill: #00b9f2;
      }

      .cls-2 {
        fill: #0066b3;
      }

      .cls-3 {
        fill: #231f20;
      }

      .cls-4 {
        fill: #fff;
      }
    </style>
  </defs>
  <g id="Layer_1-2" data-name="Layer 1">
    <g>
      <path class="cls-3" d="m22.63,0C10.13,0,0,10.13,0,22.63s10.13,22.63,22.63,22.63,22.63-10.13,22.63-22.63S35.13,0,22.63,0Zm0,44.66C10.47,44.66.61,34.8.61,22.63S10.47.61,22.63.61s22.03,9.86,22.03,22.03-9.86,22.03-22.03,22.03Z"/>
      <path class="cls-3" d="m22.63,8.21c-7.97,0-14.43,6.46-14.43,14.43s6.46,14.43,14.43,14.43,14.43-6.46,14.43-14.43-6.46-14.43-14.43-14.43Zm0,28.52c-7.78,0-14.09-6.31-14.09-14.09s6.31-14.09,14.09-14.09,14.09,6.31,14.09,14.09-6.31,14.09-14.09,14.09Z"/>
      <g>
        <path class="cls-3" d="m4.27,23.36c.48,0,.86-.39.86-.86s-.39-.86-.86-.86-.86.39-.86.86.39.86.86.86Z"/>
        <path class="cls-3" d="m41.41,23.36c.48,0,.86-.39.86-.86s-.39-.86-.86-.86-.86.39-.86.86.39.86.86.86Z"/>
        <path class="cls-3" d="m6.49,26.43l-.11-.43.12-.03.35,1.4-.11.03-.11-.43-3.08.78.11.43-.11.03-.35-1.4.11-.03.11.44,3.08-.78Z"/>
        <path class="cls-3" d="m7.04,28.31l-.18-.4.11-.05.44,1-1.53,2.53h0s2.11-.93,2.11-.93l-.21-.47.11-.05.45,1-.11.05-.18-.4-3.04,1.35-.06-.07,2.04-3.37h0s-2.8,1.23-2.8,1.23l.21.48-.11.05-.45-1.01.11-.05.18.4,2.9-1.29Z"/>
        <path class="cls-3" d="m9.87,33.26l-.26-.34.09-.07.86,1.13-.09.07-.27-.36-2.52,1.92.27.36-.09.07-.86-1.13.09-.07.26.34,1.25-.96-.9-1.18-1.25.96.26.34-.09.07-.86-1.13.09-.07.27.36,2.52-1.92-.27-.36.09-.07.86,1.13-.09.07-.26-.34-1.18.89.9,1.18,1.18-.89Z"/>
        <path class="cls-3" d="m10.54,36.68l-.6-.53,1.12-.64h0s-.53,1.17-.53,1.17Zm-1.82.01l-.3-.27-.08.09.8.71.08-.09-.37-.33.97-.57.66.59-.47,1.02-.37-.33-.08.09,1.15,1.02.08-.09-.33-.29,1.4-3.23-.07-.06-3.07,1.75Z"/>
        <path class="cls-3" d="m14.6,37.2l-.4-.18.05-.11,1.32.6-.05.11-.43-.2-.94,2.06c-.26.56-.25.88.45,1.2.82.37,1.06.07,1.29-.45l.92-2.03-.47-.21.05-.11.96.44-.05.11-.37-.17-.95,2.08c-.27.59-.58.88-1.6.42-1.04-.48-1.04-.86-.77-1.44l.97-2.12Z"/>
        <path class="cls-3" d="m18.35,38.71l-.43-.08.02-.12,1.07.21,1.2,2.71h0s.44-2.27.44-2.27l-.51-.1.02-.12,1.08.21-.02.12-.43-.08-.63,3.26h-.09s-1.6-3.6-1.6-3.6h0s-.58,3-.58,3l.52.1-.02.12-1.09-.21.02-.12.43.08.61-3.11Z"/>
        <path class="cls-3" d="m22.38,39.29h-.45s0-.12,0-.12h1.44s0,.12,0,.12h-.45s0,3.17,0,3.17h.45s0,.12,0,.12h-1.44s0-.12,0-.12h.45s0-3.17,0-3.17Z"/>
        <path class="cls-3" d="m24.2,39.19l-.39.06-.02-.12,1.43-.23.02.12-.48.08,1.19,2.35h0s.43-2.61.43-2.61l-.48.08-.02-.12,1-.16.02.12-.35.06-.61,3.49-.1.02-1.64-3.12Z"/>
        <path class="cls-3" d="m27.76,38.46l-.42.16-.04-.11,2.54-1,.41.96-.12.04c-.45-.73-.64-.74-1.66-.34l-.21.08.54,1.37.24-.1c.52-.2.48-.41.28-.89l.13-.05.6,1.51-.13.05c-.22-.55-.31-.69-.83-.49l-.24.1.57,1.44.67-.27c.68-.27.77-.7.61-1.37l.12-.05.39,1.1-2.67,1.05-.04-.11.42-.16-1.16-2.95Z"/>
        <path class="cls-3" d="m31.51,36.63l.21-.14c.41-.27.69-.14.93.23.22.33.28.67-.08.91l-.28.18-.78-1.19Zm1.29,2.95l-.37.25.06.1,1.19-.78-.07-.1-.36.24-.88-1.34.25-.17c.51-.34.71-.22,1.08.27.41.54.56.7,1.05.38l.29-.19-.07-.1-.1.07c-.24.16-.41-.03-.71-.43-.45-.61-.68-.57-1.32-.25h0c.35-.31.56-.64.25-1.1-.38-.58-.81-.45-1.31-.12l-1.17.77.07.1.37-.25,1.75,2.65Z"/>
        <path class="cls-3" d="m35.02,36.8l.09-.09c.41.37,1.03.43,1.43.04.28-.28.42-.7.09-1.02-.65-.65-1.73.88-2.56.04-.42-.43-.3-1.03.1-1.43.2-.2.5-.38.77-.47l.55.51-.09.09c-.46-.31-.85-.3-1.16.01-.24.23-.34.59-.07.86.6.61,1.65-.92,2.54-.01.46.47.3,1.16-.12,1.58-.25.25-.51.43-.88.57l-.7-.66Z"/>
        <path class="cls-3" d="m35.81,32.73l-.27.36-.09-.07.86-1.15.1.07-.27.36,2.54,1.9.27-.36.1.07-.86,1.15-.09-.07.27-.36-2.54-1.9Z"/>
        <path class="cls-3" d="m37.37,30.39l-.19.37c-.22.44.14.83.53,1.04l-.06.13-.97-.49,1.37-2.71.97.49-.06.13c-.4-.18-.94-.24-1.16.19l-.19.37,2.8,1.42.24-.47.11.05-.72,1.42-.11-.05.24-.47-2.8-1.42Z"/>
        <path class="cls-3" d="m40.14,27.57l-1.75.46-.1.39-.11-.03.39-1.47.11.03-.13.48,1.54-.37-1.17-1.05-.12.47-.11-.03.26-.98.11.03-.1.36,1.31,1.18,1.55.41.11-.43.11.03-.37,1.39-.11-.03.12-.44-1.54-.41Z"/>
        <g>
          <path class="cls-3" d="m11.16,8.24c-.41-.67-.19-1.56.49-1.97.68-.42,1.57-.21,1.98.47.41.67.19,1.56-.49,1.97-.68.42-1.57.21-1.98-.47Zm1.68-.03c.3-.19.35-.66.11-1.06-.25-.4-.69-.58-1-.39-.3.19-.35.66-.11,1.06.25.4.69.58,1,.39Z"/>
          <polygon class="cls-3" points="11.85 5.82 11.6 5.41 10.9 5.84 11.15 6.25 10.23 6.81 10.52 7.28 13.05 5.73 12.77 5.26 11.85 5.82"/>
          <polygon class="cls-3" points="13.74 4.31 13.04 4.74 15.37 8.55 16.07 8.12 14.74 5.94 15.37 5.56 15.08 5.09 14.45 5.47 13.74 4.31"/>
        </g>
        <g>
          <polygon class="cls-3" points="24.09 2.26 24.09 3.62 23.8 3.62 23.8 2.26 23.01 2.26 23.01 6.72 23.8 6.72 23.8 4.21 24.09 4.21 24.09 6.72 24.88 6.72 24.88 2.26 24.09 2.26"/>
          <path class="cls-3" d="m21.39,3.01h1.24v-.55h-2.07v2.64c0,.28.24.5.53.5h2.2v-.55h-1.91v-2.05Z"/>
        </g>
        <g>
          <path class="cls-3" d="m6.62,15.25l1.03.54,1.42-2.69.49.26-1.56,2.94c-.14.26-.45.37-.69.24l-1.07-.56.39-.73Z"/>
          <rect class="cls-3" x="6.32" y="10.85" width=".82" height="2.98" transform="translate(-7.33 12.51) rotate(-62.1)"/>
          <path class="cls-3" d="m4.57,15.76c-.59-.31-.76-1.13-.39-1.83.37-.7,1.15-1.02,1.73-.71.59.31.76,1.13.39,1.83-.37.7-1.15,1.02-1.73.71Zm1.22-.98c.17-.31.06-.7-.25-.86-.3-.16-.68-.04-.85.28-.17.31-.06.7.25.86.3.16.68.04.85-.28Z"/>
        </g>
        <g>
          <path class="cls-3" d="m31.17,5.62c.32-.48,1.07-.53,1.69-.12.62.41.86,1.13.55,1.6-.32.48-1.07.53-1.69.12-.62-.41-.86-1.13-.55-1.6Zm.83,1.17c.25.17.59.11.74-.13.16-.24.08-.57-.17-.74-.25-.17-.59-.11-.74.13-.16.24-.08.57.17.74Z"/>
          <polygon class="cls-3" points="33.25 5.66 33.51 5.26 32.83 4.81 32.56 5.21 31.7 4.63 31.4 5.09 33.81 6.69 34.11 6.23 33.25 5.66"/>
          <polygon class="cls-3" points="35.49 6.78 34.81 6.32 33.42 8.41 34.11 8.87 34.72 7.95 35.33 8.36 35.64 7.9 35.02 7.49 35.49 6.78"/>
          <polygon class="cls-3" points="30.81 6.98 30.51 7.44 32.98 9.07 32.34 10.04 33.03 10.5 33.97 9.07 30.81 6.98"/>
        </g>
        <g>
          <polygon class="cls-3" points="37.62 14.99 39.06 14.18 38.66 13.46 37.22 14.27 36.16 12.38 35.68 12.65 38.03 16.85 38.51 16.58 37.62 14.99"/>
          <polyline class="cls-3" points="36.81 13.99 38.44 13.07 38.04 12.35 36.41 13.27"/>
          <path class="cls-3" d="m41.01,14.07l-1.66-2.96-.48.27,1.51,2.7-2.56,1.44.4.72,2.62-1.47c.23-.13.3-.44.16-.69Z"/>
        </g>
      </g>
      <g>
        <path class="cls-3" d="m31.17,15.31h-3.32v-.84h-1.26v-3.61h-5.06c-.98,0-1.79.33-2.34.94-.51.58-.78,1.38-.78,2.32v1.19h-3.97l-1.65,15.49,10.01,4.26,10.01-4.26-1.64-15.49Zm-8.34,19.39h-.02s-.02,0-.02,0l-9.61-4.09h-.03s0-.05,0-.05l1.58-14.88v-.04h4.01v-1.52c0-.86.24-1.58.7-2.1.49-.55,1.21-.83,2.09-.83h4.73v3.61h1.26v.84h3.35v.04s1.58,14.88,1.58,14.88v.03s-.03.01-.03.01l-9.6,4.09Z"/>
        <polygon class="cls-1" points="27.53 17.34 27.48 17.34 26.27 17.34 26.27 19.62 27.48 19.62 27.53 19.62 27.53 19.67 27.53 20.21 30.78 20.21 30.35 16.22 27.53 16.22 27.53 17.29 27.53 17.34"/>
        <polygon class="cls-1" points="15.26 16.22 14.84 20.21 18.75 20.21 18.75 16.22 15.26 16.22"/>
        <path class="cls-2" d="m30.83,20.75h-3.31v1.39h-1.26v1.93h-3.91v-3.32h-1.47v.37c0,1.91-1.77,2.9-3.52,2.9h-.18v-2.07h.11c.83,0,1.45-.43,1.45-1.01v-.2h-3.96l-1.01,9.48,9.03,3.85,9.03-3.85-1.01-9.48Z"/>
        <rect class="cls-5" x="20.88" y="16.22" width="1.47" height="3.99"/>
        <path class="cls-6" d="m21.88,13.04c-.48,0-1,.34-1,1.1v1.5h1.47v-2.6h-.48Zm.15,2.27h-.82v-1.17c0-.57.36-.77.67-.77h.15v1.94Z"/>
      </g>
      <g>
        <path class="cls-4" d="m18.56,26.98v.26h.63v2.16h.33v-2.96h-.26c-.05.46-.28.54-.7.55Z"/>
        <path class="cls-4" d="m21.2,26.43c-.45,0-.79.4-.79,1.04,0,.48.23.9.76.9.21,0,.43-.11.55-.36h0c-.02.32-.01,1.15-.51,1.15-.28,0-.39-.14-.39-.41h-.34c.01.43.25.71.69.71.85,0,.88-1.03.88-1.65s-.06-1.38-.85-1.38Zm.02,1.64c-.38,0-.46-.36-.46-.67s.09-.68.46-.68c.39,0,.49.42.49.73s-.11.62-.48.62Z"/>
        <path class="cls-4" d="m23.67,27.45c-.21,0-.34.07-.48.21l.13-.88h1v-.3h-1.26l-.17,1.52h.29c.08-.18.22-.27.41-.27.42,0,.49.36.49.7,0,.37-.13.72-.47.72s-.45-.22-.44-.54h-.34c-.02.52.26.83.79.83.61,0,.81-.54.81-1.06,0-.48-.21-.94-.75-.94Z"/>
        <path class="cls-4" d="m26.3,28.36v-1.93h-.3l-1.11,1.92v.3h1.08v.74h.33v-.74h.26v-.3h-.26Zm-.33,0h-.82l.82-1.41v1.41Z"/>
      </g>
    </g>
  </g>
</svg>