<?xml version="1.0" encoding="UTF-8"?>
<svg id="Layer_2" data-name="Layer 2" xmlns="http://www.w3.org/2000/svg" viewBox="0 0 198.43 198.43">
  <defs>
    <style>
      .cls-1 {
        fill: #981b45;
        stroke-width: 0px;
      }
    </style>
  </defs>
  <g id="Layer_1-2" data-name="Layer 1">
    <g>
      <path class="cls-1" d="m194.47,70.45c-4.47-14.48-12.33-26.8-22.35-36.4h.18c-5.37-5.07-12.88-7.07-20.21-4.71-.71.18-1.43.54-1.97.72l-.54.54c.18-.72.18-1.45.18-1.99,0-7.79-4.29-14.49-10.37-17.93l-.36-.18C127.25,3.99,113.48,0,98.64,0s-28.96,3.99-40.77,10.69h-.36c-6.08,3.44-10.37,10.14-10.37,17.93l-.18.9h-.18c-7.32-2.35-14.83-.36-20.02,4.53l-.18.18c-10.01,9.42-17.69,21.55-22.35,35.68C-.41,84.4-1.13,99.07,1.56,112.65v.18c1.25,7.06,6.26,13.04,13.59,15.58.71.18,1.43.36,2.14.55l-1.25,1.26c-4.47,6.16-4.64,14.13-1.61,20.64l.18.18c5.9,12.32,15.2,23.55,27.18,32.06,12.33,8.69,25.92,13.77,39.51,15.21,7.15.73,14.31-2.35,18.78-8.51.18-.36.18-.54.54-.91l.35,1.09c4.47,6.16,11.8,8.87,18.77,7.97h.36c13.41-1.82,26.82-7.06,38.62-15.94,12.15-9.06,21.09-20.65,26.64-33.33l.18.18c2.85-6.51,2.32-14.46-2.13-20.62,7.12-2.45,11.99-8.48,13.39-15.24v-.37c2.69-13.4,2.15-28.07-2.32-42.2ZM54.66,26.62c3.4-12.5,24.32-8.87,24.32-8.87,13.41,1.81,19.67,1.63,19.67,1.63,0,0,6.44.18,19.85-1.63,0,0,20.74-3.62,24.14,8.87,0,0,1.68,5.32-2.2,7.94.02,0,.04.02.05.03l-.36.18c.12-.06.21-.14.31-.21-11.97-7.59-26.07-11.93-41.25-11.93s-29.68,4.53-41.66,12.32l-.36-.18c-4.29-2.53-2.5-8.15-2.5-8.15ZM15.68,120.62c-10.73-7.25-.89-26.08-.89-26.08,5.9-12.5,7.51-18.66,7.51-18.66,0,0,2.32-5.97,4.64-19.56,0,0,3.04-21.19,15.92-20.65,0,0,5.72.18,6.79,5.07v.18c-16.98,14.31-27.53,35.68-27.53,59.77,0,7.07.53,13.22,2.32,19.56l-.18.36c-3.57,3.26-8.58,0-8.58,0Zm77.23,66.47c-10.01,8.15-25.03-6.88-25.03-6.88-9.83-9.42-15.2-12.86-15.2-12.86,0,0-5.01-3.98-17.16-10.14,0,0-19.13-9.24-14.84-21.37,0,0,1.79-5.62,6.79-5.26l.72.55c11.09,26.8,36.65,46.01,66.69,47.63h.36c2.15,4.53-2.32,8.33-2.32,8.33Zm6.19-10.85c-41.14,0-74.49-33.79-74.49-75.47S57.97,25.31,99.11,25.31s74.5,33.79,74.5,75.47-33.35,75.47-74.5,75.47Zm65.15-20.3c-11.98,6.52-16.98,10.69-16.98,10.69,0,0-5.19,3.62-14.84,13.04,0,0-14.66,15.57-24.67,7.61,0,0-4.65-3.44-2.68-7.97l.18-.54c30.04-2.54,55.25-22.28,65.8-49.27,5-.72,7.51,4.71,7.51,4.71,4.46,11.96-14.31,21.74-14.31,21.74Zm18.41-34.96s-5.18,3.44-8.94,0c1.79-6.52,2.68-13.22,2.68-20.29,0-23.72-10.55-44.74-27-59.23,1.08-4.89,6.79-5.61,6.79-5.61,12.87-.36,15.74,20.82,15.74,20.82,2.32,13.41,4.47,19.56,4.47,19.56,0,0,1.61,6.16,7.33,18.65,0,0,9.65,19.02-1.07,26.09Z"/>
      <polygon class="cls-1" points="70.33 151.56 70.33 148.53 62.32 148.53 62.32 159.97 70.25 159.97 70.25 156.94 65.26 156.94 65.26 151.56 70.33 151.56"/>
      <polygon class="cls-1" points="77.96 148.71 77.96 152.74 74.05 152.74 74.05 155.77 77.96 155.77 77.96 159.79 80.94 159.79 80.94 148.71 77.96 148.71"/>
      <polygon class="cls-1" points="96.02 159.73 93.31 159.73 93.31 151.57 85.32 151.57 85.32 148.76 96.02 148.76 96.02 159.73"/>
      <path class="cls-1" d="m113.05,158.39l-2.2,1.72-4.01-6.59-4.02,6.59-2.18-1.72,6.21-9.74,6.2,9.74Z"/>
      <polygon class="cls-1" points="119.73 148.78 119.73 152.9 115.33 152.9 115.33 155.93 119.73 155.93 119.73 159.71 122.72 159.71 122.72 148.78 119.73 148.78"/>
      <path class="cls-1" d="m126.78,154.25c0,3.03,2.43,5.48,5.41,5.48s5.41-2.45,5.41-5.48-2.42-5.48-5.41-5.48-5.41,2.46-5.41,5.48Zm2.99,0c0-1.36,1.08-2.46,2.43-2.46s2.43,1.1,2.43,2.46-1.09,2.45-2.43,2.45-2.43-1.1-2.43-2.45Z"/>
      <g>
        <polygon class="cls-1" points="94.47 59.52 94.47 61.57 99.21 61.57 103.96 61.57 103.96 59.52 99.21 59.52 94.47 59.52"/>
        <rect class="cls-1" x="51.24" y="103.91" width="3.32" height="8.71"/>
        <rect class="cls-1" x="64.73" y="103.91" width="3.32" height="8.71"/>
        <rect class="cls-1" x="58.17" y="60.55" width="2.95" height="2.06"/>
        <rect class="cls-1" x="143.87" y="103.91" width="3.32" height="8.71"/>
        <rect class="cls-1" x="130.38" y="103.91" width="3.32" height="8.71"/>
        <rect class="cls-1" x="137.31" y="60.55" width="2.95" height="2.06"/>
        <path class="cls-1" d="m143.03,55.92v-4.25h-3.12v-5.02h-2.26v5.02h-3.06v4.2c-3.64,3.5-8.44,8.12-9.18,8.83-.99-1.4-14.56-20.57-14.56-20.57h0v-2.55h-3.19v-1.92h-4.76v1.92h-2.57v-6.17h-2.22v6.17h-2.57v-1.92h-4.76v1.92h-3.19v2.55h0s-13.57,19.17-14.56,20.57c-.73-.71-5.53-5.32-9.18-8.83v-4.2h-3.06v-5.02h-2.26v5.02h-3.11v4.25l-10.04,9.65v74.7h107.7v-74.7l-10.03-9.65Zm-7.28,1.06h6.06c2.72,2.62,6.53,6.28,8.45,8.13h-22.97c2.26-2.17,5.87-5.64,8.45-8.13Zm-9.65,9.74h25.37v4.37h-25.37v-4.37Zm25.37,6.02v8.85c-1.16-1-3.06-2.04-5.94-2.04-3.7,0-5.77,1.71-6.74,2.84-.97-1.13-3.03-2.84-6.74-2.84-2.88,0-4.78,1.05-5.94,2.04v-8.86h25.37Zm-.91,10.19h-10.07c.91-.82,2.51-1.76,5.04-1.76s4.12.94,5.03,1.76Zm-13.48,0h-10.07c.91-.82,2.5-1.76,5.03-1.76s4.12.94,5.04,1.76Zm-20.35-16.21v13.06h-9.2v-13.06h9.2Zm-9.2-1.62v-11.06c2.14,2.83,6.55,8.64,8.38,11.06h-8.38Zm-8.32,31.91h-3.74v-10.5h7.48v10.5h-3.74Zm6.72-31.91h-13.45v-12.63h13.45v12.63Zm-6.72,1.62h6.72v13.06h-2.99v-5.62h0c0-2.09-1.67-3.79-3.74-3.79s-3.74,1.7-3.74,3.79h0v5.62h-2.98v-13.06h6.72Zm-8.32-1.62h-8.38c1.83-2.42,6.24-8.23,8.38-11.06v11.06Zm0,1.62v13.06h-9.2v-13.06h9.2Zm-2.92,19.8v10.5h-6.28v-10.5h6.28Zm22.49,10.5v-10.5h6.28v10.5h-6.28Zm14.05-15.83c-.69-.86-1.73-1.4-2.9-1.4h-3.27v-13.06h6.18v14.47Zm-36.11-35.46h21.64c.37.53,10,14.13,13.71,19.37h-5.82l-10.8-14.25h-15.83l-10.79,14.25h-5.82c3.71-5.24,13.34-18.85,13.71-19.37Zm-8.3,20.99v13.06h-3.27c-1.17,0-2.22.55-2.9,1.4v-14.47h6.18Zm-23.49-9.74h6.06c2.58,2.48,6.19,5.95,8.45,8.13h-22.97c1.92-1.85,5.73-5.51,8.45-8.13Zm-9.65,9.74h25.37v4.37h-25.37v-4.37Zm25.37,6.02v8.86c-1.16-1-3.06-2.04-5.94-2.04-3.7,0-5.77,1.71-6.74,2.84-.97-1.13-3.04-2.84-6.74-2.84-2.88,0-4.78,1.04-5.94,2.04v-8.85h25.37Zm-.91,10.19h-10.07c.91-.82,2.51-1.76,5.03-1.76s4.12.94,5.04,1.76Zm-13.48,0h-10.07c.91-.82,2.5-1.76,5.03-1.76s4.12.94,5.03,1.76Zm-5.8,55.72h-5.18v-18.82h5.18v18.82Zm-4.27-20.44c.91-.82,2.5-1.76,5.03-1.76s4.12.94,5.03,1.76h-10.07Zm10.98,20.44h-5.11v-18.82h5.11v18.82Zm6.72,0h-5.12v-18.82h5.12v18.82Zm-4.21-20.44c.91-.82,2.51-1.76,5.03-1.76s4.12.94,5.04,1.76h-10.07Zm10.98,20.44h-5.17v-18.82h5.17v18.82Zm0-21.77c-1.16-1-3.06-2.04-5.94-2.04-3.7,0-5.77,1.71-6.74,2.84-.97-1.13-3.04-2.84-6.74-2.84-2.88,0-4.78,1.04-5.94,2.04v-18.18h25.37v18.18Zm0-19.59l-25.37-.21v-3.61h25.37v3.81Zm0-5.43h-4.28v-3.48h-3.32v3.48h-10.17v-3.48h-3.32v3.48h-4.28v-7.31h25.37v7.31Zm1.6,17.79c.69.86,1.73,1.4,2.9,1.4,2.03,0,3.68-1.63,3.74-3.68h0v-8.68h2.64v14.54h-2.83v25.41h-6.46v-29Zm39.7,29h-28.81v-39.95h3.16v8.29c-.01.13-.02.26-.02.4,0,2.09,1.68,3.79,3.74,3.79s3.74-1.7,3.74-3.79h0s.04,0,.04,0v-8.68h7.48v8.68h.04c0,2.09,1.67,3.79,3.74,3.79s3.74-1.7,3.74-3.79c0-.13,0-.27-.02-.4v-8.29h3.16v39.95Zm4.43,0v-25.41h-2.83v-14.54h2.64v8.68h0c.06,2.04,1.71,3.68,3.74,3.68,1.17,0,2.22-.55,2.9-1.4v29h-6.46Zm13.23,0h-5.17v-18.82h5.17v18.82Zm-4.26-20.44c.91-.82,2.51-1.76,5.04-1.76s4.12.94,5.04,1.76h-10.07Zm10.98,20.44h-5.12v-18.82h5.12v18.82Zm6.71,0h-5.11v-18.82h5.11v18.82Zm-4.21-20.44c.91-.82,2.51-1.76,5.04-1.76s4.12.94,5.03,1.76h-10.07Zm10.98,20.44h-5.17v-18.82h5.17v18.82Zm0-21.77c-1.16-1-3.06-2.04-5.94-2.04-3.7,0-5.77,1.71-6.74,2.84-.97-1.13-3.03-2.84-6.74-2.84-2.88,0-4.78,1.04-5.94,2.04v-18.18h25.37v18.18Zm0-19.79h-25.37v-3.62h25.37v3.62Zm0-5.23h-4.28v-3.48h-3.32v3.48h-10.17v-3.48h-3.32v3.48h-4.28v-7.31h25.37v7.31Z"/>
        <path class="cls-1" d="m99.21,111.22c-.6-.01-7.82-.03-8.32,7.76v16.81s8.32,0,8.32,0h8.32v-16.76c-.5-7.83-7.72-7.82-8.32-7.81Zm6.72,22.95h-13.45v-15.14c.41-6.41,6.43-6.2,6.68-6.19l.04-.79.04.79c.26-.01,6.27-.22,6.69,6.24v15.09Z"/>
      </g>
    </g>
  </g>
</svg>