<?xml version="1.0" encoding="UTF-8"?>
<svg id="Layer_2" data-name="Layer 2" xmlns="http://www.w3.org/2000/svg" viewBox="0 0 442.54 367.55">
  <defs>
    <style>
      .cls-1 {
        fill: #00a663;
        stroke-width: 0px;
      }
    </style>
  </defs>
  <g id="Layer_1-2" data-name="Layer 1">
    <g>
      <path class="cls-1" d="m262.91,156.38v-49.68h-38.04,37.68l-37.68-.03v.03h-5.12l-40.48.08v.1h0s-.17,49.5-.17,49.5c0,0-.17,16.32,14.08,33.51,0,0,7.11,11.17,28.06,17.85h0s.97.37.97.37l.81-.3h0c21.11-6.68,28.27-17.92,28.27-17.92,14.25-17.18,11.63-33.51,11.63-33.51Zm-81.1-46.66h78.45v21.13h-56.11l-4.74-6.86h11.62l2.21,2.1v-5.18h-21.22l7.5,9.94h-17.71v-21.13Zm-.13,23.38h17.8l-8.95,10.85h22.81v-5.63l-2.47,2.56h-13.1l6.16-7.78h56.48v20.68h-78.72v-20.68Zm67.88,54.67c-10.9,13.05-23.89,16.51-26.51,17.15l-.83.19-.9-.23c-2.74-.64-15.26-4.11-25.91-16.58,0,0-12.64-13.89-13.48-32.12h78.46c.13,18.65-10.84,31.59-10.84,31.59Z"/>
      <path class="cls-1" d="m440.44,270.06s-2.3-3-7.15-2.64c0,0-3.77.27-5.53,1.23,0,0-1.42.61-2.29,1.32,0,0-7.3,4.16-16.11,4.07,0,0-21.58-.27-29.5-4.6v-.62s4.59-3.26,4.5-9.09c0,0,.36-4.24-3.53-7.85,0,0-2.47-4.25-11.28-4.6,0,0-12.75,1.23-23.41-.97,0,0-3.97-.88-7.57-1.15,0,0-12.68-12.01-34.08-12.62,0,0-17.08-.53-26.77,3.1,0,0-18.85,5.89-31.7,14.19,0,0-8.02,5.04-11.43,11.22,0,0-1.85,2.98-3.26,3.87,0,0-2.75,2.14-1.51-1.41,0,0,1.76-3.52,2.74-4.3,0,0,4.4-4.7-3.09-5.57,0,0-4.26,0-8.21,3.01-3.92-3-8.18-3-8.18-3-7.48.88-3.1,5.58-3.1,5.58.98.79,2.75,4.31,2.75,4.31,1.23,3.54-1.5,1.41-1.5,1.41-1.42-.89-3.25-3.88-3.25-3.88-3.45-6.18-11.45-11.22-11.45-11.22-12.87-8.29-31.71-14.19-31.71-14.19-9.69-3.63-26.75-3.1-26.75-3.1-21.41.62-34.08,12.63-34.08,12.63-3.61.27-7.57,1.15-7.57,1.15-10.65,2.2-23.43.97-23.43.97-8.81.35-11.28,4.6-11.28,4.6-3.85,3.61-3.5,7.86-3.5,7.86-.09,5.82,4.47,9.09,4.47,9.09v.61c-7.92,4.34-29.49,4.6-29.49,4.6-8.8.09-16.11-4.08-16.11-4.08-.89-.7-2.29-1.32-2.29-1.32-1.76-.97-5.54-1.23-5.54-1.23-4.86-.35-7.12,2.64-7.12,2.64-5.22,6.1.87,12.45.87,12.45,9.63,9.75,27.21,9.17,27.21,9.17,12-.13,21.78-4.11,21.78-4.11,7.91-2.04,18.23-6.84,26.18-10.85,1.72,1.08,4.46,2.79,4.46,3.45,0,0,1.19,12.97-4.5,17.09,0,0,.26.66-4.49,2.64,0,0-6.06,3.73-5.8,9.93,0,0,0,11.43,13.59,11.83,0,0,3.45.4,7.39-1.46,0,0,9.51-2.25,21.41,2.11,0,0,6.07,4.26-2.39,5.04,0,0-2.36.4-5.94-1.32,0,0-11.89-5.3-19.81,3.31,0,0-9.38,11.79,5.93,19.07,0,0,10.17,4.47,15.73-1.75,0,0,4.09-4.21-1.45-7.94,0,0-3.18-2.77-7.79.93,0,0-1.58-2.39,3.96-3.7,0,0,5.16-.26,9.9,4.1,0,0,6.22,7.14,15.47,6.61,0,0,8.45,1.08,14.79-5.53,0,0,11.36,16.18,22.72,21.47,0,0,10.15,5.43,18.36,4.9,0,0,16.5.65,18.89-15.67,0,0,1.36-7.56-8.16-11.49,1.06.26,1.67.38,1.67.38,6.99,1.86,24.66,2.81,28.72,3h0s.09,0,.26,0c.38.02.87,0,.87,0h-.27c4.09-.19,21.75-1.15,28.73-3.01,0,0,.59-.13,1.67-.38-9.52,3.92-8.14,11.49-8.14,11.49,2.37,16.32,18.89,15.67,18.89,15.67,8.19.52,18.35-4.9,18.35-4.9,11.36-5.29,22.7-21.48,22.7-21.48,6.36,6.61,14.81,5.54,14.81,5.54,9.24.54,15.45-6.61,15.45-6.61,4.76-4.37,9.91-4.1,9.91-4.1,5.53,1.32,3.97,3.7,3.97,3.7-4.63-3.7-7.81-.93-7.81-.93-5.54,3.71-1.43,7.94-1.43,7.94,5.53,6.22,15.71,1.75,15.71,1.75,15.31-7.29,5.94-19.08,5.94-19.08-7.92-8.6-19.82-3.29-19.82-3.29-3.55,1.71-5.94,1.31-5.94,1.31-8.45-.79-2.38-5.04-2.38-5.04,11.89-4.36,21.41-2.11,21.41-2.11,3.97,1.85,7.38,1.45,7.38,1.45,13.62-.4,13.62-11.83,13.62-11.83.27-6.21-5.83-9.92-5.83-9.92-4.74-1.98-4.48-2.64-4.48-2.64-5.69-4.12-4.5-17.08-4.5-17.08,0-.65,2.74-2.36,4.46-3.45,7.95,4.01,18.28,8.81,26.2,10.85,0,0,9.77,3.98,21.8,4.11,0,0,17.56.57,27.21-9.17,0,0,6.07-6.36.88-12.45Zm-67.06-15.75s6.07-.27,5.81,5.96c0,0,.79,3.96-5.54,7.02,0,0-7.92-2.81-11.89-5.97l-.43-.29c1.63-1.43,3.13-2.61,4.13-3.14,0,0,3.68-3.32,7.92-3.57Zm-228.03-17.75c16.04.44,32.06,7.67,32.06,7.67,19.98,8.99,25.17,17.2,25.17,17.2,3.62,5.04,5.12,6.01,5.12,6.01,10.99,8.2,8.28-4.34,8.28-4.34-.62-2.03-1.95-4.05-1.95-4.05-2.29-3.2,1.06-2.32,1.06-2.32,2.54.61,5.38,3.31,6.08,4l.02.14s.02-.02.06-.06c.06.06.08.09.08.09l.02-.19c.71-.69,3.57-3.38,6.08-3.99,0,0,3.35-.87,1.06,2.32,0,0-1.32,2.03-1.92,4.04,0,0-2.74,12.55,8.28,4.34,0,0,1.5-.97,5.09-6.01,0,0,5.22-8.21,25.18-17.21,0,0,16.04-7.23,32.05-7.67,0,0,21.57-1.72,35.31,9.17,0,0-10.13.7-16.11,4.85,0,0-7.57-3.1-15.48-2.75,0,0-14.81,1.14-19.47,3.28l1.33-4.17s-8.73-1.58-19.72,4.07c0,0-5.3,1.85-11.19,6.69,0,0-8.01,6.88-7.13,15.29,0,0-.62,15.36,15.49,15,0,0,4.49.88,9.6-3.45,0,0,6.86-5.82,1.32-12.63,0,0-3.97-5.19-11.62-.88,0,0-2.3-8.64,6.86-8.9,0,0,4.51-.36,8.36,3.63,0,0,3.09-4.33,7.34-3.89,0,0,4.99.09,6.5,4.35,0,0-5.02-.63-7.48,4.3,0,0-.53-.88-1.06,5.65,0,0-2.47,11.01-14.63,13.51,0,0-11.95,2.9-19.97-3.46,0,0-2.47-1.76-5.21-5.37,0,0-4.12-5.65-10.57-5.12,0,0-4.3-.27-6.15,2.19l5.36,5.48-5.28,2.01,6.78,6.81s-6.66,4.59-9.09,7.04c-2.44-2.46-9.07-7.02-9.07-7.02l6.78-6.81-5.27-2.02,5.36-5.47c-1.83-2.46-6.15-2.2-6.15-2.2-6.43-.54-10.57,5.12-10.57,5.12-2.74,3.6-5.19,5.36-5.19,5.36-8,6.37-19.98,3.47-19.98,3.47-12.17-2.5-14.63-13.51-14.63-13.51-.52-6.54-1.04-5.65-1.04-5.65-2.47-4.94-7.5-4.31-7.5-4.31,1.5-4.26,6.54-4.34,6.54-4.34,4.21-.45,7.3,3.89,7.3,3.89,3.87-3.98,8.36-3.63,8.36-3.63,9.16.26,6.87,8.91,6.87,8.91-7.66-4.31-11.63.88-11.63.88-5.54,6.79,1.32,12.62,1.32,12.62,5.12,4.34,9.6,3.45,9.6,3.45,16.12.37,15.51-15,15.51-15,.88-8.41-7.15-15.29-7.15-15.29-5.89-4.84-11.17-6.69-11.17-6.69-11.01-5.65-19.72-4.07-19.72-4.07l1.33,4.16c-4.68-2.14-19.46-3.27-19.46-3.27-7.93-.36-15.51,2.74-15.51,2.74-5.98-4.14-16.1-4.85-16.1-4.85,13.76-10.88,35.3-9.16,35.3-9.16Zm144.83,25.17c-7.53-6.37-14.8-1.33-14.8-1.33-10.17-6.36-17.7,1.19-17.7,1.19-8.31,8.34,1.19,17.24,1.19,17.24.14-2.14,2.12-4.13,2.12-4.13,4.48-4.12,7.66-.66,7.66-.66,2.51,2.77-.93,6.66-.93,6.66-12.41,9.4-17.83-2.22-17.83-2.22-5.27-8.16,3.45-17.03,3.45-17.03,10.3-9.66,23.89-10.45,23.89-10.45l-2.12,5.55c24.05-8.87,36.72-3.7,36.72-3.7-6.46,5.7-10.02,12.17-10.02,12.17-13.21,17.8-26.03,23.63-26.03,23.63,5.69-3.06,7.54-11.31,7.54-11.31.25-5.17,2.24-6.23,2.24-6.23,4.1-4.35,7.26.4,7.26.4,2.11-6.35-2.63-9.78-2.63-9.78Zm-68.57,43.65c-.26,0-.52,0-.78-.01v.04c-13.9.23-28.37-4.27-28.37-4.27-13.55-4.05-17.16-7.41-17.16-7.41,3.53,2.05,11.54,1.15,11.54,1.15,11.36-.28,16.01-8.48,16.01-8.48,5.04-7.68,8.98-6.89,8.98-6.89l-5.36,6.01,4.92.97-7.04,6.8c5.06,1.11,13.75,8.65,16.49,11.15v.76s.15-.14.42-.38c.28.26.44.39.44.39v-.79c2.75-2.49,11.43-10.04,16.49-11.14l-7.04-6.8,4.95-.97-5.39-6.02s3.98-.77,8.99,6.89c0,0,4.67,8.21,16.02,8.49,0,0,8.02.89,11.54-1.16,0,0-3.6,3.37-17.17,7.41,0,0-14.44,4.51-28.37,4.26h-.08Zm-56.32-54.35s13.61.8,23.91,10.45c0,0,8.72,8.87,3.42,17.02,0,0-5.4,11.63-17.83,2.24,0,0-3.44-3.89-.93-6.67,0,0,3.18-3.46,7.66.66,0,0,1.98,1.98,2.11,4.12,0,0,9.51-8.9,1.19-17.24,0,0-7.52-7.54-17.7-1.18,0,0-7.26-5.05-14.79,1.32,0,0-4.76,3.43-2.64,9.79,0,0,3.16-4.76,7.26-.41,0,0,1.99,1.06,2.25,6.23,0,0,1.85,8.25,7.52,11.32,0,0-12.82-5.83-26.02-23.63,0,0-3.57-6.47-10.04-12.17,0,0,12.66-5.17,36.72,3.7l-2.12-5.55Zm-96.16,3.3c4.24.26,7.94,3.57,7.94,3.57.99.54,2.47,1.72,4.1,3.14l-.41.3c-3.95,3.17-11.9,5.96-11.9,5.96-6.33-3.06-5.53-7.02-5.53-7.02-.27-6.23,5.8-5.96,5.8-5.96Zm-40.67,33.67c-12.56.8-21.13-7.41-21.13-7.41-6.87-7.85,1.72-8.66,1.72-8.66,1.85-.14,4.87,1.35,4.87,1.35,5.57,3.29,13.09,4.08,13.09,4.08,21.81,3.1,42.91-7.14,42.91-7.14,2.11-.23,10.82-5.4,13.58-7.05,3.52,3.35,6.9,6.92,6.9,6.92,1.07,1.6,3.92,4.81,7.34,8.42-.31,2.82-1.15,7.81-3.24,10.3,0,0-3.85-8.28-11.74-14.46,4.59-2.49,7.64-4.26,7.64-4.26l-2.91-2.64c-36.06,21.63-59.03,20.55-59.03,20.55Zm73.59-5.03c6.75,7.03,13.83,14.04,13.83,14.04,6.89,6.82,14.58,13.03,20.63,17.59-6.22-3.84-13.81-7.37-22.99-9.78,0,0-12.69-2.93-17.7-2.81,0,0-3.71-.4-4.76-1.19,0,0,8-3.74,10.99-17.86Zm-15.21,2.25c4.62,4.38,3.95,9.79,3.95,9.79-4.48,4.9-8.06,3.19-8.06,3.19,4.62-5.17,4.1-12.98,4.1-12.98Zm104.92,60.22c6.16,6.69.86,12.15.86,12.15-4.21,6.76-13.85,6.83-13.85,6.83-12.69-.6-19.42-6.49-19.42-6.49-11.82-7.52-19.75-21.89-19.75-21.89-7.66,9.58-20.41,6.43-20.41,6.43-3.57-.09-10.13-5.62-10.13-5.62-10.65-7.49-16.75-2.03-16.75-2.03-4.43,3.63.9,8.7.9,8.7,1.48,1.62,3.07,1.36,3.07,1.36,3.32.02,2.4-3.7,2.4-3.7,2.57.07,2.25,2.44,2.25,2.44.16,3.23-6.17,3.34-6.17,3.34-11.5-.79-11.1-9.52-11.1-9.52.66-11.11,13.98-9.4,13.98-9.4,5.04,2.5,10.57,2.5,10.57,2.5,9.12.79,8.71-5.69,8.71-5.69.27-4.36-4.87-6.07-4.87-6.07-16.37-6.01-28.13-.68-28.13-.68-12.03.8-11.5-8.79-11.5-8.79-.53-7.42,8.85-7.81,8.85-7.81,3.05.06,6.21,1.82,6.21,1.82,4.43,2.18,7.81,2.23,7.81,2.23,3.68-.13,8.78.92,8.78.92,20.85,3.64,33.87,14.09,33.87,14.09,11.36,7.35,17.7,17.46,17.7,17.46.52,1.65,5.03,7.74,5.03,7.74,11.74,15.39,19.08,13.55,19.08,13.55,11.87-.52,10.35-9.63,10.35-9.63-9.37,1.19-6.07-5.5-6.07-5.5,2.78-3.23,7.72,1.26,7.72,1.26Zm-7.59,7.7s-4.08,6.83-12.82-1.54c0,0-6.33-4.91-10.68-12.46,0,0-4.38-9.12-15.52-18.4,1.37.94,2.17,1.46,2.17,1.46,12.71,9.4,31.12,15.04,39.84,17.32-2.91-.29-7.39.38-8.53,6.76,0,0-1.19,3.6,5.54,6.85Zm37.51-13.6h0c-.07.01-.13,0-.2,0-.22-.01-.44.02-.66,0v.03c-24.78.82-48.41-9.16-48.41-9.16-13.59-3.96-34.86-19.89-34.86-19.89-9.9-6.62-35.25-32.93-35.25-32.93-13.22-16.6-28-25.93-28-25.93,11.1,1.41,20.43-.7,20.43-.7.88-.37,7.57-.9,7.57-.9,12.15-1.59,23.41,6.35,23.41,6.35,8.63,5.13,19.01,19.62,19.01,19.62,9.78,10.65,22.03,17.64,22.03,17.64,5.89,4.95,21.58,10.25,21.58,10.25,5.8,2.55,15.75,3.87,15.75,3.87,6.97,1.59,16.66,1.34,17.54,1.32,2.55.05,10.73.06,16.82-1.34,0,0,9.95-1.32,15.78-3.87,0,0,15.66-5.3,21.55-10.26,0,0,12.25-6.97,22.02-17.64,0,0,10.39-14.48,19.02-19.61,0,0,11.28-7.94,23.41-6.36,0,0,6.71.55,7.59.91,0,0,9.33,2.11,20.41.7,0,0-14.79,9.34-28,25.93,0,0-25.36,26.31-35.27,32.93,0,0-21.27,15.93-34.86,19.89,0,0-23.63,9.96-48.41,9.15Zm118.77-56.57c3,14.11,10.99,17.86,10.99,17.86-1.05.79-4.74,1.19-4.74,1.19-5.03-.14-17.7,2.8-17.7,2.8-9.19,2.42-16.8,5.94-23.02,9.79,6.05-4.56,13.77-10.77,20.64-17.59,0,0,7.07-7.02,13.83-14.04Zm-76.55,63.31c-1.14-6.39-5.65-7.06-8.55-6.76,8.73-2.29,27.14-7.93,39.83-17.32,0,0,.79-.52,2.17-1.46-11.14,9.27-15.49,18.4-15.49,18.4-4.37,7.54-10.71,12.46-10.71,12.46-8.71,8.37-12.82,1.53-12.82,1.53,6.73-3.25,5.57-6.84,5.57-6.84Zm97.32-44.8s9.38.4,8.85,7.82c0,0,.54,9.59-11.49,8.79,0,0-11.75-5.33-28.14.66,0,0-5.13,1.71-4.87,6.08,0,0-.4,6.48,8.71,5.69,0,0,5.54,0,10.57-2.51,0,0,13.33-1.72,13.98,9.4,0,0,.4,8.73-11.07,9.52,0,0-6.36-.09-6.19-3.33,0,0-.33-2.36,2.26-2.43,0,0-.93,3.73,2.41,3.69,0,0,1.59.27,3.06-1.35,0,0,5.33-5.08.89-8.7,0,0-6.08-5.47-16.74,2.03,0,0-6.55,5.53-10.13,5.61,0,0-12.73,3.17-20.41-6.42,0,0-7.92,14.36-19.73,21.88,0,0-6.74,5.9-19.41,6.5,0,0-9.64-.06-13.88-6.82,0,0-5.27-5.48.86-12.16,0,0,4.95-4.49,7.72-1.25,0,0,3.32,6.68-6.07,5.5,0,0-1.52,9.1,10.37,9.63,0,0,7.32,1.85,19.09-13.54,0,0,4.48-6.09,5.01-7.75,0,0,6.33-10.11,17.69-17.46,0,0,13.02-10.43,33.89-14.08,0,0,5.08-1.06,8.79-.93,0,0,3.35-.06,7.78-2.24,0,0,3.16-1.75,6.2-1.82Zm-1.46-3.29s-3.55,1.72-8.06-3.19c0,0-.66-5.41,3.97-9.8,0,0-.52,7.81,4.09,12.99Zm75.41-17.61s-8.58,8.21-21.12,7.42c0,0-22.98,1.06-59.03-20.56l-2.92,2.64s3.06,1.77,7.64,4.25c-7.9,6.18-11.72,14.47-11.72,14.47-2.11-2.5-2.95-7.49-3.27-10.31,3.44-3.6,6.28-6.81,7.34-8.41,0,0,3.4-3.58,6.9-6.92,2.76,1.64,11.47,6.82,13.58,7.04,0,0,21.14,10.25,42.92,7.15,0,0,7.54-.79,13.09-4.09,0,0,3.04-1.48,4.88-1.35,0,0,8.59.81,1.71,8.66Z"/>
      <path class="cls-1" d="m291.3,158.72c-1-1.46-5.96,1.65-5.96,1.65.2-1.12.73-4.96.73-4.96,6.99-4.75,6.09-7.53,6.09-7.53-.13-1.19-5.5,2.26-5.5,2.26v-3.84c5.3-4.09,5.3-7.4,5.3-7.4-1.2-1.32-5.43,2.46-5.43,2.46l-.2-2.79c5.44-5.93,3.97-8.37,3.97-8.37-1.12-1.33-4.83,3.1-4.83,3.1,0-.2-.46-4.56-.46-4.56,3.38-3.25,2.52-8.59,2.52-8.59-1.33-1.06-3.9,3.91-3.9,3.91-.13-1-1.37-3.52-1.37-3.52,3.09-5.67,1.5-8.98,1.5-8.98-.91-1-3.55,3.24-3.55,3.24l-1.99-3.77c2.58-5.47.52-8.25.52-8.25-2.38.13-3.17,4.61-3.17,4.61-.46-.79-2.36-3.41-2.36-3.41.84-7.79-1.53-8.32-1.53-8.32-2.12,1.1-1.72,4.81-1.72,4.81-.79-1.4-3.63-3.57-3.63-3.57.66-6.93-1.45-7.14-1.45-7.14-1.84.73-1.63,4.77-1.63,4.77-.07-.27-2.99-2.06-2.99-2.06.26-6.32-2.05-7.11-2.05-7.11-1.65.85-1.39,5.06-1.39,5.06-.66-.59-2.75-1.78-2.75-1.78-.52-6.14-2.85-6-2.85-6-1,1.05-.4,4.42-.4,4.42l-2.91-1.24c-3.48-3.18-6.14-2.88-6.14-2.88-.85-.07-1.78.57-1.78.57,1.98,4.14,7.52,3.55,7.52,3.55l2.66,1.18c-3.18.6-4.17,1.99-4.17,1.99,2.38,1.92,7.61-.47,7.61-.47l2.49,1.79c-3.23,0-3.95,1.92-3.95,1.92,2.25,1.85,6.8-.13,6.8-.13l2.51,1.98c-4.11-.2-5.3,1.64-5.3,1.64,2.78,3.24,8.92,1.32,8.92,1.32l3.11,3.24c-4.02-.65-4.87.93-4.87.93,3.08,3.42,8.18,2.71,8.18,2.71l2.18,3.03c-4.83-1.33-5.22-.07-5.22-.07,1.72,4.37,8.38,4.3,8.38,4.3l2.32,5.01c-2.85-1.79-6.73-1.2-6.73-1.2.46,4.18,7.99,4.9,7.99,4.9.59.86,1.58,4.95,1.58,4.95-2.98-1.72-6.81-1.13-6.81-1.13.52,4.17,7.87,4.84,7.87,4.84l.51,5.4c-3.69-3.02-6.67-2.23-6.67-2.23,1,4.88,7.39,6.07,7.39,6.07.4,2.65.33,3.84.33,3.84-5.61-3.84-6.72-2.71-6.72-2.71,1.12,4.34,6.79,6.26,6.79,6.26l-.2,4.7c-3.48-3.18-6.19-3.25-6.19-3.25.72,5.08,5.87,7.27,5.87,7.27.13.47-.91,5.23-.91,5.23-3.7-4.17-5.29-3.38-5.29-3.38-.65,3.91,4.5,7.59,4.5,7.59-.79,3.25-1.79,5.3-1.79,5.3-3.5-5.37-5.23-4.9-5.23-4.9-1.83,4.44,3.45,9.19,3.45,9.19l-1.85,3.43c-1.79-4.9-4.48-5.43-4.48-5.43-2.45,3.97,2.16,9.84,2.16,9.84-.13.27-2.16,3.25-2.16,3.25-1.72-5.94-3.51-5.94-3.51-5.94-3.32,3.81.86,10.36.86,10.36l-3.25,3.86c.33-6.5-2.3-7.36-2.3-7.36-4.36,4.58-.72,10.71-.72,10.71-1.07,1.55-3.25,2.81-3.25,2.81.52-7.75-1.39-7.94-1.39-7.94-4.02,2.04-1.92,10.91-1.92,10.91l-3.03,2.07c1.64-6.23,0-8.31,0-8.31-5.42,1.66-3.84,10.72-3.84,10.72l-4.23,2.18c1.91-6.8.2-9.44.2-9.44-4.95,2.24-3.89,11.28-3.89,11.28-5.75,2.86-10.77,2.53-10.77,2.53-3.64-.19-7.26.28-10.27.88-2.95-.58-6.43-1-9.94-.81,0,0-5.01.33-10.77-2.54,0,0,1.06-9.03-3.88-11.28,0,0-1.72,2.64.2,9.44l-4.24-2.17s1.59-9.06-3.82-10.72c0,0-1.65,2.07,0,8.31l-3.05-2.08s2.12-8.86-1.92-10.91c0,0-1.92.2-1.39,7.94,0,0-2.16-1.25-3.21-2.79,0,0,3.62-6.14-.73-10.71,0,0-2.64.86-2.32,7.35l-3.25-3.85s4.18-6.54.87-10.36c0,0-1.79,0-3.49,5.95,0,0-2.05-2.99-2.18-3.25,0,0,4.6-5.87,2.18-9.84,0,0-2.71.53-4.51,5.43l-1.85-3.45s5.3-4.75,3.45-9.19c0,0-1.72-.46-5.23,4.9,0,0-.98-2.05-1.77-5.3,0,0,5.14-3.68,4.48-7.58,0,0-1.59-.8-5.27,3.38,0,0-1.06-4.76-.93-5.23,0,0,5.15-2.18,5.87-7.26,0,0-2.7.06-6.19,3.24l-.2-4.7s5.67-1.93,6.79-6.27c0,0-1.12-1.12-6.73,2.71,0,0-.06-1.18.34-3.83,0,0,6.39-1.19,7.39-6.07,0,0-2.98-.79-6.67,2.22l.53-5.4s7.32-.66,7.86-4.83c0,0-3.84-.59-6.8,1.12,0,0,.98-4.08,1.57-4.94,0,0,7.55-.73,8.01-4.9,0,0-3.91-.59-6.75,1.2l2.32-5.02s6.65.07,8.37-4.3c0,0-.39-1.26-5.2.07l2.17-3.03s5.1.71,8.21-2.71c0,0-.86-1.58-4.9-.93l3.11-3.24s6.13,1.92,8.91-1.33c0,0-1.19-1.83-5.3-1.63l2.51-1.99s4.58,1.99,6.8.13c0,0-.72-1.91-3.95-1.91l2.51-1.79s5.2,2.38,7.59.47c0,0-.99-1.39-4.17-1.99l2.64-1.19s5.54.59,7.52-3.55c0,0-.92-.43-1.78-.37,0,0-2.63-.5-6.14,2.68l-2.91,1.23s.59-3.35-.4-4.41c0,0-2.29-.13-2.82,6,0,0-2.12,1.2-2.78,1.79,0,0,.27-4.21-1.39-5.08,0,0-2.32.79-2.05,7.13,0,0-2.89,1.79-2.96,2.06,0,0,.2-4.05-1.66-4.77,0,0-2.11.2-1.46,7.13,0,0-2.84,2.18-3.63,3.57,0,0,.4-3.71-1.71-4.81,0,0-2.37.52-1.51,8.32,0,0-1.93,2.62-2.39,3.41,0,0-.79-4.47-3.17-4.61,0,0-2.06,2.77.52,8.25l-1.99,3.77s-2.62-4.24-3.55-3.24c0,0-1.59,3.29,1.52,8.98,0,0-1.26,2.51-1.39,3.5,0,0-2.58-4.96-3.91-3.91,0,0-.86,5.34,2.51,8.59,0,0-.46,4.37-.46,4.56,0,0-3.71-4.44-4.83-3.11,0,0-1.44,2.46,3.97,8.38l-.2,2.79s-4.21-3.78-5.4-2.46c0,0,0,3.32,5.27,7.39v3.84s-5.33-3.43-5.47-2.25c0,0-.92,2.78,6.07,7.53,0,0,.53,3.85.73,4.97,0,0-4.96-3.12-5.94-1.67,0,0-.46,3.42,7.07,6.4l1.25,4.56s-7.08-2.18-7.01-.73c0,0,1.26,4.23,8.6,5.43l2.03,3.77s-7.66-1.59-7.25.13c0,0,1.52,4.21,9.64,4.8l2.06,2.86s-7.73-1.34-7.26.33c0,0,.86,4.23,10.68,4.77l2.71,3.49s-8.05.27-7.66,1.58c0,0,2.78,3.33,11.62,2.6l2.51,2.5s-6.08,1.45-6.61,3.53c0,0,2.57,2.27,10.83-.33,0,0,1.53,1.27,1.86,1.41,0,0-7.13,2.44-5.89,3.83,0,0,3.36,1.64,11.03-.79l2.85,1.44s-6.73,3.13-5.86,4.32c0,0,3.68,2.37,11.2-1.6,0,0,5.57,2.58,10.37,2.52,0,0,2.39.06,5.41.4-1.08.34-1.71.58-1.71.58-3.38,1.98-8.98,2.97-8.98,2.97-1.26.19-1.65.8-1.65.8.92-.14,6.86,1.27,6.86,1.27,2.39-1.55,6.75-3.26,6.75-3.26,1.12-.61,2.63-1.09,4.27-1.48,1.75.39,3.38.9,4.58,1.55,0,0,4.35,1.71,6.73,3.26,0,0,5.94-1.41,6.86-1.27,0,0-.39-.61-1.66-.8,0,0-5.6-.99-8.98-2.97,0,0-.75-.29-2-.68,3.15-.37,5.7-.44,5.7-.44,4.81.06,10.37-2.52,10.37-2.52,7.53,3.98,11.23,1.6,11.23,1.6.86-1.18-5.89-4.31-5.89-4.31l2.84-1.46c7.66,2.43,11.03.79,11.03.79,1.26-1.39-5.89-3.83-5.89-3.83.33-.13,1.85-1.41,1.85-1.41,8.25,2.6,10.84.33,10.84.33-.54-2.07-6.6-3.53-6.6-3.53l2.49-2.5c8.87.72,11.63-2.6,11.63-2.6.4-1.32-7.66-1.59-7.66-1.59l2.71-3.49c9.85-.55,10.7-4.77,10.7-4.77.46-1.66-7.28-.33-7.28-.33l2.05-2.85c8.12-.59,9.64-4.81,9.64-4.81.4-1.72-7.25-.13-7.25-.13l2.05-3.77c7.32-1.2,8.58-5.41,8.58-5.41.07-1.45-6.99.72-6.99.72l1.23-4.56c7.55-2.98,7.08-6.39,7.08-6.39Z"/>
      <g>
        <path class="cls-1" d="m312.97,294.23l-10.57-12.02c-.83-.96-2.47-1.09-3.43-.25l-16.28,14.44,1.61,1.84,15.29-13.53,10.59,12.03-3.59,3.14-7.47-8.48-2.82,2.48,7.47,8.5-3.56,3.17-7.49-8.48-2.81,2.49,7.47,8.48-3.91,3.46,1.64,1.84,20.68-18.32-1.63-1.85-1.19,1.05Z"/>
        <path class="cls-1" d="m298.97,281.97c.05-.06-.06.05,0,0h0Z"/>
        <path class="cls-1" d="m302.4,282.22c.07.08-.05-.1,0,0h0Z"/>
      </g>
      <g>
        <polygon class="cls-1" points="275.94 306.13 272.11 307.65 269.91 302.09 266.41 303.51 271.62 316.59 275.11 315.31 273.01 309.94 276.84 308.41 275.94 306.13"/>
        <polygon class="cls-1" points="257.76 306.89 256.75 304.36 253.28 305.75 254.28 308.27 246.6 311.32 247.5 313.61 266.23 306.19 265.32 303.91 257.76 306.89"/>
        <path class="cls-1" d="m276.18,318.06c-.5-1.28-2.14-1.9-3.39-1.41-.11.04-20.28,8.06-20.28,8.06l.9,2.3,19.23-7.58,2.31,5.92,3.51-1.4s-2.22-5.73-2.28-5.89Z"/>
        <path class="cls-1" d="m257.17,310.7c-4.78,1.89-7.88,5.36-6.88,7.88.99,2.49,5.66,2.99,10.47,1.09,4.77-1.91,7.87-5.39,6.88-7.88-.99-2.53-5.67-3.02-10.47-1.09Zm2.82,7.03c-2.82,1.12-5.55.86-6.11-.59-.57-1.38,1.25-3.4,4.05-4.51,2.83-1.12,5.58-.86,6.15.58.55,1.43-1.26,3.4-4.09,4.53Z"/>
      </g>
      <path class="cls-1" d="m230.81,313.42v6.13h-1.89v-6.13h-3.74v14.41l-11.47-.02v-12.06h9.44v-2.41l-13.2-.02v14.49h.02c.1,1.38,1.26,2.48,2.68,2.48h12.53v6.64h3.74v-15.07h1.89v15.07h3.77v-23.52h-3.77Z"/>
      <g>
        <path class="cls-1" d="m154.95,305.73l1.59-1.87-20.91-17.86-1.6,1.89,8.93,7.61-.95,1.12-7.52-6.4-1.46,1.72,15.23,13-.87,1.03-15.29-13.06-.64.75-.96,1.13-1.26,1.5c-.08.06-.15.13-.21.21-.73.86-.63,2.15.23,2.88.07.05.13.1.19.15l16.28,13.9,1.54-1.78-15.29-13.05,1.26-1.47,14.76,12.6.02-.02.53.46s2.89-3.39,2.98-3.49c.54-.63.47-1.54-.16-2.08-.08-.06-6.36-5.42-6.36-5.42l.94-1.12,8.99,7.68Z"/>
        <path class="cls-1" d="m152.3,287.54c-5.16-4.39-10.62-6.44-12.21-4.58-1.59,1.86,1.31,6.95,6.46,11.33,5.17,4.41,10.62,6.46,12.21,4.6,1.6-1.86-1.32-6.95-6.46-11.36Zm-4.62,5.44c-3.5-2.97-5.53-6.33-4.58-7.45.94-1.13,4.57.36,8.07,3.36,3.48,2.98,5.54,6.31,4.57,7.46-.97,1.13-4.56-.36-8.07-3.36Z"/>
      </g>
      <g>
        <path class="cls-1" d="m182.47,317.32l3.87,1.53-1.54-11.57c-.1-.61-.65-1.21-1.43-1.51l-.09-.04v-.03s-5.13-2.03-5.13-2.03v.03s-.1-.03-.1-.03c-.78-.31-1.6-.23-2.08.14l-9.03,7.49,3.87,1.51,7.82-6.42,2.48.98,1.39,9.94Z"/>
        <path class="cls-1" d="m167.01,321.12c-.49,1.26.22,2.72,1.48,3.22.11.04,19.69,7.73,19.69,7.73l.83-2.11-18.6-7.33,2.86-7.27-3.39-1.34s-2.82,6.95-2.88,7.1Z"/>
        <polygon class="cls-1" points="198.07 318.08 194.3 316.57 196.59 310.86 193.09 309.45 186.54 326.1 190.03 327.47 193.41 318.85 197.18 320.32 198.07 318.08"/>
      </g>
      <polygon class="cls-1" points="131.67 169.1 134.29 168.43 133.9 166.83 129.77 167.83 129.79 167.86 130.19 169.46 132.23 177.58 133.71 177.21 131.67 169.1"/>
      <polygon class="cls-1" points="143.71 174.25 134.91 176.47 134.5 174.86 143.31 172.64 143.71 174.25"/>
      <path class="cls-1" d="m137.9,170.02c.53-.94,1.43-1.34,2.35-1.48l.69,2.71,1.46-.35-1.82-7.29-1.46.37.7,2.79c-.88.3-1.86.37-2.78-.2-.91-.58-1.83-1.01-2.32-2.7l-1.12.73c0,.89,1.12,2.18,2.32,2.94.52.31,1.12.56,1.73.7-.47.41-.88.91-1.18,1.44-.71,1.23-1.12,2.89-.68,3.67l1.34.11c-.36-1.72.23-2.51.78-3.45Z"/>
      <g>
        <polygon class="cls-1" points="147.09 198.15 149.39 196.71 152.1 201.15 156.46 198.44 156.45 198.4 152.86 192.63 151.6 193.42 154.3 197.81 152.52 198.95 149.81 194.51 144.94 197.52 144.96 197.53 144.94 197.54 148.6 203.44 149.89 202.65 147.09 198.15"/>
        <polygon class="cls-1" points="148.05 207.08 158.64 200.37 159.51 201.77 148.93 208.47 148.05 207.08"/>
      </g>
      <g>
        <path class="cls-1" d="m201.67,230.93c.09-.24.17-.5.25-.76l2.64.64.35-1.46-7.11-1.75-.36,1.49,2.72.66c-.05.27-.09.53-.13.79-.93,2.82-3,4.74-5.01,4.62l.52,1.57c1.73-.05,3.28-1,4.48-2.67.33,2.05,1.28,3.6,2.8,4.42l1.18-1.14c-1.85-.81-2.82-3.49-2.36-6.43Z"/>
        <polygon class="cls-1" points="209.15 233.62 207.65 233.25 208.71 228.84 207.12 228.45 204.01 241.18 205.63 241.53 207.29 234.72 208.8 235.09 209.15 233.62"/>
      </g>
      <g>
        <path class="cls-1" d="m302.35,168.98c-.27-.08-2.42-.49-2.42-.49l-.4,1.93s2.17.47,2.43.49c3.09.89,5.28,2.93,5.23,5.11l1.66-.62c-.12-1.89-1.19-3.53-3.03-4.76,2.18-.44,3.82-1.54,4.67-3.23l-1.28-1.23c-.81,2.04-3.65,3.18-6.86,2.8Z"/>
        <polygon class="cls-1" points="305.25 161.79 304.95 163.28 300.63 162.39 300.31 163.97 312.8 166.54 313.12 164.96 306.38 163.57 306.69 162.08 305.25 161.79"/>
      </g>
      <g>
        <path class="cls-1" d="m240.53,232.14c-.26.47-.64.94-1.11,1.37-1.08.99-2.78,2.04-3.88,2.17l-.86-1.18c1.7-.52,2.5-1.04,3.33-1.79.81-.75.98-1.16.96-1.97l-3.77.98-.37-1.38,9.82-2.56.36,1.4-3.8.98c.37.72.71,1,1.8,1.26,1.09.27,2.06.31,3.79-.06l-.2,1.43c-1,.43-3,.36-4.42.02-.63-.15-1.19-.39-1.64-.67h0Z"/>
        <polygon class="cls-1" points="247.38 233.41 235.52 236.51 235.92 238.07 241.07 236.73 242.2 241.03 243.88 240.63 242.77 236.29 247.78 234.96 247.38 233.41"/>
      </g>
      <g>
        <path class="cls-1" d="m292.6,201.45c-1.75,2.36-2.19,5.05-.97,5.93,1.2.87,3.61-.38,5.37-2.85,1.76-2.34,2.21-5.02.98-5.89-1.22-.91-3.63.37-5.38,2.82Zm3.07,2.11c-1.08,1.41-2.33,2.38-2.79,2.04-.45-.35.04-1.8,1.12-3.23,1.08-1.5,2.33-2.44,2.79-2.11.47.33-.05,1.81-1.13,3.29Z"/>
        <path class="cls-1" d="m291.41,199.35l-.64-.45,2.35-3.29h0l-4.01-2.9-1.06,1.45,1.21.94-3.99,4.91-.95-.68-1.04,1.45,4.03,2.88.02-.04,2.39-3.27.63.45-3.17,4.28,1.22.91,7.39-10.19-1.22-.87-3.16,4.42Zm-4.66,1.8l3.73-5.17.69.49-3.72,5.18-.69-.5Z"/>
      </g>
      <path class="cls-1" d="m174.47,224.11c.78,0,1.41-.63,1.41-1.4s-.63-1.39-1.41-1.39-1.4.63-1.4,1.39.63,1.4,1.4,1.4Z"/>
      <path class="cls-1" d="m268.45,223.78c.77,0,1.4-.63,1.4-1.4s-.63-1.39-1.4-1.39-1.41.62-1.41,1.39.63,1.4,1.41,1.4Z"/>
      <path class="cls-1" d="m160.73,82.36l-1.67,2.37-1.15-1.15c1.19-1.62.93-3.77.86-3.85l1.41-1.4,8.51,8.64-1.73,1.7-6.23-6.31Z"/>
      <path class="cls-1" d="m198.08,66.46c1.03.41,2.08.45,3.19.14.75-.21,1.34-.52,1.78-.92.24-.22.45-.49.63-.83.2.9.26,1.61.19,2.13-.13.94-.64,1.51-1.54,1.77-.47.13-.87.13-1.21-.01-.34-.13-.6-.36-.75-.68l-2.7.75c.4.95,1.08,1.58,2.04,1.87.98.28,1.99.28,3.03-.01,2.19-.62,3.43-1.93,3.75-3.94.17-1.08.05-2.31-.35-3.73-.41-1.46-.96-2.57-1.66-3.34-1.23-1.34-2.89-1.71-5.01-1.12-1.35.37-2.36,1.06-3,2.07-.64,1.02-.79,2.17-.43,3.41.34,1.21,1.02,2.01,2.06,2.42Zm1.16-1.87c-.51-.23-.87-.69-1.07-1.38-.23-.83-.06-1.5.5-2.03.36-.35.82-.6,1.41-.77.8-.23,1.5-.21,2.07.05.58.26.96.72,1.15,1.39.23.82,0,1.51-.7,2.06-.37.3-.79.51-1.26.65-.88.24-1.59.26-2.1.03Z"/>
      <path class="cls-1" d="m248.29,60.91l-.49,1.8c-.44.25-1.08.72-1.91,1.42-.84.71-1.6,1.47-2.27,2.28-.52.64-1.06,1.44-1.61,2.41-.55.98-.91,1.8-1.1,2.48l-2.39-.65c.65-2.08,1.93-4.06,3.85-5.97,1.23-1.18,2.21-1.97,2.92-2.37l-5.83-1.58.56-2.04,8.27,2.22Z"/>
      <path class="cls-1" d="m277.76,77.31c-1.28.29-2.6,1.15-3.95,2.62-1.36,1.46-2.14,2.85-2.35,4.14-.2,1.3.37,2.56,1.71,3.78,1.32,1.25,2.63,1.72,3.9,1.43,1.28-.29,2.6-1.18,3.96-2.62,1.37-1.46,2.15-2.84,2.35-4.14.2-1.3-.35-2.57-1.69-3.82-1.34-1.22-2.65-1.69-3.93-1.4Zm.38,2.22c.72-.29,1.47-.08,2.23.64.76.71,1.02,1.43.78,2.17-.25.73-.86,1.64-1.86,2.71-.95,1.03-1.8,1.69-2.54,2.01-.75.31-1.5.12-2.26-.58-.75-.7-1-1.45-.75-2.22.25-.77.85-1.68,1.79-2.69,1.01-1.08,1.86-1.75,2.6-2.04Z"/>
      <g>
        <path class="cls-1" d="m345.52,33.51s3.62-1.32,3.39-3.09c0,0,.16-1.97-4.64-.12,0,0,5.21-1.09,1.25,3.21Z"/>
        <path class="cls-1" d="m328.89,30.02s3.02-1.26.98-6.08l-11.22,7.78s1.26,2.51,6.8,1.32c0,0-4.63.07-2.32-3.09l.27-.21s-.01.06-.01.08c0,1.06.86,1.9,1.93,1.9s1.91-.84,1.91-1.9c0-.91-.64-1.68-1.49-1.87l.5-.38s3.38-1.46,2.65,2.45Z"/>
        <path class="cls-1" d="m347.17,106.27s10.05-4.61,9.38-14.12c0,0,.4-17.43,11.61-26.67,0,0-5.01-.65-15.05,9.12,0,0-8.46,9.24-5.41,13.19,0,0-10.57,5.82-10.18,14.67,0,0-.26,8.06,9.64,3.82Zm-5.82-8.85s2.65-5.8,8.58-6.6c0,0-1.3-8.85,7.15-15.05,0,0-4.1,10.57-3.04,16.11,0,0,0,7.13-5.41,10.04,0,0-10.16,7.52-7.28-4.51Z"/>
        <path class="cls-1" d="m311.76,159.91s.26-14.54,1.72-17.7l-5.15-1.19-2.52,10.97,5.94,7.92Zm-1.83-15.86l.79.13-1.19,8.58-1.59-1.69,1.99-7.03Z"/>
        <path class="cls-1" d="m419.01,251.95s-5.4-8.48-2.51-21.49c0,0-5.01-5.18-6.33-14.43l5.14.53s-2.49-2.64-3.68-5.31c0,0,3.02,1.59,5.54,1.05,0,0-6.73-7.41-7.79-21.33,0,0-2.26,9-4.5,11.5,0,0,3.57-17.73,1.84-23.4,0,0,9.51,1.69,13.89-8.44,0,0,3.55-5.97.4-13.89,0,0-1.2-4.48-6.62-7.52,0,0,4.23-9.11-.91-13.75,0,0-.4,4.37-2.65,5.57,0,0-5.96,5.01-4.24-2.91,0,0,.4-3.71,5.69-4.75,0,0,13.33-3.97,12.27-15.07l-4.75,4.24s.66-5.03-1.72-9.91c0,0-1.98,9.24-7.78,11.22,0,0-8.98,3.42-9.11,11.07,0,0-2.12,12.57-4.51,2.53,0,0-1.05-7.52,9.91-14.12,0,0,17.96-5.43,8.18-29.06,0,0-.26,3.81-1.83,6.21,0,0-3.97-6.74-9.64-7.66,0,0,8.71,7.92-3.45,23.37,0,0-1.46-3.82-1.06-4.34,0,0-12.15,1.72-12.42,20.21,0,0-.13,19.55,19.55,21.9,0,0,10.7-.27,7.81,11.9,0,0-4.76,8.18-10.69.93,0,0-5.82-10.97-12.42-16.38,0,0-3.31-4.5-14.39-11.62,0,0-15.19-10.57-18.88-29.19,0,0-5.69,3.17-12.16,3.84,0,0-9.91,22.83-35.25,7.27,0,0,.98,7.16,6.24,15.21.62,4.4.94,8.87.94,13.45,0,52.87-42.84,95.64-95.69,95.64s-95.69-42.76-95.69-95.64c0-3.95.24-7.81.71-11.64,6.31-8.7,7.42-16.89,7.42-16.89-25.36,15.58-35.27-7.25-35.27-7.25-6.47-.67-12.14-3.84-12.14-3.84-3.71,18.62-18.88,29.18-18.88,29.18-11.1,7.13-14.41,11.63-14.41,11.63-6.6,5.41-12.42,16.38-12.42,16.38-5.94,7.26-10.68-.93-10.68-.93-2.92-12.15,7.78-11.89,7.78-11.89,19.69-2.36,19.55-21.91,19.55-21.91-.27-18.49-12.42-20.21-12.42-20.21.4.52-1.07,4.34-1.07,4.34-12.15-15.44-3.43-23.36-3.43-23.36-5.68.92-9.63,7.65-9.63,7.65-1.6-2.39-1.86-6.2-1.86-6.2-9.77,23.63,8.19,29.06,8.19,29.06,10.97,6.6,9.91,14.12,9.91,14.12-2.39,10.05-4.51-2.51-4.51-2.51-.13-7.65-9.11-11.07-9.11-11.07-5.8-1.99-7.78-11.24-7.78-11.24-2.39,4.88-1.72,9.91-1.72,9.91l-4.75-4.24c-1.05,11.1,12.27,15.07,12.27,15.07,5.3,1.04,5.69,4.74,5.69,4.74,1.72,7.92-4.24,2.92-4.24,2.92-2.23-1.19-2.62-5.56-2.62-5.56-5.16,4.63-.93,13.74-.93,13.74-5.43,3.03-6.62,7.52-6.62,7.52-3.16,7.92.4,13.88.4,13.88,4.38,10.14,13.88,8.45,13.88,8.45-1.72,5.66,1.86,23.4,1.86,23.4-2.26-2.5-4.51-11.5-4.51-11.5-1.06,13.91-7.79,21.33-7.79,21.33,2.51.55,5.54-1.06,5.54-1.06-1.17,2.67-3.68,5.31-3.68,5.31l5.15-.54c-1.33,9.27-6.34,14.44-6.34,14.44,2.92,13.03-2.51,21.5-2.51,21.5,4.37,3.82,2.38,9.52,2.38,9.52l1.72,2.64c5.67-.4,8.72-4.09,8.72-4.09-5.96-31.15,16.5-37.11,16.5-37.11,17.3-4.77,21.53-20.83,21.53-20.83,5.15-1.98,9.91-6.09,9.91-6.09,4.61-3.3,3.82,1.98,3.82,1.98.66,8.13-2.36,19.11-2.36,19.11-2.51,6.36,4.48,4.78,4.48,4.78,21.53-3.59,23.77,7.95,23.77,7.95,16.25-9.27,2.11-13.25,2.11-13.25-2.89-.93-9.65-.54-9.65-.54-5.14-.12-5.4-1.32-5.4-1.32-2.39-.65.13-7.67.13-7.67.79-4.3,8.71-21.62,8.71-21.62,4.88-8.86-1.46-14.41-1.46-14.41-6.86-5.94-12.95-2.77-12.95-2.77-3.82.79-17.17,5.94-17.17,5.94,6.5-14.91,18.9-18.49,18.9-18.49,10.67-2.68,18.16-7.52,23.43-12.76-.13,2.08-.2,4.18-.2,6.29,0,55.02,44.65,99.69,99.73,99.69s99.74-44.67,99.74-99.69c0-2.51-.11-5-.28-7.44,5.3,5.63,13.06,10.93,24.43,13.78,0,0,12.42,3.57,18.89,18.49,0,0-13.35-5.16-17.17-5.94,0,0-6.09-3.18-12.95,2.78,0,0-6.34,5.54-1.46,14.4,0,0,7.92,17.33,8.71,21.61,0,0,2.51,7.02.13,7.68,0,0-.26,1.19-5.41,1.32,0,0-6.73-.4-9.64.53,0,0-14.15,3.97,2.12,13.24,0,0,2.22-11.53,23.76-7.93,0,0,7,1.57,4.51-4.79,0,0-3.05-10.98-2.39-19.12,0,0-.8-5.29,3.82-1.98,0,0,4.76,4.12,9.91,6.09,0,0,4.24,16.06,21.53,20.83,0,0,22.46,5.96,16.5,37.12,0,0,3.04,3.68,8.71,4.08l1.72-2.64s-1.99-5.7,2.39-9.52ZM96.23,172.04s7.13-2.22,10.55,2.52c0,0,4.37,4.1.79,11.37,0,0-7.79,14.96-9.91,24.92,0,0-2.89,7.15,7.68,7.42l9.89.26s9.5.93,1.98,8.07c0,0-5.27-10.32-23.63-7.15,0,0-5.04,1.87-3.05-3.7,0,0,3.45-13.94,1.72-20.04,0,0-.66-7.81-8.31-2.38,0,0-6.47,4.49-6.74,4.1,0,0,.91-6.21.65-9.52,0,0-.91-6.35.52-8.58,0,0,13.48-6.23,17.85-7.29Zm4.88-20.18s-25.09,3.68-26.94,33.68c0,0,3.57,24.39-17.82,33.52,0,0-13.35,2-19.29,15.48,0,0-6.86,11.18-3.04,24.82,0,0-1.99,1.71-3.03,1.58l-.52-.4s.65-5.04-1.86-8.34c0,0,4.21-9.82,1.98-21.36,0,0,5.4-5.44,6.6-18.02l-3.05.41,3.05-6.49-4.51,1.44s2.39-5.2,2.39-6.39.4.26.4.26c0,0,3.31,8.77,10.17,9.3,0,0-8.84-19.87-4.5-35.62,0,0-7.52,3.17-12.27-2.39,0,0-12.41-13.85,4.08-23.09,0,0-2.88-4.1-1.96-7.27,0,0,5.94,4.49,8.19,1.31,0,0,4.6-4.87-3.31-11.74,0,0-1.72-.93-3.57-1.06,0,0-5.15-1.72-7.26-4.9l1.19.26.66-3.95s3.57,3.55,6.99,4.21c0,0,6.35,2.65,6.09,8.71,0,0,1.3,8.45,4.88,8.85,0,0,8.31-1.05,4.37-12.66,0,0-1.46-7.15-11.1-11.24,0,0-10.43-4.76-9.11-15.97l1.07,1.17s3.42-5.01,4.07-4.49c0,0,.4,13.99,12.03,19.83,0,0,.4-.27,1.33-4.38,0,0,10.83,5.03,5.66,22.06,0,0-4.87,11.63-15.05,11.76,0,0-11.76-.53-11.62,12.93,0,0,.13,6.76,5.27,8.31,0,0,7.01,4.11,11.89-3.42,0,0,4.24-9.63,12.82-17.69,0,0,6.33-5.56,11.63-8.45,0,0,14.65-8.6,20.45-28.52,0,0,6.09,2.35,7.93,2.1,0,0,8.73,19.15,32.1,11.36,0,0-6.6,17.95-27.48,24.44Zm258.72,41.35c-7.65-5.43-8.31,2.37-8.31,2.37-1.72,6.09,1.72,20.04,1.72,20.04,1.98,5.57-3.05,3.68-3.05,3.68-18.36-3.17-23.63,7.16-23.63,7.16-7.53-7.16,1.98-8.08,1.98-8.08l9.91-.26c10.55-.27,7.66-7.42,7.66-7.42-2.12-9.97-9.91-24.93-9.91-24.93-3.58-7.25.79-11.35.79-11.35,3.41-4.76,10.57-2.53,10.57-2.53,4.34,1.05,17.83,7.29,17.83,7.29,1.46,2.22.53,8.57.53,8.57-.27,3.32.66,9.52.66,9.52-.26.4-6.75-4.09-6.75-4.09Zm53.51,67.21l-.53.39c-1.05.13-3.04-1.58-3.04-1.58,3.84-13.65-3.05-24.82-3.05-24.82-5.93-13.48-19.28-15.49-19.28-15.49-21.38-9.13-17.83-33.52-17.83-33.52-1.85-29.99-26.94-33.68-26.94-33.68-20.87-6.49-27.47-24.45-27.47-24.45,23.39,7.79,32.1-11.36,32.1-11.36,1.83.27,7.92-2.1,7.92-2.1,5.81,19.93,20.48,28.54,20.48,28.54,5.27,2.89,11.6,8.45,11.6,8.45,8.59,8.06,12.82,17.7,12.82,17.7,4.88,7.52,11.89,3.42,11.89,3.42,5.15-1.56,5.27-8.31,5.27-8.31.14-13.46-11.63-12.94-11.63-12.94-10.16-.13-15.04-11.77-15.04-11.77-5.15-17.03,5.67-22.06,5.67-22.06.93,4.11,1.33,4.37,1.33,4.37,11.62-5.82,12.02-19.82,12.02-19.82.66-.52,4.1,4.48,4.1,4.48l1.04-1.17c1.33,11.21-9.12,15.98-9.12,15.98-9.64,4.08-11.07,11.22-11.07,11.22-3.97,11.61,4.35,12.66,4.35,12.66,3.57-.39,4.9-8.84,4.9-8.84-.27-6.07,6.06-8.72,6.06-8.72,3.45-.65,7-4.2,7-4.2l.66,3.95,1.19-.27c-2.12,3.17-7.26,4.9-7.26,4.9-1.85.13-3.57,1.06-3.57,1.06-7.92,6.86-3.29,11.74-3.29,11.74,2.24,3.18,8.19-1.3,8.19-1.3.92,3.16-1.99,7.27-1.99,7.27,16.5,9.24,4.08,23.1,4.08,23.1-4.75,5.56-12.27,2.38-12.27,2.38,4.34,15.74-4.51,35.62-4.51,35.62,6.87-.52,10.18-9.3,10.18-9.3,0,0,.4-1.45.4-.27s2.39,6.4,2.39,6.4l-4.51-1.45,3.04,6.48-3.04-.41c1.19,12.58,6.62,18.02,6.62,18.02-2.25,11.54,1.96,21.36,1.96,21.36-2.49,3.29-1.83,8.34-1.83,8.34Z"/>
        <path class="cls-1" d="m332.37,225.41s-3.55,2.51-2.37,7.42c0,0,8.07-1.98,9.12-7.68,0,0-1.84,1.58-6.74.26Zm-.54,4.91c-.53-1.33.8-2.81.8-2.81,1.59.69,2.51.41,2.51.41-1.05,1.47-3.31,2.4-3.31,2.4Z"/>
        <path class="cls-1" d="m320.1,224.62s-9.25,4.52-11.36,9.13c0,0,16.11,2.27,17.03,2.27l1.59-5.03s-7-5.84-7.26-6.37Zm3.16,8.87c-1.59-1.33-8.98-2.25-8.98-2.25,5.55-4.12,5.82-3.73,5.82-3.73l4.35,4.12-1.19,1.85Z"/>
        <path class="cls-1" d="m418.88,254.58s-3.97,3.58-.66,9.01c0,0,7.66-1.99,9.91-9.79,0,0-5.02,1.97-9.25.79Zm.53,5.7c-.26-1.97.66-2.93.66-2.93l2.65.15c-1.07,2.39-3.31,2.78-3.31,2.78Z"/>
        <path class="cls-1" d="m391.28,273.67s12.15,2.11,21.13-1.88c0,0,1.58-6.21,2.23-6.47,0,0-4.61-.41-9.11-3.97,0,0-8.45,4.38-14.25,12.32Zm19.41-6.62l-.8,2.11c-5.67,3.17-13.21,2.77-13.21,2.77,5.57-5.54,8.98-7.16,8.98-7.16.27.55,5.04,2.28,5.04,2.28Z"/>
        <path class="cls-1" d="m94.88,30.55c-.23,1.78,3.38,3.09,3.38,3.09-3.96-4.29,1.25-3.2,1.25-3.2-4.8-1.85-4.62.12-4.62.12Z"/>
        <path class="cls-1" d="m114.92,30.15c-.72-3.91,2.63-2.44,2.63-2.44l.49.38c-.85.19-1.5.95-1.5,1.87,0,1.04.87,1.9,1.92,1.9s1.92-.86,1.92-1.9v-.07l.27.2c2.32,3.16-2.32,3.09-2.32,3.09,5.56,1.19,6.8-1.32,6.8-1.32l-11.21-7.79c-2.05,4.83.99,6.09.99,6.09Z"/>
        <path class="cls-1" d="m79.4,18.5c8.28.7,7.84,2.83,7.84,2.83l-6.25-1.41,1.76,5.97-7.22-2.11c1.6,4.23,6.25,10.3,6.25,10.3l-3.45-.44c2.39,8.81,10.57,16.81,10.57,16.81,8.8,8.72,16.31,8.81,16.31,8.81,9.16,6.71,9.6,21.31,9.6,21.31,13.02,8.55,15.89,25.06,15.89,25.06,2.57,4.82,4.31,2.47,4.98,1.18v-.02s.04-.04.05-.06c-.01.02-.03.05-.05.08h0c.04-.06.07-.12.1-.19.15-.26.26-.48.31-.62,15.82-31.05,48.08-52.33,85.33-52.33s69.41,21.2,85.25,52.17l.16.18s1.46,2.23,2.98,2.35c.86.19,1.94-.4,3.27-2.85,0,0,2.86-16.53,15.9-25.07,0,0,.44-14.61,9.6-21.32,0,0,7.48-.08,16.28-8.8,0,0,8.18-8.01,10.57-16.81l-3.45.44s4.68-6.07,6.24-10.3l-7.21,2.12,1.76-5.98-6.24,1.41s-.44-2.12,7.84-2.82c0,0,10.3-.71,14.51-9.87,0,0,2.39-5.12-.09-6.5,0,0-2.45-2.29-6.78,2.53,0,0-2.55,3.1-2.82,4.95,0,0-.7,1.24-1.75,1.06,0,0,.08-6.18-3.34-6.18,0,0-2.91-.35-4.06,5.22,0,0-.44,1.94-.35,2.56,0,0-1.58,3.07-7.39,4.74l-.71-4.59-8.27,3.53s1.23-3.43,5.72-3.77c0,0,8.03-1.23,10.12-6.88,0,0,2.83-7.66-4.83-4.31,0,0-2.4,1.3-4.51,3.63,0,0-3.59-6.72-6.17,2.29,0,0-1.52,3.98-5.7,4.96l-.96-1.28s-2.19,2.22-5.33,6.92c0,0-4.09-.33-6.69,1.49,0,0-4.06,2.42-8.52.39,0,0,.83,3.95,1.82,6.01,0,0-1.45.2-4.77-.2l2.52,8.42s-12.02,1.6-17.56,4.27l-2.25-1.26s1.19-2.22,3.94-3.64c0,0,5.01-2,6.21-6.62,0,0,.72-5.05,7.08-9.35,0,0,1.43-1.33,5.27-2.22,0,0,4.9-.1,9.1-4.28,0,0,2.9-3.1,2.99-5.89h-3.32s-1.22,5.4-8.78,7.45c0,0-5.93.84-10.57,5.61,0,0-3.44,3.25-5.43,8.88,0,0-1.14,3.11-5.77,5.67,0,0-4.88,2.32-6.18,9.05l-.72.04-.56,5.75-4.87,1.6,9.38,5.34s5.56-6.11,12.22-8.82c0,0,7.2-4,12.66-4,0,0-4.74,4.27-5.73,6,0,0-2.92-1.49-7.75,1.26,0,0-3.69,1.93-6.07,4.64,0,0-2.35,3.31-5.47,4.51,0,0-5.04,2.39-8.64-.53,0,0-.33,3.98,5.43,4.02,0,0,6.1.13,9.61-5.57,0,0,5.94-6.3,11.19-6.23,0,0-2.47,4.48-6.54,7.68,0,0-3.68,3.85-8.98,4.62,0,0,6.57,4.56,13.34-.03,0,0,4.02-2.99,5.38-5.18,0,0,5.3-6.96,10.41-9.24,0,0,8.11-3.64,7.45,2.48,0,0-.83,2.72-4.14,5.11,0,0-4.27,4.13-5.8,9.94,0,0-1.25,3.8-1.12,7.6,0,0-5.51,2.71-8.99,7.88,0,0-3.98,5.38-5.57,15.37l.26,2.97c-17.39-29.17-49.28-48.69-85.71-48.69s-66.86,18.56-84.49,46.72l-.04-.87c-1.6-9.99-5.58-15.36-5.58-15.36-3.47-5.18-8.98-7.89-8.98-7.89.13-3.81-1.12-7.59-1.12-7.59-1.53-5.8-5.8-9.94-5.8-9.94-3.32-2.37-4.15-5.1-4.15-5.1-.66-6.12,7.46-2.48,7.46-2.48,5.13,2.28,10.41,9.24,10.41,9.24,1.36,2.19,5.37,5.18,5.37,5.18,6.79,4.6,13.35.03,13.35.03-5.27-.77-8.99-4.62-8.99-4.62-4.06-3.2-6.52-7.68-6.52-7.68,5.23-.07,11.17,6.24,11.17,6.24,3.51,5.7,9.61,5.56,9.61,5.56,5.75-.03,5.43-4.02,5.43-4.02-3.61,2.92-8.65.54-8.65.54-3.11-1.2-5.46-4.51-5.46-4.51-2.36-2.71-6.07-4.65-6.07-4.65-4.81-2.75-7.75-1.26-7.75-1.26-1-1.72-5.73-5.98-5.73-5.98,5.46,0,12.65,3.99,12.65,3.99,6.67,2.72,12.23,8.83,12.23,8.83l9.37-5.34-4.87-1.59-.56-5.76-.73-.03c-1.27-6.73-6.17-9.05-6.17-9.05-4.6-2.56-5.77-5.67-5.77-5.67-1.99-5.64-5.43-8.88-5.43-8.88-4.64-4.76-10.57-5.6-10.57-5.6-7.56-2.06-8.78-7.45-8.78-7.45h-3.33c.1,2.78,2.99,5.9,2.99,5.9,4.2,4.17,9.12,4.27,9.12,4.27,3.84.88,5.26,2.21,5.26,2.21,6.37,4.31,7.09,9.35,7.09,9.35,1.2,4.62,6.21,6.63,6.21,6.63,2.75,1.42,3.93,3.64,3.93,3.64l-2.25,1.26c-5.54-2.68-17.57-4.27-17.57-4.27l2.52-8.42c-3.31.41-4.77.21-4.77.21,1-2.06,1.82-6.01,1.82-6.01-4.44,2.01-8.51-.4-8.51-.4-2.62-1.82-6.69-1.49-6.69-1.49-3.15-4.7-5.33-6.92-5.33-6.92l-.95,1.28c-4.2-.98-5.72-4.96-5.72-4.96-2.57-9.01-6.16-2.29-6.16-2.29-2.11-2.33-4.51-3.63-4.51-3.63-7.66-3.34-4.84,4.31-4.84,4.31,2.12,5.65,10.13,6.88,10.13,6.88,4.48.34,5.71,3.77,5.71,3.77l-8.28-3.52-.7,4.58c-5.8-1.68-7.39-4.74-7.39-4.74.09-.61-.35-2.56-.35-2.56-1.15-5.56-4.06-5.21-4.06-5.21-3.42,0-3.33,6.19-3.33,6.19-1.06.17-1.77-1.07-1.77-1.07-.26-1.85-2.82-4.94-2.82-4.94-4.3-4.83-6.77-2.53-6.77-2.53-2.48,1.39-.09,6.52-.09,6.52,4.21,9.14,14.52,9.85,14.52,9.85Zm274.59.62c4.7-2.33,5.98-4.1,5.98-4.1,1.72-1.15,2.12-4.84,2.12-4.84.08-2.73,1.58-2.65,1.58-2.65,1.37-.08,1.37,1.86,1.37,1.86.4,1.98,0,3.9,0,3.9,4.83-.13,6.6-3.42,6.6-3.42.79-2.64,2.11-3.84,2.11-3.84,1.86-1.76,2.78-.92,2.78-.92,1.16.62.21,2.96.21,2.96-.65,2.2-4.31,5.05-4.31,5.05-2.7,2.52-9.51,3.31-9.51,3.31-5.36.75-7.39,2.47-7.39,2.47-4.33,2.85-6.61,7.74-6.61,7.74l-3.07.05c2.15-3.67,8.14-7.57,8.14-7.57Zm-8.75-11.44c.26-3.36,1.58-3.01,1.58-3.01,1.46-.09,1.63,3.18,1.63,3.18,1.53-.22,2.67-1.94,2.67-1.94.23-.4,3.18-2.64,3.18-2.64,4.21-1.65,2.08,2.12,2.08,2.12-3.18,4.02-7.5,4.37-7.5,4.37-2.63.3-5.5,2.38-5.5,2.38-3.14,1.91-3.32,5.01-3.32,5.01l-1.21-2.87c6.03-3.29,6.38-6.6,6.38-6.6Zm-49.76,30.07l-.48,4.52-1.29-.35s.54-3.11,1.77-4.17Zm16.81,47.75c5.23-9.84,11.24-10.9,11.24-10.9.79-14.22,8.53-19.73,8.53-19.73,5.96-5.75,1.99-9.68,1.99-9.68-4.57-4.06-13.3,1.24-13.3,1.24-4.53,2.37-9.12,9.02-9.12,9.02-4.04,5.49-7.26,4.91-7.26,4.91,4.49-2.53,9.77-10.47,9.77-10.47,4.2-6.39,11.77-10.33,11.77-10.33-7.66-4.06-21.41,3.47-21.41,3.47-6.78,2.96-11.18,7.7-11.18,7.7l-2.8-1.7.62-.57,1.01.88,1.56-1.1c-.39-1.72-.08-3.66-.08-3.66l2.91.31,1.01-4.75.8.29c5.62-2.14,8.76-2.81,8.76-2.81,1.89-.64,12.33-1.68,12.33-1.68l-2.52-8.22,4.53.17c-1.26-3.35-1.3-5.3-1.3-5.3,2.89.27,6.16-1.3,6.16-1.3,4.61-1.99,6.37-1.01,6.37-1.01,2.83-4.33,3.93-4.81,3.93-4.81l2.43,4.98,10.15-4.24.26,3.71c-2.04,1.54-9.55,10.26-9.55,10.26l-2.27-1.72,2.84-1.86-4.03-2.47,2.2-3.2-4.41-1.41-1.23,1.68,1.63,1.03-1.9,2.48,2.47,1.8-2.87,1.81,6.31,3.73-.22.58,1.75,1.36.22-.3c3.44-6.32,10.13-4.39,10.13-4.39.3,4.26-2.85,5.98-2.85,5.98-3.31,2.03-6.09-.09-6.09-.09l-.22-.22-3.61,2.25.13,1.46-2.19-1-1.72,1.52-.79-2.25-4.34.79.13,1.98,2.22-.33,1.79,4.41,3.45-3.24,5.01,2.25-.87-4.88,1.13-.79c8.12,3.28,10.7-4.04,10.7-4.04.59-4.81,1.72-6.01,1.72-6.01-2.12.14-2.18-.07-2.18-.07.27-2.11,1.58-3.17,1.58-3.17l4.88-.41-2.16,6.3,5.46-.93c-.72,1.53-6.14,8.65-6.14,8.65l4.48-.26c-7.19,16.17-23.37,19.81-23.37,19.81-10.63,6.66-10.5,21.98-10.5,21.98-7.25,5.63-8.51,8.98-8.51,8.98-4.84,5.62-7,15.73-7,15.73-.26,1.55-.64,1.21-.87.81l-.27-.76c-2.18-9.45,2.77-18.28,2.77-18.28Zm-162.22-43.45l-1.28.36-.48-4.53c1.24,1.06,1.76,4.17,1.76,4.17Zm-49.67-29.79s-2.86-2.07-5.48-2.38c0,0-4.33-.35-7.51-4.37,0,0-2.14-3.77,2.07-2.12,0,0,2.96,2.25,3.18,2.64,0,0,1.15,1.72,2.7,1.94,0,0,.18-3.27,1.61-3.18,0,0,1.32-.35,1.58,3,0,0,.35,3.31,6.4,6.6l-1.25,2.86s-.17-3.09-3.31-5.01Zm-5.8,4.09l10.18,4.23,2.4-4.98s1.11.49,3.92,4.81c0,0,1.77-.97,6.38,1.01,0,0,3.27,1.57,6.18,1.3,0,0-.05,1.94-1.33,5.3l4.53-.17-2.5,8.23s10.43,1.02,12.32,1.68c0,0,3.13.66,8.76,2.8l.79-.29,1.02,4.74,2.91-.3s.3,1.93-.09,3.66l1.59,1.1,1-.88.61.58-2.81,1.69s-4.41-4.74-11.19-7.7c0,0-13.74-7.52-21.4-3.46,0,0,7.57,3.95,11.76,10.33,0,0,5.27,7.94,9.78,10.47,0,0-3.22.58-7.26-4.92,0,0-4.59-6.64-9.11-9.02,0,0-8.72-5.3-13.31-1.24,0,0-3.96,3.93,1.99,9.69,0,0,7.74,5.51,8.53,19.73,0,0,6,1.06,11.23,10.9,0,0,5.08,9.05,2.7,18.62,0,0-.64,1.9-1.04-.4,0,0-2.19-10.11-7.02-15.74,0,0-1.26-3.35-8.52-8.98,0,0,.13-15.31-10.51-21.97,0,0-16.17-3.64-23.36-19.82l4.47.26s-5.4-7.13-6.13-8.65l5.47.93-2.16-6.29,4.87.4s1.33,1.06,1.6,3.18c0,0-.07.2-2.19.07,0,0,1.13,1.19,1.72,6,0,0,2.58,7.33,10.7,4.04l1.13.79-.86,4.88,5.01-2.25,3.45,3.24,1.78-4.41,2.25.33.13-1.99-4.37-.79-.79,2.25-1.72-1.53-2.18,1,.13-1.46-3.62-2.25-.22.21s-2.78,2.12-6.07.09c0,0-3.17-1.72-2.87-5.97,0,0,6.68-1.95,10.13,4.38l.22.31,1.76-1.37-.22-.57,6.29-3.73-2.88-1.82,2.47-1.8-1.9-2.47,1.64-1.04-1.23-1.68-4.39,1.41,2.18,3.2-4.03,2.47,2.85,1.85-2.27,1.72s-7.49-8.72-9.56-10.26l.27-3.7Zm-27.34-11.11s.92-.84,2.75.93c0,0,1.32,1.19,2.11,3.84,0,0,1.77,3.29,6.6,3.42,0,0-.4-1.92,0-3.9,0,0,0-1.94,1.37-1.85,0,0,1.5-.09,1.58,2.64,0,0,.4,3.68,2.12,4.83,0,0,1.28,1.77,5.98,4.1,0,0,6,3.91,8.14,7.58l-3.06-.05s-2.31-4.9-6.62-7.74c0,0-2-1.72-7.39-2.48,0,0-6.82-.79-9.51-3.31,0,0-3.63-2.84-4.3-5.05,0,0-.98-2.34.22-2.96Z"/>
        <path class="cls-1" d="m96.61,106.41c9.9,4.23,9.64-3.81,9.64-3.81.4-8.85-10.15-14.68-10.15-14.68,3.02-3.94-5.44-13.19-5.44-13.19-10.04-9.77-15.04-9.11-15.04-9.11,11.23,9.24,11.61,26.67,11.61,26.67-.64,9.51,9.38,14.13,9.38,14.13Zm-9.89-30.49c8.45,6.2,7.13,15.05,7.13,15.05,5.93.79,8.59,6.59,8.59,6.59,2.91,12.03-7.27,4.51-7.27,4.51-5.43-2.91-5.43-10.04-5.43-10.04,1.06-5.54-3.03-16.11-3.03-16.11Z"/>
        <path class="cls-1" d="m130.3,142.35c1.46,3.15,1.72,17.7,1.72,17.7l5.94-7.93-2.52-10.96-5.14,1.19Zm3.95,10.54l-1.17-8.59.78-.13,1.98,7.01-1.59,1.7Z"/>
        <path class="cls-1" d="m111.41,225.55c-4.9,1.32-6.73-.27-6.73-.27,1.06,5.72,9.12,7.68,9.12,7.68,1.19-4.89-2.39-7.41-2.39-7.41Zm.54,4.91s-2.26-.92-3.32-2.39c0,0,.93.28,2.52-.41,0,0,1.33,1.48.8,2.79Z"/>
        <path class="cls-1" d="m123.71,224.76c-.27.52-7.29,6.36-7.29,6.36l1.6,5.05c.92,0,17.03-2.28,17.03-2.28-2.09-4.62-11.33-9.13-11.33-9.13Zm-3.18,8.87l-1.19-1.85,4.37-4.12s.26-.4,5.8,3.72c0,0-7.39.93-8.98,2.24Z"/>
        <path class="cls-1" d="m24.9,254.72c-4.21,1.19-9.24-.79-9.24-.79,2.25,7.81,9.91,9.79,9.91,9.79,3.31-5.4-.66-8.99-.66-8.99Zm-.52,5.7s-2.25-.4-3.29-2.79l2.63-.13s.92.94.66,2.92Z"/>
        <path class="cls-1" d="m38.25,261.47c-4.51,3.57-9.12,3.97-9.12,3.97.66.28,2.23,6.48,2.23,6.48,9,3.98,21.14,1.87,21.14,1.87-5.8-7.93-14.25-12.32-14.25-12.32Zm-4.37,7.81l-.79-2.11s4.76-1.73,5.02-2.27c0,0,3.42,1.61,8.99,7.15,0,0-7.53.4-13.22-2.77Z"/>
        <path class="cls-1" d="m221.51,75.34c41.17,0,74.53,33.36,74.53,74.53s-33.36,74.53-74.53,74.53-74.53-33.34-74.53-74.53,33.38-74.53,74.53-74.53Zm-144.74,1.28s5.36,5.36,4.91,16.9c0,0-.53,7.13,6.6,12.58,0,0,6.36,6.18,13.74,5.47,0,0,8.63,19.9,31.95,6.68,0,0,2.21-1.68,3.09.97,0,0,3,7.04,3,14.19v1.92l-3.27,4.85,2.04,9.42s5.01-8.01,5.97-8.8l.02-.05c-.35,2.98-.54,6.02-.54,9.11,0,42.66,34.58,77.2,77.21,77.2s77.21-34.54,77.21-77.2c0-3.69-.27-7.31-.76-10.86l.4.68c-.02.91-.02,1.55.11.17l.5.81c.97.8,5.97,8.81,5.97,8.81l2.03-9.42-3.27-4.86v-1.92c0-7.15,3-14.19,3-14.19.88-2.65,3.09-.97,3.09-.97,23.32,13.22,31.95-6.68,31.95-6.68,7.39.7,13.75-5.47,13.75-5.47,7.12-5.45,6.6-12.59,6.6-12.59-.44-11.54,4.94-16.89,4.94-16.89,5.1-4.95,7.75-9.24,7.75-9.24,8.45-12.07,5.63-15.6,5.63-15.6-6.95,8-18.14,9.77-18.14,9.77-20.97,6.62-18.66,23.34-18.66,23.34-5.54,4.13-10.22,10.75-10.22,10.75-6.68,9.34-2.56,13.55-2.56,13.55,3,2.39-.78,2.03-.78,2.03-5.73-2.21-1.32-12.33-1.32-12.33,2.45-7.3,13.46-15.48,13.46-15.48-1.33-11.82,5.03-16.56,5.03-16.56,9.25-8.27,16.29-8.53,16.29-8.53,15.4-2.74,16.81-17.81,16.81-17.81-6.78,5.29-7.12,4.15-7.12,4.15,4.12-16.29-3.1-22.64-3.1-22.64-1.41,15.25-10.04,24.05-10.04,24.05-12.05,14.25-21.38,15.14-21.38,15.14-5.74,6.8-7.15,13.74-7.15,13.74-1.06,7.57-4.66,10.12-4.66,10.12-10.48,8.89-12.34,20-12.34,20-.7,4.21-4.2,4.13-4.2,4.13-6.09.26-8.99-1.5-8.99-1.5-6.09,3.09-7.23,8.98-7.23,8.98,1.14,4.24,1.32,8.55,1.32,8.55l.27,3.38c-9.29-32.21-38.99-55.79-74.19-55.79s-62.85,21.99-73.16,52.49c.02-.44.24-4.49,1.32-8.49,0,0-1.15-5.89-7.21-8.98,0,0-2.92,1.76-8.98,1.5,0,0-3.53.09-4.24-4.12,0,0-1.85-11.1-12.34-19.99,0,0-3.59-2.56-4.65-10.13,0,0-1.41-6.95-7.13-13.74,0,0-9.34-.88-21.4-15.13,0,0-8.63-8.81-10.05-24.05,0,0-7.21,6.35-3.09,22.63,0,0-.36,1.14-7.12-4.14,0,0,1.41,15.07,16.81,17.8,0,0,7.04.27,16.29,8.55,0,0,6.35,4.74,5.02,16.54,0,0,11.01,8.18,13.48,15.48,0,0,4.4,10.13-1.32,12.34,0,0-3.8.35-.8-2.03,0,0,4.13-4.21-2.56-13.54,0,0-4.66-6.62-10.22-10.75,0,0,2.31-16.72-18.66-23.34,0,0-11.19-1.77-18.14-9.78,0,0-2.82,3.53,5.63,15.6,0,0,2.65,4.3,7.77,9.24Zm225.18,34.11c6.17,1.94,8.81.71,8.81.71,5.62-.71,5.89-3.71,5.89-3.71.18-.88,1.15-3.33,1.15-3.33,3.16-11.62,12.49-18.14,12.49-18.14,2.82-1.68,3.61-7.5,3.61-7.5.8-7.83,7.31-15.57,7.31-15.57,8.71-2.48,14.98-8.55,14.98-8.55,11.34-10.12,14.52-20.61,14.52-20.61,2.03,3-1.51,15.08-1.51,15.08l4.77-1.51c-3.35,7.66-10.57,8.02-10.57,8.02-8.36.7-15.4,6.42-15.4,6.42-12.68,10.66-8.29,19.73-8.29,19.73-16.46,11.89-15.94,23.6-15.94,23.6-.61,8.72,6.52,8.37,6.52,8.37,3.7.09,4.32-2.03,4.32-2.03,1.59-1.86-.35-1.86-.35-1.86-3.62-1.85-1.15-8.28-1.15-8.28,3.35-8.89,13.4-15.92,13.4-15.92-1.15-10.93,8.62-17.28,8.62-17.28,6.51-4.84,10.04-4.92,10.04-4.92,5.54-.88,9.6-3.53,9.6-3.53-.44,4.77-9.77,14.54-9.77,14.54-5.74,4.91-5.74,14.52-5.74,14.52.26,5.02-.79,7.83-.79,7.83-6.51,14.27-19.27,12.25-19.27,12.25-7.58,17.87-28.09,7.12-28.09,7.12-4.67-3.34-6,.26-6,.26-5.09,8.46-4.21,19.11-4.21,19.11l3.6,5.12-.88,1.94-4.88-6.36c.05-.6.09-1.28.14-2.03.79-11.86-2.03-17.7-2.03-17.7.87-2,5.11-5.8,5.11-5.8ZM78.6,63.58s3.53.09,10.04,4.92c0,0,9.78,6.35,8.63,17.28,0,0,10.04,7.03,13.39,15.93,0,0,2.47,6.41-1.15,8.28,0,0-1.94,0-.35,1.85,0,0,.62,2.12,4.33,2.03,0,0,7.13.35,6.51-8.36,0,0,.53-11.72-15.93-23.61,0,0,4.39-9.07-8.28-19.72,0,0-7.06-5.72-15.42-6.42,0,0-7.21-.35-10.57-8.02l4.77,1.5s-3.53-12.07-1.5-15.07c0,0,3.18,10.48,14.52,20.6,0,0,6.27,6.07,14.98,8.54,0,0,6.51,7.74,7.31,15.58,0,0,.79,5.83,3.61,7.5,0,0,9.34,6.51,12.49,18.13,0,0,.97,2.45,1.15,3.34,0,0,.49,2.95,5.91,3.71,0,0,3.11.75,8.81-.71,0,0,4.21,3.8,5.09,5.8,0,0-2.82,5.83-2.03,17.7.05.75.1,1.42.14,2.01l-4.88,6.37-.89-1.94,3.62-5.12s.86-10.65-4.23-19.11c0,0-.93-3.42-5.98-.27,0,0-20.52,10.75-28.09-7.13,0,0-12.78,2.03-19.29-12.24,0,0-1.06-2.82-.79-7.84,0,0,0-9.61-5.74-14.52,0,0-9.34-9.77-9.77-14.54,0,0,4.06,2.64,9.6,3.53Z"/>
      </g>
    </g>
  </g>
</svg>