<svg width="24" height="24" viewBox="0 0 24 24" fill="none" xmlns="http://www.w3.org/2000/svg">
<circle cx="12" cy="12" r="12" fill="url(#paint0_linear_7193_20549)"/>
<path d="M4.82234 14.8984L7.82234 12.0039C8.14656 11.6797 8.39656 11.4141 8.57234 11.207C8.75203 10.9961 8.88875 10.7891 8.9825 10.5859C9.07625 10.3789 9.12313 10.1602 9.12313 9.92969C9.12313 9.67188 9.06063 9.44531 8.93563 9.25C8.81063 9.05469 8.6368 8.9043 8.41414 8.79883C8.19539 8.69336 7.94734 8.64062 7.67 8.64062C7.38094 8.64062 7.12703 8.69922 6.90828 8.81641C6.69344 8.92969 6.52742 9.09375 6.41023 9.30859C6.29305 9.51953 6.23641 9.76562 6.24031 10.0469H4.78719C4.78328 9.51953 4.90438 9.05664 5.15047 8.6582C5.39656 8.25586 5.73836 7.94531 6.17586 7.72656C6.61727 7.50781 7.11922 7.39844 7.68172 7.39844C8.25203 7.39844 8.75594 7.50391 9.19344 7.71484C9.63484 7.92578 9.97664 8.21875 10.2188 8.59375C10.4649 8.96484 10.588 9.38672 10.588 9.85938C10.588 10.1875 10.5235 10.5039 10.3946 10.8086C10.2696 11.1133 10.0548 11.4512 9.75008 11.8223C9.44539 12.1895 9.01375 12.6367 8.45516 13.1641L6.94344 14.6641V14.7227H10.7169V16H4.82234V14.8984ZM19.7089 17.043H18.3964V6.44922H19.7089V17.043ZM16.5448 7.57422C16.5448 9.25781 16.164 10.7363 15.4023 12.0098C14.6405 13.2793 13.3769 14.332 11.6112 15.168L10.9316 14.125C12.2948 13.4766 13.3202 12.7012 14.0077 11.7988C14.6991 10.8926 15.1034 9.82812 15.2206 8.60547H11.4706V7.57422H16.5448Z" fill="white"/>
<defs>
<linearGradient id="paint0_linear_7193_20549" x1="12" y1="-1.07689e-08" x2="12" y2="28.2085" gradientUnits="userSpaceOnUse">
<stop stop-color="#FF8A00"/>
<stop offset="0.225869" stop-color="#FF5C00"/>
<stop offset="0.6" stop-color="#FF7D33"/>
<stop offset="1" stop-color="#FF6C1A"/>
</linearGradient>
</defs>
</svg>
