<?xml version="1.0" encoding="UTF-8"?>
<svg id="Layer_2" data-name="Layer 2" xmlns="http://www.w3.org/2000/svg" viewBox="0 0 105.88 106.88">
  <defs>
    <style>
      .cls-1 {
        fill: #002e66;
      }

      .cls-1, .cls-2 {
        stroke-width: 0px;
      }

      .cls-2 {
        fill: #008fd5;
      }
    </style>
  </defs>
  <g id="Layer_1-2" data-name="Layer 1">
    <g>
      <path class="cls-1" d="m86.56,85.42l1.61,1.58c.43.42.78.79,1.03,1.09.26.31.43.62.52.95l.64-.65c-.08-.3-.23-.63-.46-.98-.23-.35-.54-.72-.94-1.11,0,0-1.65-1.62-1.66-1.63-.18-.16-.37-.24-.58-.22-.22.01-.42.11-.6.29l-3.58,3.64.56.55,3.45-3.51Z"/>
      <polygon class="cls-1" points="89.68 90.08 87.24 87.69 86.51 88.43 88.95 90.83 88.95 90.83 88.31 91.47 85.88 89.08 85.14 89.82 87.58 92.21 86.56 93.26 86.56 93.26 87.1 93.79 87.1 93.79 87.1 93.79 92.24 88.56 92.24 88.56 91.7 88.02 89.68 90.08"/>
      <path class="cls-1" d="m54.9,98.84v2.2h-1.09v-2.2h-1.02v4.42c-.12.06-.28.11-.49.16-.21.05-.43.07-.68.07h-1.65v-3.67h1.89v-.72h-2.95v4.28c0,.27.09.48.25.63.17.15.38.22.64.22h1.77c.26,0,.5-.03.7-.09.17-.05.36-.14.52-.25v2.98h1.02v-5.05h1.09v5.05h1.02v-8.04h-1.02Z"/>
      <path class="cls-1" d="m36.88,95.84l1.06.49s-3.37,7.26-3.36,7.27l-1.05-.48s3.36-7.27,3.35-7.28Zm-2.8-.22l-.34.73c-.32.69-.43,1.37-.28,2.08.15.71.45,1.22.88,1.53l-.7.29c-.3-.27-.66-.58-.91-1.12-.25-.54-.32-1.07-.3-1.44-.27.26-.72.55-1.28.7-.57.15-1.04.09-1.45.03l-.23-.72c.53.13,1.11.03,1.74-.32.64-.35,1.09-.88,1.4-1.56l.34-.73s-1.41-.65-1.42-.65l.3-.66,3.95,1.83-.3.65s-1.41-.66-1.41-.66Z"/>
      <rect class="cls-1" x="74.32" y="99.58" width="0" height=".02"/>
      <rect class="cls-1" x="74.17" y="99.62" width=".14" transform="translate(-30.91 33.45) rotate(-21.12)"/>
      <rect class="cls-1" x="74.25" y="99.54" height=".14"/>
      <path class="cls-1" d="m75.49,100.05c-.1-.25-.25-.42-.46-.5-.21-.08-.43-.07-.67.02l-4.66,1.77.28.74,4.47-1.69.84,2.21,1.01-.38-.82-2.16Z"/>
      <polygon class="cls-1" points="73.95 95.99 73.32 94.33 72.31 94.71 73.98 99.12 74.99 98.73 74.21 96.67 74.21 96.67 75.41 96.21 75.15 95.53 73.95 95.99"/>
      <rect class="cls-1" x="74.32" y="99.58" width="0" height=".02"/>
      <rect class="cls-1" x="74.17" y="99.62" width=".14" transform="translate(-30.91 33.45) rotate(-21.12)"/>
      <rect class="cls-1" x="74.25" y="99.54" height=".14"/>
      <path class="cls-1" d="m71.42,96.36l.43-.16-.25-.67-1.7.64-.27-.71-1.04.4.12.33.14.38-1.69.64.25.67.43-.16.67-.25c-.18.25-.3.52-.35.81-.05.29-.02.58.08.86.18.48.52.81,1.02,1,.5.2,1.01.19,1.54,0,.53-.2.91-.54,1.16-1.02.24-.48.27-.95.09-1.43-.1-.28-.27-.51-.51-.7-.22-.17-.47-.29-.74-.36h0s-.03-.01-.05-.02h0l.65-.25s.01,0,.01,0Zm-.34,2.53c-.11.28-.28.46-.54.56-.25.09-.5.07-.76-.06-.26-.13-.45-.35-.55-.63-.11-.28-.11-.56,0-.84.11-.28.28-.46.53-.56.25-.09.51-.07.77.06.26.14.44.35.55.63.11.28.11.56,0,.83Z"/>
      <path class="cls-1" d="m23.63,88.26l-.83-.84s-.6.6-.6.6l-.94-.95.45-.45-2.81-2.85s-2.11,2.07-2.11,2.07c-.19.18-.28.38-.28.59,0,.21.1.41.29.6l2.2,2.25.52-.52.94.96-.82.8.82.83s3.13-3.09,3.15-3.08Zm-4.92-.33l-1.17-1.19,1.68-1.65,1.17,1.19-1.68,1.65Zm2.33,1.23l-.94-.96.61-.6.94.96-.61.59Z"/>
      <path class="cls-1" d="m19.43,91.26c-.05-.57-.29-1.07-.72-1.52-.43-.44-.93-.69-1.5-.74-.57-.06-1.04.1-1.41.46-.37.37-.53.84-.49,1.41.05.57.29,1.07.72,1.51.44.44.94.69,1.5.74.57.05,1.04-.1,1.41-.47.37-.36.54-.83.49-1.4Zm-2.15.92c-.31.03-.57-.06-.77-.27-.2-.2-.28-.46-.26-.77.03-.31.16-.58.39-.81.23-.23.51-.36.82-.38.32-.03.58.06.78.26.2.21.29.47.25.78-.03.31-.16.59-.4.81-.23.23-.5.36-.81.38Z"/>
      <path class="cls-2" d="m45.59,29.4c.38-.09,2.91-3.3,2.08-6.71-.91-3.74-5.04-5.44-5.04-5.44,0,0-2.87,3.49-1.89,7.48.83,3.41,4.35,4.79,4.85,4.67Z"/>
      <path class="cls-2" d="m66.96,23.12c-.32-.22-4.4.08-6.36,2.99-2.14,3.19-.61,7.39-.61,7.39,0,0,4.51-.25,6.8-3.65,1.95-2.91.6-6.45.17-6.73Z"/>
      <path class="cls-2" d="m29.3,52.46c.17-.35-.65-4.36-3.79-5.92-3.44-1.71-7.41.35-7.41.35,0,0,.82,4.44,4.5,6.27,3.14,1.56,6.47-.24,6.7-.7Z"/>
      <path class="cls-2" d="m28.34,74.52c.37.11,4.16-1.44,5.12-4.81,1.05-3.7-1.7-7.22-1.7-7.22,0,0-4.22,1.63-5.34,5.57-.96,3.37,1.42,6.32,1.92,6.45Z"/>
      <path class="cls-2" d="m75.35,53.24c0,.38,2.61,3.54,6.12,3.45,3.85-.1,6.38-3.78,6.38-3.78,0,0-2.81-3.54-6.91-3.43-3.5.1-5.6,3.25-5.59,3.76Z"/>
      <path class="cls-2" d="m70.32,62.68c-.35.17-2.16,3.84-.64,7,1.67,3.47,6.06,4.27,6.06,4.27,0,0,2.08-4.01.3-7.71-1.52-3.16-5.25-3.78-5.72-3.56Z"/>
      <path class="cls-2" d="m49.01,47.61c-.29-.25-4.38-.39-6.64,2.29-2.48,2.95-1.4,7.28-1.4,7.28,0,0,4.51.25,7.15-2.89,2.25-2.68,1.29-6.35.89-6.68Z"/>
      <path class="cls-1" d="m27.28,34c-.37.1-2.82,3.38-1.9,6.76,1.01,3.71,5.19,5.3,5.19,5.3,0,0,2.77-3.57,1.7-7.52-.92-3.38-4.48-4.67-4.98-4.54Z"/>
      <path class="cls-1" d="m86.05,66.09c.2-.33-.22-4.4-3.19-6.26-3.26-2.04-7.41-.37-7.41-.37,0,0,.39,4.5,3.87,6.67,2.97,1.86,6.46.39,6.73-.05Z"/>
      <path class="cls-1" d="m53.9,42.22c.05.39,2.96,3.26,6.44,2.81,3.81-.49,5.96-4.41,5.96-4.41,0,0-3.15-3.23-7.22-2.71-3.48.45-5.24,3.8-5.17,4.31Z"/>
      <path class="cls-1" d="m78.12,48.21c.37.11,4.2-1.35,5.22-4.7,1.13-3.68-1.55-7.25-1.55-7.25,0,0-4.25,1.53-5.45,5.46-1.03,3.35,1.29,6.34,1.78,6.49Z"/>
      <path class="cls-1" d="m28.9,55.96c-.27-.28-4.32-.84-6.84,1.6-2.76,2.67-2.14,7.1-2.14,7.1,0,0,4.46.71,7.41-2.14,2.52-2.44,1.93-6.18,1.57-6.55Z"/>
      <path class="cls-1" d="m37.92,64.42c-.38.05-3.22,3-2.73,6.47.54,3.81,4.49,5.9,4.49,5.9,0,0,3.19-3.19,2.61-7.25-.49-3.47-3.86-5.19-4.38-5.12Z"/>
      <path class="cls-1" d="m35.8,57.19c.38-.01,3.54-2.62,3.45-6.12-.1-3.85-3.78-6.38-3.78-6.38,0,0-3.54,2.81-3.43,6.91.09,3.51,3.24,5.6,3.76,5.59Z"/>
      <path class="cls-1" d="m52.07,41.53c.38-.07,3.08-3.15,2.42-6.59-.72-3.78-4.76-5.69-4.76-5.69,0,0-3.04,3.34-2.27,7.37.65,3.44,4.1,5,4.61,4.91Z"/>
      <path class="cls-1" d="m48.21,42.35c.09-.38-1.63-4.09-5.04-4.89-3.74-.88-7.13,2.04-7.13,2.04,0,0,1.82,4.13,5.81,5.07,3.41.8,6.24-1.72,6.36-2.22Z"/>
      <path class="cls-1" d="m42.78,34.53c.18-.34-.58-4.37-3.69-5.98-3.41-1.77-7.41.22-7.41.22,0,0,.75,4.46,4.39,6.35,3.11,1.61,6.47-.13,6.71-.59Z"/>
      <path class="cls-1" d="m64.92,36.54c.13.36,3.6,2.53,6.9,1.33,3.61-1.31,4.85-5.61,4.85-5.61,0,0-3.78-2.47-7.64-1.06-3.3,1.2-4.28,4.85-4.11,5.34Z"/>
      <path class="cls-1" d="m56.79,47.44c.25-.3,4.27-1.1,6.93,1.18,2.92,2.5,2.56,6.96,2.56,6.96,0,0-4.41.97-7.52-1.7-2.66-2.28-2.3-6.05-1.96-6.44Z"/>
      <path class="cls-1" d="m70.4,53.43c.38.07,4.02-1.8,4.68-5.24.72-3.78-2.33-7.04-2.33-7.04,0,0-4.06,1.99-4.83,6.02-.66,3.44,1.98,6.16,2.48,6.26Z"/>
      <path class="cls-1" d="m62.05,76.5c.38.07,4.02-1.8,4.67-5.24.72-3.78-2.33-7.04-2.33-7.04,0,0-4.06,1.99-4.83,6.02-.66,3.44,1.98,6.16,2.49,6.26Z"/>
      <path class="cls-1" d="m54.23,29.94c.39.03,3.8-2.23,4.07-5.73.3-3.84-3.09-6.74-3.09-6.74,0,0-3.81,2.42-4.13,6.51-.27,3.49,2.64,5.91,3.16,5.95Z"/>
      <path class="cls-1" d="m73.06,57.27c-.09-.7-.59-1.11-1.15-.96-6.4,2.33-10.35,2.75-16.62,3.32l-1.05-.24c-.53-.03-.72-.47-.79-.75l-.29-12.83c0-1.12-.45-2.04-1.01-2.04s-1.02.91-1.02,2.04l-.6,12.73c-.57,1.79-2.13,1.63-2.13,1.63v.04c-5.62.12-8.46.2-14.3-1.36-.81-.2-1.44-.37-1.45.22h0c.01.6.67,1.49,1.51,1.7,6.68,2.72,9.93,2.21,16.08,3.69l-1.4,22.28c-.12,1.53-1.02,1.87-1.02,1.87h7.86c-.42-.2-.81-1.15-1-1.67l-1.1-22.65c7.08-1.52,11.49-2.84,18.63-5.58.56-.14.92-.74.85-1.44Z"/>
      <path class="cls-1" d="m2.48,58.71s-.21,0-.46,0c.08-.03.23-.08.23-.08l.26-.09,4.82-1.76-.07-.89-5.29-1.08s-.08-.01-.19-.03c.08-.01.25-.03.25-.03,0,0,5.08-.81,5.08-.81l-.08-1.08-.14.02-6.88,1.14.11,1.42,4.72.95s.28.04.55.08c-.3.09-.61.19-.61.19l-4.44,1.62.11,1.41,7.11.07-.08-1.05H2.48Z"/>
      <path class="cls-1" d="m1.09,42.16l-.03.22-.15,1.01,2.45,1.73s.27.18.47.32c-.24.07-.54.15-.54.15l-2.85.92-.19,1.29s4.52-1.6,4.58-1.62c.06.01,2.77.42,2.77.42l.17-1.1s-2.66-.4-2.72-.41c-.05-.04-3.94-2.93-3.94-2.93Z"/>
      <path class="cls-1" d="m7.97,32.7c-1.05-.4-1.9-.51-2.66-.33-.63.15-1.47.56-1.9,1.69-.63,1.64.29,3.16,2.38,3.96,1.11.42,2.12.49,2.91.2.74-.27,1.29-.82,1.58-1.58.26-.69.26-1.27,0-1.95-.36-.92-1.05-1.51-2.31-1.99Zm1.49,3.58c-.19.5-.67.94-1.1,1.01-.5.08-1.39-.08-2.31-.43-.77-.29-1.26-.59-1.58-.96-.33-.38-.41-.97-.2-1.52.23-.59.7-.96,1.3-1h0c.5-.04,1.16.1,2.09.46,1.1.42,1.48.77,1.72,1.16.24.39.27.81.08,1.28Z"/>
      <path class="cls-1" d="m10.28,21.64l-.52.78,3.2,2.11s.67.4,1.18.72c-.42-.07-.86-.15-.86-.15,0,0-4.96-.54-4.96-.54l-.64.96,5.87,3.93.62-.92-3.42-2.24s-.53-.32-.98-.59c.36.05.76.1,1.09.14l4.76.51.59-.89-5.87-3.93-.07.11Z"/>
      <path class="cls-1" d="m18.66,17.03l.81.53s.82-.78.97-.93c.15.16,1.18,1.24,1.28,1.34-.09.28-.26.56-.53.82-.46.44-1.11.68-1.58.58-.5-.11-1.11-.51-1.7-1.13-.43-.45-.76-.93-.97-1.4-.38-.85,0-1.48.4-1.86.35-.34.71-.5,1.37-.61l.13-.02-.12-.87h-.12c-.72.04-1.36.32-1.91.84-.54.51-.83,1.1-.88,1.78-.09.98.32,1.93,1.25,2.9.84.88,1.64,1.31,2.52,1.37.8.05,1.56-.25,2.21-.87.52-.5.93-1.17,1.07-1.77v-.07s-2.32-2.45-2.32-2.45l-1.88,1.79Z"/>
      <path class="cls-1" d="m27.72,13.14l-3.17-4.85-.11.07-.79.52,3.18,4.86c.37.57.5.84.52,1.07.03.27-.09.62-.29.92l-.1.14.87.29.06-.07c.36-.46.55-.98.51-1.45-.02-.3-.12-.59-.28-.88l-.38-.63Z"/>
      <polygon class="cls-1" points="31.32 4.64 30.47 5.03 33.42 11.48 34.39 11.03 31.44 4.59 31.32 4.64"/>
      <path class="cls-1" d="m51.02,0h-.13s-.94.09-.94.09l.4,4.77c.05.61.02.84-.14,1.1-.16.26-.54.42-1.06.46-.7.06-1.17-.16-1.31-.63-.06-.19-.12-.58-.15-1.01l-.37-4.48-1.07.09.41,4.88c.07.78.13.93.32,1.23.41.68,1.13.97,2.22.88.84-.07,1.41-.29,1.82-.71.41-.43.5-.8.41-1.81l-.4-4.86Z"/>
      <path class="cls-1" d="m61.08,4.52s-.07.77-.13,1.37c-.12-.41-.24-.84-.24-.84l-1.68-4.69-1.15-.16-.02.13-.95,6.87,1.1.15.52-4.05s.05-.62.1-1.14c.11.35.24.73.35,1.05,0,0,1.62,4.5,1.62,4.5l1.06.15.97-7-1.06-.15-.49,3.8Z"/>
      <polygon class="cls-1" points="69.25 2.71 67.04 9.3 68.04 9.64 70.3 2.92 69.29 2.58 69.25 2.71"/>
      <path class="cls-1" d="m76.6,10.75s-.38.38-.69.68c.08-.31.18-.68.24-1.04l.87-4.62-1.02-.56-.03.18-1.3,7.18.87.48,5.55-5.03-.98-.54-3.51,3.28Z"/>
      <path class="cls-1" d="m86.27,13.09c.18.16,2.1,1.81,2.1,1.81l.73-.61-3.05-2.62-.09.1-4.5,5.24,3.11,2.67.63-.74s-2.09-1.8-2.28-1.96c.14-.17,1.29-1.51,1.44-1.68.18.15,1.77,1.52,1.77,1.52l.63-.74s-1.59-1.37-1.77-1.52c.14-.17,1.12-1.31,1.27-1.47Z"/>
      <path class="cls-1" d="m95.43,22.12c.02-.52-.2-1.03-.73-1.71l-1.05-1.37-.1.08-5.5,4.24.66.86s2.16-1.66,2.4-1.85c.04.08.1.17.1.26s-.02.21-.06.36c-.12.5-.31,1.15-.6,1.98l-.45,1.05.04.07.78,1.01.66-1.96s.15-.47.15-.47l.15-.47c.05-.19.12-.47.16-.76.32.35.7.59,1.13.65.51.07,1.03-.09,1.5-.46.65-.5.77-1.16.77-1.51Zm-2.37.94c-.31-.04-.59-.25-.95-.72,0,0-.23-.3-.36-.47.18-.14,1.63-1.25,1.81-1.39.11.15.4.52.4.52.2.26.33.49.39.72.02.07.03.15.03.23,0,.29-.15.6-.4.79-.33.26-.66.37-.92.32Z"/>
      <path class="cls-1" d="m98.16,33.41c.18-.39.21-.79.11-1.45l-.11-.82c-.13-.89.08-1.19.44-1.36.25-.12.49-.14.71-.06.28.1.53.36.71.74.24.5.28.91.18,1.67l-.02.13.94.1.02-.12c.12-.81.02-1.53-.31-2.22-.6-1.26-1.77-1.75-2.9-1.21-.42.2-.73.53-.89.94-.15.4-.13.78-.03,1.42l.11.71c.12.79-.05,1.27-.55,1.51-.33.16-.65.15-.97-.02-.3-.15-.47-.35-.68-.79-.29-.61-.37-1.17-.25-1.82l.03-.15-1-.07v.13c-.1.82.02,1.56.39,2.31.28.59.6.96,1.09,1.26.67.39,1.4.44,2.02.15.42-.2.78-.57.96-.99Z"/>
      <polygon class="cls-1" points="103.85 38.38 103.73 38.42 97.02 40.26 97.3 41.28 104.13 39.41 103.85 38.38"/>
      <path class="cls-1" d="m98.54,48.05l.1,1.05s5.86-.56,6.11-.58c.02.23.17,1.83.17,1.83l.95-.02-.45-4.77h-.13s-.82.09-.82.09c0,0,.15,1.6.17,1.82-.25.02-6.11.58-6.11.58Z"/>
      <path class="cls-1" d="m105.74,57.15l.14-1.3-.21.08s-4.24,1.71-4.3,1.73c-.06,0-2.79-.3-2.79-.3l-.12,1.1s2.68.29,2.74.3c.05.04,4.06,2.76,4.06,2.76l.13-1.23-2.52-1.63s-.28-.17-.48-.3c.24-.08.53-.18.53-.18l2.81-1.03Z"/>
      <path class="cls-1" d="m10.08,74.57c0,.78-.63,1.41-1.41,1.41s-1.41-.63-1.41-1.41.63-1.41,1.41-1.41,1.41.63,1.41,1.41Z"/>
      <path class="cls-1" d="m98.67,74.57c0,.78-.63,1.41-1.41,1.41s-1.41-.63-1.41-1.41.63-1.41,1.41-1.41,1.41.63,1.41,1.41Z"/>
    </g>
  </g>
</svg>