<?xml version="1.0" encoding="UTF-8"?>
<svg id="Layer_2" data-name="Layer 2" xmlns="http://www.w3.org/2000/svg" viewBox="0 0 52.39 42.83">
  <defs>
    <style>
      .cls-1 {
        fill: #8a8c8e;
      }

      .cls-1, .cls-2, .cls-3 {
        stroke-width: 0px;
      }

      .cls-2 {
        fill: #eb2d2e;
      }

      .cls-3 {
        fill: #0074b5;
      }
    </style>
  </defs>
  <g id="Layer_2-2" data-name="Layer 2">
    <path class="cls-1" d="m19.31,38.75c-1.38,0-2.51.91-2.51,2.04,0,.38.13.75.37,1.06.46.61,1.26.98,2.14.98s1.68-.37,2.14-.98c.24-.32.37-.69.37-1.06s-.13-.75-.37-1.07c-.46-.61-1.26-.97-2.14-.97h0Zm0,3.28c-.45,0-.88-.26-1.1-.66-.1-.18-.15-.37-.15-.58s.05-.4.15-.58c.22-.4.65-.66,1.1-.66s.88.26,1.1.66c.1.18.15.38.15.58,0,.67-.58,1.24-1.26,1.24h0Z"/>
    <path class="cls-1" d="m10.47,38.99c-1.48,0-2.69.86-2.69,1.92,0,.36.13.7.4,1,.49.57,1.34.92,2.29.92s1.8-.34,2.29-.92c.26-.3.39-.65.39-1s-.13-.7-.39-1c-.49-.58-1.35-.91-2.29-.91h0Zm0,3.04c-.53,0-1.04-.23-1.31-.6-.12-.16-.18-.34-.18-.52s.06-.36.18-.53c.27-.36.78-.6,1.31-.6s1.04.24,1.31.6c.12.17.18.35.18.53,0,.61-.68,1.12-1.48,1.12h0Z"/>
    <path class="cls-1" d="m18.84,37.57c.38-.41.59-.94.59-1.49s-.21-1.08-.59-1.49c-.41-.44-.97-.68-1.58-.68-1.19,0-2.17.97-2.17,2.17,0,.55.21,1.08.59,1.49.41.44.98.68,1.58.68s1.16-.24,1.58-.68h0Zm-1.58-.12c-.21,0-.42-.11-.58-.32-.21-.26-.33-.64-.33-1.05s.12-.79.33-1.05c.16-.2.37-.31.58-.31s.42.12.58.31c.21.26.33.64.33,1.05,0,.75-.41,1.37-.91,1.37h0Z"/>
    <path class="cls-1" d="m13.54,34.06v.8h-2.11c.52,1.45,2.39,1.66,2.39,1.66v.79s-2.25-.11-3.34-1.74c-1.09,1.64-3.34,1.74-3.34,1.74v-.79s1.86-.22,2.38-1.66h-2.11v-.8h6.14Z"/>
    <polygon class="cls-1" points="38.74 39.24 38.74 39.19 38.69 39.19 33.11 39.19 33.06 39.19 33.06 39.24 33.06 39.94 33.06 39.99 33.11 39.99 37.48 39.99 37.48 42.48 37.48 42.54 37.53 42.54 38.69 42.54 38.74 42.54 38.74 42.48 38.74 39.24 38.74 39.24"/>
    <path class="cls-1" d="m35.76,37.78c.38-.38.59-.86.59-1.38s-.21-1-.59-1.37c-.42-.41-.98-.63-1.59-.63-1.2,0-2.18.9-2.18,2.01,0,.52.21,1,.59,1.38.42.41.98.63,1.59.63s1.17-.23,1.59-.63h0Zm-1.59-.11c-.23,0-.46-.1-.64-.29-.23-.24-.36-.59-.36-.96s.13-.73.36-.96c.18-.19.4-.29.64-.29s.46.11.64.29c.23.24.36.59.36.96,0,.69-.45,1.25-.99,1.25h0Z"/>
    <polygon class="cls-1" points="46.98 40.89 46.98 34.21 40.93 34.21 40.93 35.01 45.73 35.01 45.73 40.89 44.82 40.89 44.82 37.38 43.56 37.38 43.56 40.89 42.68 40.89 42.68 37.38 41.43 37.38 41.43 40.89 40.11 40.89 40.11 41.7 47.76 41.7 47.76 40.89 46.98 40.89 46.98 40.89"/>
    <polygon class="cls-1" points="28.08 39.25 25.23 39.25 25.23 35.01 27.08 35.01 27.08 34.21 23.97 34.21 23.97 40.05 28.08 40.05 28.08 39.25 28.08 39.25"/>
    <polygon class="cls-1" points="34.87 34.21 34.87 33.28 33.48 33.28 33.48 34.21 31.81 34.21 31.81 35 36.54 35 36.54 34.21 34.87 34.21 34.87 34.21"/>
    <polygon class="cls-1" points="21.75 35.74 21.75 33.95 20.5 33.95 20.5 38.68 21.75 38.68 21.75 36.54 22.91 36.54 22.91 35.74 21.75 35.74 21.75 35.74"/>
    <polygon class="cls-1" points="38.74 35.74 38.74 33.95 37.48 33.95 37.48 38.68 38.74 38.68 38.74 36.54 39.9 36.54 39.9 35.74 38.74 35.74 38.74 35.74"/>
    <polygon class="cls-1" points="11.09 39.29 11.09 38.48 14.29 38.48 14.29 37.68 6.65 37.68 6.65 38.48 9.83 38.48 9.83 39.29 11.09 39.29 11.09 39.29"/>
    <polygon class="cls-1" points="29.37 33.95 29.37 36.47 28.87 36.47 28.87 33.95 27.68 33.95 27.68 42.54 28.87 42.54 28.87 37.27 29.37 37.27 29.37 42.54 30.56 42.54 30.56 33.95 29.37 33.95 29.37 33.95"/>
    <path class="cls-3" d="m11.39,25.65c.13-.06.27-.13.41-.2.48-.03.77-.24,1.19-.39.12-.04.25-.09.37-.13h.06c-.13.97-.82,1.92-.41,2.83.09.13.17.26.25.39.13.05.27.1.4.15.15.07.27.21.42.27.1,0,.1.06.17.1.28.19.49.07.77-.16v-.06c.26-.01.37.08.63-.04.03-.19-.04-.32.01-.54-.09,0,.21-.17.28-.26.11,0,0-.21-.02-.29l-.05-.06.08-.03c.2-.34.39-.67.59-1.01.21-.26.43-.53.65-.79.06-.13.07-.23.04-.35.39-.02.51-.91.47-1.16.14,0,.79-.69.99-.82.2-.1.41-.19.62-.28l.03-.02c.1,0,.07-.15.1-.24.01-.1-.03-.06-.12-.05v-.06c.13,0,.25.02.37.03.27-.1.53-.19.79-.29l.1-.21c.18-.02.37-.03.55-.04.34-.07,1.29-.53,1.54-.79h.12s.06.05.06.05c.01-.1.13-.1.2-.13l.07-.06v.06c.13-.01.06,1.28.27,1.53h.06s-.1.24-.1.24c-.01,0,0,.24-.05.36h.06c-.03.2.6-.08.7-.11v-.06s0,.13,0,.13c-.04.19-.16.33-.31.45-.71.57-.39,1.35-.31,1.97.01.21.02.42.03.63.06.13.11.26.16.38-.02.13-.04.26-.06.4-.02.31.03.58.13.83v.06c.06,0,.19-.38.43-.51l-.02.04c-.07.16-.15.31-.22.47-.11.41-.05,1.13.23,1.33-.04.3-.1.54.22.64l.03-.18c.02-.15.16-.3.23-.44.07-.18.14-.36.21-.54.14,0-.1-.22-.14-.29-.09,0-.02-.2-.02-.3h.25c.06-.43-.04-.73-.23-1.01l.07-.07v-.06s.06.06.06.06v.06s.08-.08.08-.08c.19-.55.4-1.1.64-1.64.1,0,.06-.05.06-.13.03-.2.05-.39.08-.59.04-.48.04-1.04.23-1.51-.08,0-.11-.51-.22-.64.01-.09.08-.13.15-.19.03-.18.05-.36.08-.54.02-.13.19-.28.3-.38.03-.2,0-.37.02-.6-.1,0-.12-.04-.17-.11l-.05-.06c.12,0,.24-.18.28-.28.05-.17.09-.35.14-.52.37-.76.83-.88,1.52-1.27.1-.07.2-.14.3-.21.02-.11-.14-.09-.23-.1v-.06c.2-.01,1.1-.8,1.24-.99.05-.12.1-.24.15-.37.15-.06.31.02.41.05v-.06c.14-.07.28-.13.41-.2.01-.09.05-.06.13-.07.02-.1-.09-.09-.17-.11.01-.11.12-.1.2-.13v-.06s-.11-.05-.11-.05c.05-.35.26-.38.54-.33l.4-.62.16-.25c-.02.11.12.01.19-.01-.02.12.16-.13.21-.19-.1,0-.11-.06-.17-.11v-.06c.11-.03.22-.05.33-.08v-.06c.6-.04.9-.45,1.45-.57.02-.13.11-.18.22-.26l.03-.18h-.13c-.01.11-.2.19-.28.26l-.29-.16v-.06c.24-.02.29-.31.53-.21h.06s-.05-.12-.05-.12c.02-.15-.02-.07-.04-.17.01-.09-.64.19-.77.23.01-.09.09.05.02,0v-.06c.2-.01.31-.29.41-.42l-.13-.1c-.39-.08-1.74.46-2.16.61-.32.11-.64.23-.96.34-.22.12-.43.24-.64.36-.71.32-1.44.52-2.14.88v-.06s-.11-.05-.11-.05c.03-.24.07-.41-.04-.6.04-.1.08-.2.11-.3.07-.52.14-1.04.21-1.56-.11,0,.04-.11.09-.18.11,0,.02-.1,0-.16-.2-.5.05-1.11.01-1.68-.02-.34-.17-.51,0-.89-.09,0-.07-.03-.09-.09-.15-.48-.36-.31-.77-.45l.02-.12.27-.14c.04-.25-.39-.41-.55-.5,0,.06-.41.12-.51.17-.24.11-.5.2-.77.18-.18,0-.33-.1-.54-.06-.57.14-1.79,1.3-2.3,1.76h.06c-.01.1.14.09.23.1l-.02.12-.07.06c-.17.01-.58.18-.71.3-.28.25-.38.67-.61.96-.13.17-.4.21-.48.43v.15s-.01.06-.01.06c-.61.04-1.78,2.88-2.37,3.25l-.02.12h-.06c-.03.4-.26.56-.43.89-.1.2-.13.36-.26.53.1,0,.03.06-.02.12.09,0-.06.14-.08.24-.08.33-.36.55-.51.83-.33.63-.68,1.17-.87,1.88-.37.03-.22.45-.08.54v.06c-.41.03-.46.46-.48.74h-.06s-.09-.03-.09-.03c-.53.18-.98.32-1.43.73-.12,0,0,.08.05.12v.06c-.4.03-.6.07-.98.3-.32.21-.73.72-1.15.67h-.06s0,.06,0,.06c-.1,0-.06.11-.09.19-.02.09-.25.24-.31.34-.1.15-.25.25-.37.39-.2.26-.39.56-.45.89-.04.25.79.45,1.02.41h0Zm15.87-10.79v.06s.05.06.05.06l-.05-.06v-.06h0Zm-5.62,1.31s1.25-1.66,1.4-1.83c-.14.03-.07-.11-.05-.22.12-.03.98-1.32,1.28-1.58v-.08s.25.7.38.85c-.2.53-.39,1.07-.59,1.6-.09.44,0,.88-.14,1.3-.14.44-.67.98-1.14,1.11-.24.07-.43.07-.66.18-.46.29-.91.57-1.36.86-.61-.28.8-1.63.88-2.19h0Z"/>
    <path class="cls-3" d="m51.68,13.14c-.35-.02-.66.22-.93.43l-.27.19-1.15.68-1.1.64c-.63.29-1.17.5-1.68.64l-.35.13c-.09.04-.17.08-.33.12h-.02s0,.02,0,.02l-.06-.04-.06-.04c-.18-.11-.23-.38-.23-.69,0-.2.02-.41.04-.61.02-.2.03-.4.03-.58l-.02-.23c.22-.08.25-.56.28-.99.01-.19.02-.37.05-.44.04-.11.16-.21.27-.29l.02-.02v-.04s0-.31,0-.31c.18-.21.44-1.08.44-1.09l.02-.14-.02-.16.1-.15v-.04s.02-.04.02-.04h.01s.13-.06.13-.06l-.03-.05.14-.3.06-.04v-.04s0-.05,0-.05l.21-.23.08-.11.27-.26c.17-.16.33-.32.47-.51l.13-.34.06-.17.09-.12c.11-.14.24-.3.24-.5v-.08c-.05-.32-.33-.44-.55-.54l-.05-.02v-.06s-.06,0-.06,0h-.05s-.17-.02-.17-.02c.07-.08.11-.22.13-.31l.11-.06.08-.09-.14-.03v-.03s-.03-.08-.03-.08h-.25s-.07.19-.07.19l-.14-.13v-.03s-.08,0-.08,0h0s0-.01,0-.01v-.05s-.09-.04-.09-.04l.03-.05h-.09s0-.03,0-.03v-.07s-.01-.07-.01-.07l-.05-.03-.09-.12h-.02s.02-.07.02-.07l-.07-.02c-.07,0-.17-.04-.28-.08-.23-.08-.48-.18-.67-.07-.09.05-.14.15-.17.29l-.09-.04-.06-.04v-.06s-.11-.03-.11-.03h-.1v.06c-.04.23-.08.27-.24.38l-.15.1.14.02v.02s-.1.16-.1.16c-.25.46-.48.93-.48,1.18l.02.08-.26-.02v.06c-.06.44-.18.6-.38.86l-.17.22-.21.4-.07.13c-.16.21-.28.46-.39.7-.11.24-.22.47-.37.67l-.31.34c-.12.16-.23.38-.33.61-.13.27-.26.55-.41.72l-.02.02-.21.16c-.35.34-.83.83-.99,1.35h-.06s0,.02,0,.02c-.58.38-1.11.99-1.58,1.53l-.18.21-.24.3-.06.08-.27.19c-.12.07-.24.15-.36.27l-.29.37-.04.05c-.07.06-.2.05-.34.04-.13-.01-.27-.02-.38.05.11-.85.31-1.54.69-2.35l.06-.04.02-.05v-.06s-.02-.03-.02-.03v-.08c0-.32.26-1.08.42-1.42l.02-.05-.04-.02.02-.02.04-.08.05-.28.06-.33c.07-.4.24-1.15.51-1.69h.08s0-.07,0-.07v-.04s-.02-.21-.02-.21c0-.25.06-.51.18-.76h.09s-.03-.12-.03-.12c-.14-.54-.66-1.37-1.45-1.38-.98,0-1.97,2.46-2.14,3.34l-.18.04h-.05s0,.06,0,.06c-.02.2-.1.37-.18.55l-.11.27-.32.84-.18.46.07.02.16.04-.28-.02v.06c-.02.16-.09.32-.16.47l-.1.24-.02.09-.07.43-.13.26-.07.13c-.12.3-.17.59-.22.9l-.06.32-.05.24c-.05.23-.09.46-.09.68,0,.23.06.45.21.66h0s-.25-.06-.25-.06l-.03.18.05.02.11.04c-.01.11-.02.21-.02.3,0,.55.17,1.03.53,1.47l.11.13c.11.12.2.22.26.4v.04s.74.04.74.04v-.03s.44.17.44.17h.02s.36-.04.36-.04c.3-.01.62-.04.79-.17h.07s0,.05,0,.05v.12s.06,0,.06,0c.32.02.53-.16.72-.34l.24-.19v-.03s.01-.05.01-.05l-.04-.15.18-.08.12-.06v-.03s-.03-.1-.03-.1l-.05-.03c.12,0,.22-.04.31-.07.11-.04.17-.11.23-.17l.13-.12.3-.17c.27-.14.58-.31.75-.58.04-.01.13-.07.3-.27v-.02s.02-.04.02-.04l.09-.1.03-.05h0c.38-.1.62-.49.86-.87.16-.25.32-.51.51-.67l.02-.02v-.02s.05,0,.05,0v-.07s.02-.08.02-.08l-.04-.04-.04-.02-.1-.06c.19-.05.36-.18.43-.34l.03-.16-.05-.18.3-.03.07.18c.06.19.14.42.33.55h-.13s0,.05,0,.05h-.05s0,.06,0,.06v.08c0,.32.23.62.47.74h0s0,.04,0,.04h-.02s-.01.07-.01.07c0,.07.06.16.14.28.08.12.19.28.19.39v.03s-.04.04-.04.04v.03c0,.07.1.18.77.67l.07.06.15.17.18.2-.07.1-.12.15h.13c.07,0,.23.12.36.21.13.09.26.18.36.22l.08.03.04-.35.41.03.1-.03.03-.1.17.12.27.21v-.12s0,0,0,0c.13-.02.24-.12.3-.18h.18c.53.04.72-.23.95-.57l.09-.13.02-.14h-.07s-.05,0-.05,0l-.03-.03-.12.03h-.05s0-.02,0-.02c0-.02.02-.1.13-.29l.23.08v-.08s.02-.02.02-.02l.23.08.02.07.13.03.07.12h0s.03.08.03.08l.1.03h.09s.01-.06.01-.06v-.06s0-.04,0-.04l-.05-.02v-.04s0-.01,0-.01l.02-.04h.12s0,0,0,0l.12-.04h0s.25-.04.25-.04v-.12s0,.02,0,.02v.02s0,.02,0,.02c.02-.03.11-.1.53-.32l.03-.02h.1s0-.06,0-.06l.02-.14h-.08s-.29.04-.29.04v-.09s.01-.02.01-.02l-.03-.08-.16-.05h0s0-.03,0-.03v-.12c.26-.03.54-.28.67-.45h.08s.03-.24.03-.24h-.06s.01-.06.01-.06h.02s.07-.04.07-.04l.25-.12c.31-.14.52-.24.57-.33l.3-.7h0c.08-.12.56-.51.7-.54h.05s0-.06,0-.06v-.02c0-.1-.08-.21-.16-.32l-.04-.07.08-.12c.1-.16.32-.52.39-.57l.03-.02.02-.21h-.07Z"/>
    <path class="cls-2" d="m51.99,0h-11.18v11.57h11.58V0h-.4Zm-.4.8v9.98h-9.98V.8h9.98Z"/>
    <path class="cls-3" d="m11.24,9.53c-.37-.09-.86-.19-1.17-.22l-.02.02-.13.1h0s-.15.03-.15.03h0s-.05-.02-.05-.02l-.23-.04-.18.09-.03.03-.08-.11-.02.09v.03s-.03,0-.03,0c0-.02-.04-.03-.18.11l-.11-.05-.03.04-.15.07h0s-.06.02-.06.02l-.06-.02h-.04s-.02.02-.02.02l-.12.17h-.01s0-.07,0-.07l-.14-.03-.03.11h-.02s0,.02,0,.02l-.11-.06v.06s-.04.05-.21.11h-.02s0,.03,0,.03l-.07.07-.06.04h0c-.15,0-.3.06-.44.12l-.2.08v.02c-.05.13-.1.31-.2.39l-.04-.04.02-.06h-.05c-.08-.02-.13.09-.17.21v-.03s-.04,0-.04,0h0s0-.02,0-.02l-.05-.03-.1.05v-.07s-.04-.01-.04-.01c-.05-.01-.17.04-.42.15l-.26.11v.02c-.04.1-.12.17-.2.24l-.18.2c-.16-.02-.27,0-.39.16h-.03s-.03.1-.03.1v.06s-.05,0-.05,0l.03.08v.02s-.07.02-.07.02h-.03s.03-.07.03-.07h0s-.09-.04-.09-.04h0s-.12.12-.12.12l-.22.2.18-.04h.03s-.02.12-.02.12c-.18.1-.64.65-.64.66l-.06.11-.04.08s-.09.03-.22.13h0s0-.03,0-.03l-.03-.02-.11.08-.05.17c-.05.18-.06.21-.28.32v-.16s-.09.15-.09.15l-.17.31-.17-.13-.06.12h-.05s0,.03,0,.03h-.02s-.02.02-.02.02l-.14.24-.13.27-.15.2c-.15.18-.3.37-.34.6-.18.05-.35.69-.87,1.63l-.31.54-.02.12h0s-.07.1-.07.1h-.02s0,.03,0,.03c-.05.18-.1.28-.21.42l-.02.04-.02.05h.02s-.1.19-.1.19v.05s.04.12.04.12l.04.08.04.02h.02c-.07.16-.14.31-.14.43l.02.1.11.08c-.05.11-.12.29-.12.43h.03s-.02.06-.02.06l.05.02.1.02-.03.21h.02s-.02.06-.02.06l.03.19-.04-.02-.08.33-.03.1v.4s-.11.27-.11.27H0s0,.06,0,.06l.03.03v.04s.02.04.02.04h-.01s-.02.09-.02.09l.11-.03c.09-.02.22.19.29.29l.05.07h0s-.07.06-.07.06v.02s0,0,0,0l.03.05v.04s.02,0,.02,0l-.02.16h0,0v.02s.09,0,.09,0h-.02s-.02,0-.02,0l.06.1h.02s0,.03,0,.03l.02.06c.12.12.17.21.17.33,0,.09-.03.2-.06.37v.04s-.03.02-.03.02l-.02.03h0s-.12.16-.12.16v.02s-.01.07-.01.07l.04.02.14-.14.06.04.02.04h.02s.08-.04.08-.04l-.04.12v.03s.03.02.03.02l.02.09-.03.12v.04c0,.06.04.13.1.23l.04.06h-.01s-.02.05-.02.05l.14.03.02-.03.05-.1h.04s.16.03.16.03v.09s.05,0,.05,0h.25s.01-.03.01-.03c.03-.09.06-.12.12-.16h.12s.01.03.01.03h0s-.07.2-.07.2l-.05.11h.06s.07.02.07.02v-.03s.03,0,.03,0l.02-.03.11-.18v-.02s.02,0,.02,0l.03.02h0v.03s-.04.21-.04.21l-.03.18.05.15.06.16h0s-.02.06-.02.06h.03s-.02.08-.02.08l.06-.02.11-.03.2.06v.03s.12.02.12.02l.03-.04.13-.03.08.03-.02.04h.05s.09-.04.09-.04l.13.11.05.05.06.05c.16.06.31.03.45,0l.16-.03.07.12.03-.1c.03-.09.13-.12.31-.12.07.01.13-.08.21-.22l.02-.04.13-.03v.02s.05.01.05.01l-.06.15c-.04.09-.09.19-.11.32v.04s.11.02.11.02v-.04s.16-.22.16-.22h0s.01,0,.01,0l.06.11.02.05h.08s.14-.22.14-.22v-.02s.15-.03.15-.03l.15-.03.3.02.14-.05.16-.03.05.04.02-.08.14-.07-.02.04.16.03v-.03s.05.02.05.02l.09.04v-.06s.03-.07.03-.07l-.04-.02v-.04s0,0,0,0h.02s.09.07.09.07v-.06s.15-.12.15-.12h.2l.05.04.02-.06c.03-.09.21-.15.3-.16h.04s.47-.12.47-.12h.08s.01-.04.01-.04l.02-.08h0s.02-.02.02-.02l.46-.07h.02s.02-.09.02-.09l.13-.02c.09.02.24-.11.29-.21h0s.12-.1.12-.1l.02-.03h0s.87-.44.87-.44l.05-.04h.05v-.04c.03-.12.09-.21.18-.26.08-.04.19-.04.28,0l.07.04v-.08s.03-.4.03-.4l.14-.06.19-.08.06-.08.05-.07.14-.06.22-.12c.07-.08.09-.19.12-.29l.06-.2c.07-.12.6-.42.7-.39l.06.02v-.03c.11-.06.51-1.05.51-1.06l.24.03v-.03s0,0,0,0c.24-.04.42-.23.58-.42.16-.17.25-.56.43-.6h.04s0-.04,0-.04v-.03l-.06-.14-.26.03-.07.03v.03c-.17.02-.33.09-.46.15h0s-.06,0-.06,0l-.16.09-.06.05-.16.07v-.02s-.09.04-.09.04v.02c-.26.21-.82.63-1.02.64h-.04s0,.04,0,.04h-.04l-.02.04-.24.04h-.03s-.02.04-.02.04c-.04.08-.61.43-.7.41l-.09.06-.1-.03-.02.05c0,.05-.12.16-.76.31h0s-.07-.02-.07-.02h-.04s-.02.04-.02.04l-.16.08-.1.04h0s-.17.1-.17.1l-.22.12h-.03v.03s-.08.01-.18.04l-.19.05v.02c-.2-.01-.47.07-.63.17h0s-.06-.04-.06-.04h-.02s-.05-.01-.05-.01l-.03.04h-.09s-.06.01-.06.01l-.06-.09-.04.07-.24.08-.17.06h-.05s-.02-.04-.02-.04l-.12.07-.07-.04h-.04s-.04-.02-.04-.02l-.02.04-.1.04h-.07s0,.03,0,.03l-.14-.04-.32.07-.18-.02h-.22c-.42-.11-.93-.52-1.01-1.02l-.02-.22c0-.12.01-.24.03-.38v-.02s.01-.16.01-.16c0-.11,0-.21.04-.33l.14-.35.09-.19.09-.31.13-.26.02-.19v-.04s.04-.13.04-.13l.02-.08v.04s0,.16,0,.16v.04s.1.02.1.02v-.03s.09-.15.09-.15l.14-.14.28-.35.18-.27c.11-.18.23-.38.35-.46h.01s0,0,0,0h.02s.09.06.09.06v-.06s.03-.1.03-.1l-.02-.16v-.02s.12.07.12.07c.15,0,.6-.43.73-.6l.05.04.07.07.04-.06.09-.12c.06-.06.13-.14.17-.25l.2-.05.07.09-.02.05.07.02h.05s.02-.05.02-.05h0l.06-.09v-.05s.12-.09.12-.09h.01s.04,0,.04,0h.02s.18.19.18.19l.05.11.04-.12.09-.11.22.02.03.02.03-.03.45-.14.28.02c.11.02.23.03.35.01.16-.03.32-.13.47-.22l.25-.14.35-.11.35-.12c.23-.11.46-.23.64-.36l.39-.33.14-.09c.1-.06.19-.11.28-.21.11-.12.16-.29.2-.44l.09-.27.12-.19c.09-.25.14-.5.14-.75,0-.19-.03-.39-.08-.6l-.06-.2-.18-.24c-.16-.19-.31-.36-.31-.63v-.13s.02-.06.02-.06h-.31v.04s-.02-.02-.02-.02c-.12-.1-.12-.16-.13-.28l-.02-.16.03-.11-.12-.02-.02.04v.03s-.08-.01-.08-.01l.04.09h-.01s-.2-.1-.2-.1v-.03s-.1-.02-.1-.02v.04s-.03.03-.03.03h-.01s-.04,0-.04,0h0s-.13-.16-.13-.16h-.01s-.02-.04-.02-.04l-.13.06c-.33-.24-.41-.37-.41-.37h0Z"/>
  </g>
</svg>