<?xml version="1.0" encoding="UTF-8"?>
<svg id="Layer_2" data-name="Layer 2" xmlns="http://www.w3.org/2000/svg" viewBox="0 0 113.38 113.39">
  <defs>
    <style>
      .cls-1 {
        fill: #80c342;
      }

      .cls-1, .cls-2, .cls-3, .cls-4, .cls-5 {
        stroke-width: 0px;
      }

      .cls-2 {
        fill: #fff;
      }

      .cls-3 {
        fill: #fcaf17;
      }

      .cls-4 {
        fill: #00b9f2;
      }

      .cls-5 {
        fill: #004e96;
      }
    </style>
  </defs>
  <g id="Layer_1-2" data-name="Layer 1">
    <g>
      <g>
        <path class="cls-5" d="m56.69,3.19C27.14,3.19,3.19,27.15,3.19,56.69s23.95,53.51,53.5,53.51,53.5-23.95,53.5-53.51S86.24,3.19,56.69,3.19Zm0,83.19c-16.39,0-29.69-13.29-29.69-29.69s13.29-29.69,29.69-29.69,29.69,13.3,29.69,29.69-13.29,29.69-29.69,29.69Z"/>
        <path class="cls-5" d="m56.69,113.39C25.43,113.39,0,87.95,0,56.69S25.43,0,56.69,0s56.69,25.43,56.69,56.69-25.43,56.69-56.69,56.69Zm0-111.88C26.26,1.5,1.51,26.26,1.51,56.69s24.75,55.19,55.18,55.19,55.19-24.76,55.19-55.19S87.12,1.5,56.69,1.5Z"/>
      </g>
      <g>
        <path class="cls-2" d="m20.7,56.85c.97-.75,1.49-1.81,1.58-3.25.05-.9-.12-2.04-.33-2.59l-7.37-.45-.21,3.33,2.19.13.07-1.12,3.34.2c.04.1.05.26.03.48-.07,1.14-1.35,2.23-4.67,2.03-3.58-.22-4.75-1.61-4.65-3.26.04-.59.17-1.04.39-1.4l-2.29-.55c-.23.38-.48,1.04-.53,1.98-.16,2.67,1.77,5.36,6.78,5.73,2.37.18,4.46-.26,5.67-1.26Z"/>
        <path class="cls-2" d="m23.11,47.98l-2.85-1.48.67-2.13,3.17.44.71-2.24-13.91-1.86-.87,2.77,12.37,6.73.71-2.23Zm-4.77-2.34l-2.62-1.31c-.73-.37-2.02-.97-2.86-1.37l.02-.05c.9.17,2.27.43,3.12.56l2.88.48-.54,1.69Z"/>
        <path class="cls-2" d="m18.73,39.98c3.47,1.87,6.73,1.9,8.25-.91.4-.73.59-1.4.6-1.8l-2.1-.86c-.05.31-.18.76-.37,1.12-.7,1.3-2.37,1.68-5.28.12-3.02-1.62-3.59-3.33-2.94-4.54.25-.47.51-.69.77-.87l-1.79-1.43c-.28.12-.72.56-1.12,1.3-1.14,2.13-.59,5.38,4,7.85Z"/>
        <polygon class="cls-2" points="29.66 35.02 25.28 31.24 26.94 29.33 31.31 33.11 32.9 31.28 22.44 22.24 20.86 24.06 25.05 27.69 23.39 29.6 19.2 25.98 17.62 27.81 28.08 36.85 29.66 35.02"/>
        <path class="cls-2" d="m36.18,29c1.9-1.41,1.98-4.09-1.12-8.28-1.88-2.54-4.75-4.98-7.15-3.2-2.23,1.65-1.37,5.07.88,8.11,2.26,3.05,5.13,5.06,7.4,3.38Zm-6.97-9.54c.89-.66,2.46.91,3.9,2.85,1.67,2.26,2.58,4.14,1.75,4.75-.79.58-2.17-.38-4.04-2.91-1.77-2.39-2.39-4.13-1.62-4.7Z"/>
        <path class="cls-2" d="m41.33,25.62l-1.25-2.83c-1.13-2.55-2.08-4.47-2.71-5.71h.03c.77.99,1.99,2.38,2.85,3.28l3.86,4.04,2.03-.9-5.59-12.65-1.94.86,1.23,2.8c1.03,2.33,2.15,4.45,2.8,5.76l-.03.02c-.8-.95-2.06-2.34-2.85-3.16l-3.95-4.18-2.03.89,5.59,12.65,1.94-.86Z"/>
        <path class="cls-2" d="m52.89,22.41c2.37-.27,3.36-2.32,2.97-5.84l-.95-8.46-2.4.27,1,8.93c.23,2.08-.2,2.69-.9,2.76-.64.07-1.24-.48-1.47-2.5l-1-8.93-2.4.27.95,8.48c.39,3.45,1.62,5.31,4.21,5.02Z"/>
        <path class="cls-2" d="m60.06,12.7h.04c.16,1.26.51,3.07.8,4.28l1.3,5.43,2.2.25,1.55-13.74-2.11-.24-.34,3.04c-.28,2.53-.39,4.93-.48,6.39h-.04c-.21-1.22-.6-3.06-.87-4.17l-1.3-5.6-2.2-.25-1.55,13.74,2.11.24.35-3.08c.31-2.77.46-4.9.54-6.3Z"/>
        <rect class="cls-2" x="61.72" y="15.62" width="13.83" height="2.42" transform="translate(33.02 77.86) rotate(-73.52)"/>
        <path class="cls-2" d="m72.76,25.88l8.44-11.31-2.41-1.13-3.28,4.99c-.86,1.32-1.75,2.74-2.6,4.15l-.03-.02c.54-1.54,1.02-3.17,1.47-4.61l1.73-5.78-2.42-1.14-3.36,13.69,2.46,1.15Z"/>
        <polygon class="cls-2" points="79.56 30.34 80.92 28.44 78.33 26.57 80.51 23.54 82.8 25.19 84.11 23.37 81.81 21.73 83.67 19.14 86.1 20.89 87.46 18.99 83.07 15.83 75 27.06 79.56 30.34"/>
        <path class="cls-2" d="m81.92,32.75l4.08-3.72.25.27c.54.59.43,1.2-.68,2.52-1.01,1.17-1.86,2.32-2.03,2.7l1.71,1.87c.23-.51,1.26-1.9,2.24-3.12.94-1.19,1.29-2.08,1.01-2.97l.03-.03c1.32.5,2.75.09,3.84-.9.88-.8,1.4-1.6,1.45-2.67.06-1.12-.59-2.16-1.48-3.15-.62-.68-1.35-1.32-1.98-1.77l-10.06,9.18,1.63,1.79Zm8.65-7.89c.13.05.31.22.46.38.69.82.37,1.69-.51,2.49-.89.81-1.99,1.02-2.7.24l-.3-.33,3.05-2.78Z"/>
        <path class="cls-2" d="m92.05,36.22c-.15,1.29-.31,2.01-1.18,2.51-.79.44-1.64.27-2.19-.72-.34-.6-.56-1.46-.54-2.05l-2.19.83c-.02.5.2,1.48.69,2.35,1.19,2.11,3.46,2.76,5.66,1.52,1.27-.71,2.2-1.91,2.35-3.9.13-1.6.33-2.13,1.04-2.54.64-.36,1.5-.27,2,.63.33.6.4,1.17.36,1.6l2.21-.8c.04-.43-.12-1.22-.53-1.95-1.27-2.25-3.53-2.51-5.46-1.42-1.09.61-2.04,1.89-2.21,3.93Z"/>
        <rect class="cls-2" x="88.82" y="40.67" width="13.83" height="2.42" transform="translate(-8.65 37.05) rotate(-20.98)"/>
        <polygon class="cls-2" points="101.32 44.66 90.3 47.36 90.87 49.71 101.9 47.01 102.42 49.17 104.83 48.58 103.21 41.94 100.8 42.53 101.32 44.66"/>
        <path class="cls-2" d="m91.42,53.21l.16,2.41,5.38-.36,8.6,2.22-.17-2.51-3.28-.52c-1-.16-2.01-.29-3.03-.37v-.04c1.01-.25,2.02-.56,2.88-.86l3.24-1.05-.17-2.58-8.33,3.29-5.28.35Z"/>
        <path class="cls-2" d="m77.51,85.83c.35.49.38,1.19.28,1.63-.16.61-.56,1.13-1.09,1.5l1.13,1.61,1.79-1.26,4.84,6.92,1.57-1.1-7.19-10.24-1.34.94Z"/>
        <path class="cls-2" d="m87.19,81.27c-1.69-1.04-3.58-1.08-4.92.29-1.44,1.47-1.19,3.78.53,5.47,1.68,1.64,3.96,1.98,5.29.62.76-.78.92-1.63.88-2.32.31.31.74.78,1.07,1.45.39.77.65,1.64-.07,2.38-.72.74-1.73.51-2.38.06l-1.22,1.25c1.44,1.21,3.69,1.46,5.02.11,1.21-1.24,1.22-3.04.27-4.75-.72-1.34-3.02-3.71-4.46-4.55Zm-.34,4.63c-.71.72-1.8.61-2.7-.26-.93-.91-.99-1.94-.29-2.66.69-.7,1.73-.67,2.66.24.9.88,1.02,1.98.33,2.68Z"/>
        <path class="cls-2" d="m96.83,76.87c-1.04-.64-2.38-.63-3.31-.12,0-.77-.42-1.77-1.62-2.51-1.55-.96-3.66-.67-4.72,1.05-1.02,1.66-.4,3.78,1.46,4.8l.97-1.58c-.85-.46-1.26-1.33-.72-2.2.54-.88,1.52-.79,2.1-.37.53.36.71.8.73,1.24,0,.5-.19.96-.51,1.47l1.72,1.06c.24-.39.49-.8.88-1.15.61-.43,1.39-.46,2-.02.78.56,1.08,1.5.55,2.37-.57.92-1.62,1.13-2.62.43l-.99,1.6c1.99,1.39,4.33.82,5.41-.93,1.1-1.79.46-4.04-1.32-5.14Z"/>
        <path class="cls-2" d="m100.79,68.14c-1.22-.9-4.32-2.04-5.98-2.19-1.98-.21-3.7.56-4.32,2.38-.66,1.95.55,3.93,2.83,4.71,2.22.76,4.43.08,5.04-1.71.35-1.03.12-1.87-.2-2.48.42.14,1,.39,1.58.85.68.53,1.29,1.2.96,2.18-.34.98-1.34,1.21-2.12,1.07l-.56,1.65c1.81.47,3.96-.27,4.57-2.06.56-1.64-.21-3.27-1.8-4.4Zm-4.29,2.14c-.33.96-1.37,1.33-2.55.93-1.23-.42-1.73-1.32-1.41-2.28.32-.93,1.27-1.35,2.5-.93,1.19.4,1.77,1.35,1.46,2.28Z"/>
        <path class="cls-2" d="m13.29,64.67c0,.9.73,1.63,1.63,1.63s1.63-.73,1.63-1.63-.73-1.63-1.63-1.63-1.63.73-1.63,1.63Z"/>
        <path class="cls-2" d="m75.16,93.38c-.9,0-1.63.73-1.63,1.63s.73,1.63,1.63,1.63,1.63-.73,1.63-1.63-.73-1.63-1.63-1.63Z"/>
        <path class="cls-2" d="m97.3,61.61c0,.9.73,1.63,1.63,1.63s1.63-.73,1.63-1.63-.73-1.63-1.63-1.63-1.63.73-1.63,1.63Z"/>
        <polygon class="cls-2" points="21.13 80.67 23.09 79.68 22.36 78.11 22.38 78.1 27.38 75.64 26.53 73.81 13.54 80.06 14.45 82.01 20.39 79.08 21.13 80.67"/>
        <path class="cls-2" d="m24.71,72.95l-2.72-5.84-1.88.82,1.7,3.66h-.02c-.8.31-1.68.46-2.62.46-2.11,0-4.39-.8-5.96-2.08l-.57,2.08c1.86,1.39,4.22,2.16,6.65,2.16,1.83,0,3.65-.42,5.43-1.26Z"/>
        <polygon class="cls-2" points="42.29 94.07 42.27 94.06 41.4 93.63 41.41 93.61 43.71 88.85 41.97 87.98 35.55 100.89 37.44 101.83 40.36 95.78 41.26 96.23 41.25 96.25 38.37 102.3 40.26 103.25 46.31 90.15 44.57 89.28 42.29 94.07"/>
        <path class="cls-2" d="m36.63,97.38l.89-1.78-.11-.03c-.54-.16-1.65-.49-2.43-.88l-.61-.3v-.02s2.69-5.09,2.69-5.09h.02s2.3,1.16,2.3,1.16l.93-1.83-4.11-2.06-4.71,8.69,1.68.84c1.6.8,2.72,1.1,3.26,1.24.07.02.14.04.19.05Z"/>
        <path class="cls-2" d="m49.68,99.94c.25.03.5.04.75.04,1.79,0,3.08-.82,3.22-2.05.15-1.36-1.22-2.48-3.31-2.72-.23-.03-.46-.04-.69-.04-1.5,0-3.1.6-3.29,1.93-.07.46.07.93.4,1.37.59.77,1.71,1.33,2.92,1.47Zm-1.14-2.58c.05-.4.65-.55,1.2-.55.12,0,.25,0,.37.02.59.07,1.06.26,1.26.51.08.11.12.22.1.35-.04.37-.48.59-1.16.59-.12,0-.25,0-.38-.02-.46-.05-1.04-.22-1.28-.53-.09-.11-.12-.23-.1-.36Z"/>
        <polygon class="cls-2" points="46.67 102.18 54.21 103.06 54.21 103.08 53.94 105.74 56.17 106 56.6 101.35 46.95 100.23 46.67 102.18"/>
        <polygon class="cls-2" points="57.15 95.37 57.49 91.65 55.49 91.41 54.55 100.56 56.65 100.81 56.95 97.53 56.98 97.53 58.57 97.72 58.75 95.57 57.15 95.39 57.15 95.37"/>
        <polygon class="cls-2" points="54.48 93.51 46.67 92.59 46.4 94.41 54.29 95.34 54.48 93.51"/>
        <polygon class="cls-2" points="48.5 92.25 52.77 92.75 52.98 90.97 48.75 90.48 48.5 92.25"/>
        <polygon class="cls-2" points="67.68 101.32 67.68 101.3 66.75 96.88 64.7 97.29 65.59 101.74 65.56 101.75 64.49 101.96 64.49 101.94 63.63 97.51 61.57 97.92 62.39 102.39 62.37 102.39 59.79 102.91 60.14 104.93 72.83 102.38 72.37 100.38 67.68 101.32"/>
        <path class="cls-2" d="m67.23,93.53c.4,2.22.51,4.16.57,5.75l2.02-.41c.03-2.09-.26-4.57-.9-7.8l-9.61,1.94.36,2.02,7.56-1.52v.02Z"/>
        <polygon class="cls-2" points="22.39 88.27 24.12 86.59 22.63 85.08 19.38 88.18 26.52 95.39 27.93 93.9 22.37 88.29 22.39 88.27"/>
        <polygon class="cls-2" points="29.46 78.11 28.15 79.37 31.15 82.4 32.44 81.12 29.46 78.11"/>
        <polygon class="cls-2" points="34.59 83.52 31.52 86.67 30.13 85.28 28.72 86.7 30.12 88.11 27.28 91.03 28.78 92.55 36.01 84.95 34.59 83.52"/>
        <path class="cls-2" d="m28.57,83.44l1.73,1.74,1.39-1.4-4.93-4.97-1.44,1.35,1.69,1.7-.02.02c-.44.32-1.04.48-1.79.48-1.23,0-2.45-.43-2.82-.59l-.45,2.22c.78.37,1.83.58,2.83.58.45,0,.86-.05,1.21-.14h.04s0,.03,0,.03c-.22,1.2,0,2.61.6,3.78l2.05-.69c-.27-.56-.95-2.86-.09-4.08l.02-.02Z"/>
      </g>
      <g>
        <path class="cls-5" d="m53.08,69.9c-5.12,0-11.12-4.01-7.51-12.79,4.12-9.98,16.92-16.47,22.17-16.47,1.31,0,2.09.47,2.04,1.4-.07,1.38-1.17,3.12.18,4.22,1.69,1.37,6.65-.85,7.13-4.36.31-2.32-2.86-4.7-9.24-4.7-14.7,0-29.22,8.58-33.54,20.08-3.86,10.27,2.23,19.04,13.91,19.04,10.54,0,17.61-6.42,20.07-14.24l.61-1.96h-13.12c-.63,2.59.12,5.62,4.15,5.62,1.11,0,2.2-.27,3.16-.81.1-.05.14.02.08.08-1.85,2.37-5.56,4.88-10.07,4.88Z"/>
        <path class="cls-1" d="m67.09,71.34c3.62.63,6.13-.88,7.3-3.74.49-1.19.92-2.64,1.23-4.19.5-2.43-2.28-3.21-5.24-3.26l-3.29,11.19Z"/>
        <path class="cls-4" d="m83.18,58.92c.54-3.17-.77-5.48-3.69-5.79-1.22-.13-2.45-.22-4.08-.1-2.57.2-3.42,1.4-4.66,5.89h12.43Z"/>
        <path class="cls-3" d="m65.19,51.8c-.44,1.05-.94,2.52-1.2,3.9-.41,2.18,1.85,3.15,5.26,3.22l3.13-10.64c-3.69-.79-6.13.96-7.19,3.52Z"/>
      </g>
    </g>
  </g>
</svg>