<?xml version="1.0" encoding="UTF-8"?>
<svg id="Layer_2" data-name="Layer 2" xmlns="http://www.w3.org/2000/svg" viewBox="0 0 370.19 497.59">
  <defs>
    <style>
      .cls-1 {
        fill: #004896;
        stroke-width: 0px;
      }
    </style>
  </defs>
  <g id="Layer_1-2" data-name="Layer 1">
    <g>
      <path class="cls-1" d="m0,0v497.59h370.19V0H0Zm187.48,164.7h-42.94l-40.9-67.7-40.91,67.7H19.79L86.38,55.89v-27.8h34.46v27.8l66.64,108.8Zm-33.61,59.04v30.41h-33.57v55.12h-33.56v-130.8h33.56v45.26h33.57Zm-50.32,100.2c32.53,0,50.54,20.88,50.54,20.88,22.31,22.31,20.85,50.32,20.85,50.32,0,31.22-20.91,50.52-20.91,50.52-22.06,22.05-50.48,20.87-50.48,20.87-31.99,0-50.31-20.87-50.31-20.87-22.96-22.96-20.89-50.53-20.89-50.53,0-32.31,20.88-50.29,20.88-50.29,23.16-23.16,50.33-20.91,50.33-20.91Zm113.18-42.53v-30.41h33.57v-16.59h-33.57v-30.41h33.57v-25.53h33.57v130.8h-33.57v-27.87h-33.57Zm-13.23-118.41V34.44h127.55v128.55h-127.55Zm13.05,181.86c23.16-23.16,50.33-20.91,50.33-20.91,32.54,0,50.54,20.88,50.54,20.88,22.31,22.31,20.85,50.32,20.85,50.32,0,31.22-20.92,50.52-20.92,50.52-22.05,22.05-50.48,20.87-50.48,20.87-31.99,0-50.31-20.87-50.31-20.87-22.96-22.96-20.89-50.53-20.89-50.53,0-32.31,20.88-50.29,20.88-50.29Z"/>
      <path class="cls-1" d="m266.88,432.47s14.92.65,26.43-10.87c0,0,10.91-10.03,10.91-26.47,0,0,.16-15.22-10.88-26.25,0,0-9.54-11-26.47-11,0,0-14.15-1.62-26.34,10.95,0,0-10.91,9.66-10.91,26.3,0,0-1.05,14.53,10.95,26.52,0,0,9.66,10.82,26.3,10.82Z"/>
      <rect class="cls-1" x="237.41" y="64.85" width="60.46" height="67.73"/>
      <path class="cls-1" d="m103.55,432.47s14.92.65,26.43-10.87c0,0,10.91-10.03,10.91-26.47,0,0,.16-15.22-10.88-26.25,0,0-9.54-11-26.46-11,0,0-14.15-1.62-26.34,10.95,0,0-10.91,9.66-10.91,26.3,0,0-1.05,14.53,10.95,26.53,0,0,9.66,10.81,26.3,10.81Z"/>
    </g>
  </g>
</svg>