<?xml version="1.0" encoding="UTF-8"?>
<svg id="Layer_2" data-name="Layer 2" xmlns="http://www.w3.org/2000/svg" viewBox="0 0 184.16 173.26">
  <defs>
    <style>
      .cls-1 {
        fill: #231f20;
      }

      .cls-1, .cls-2, .cls-3 {
        stroke-width: 0px;
      }

      .cls-2 {
        fill: #72bf44;
      }

      .cls-3 {
        fill: #fff;
      }
    </style>
  </defs>
  <g id="Layer_1-2" data-name="Layer 1">
    <g>
      <path class="cls-2" d="m63.34,84.44c3.33-5.41,5.51-12.13,7.63-18.63,2.38-7.31,4.83-14.87,8.97-21.01,15.3-24.32,35.56-30.59,54.51-34.34-19.84,3.32-42.21,9.61-57.89,34.54-7.72,11.47-9.39,27.92-16.58,39.61-3.18,5.17-10.01,15.95-26.12,17.09,9.97.24,20.99-3.46,29.49-17.28Z"/>
      <path class="cls-2" d="m161.46,7.02c-24.57,7.23-56.92,3.81-78.94,38.81-7.72,11.47-9.39,27.92-16.58,39.61-4.69,7.62-18.71,28.41-54.88,11.72-.67-.34-4.26-2.21-5.92-4.26-1.29-1.59-1.69-2.54-1.69-2.54l-3.44,2.34,3.66,1.94c1.52.93,3.97,2.32,7.12,3.78h0s.01,0,.01,0c10.88,5.04,29.89,10.69,46.34-.66l.12-.1c19.73-4.3,54,6.32,71.56-7.3,24.63-16.88,54.45-70.8,55.36-90.38-10.34,4.33-18.64,5.96-22.7,7.02Z"/>
    </g>
    <path class="cls-3" d="m103.44,68.49c-6.13,4.79-11.16,8.47-15.4,11.39,12.02-.13,40.32,6.47,42.26,6.94.07.02.01.14.01.14,0,0-38.98-6.48-44.44-4.21-3.89,1.61-6.09,7.06.04,13.95.03.03-.19,0-.16.03,0,0-7.4-6.37-6.43-11.23-7.18,4.29-11.79,6.14-17.46,9.35,23.21-13.99,64.15-47.44,83.91-62.09-17.38,15.72-26.08,23.63-42.33,35.74Z"/>
    <g>
      <g>
        <path class="cls-1" d="m30.76,169.24c.43.31.64.81.64,1.51,0,.64-.27,1.22-.82,1.74-.55.51-1.23.77-2.04.77-.98,0-1.72-.31-2.23-.92-.51-.62-.77-1.25-.77-1.9h1.23c-.02.5.13.93.46,1.27.33.34.76.51,1.29.51.57,0,.99-.16,1.26-.47.27-.31.41-.63.41-.95,0-.38-.16-.66-.47-.86-.31-.19-.64-.37-1-.53-.56-.26-1.2-.53-1.91-.81-.71-.28-1.06-.82-1.06-1.61,0-.64.27-1.21.81-1.69.54-.49,1.19-.73,1.95-.73.81,0,1.46.26,1.96.78.5.52.77,1.1.81,1.73h-1.22c0-.24-.13-.55-.38-.92-.24-.37-.63-.55-1.17-.55-.48,0-.86.14-1.13.42-.27.28-.41.58-.41.91,0,.42.3.74.91.96.61.21,1.1.41,1.49.58.49.21.95.48,1.37.78Z"/>
        <path class="cls-1" d="m33.31,172.99v-8.26h5.44v1.02h-4.2v2.44h4.09v1.03h-4.09v2.73h4.3v1.03h-5.54Z"/>
        <path class="cls-1" d="m47.89,165.78c.85.85,1.27,1.87,1.27,3.07s-.42,2.21-1.27,3.07c-.85.85-1.87,1.28-3.06,1.28s-2.21-.43-3.07-1.28c-.85-.85-1.28-1.87-1.28-3.07s.43-2.21,1.28-3.07c.85-.85,1.87-1.28,3.07-1.28s2.21.43,3.06,1.28Zm-.8,5.33c.63-.62.94-1.38.94-2.27s-.31-1.63-.94-2.26-1.38-.94-2.26-.94-1.65.31-2.27.94c-.63.63-.94,1.38-.94,2.26s.31,1.64.94,2.27c.62.62,1.38.93,2.27.93s1.63-.31,2.26-.93Z"/>
        <path class="cls-1" d="m55.6,173l-3.33-3.68v3.69h-1.23v-8.26h1.23v3.7l3.33-3.7h1.54l-3.77,4.13,3.78,4.14-1.55-.02Z"/>
        <path class="cls-1" d="m62.82,170.04v2.99h-1.23v-2.99l-3.01-5.29,1.35.02,2.27,3.99,2.25-3.99h1.38s-3.01,5.26-3.01,5.26Z"/>
        <path class="cls-1" d="m67.44,172.99v-8.26h5.44v1.02h-4.2v2.44h4.09v1.03h-4.09v2.73h4.3v1.03h-5.54Z"/>
        <path class="cls-1" d="m82.02,165.78c.85.85,1.27,1.87,1.27,3.07s-.42,2.21-1.27,3.07c-.85.85-1.87,1.28-3.06,1.28s-2.21-.43-3.06-1.28c-.85-.85-1.28-1.87-1.28-3.07s.43-2.21,1.28-3.07c.85-.85,1.87-1.28,3.06-1.28s2.21.43,3.06,1.28Zm-.8,5.33c.63-.62.94-1.38.94-2.27s-.31-1.63-.94-2.26-1.38-.94-2.26-.94-1.64.31-2.27.94c-.62.63-.94,1.38-.94,2.26s.31,1.64.94,2.27c.63.62,1.38.93,2.27.93s1.63-.31,2.26-.93Z"/>
        <path class="cls-1" d="m90.33,173.04l-3.99-6.33v6.34h-1.22v-8.26h1.36s4.02,6.36,4.02,6.36v-6.36h1.2v8.26h-1.37Z"/>
        <path class="cls-1" d="m102.07,168.69c0,1.36-.44,2.45-1.32,3.27-.88.82-1.88,1.23-3.02,1.23-1.19,0-2.21-.43-3.07-1.28-.85-.85-1.28-1.88-1.28-3.08s.43-2.21,1.28-3.07c.85-.85,1.87-1.28,3.07-1.28.98,0,1.85.29,2.61.88.76.58,1.28,1.34,1.57,2.27h-1.2c-.2-.46-.55-.91-1.04-1.34-.5-.44-1.14-.66-1.93-.66-.85,0-1.6.31-2.24.92-.64.61-.96,1.37-.96,2.28s.33,1.69.98,2.3c.65.61,1.39.91,2.22.91.9,0,1.61-.26,2.13-.78.51-.52.84-1.03.97-1.53h-3.57v-1.04h4.8Z"/>
        <path class="cls-1" d="m115.11,170.09c0,.71-.27,1.4-.8,2.08-.53.67-1.3,1.01-2.29,1.01s-1.73-.34-2.27-1.01c-.54-.67-.81-1.37-.81-2.08v-5.39h1.13v5.48c0,.43.17.86.5,1.29.34.43.82.65,1.45.65s1.11-.22,1.45-.65.5-.86.5-1.29v-5.48h1.12v5.39Z"/>
        <path class="cls-1" d="m122.11,173.04l-3.99-6.33v6.34h-1.22v-8.26h1.35s4.02,6.36,4.02,6.36v-6.36h1.2v8.26h-1.37Z"/>
        <path class="cls-1" d="m125.42,173.05v-8.28h1.23v8.28h-1.23Z"/>
        <path class="cls-1" d="m133.06,173.09h-1.18l-3.49-8.28h1.33l2.74,6.58,2.75-6.58h1.31l-3.48,8.28Z"/>
        <path class="cls-1" d="m138.12,172.99v-8.26h5.44v1.02h-4.2v2.44h4.09v1.03h-4.09v2.73h4.3v1.03h-5.54Z"/>
        <path class="cls-1" d="m150.12,173.04l-3.34-4.08h1.93c.43,0,.81-.15,1.13-.44.33-.3.49-.68.49-1.15s-.17-.88-.5-1.19c-.33-.3-.71-.46-1.13-.46h-2.06v7.33h-1.15v-8.26h3.4c.64,0,1.22.24,1.75.72.53.48.8,1.1.8,1.86s-.27,1.33-.82,1.8c-.54.47-1.11.71-1.69.74l2.57,3.15-1.39-.02Z"/>
        <path class="cls-1" d="m158.36,169.24c.43.31.64.81.64,1.51,0,.64-.27,1.22-.82,1.74-.55.51-1.23.77-2.04.77-.98,0-1.72-.31-2.23-.92-.51-.62-.77-1.25-.77-1.9h1.23c-.02.5.13.93.46,1.27.33.34.76.51,1.29.51.57,0,.99-.16,1.26-.47.27-.31.41-.63.41-.95,0-.38-.16-.66-.47-.86-.31-.19-.64-.37-1-.53-.56-.26-1.2-.53-1.91-.81-.71-.28-1.06-.82-1.06-1.61,0-.64.27-1.21.81-1.69.54-.49,1.19-.73,1.96-.73.81,0,1.46.26,1.96.78.5.52.77,1.1.81,1.73h-1.22c0-.24-.13-.55-.38-.92-.25-.37-.63-.55-1.17-.55-.48,0-.86.14-1.13.42-.27.28-.41.58-.41.91,0,.42.3.74.91.96.61.21,1.1.41,1.49.58.49.21.95.48,1.37.78Z"/>
        <path class="cls-1" d="m161.05,173.05v-8.28h1.23v8.28h-1.23Z"/>
        <path class="cls-1" d="m167.7,165.87v7.09h-1.07v-7.09h-2.3v-1h5.68v1h-2.31Z"/>
        <path class="cls-1" d="m175.99,170.04v2.99h-1.23v-2.99l-3.01-5.29,1.35.02,2.27,3.99,2.25-3.99h1.38s-3.01,5.26-3.01,5.26Z"/>
      </g>
      <g>
        <path class="cls-1" d="m123.57,117.51c.34.25.51.65.51,1.22,0,.52-.22.99-.66,1.4-.44.42-.99.62-1.65.62-.79,0-1.39-.25-1.81-.74-.41-.5-.62-1.01-.62-1.54h1c-.02.41.11.75.37,1.03.26.27.61.41,1.05.41.46,0,.8-.13,1.02-.38.22-.26.33-.51.33-.77,0-.31-.13-.54-.37-.69-.25-.16-.52-.3-.81-.43-.45-.21-.97-.43-1.54-.66-.58-.23-.86-.66-.86-1.3,0-.52.22-.98.66-1.37.44-.39.96-.59,1.58-.59.65,0,1.18.21,1.58.63.4.42.62.89.66,1.4h-.99c0-.2-.11-.44-.31-.74-.19-.3-.51-.45-.94-.45-.39,0-.69.11-.91.34-.22.22-.33.47-.33.73,0,.34.25.6.74.77.49.17.89.33,1.2.47.39.17.76.38,1.11.63Z"/>
        <path class="cls-1" d="m125.66,120.6v-6.69h.99v6.69h-.99Z"/>
        <path class="cls-1" d="m132.32,120.59l-3.22-5.12v5.13h-.99v-6.68h1.1s3.25,5.14,3.25,5.14v-5.14h.97v6.68h-1.11Z"/>
        <path class="cls-1" d="m140.52,115.93c-.15-.22-.41-.51-.76-.84-.36-.34-.87-.51-1.54-.51-.75,0-1.37.26-1.86.79-.49.52-.74,1.12-.74,1.8s.24,1.28.73,1.8c.48.52,1.11.78,1.86.78.66,0,1.17-.17,1.55-.51.37-.34.62-.62.74-.84h1c-.23.61-.64,1.15-1.23,1.6-.58.45-1.27.67-2.05.67-.97,0-1.8-.35-2.49-1.03-.69-.69-1.03-1.51-1.03-2.48s.34-1.79,1.03-2.48c.69-.69,1.52-1.03,2.49-1.03.78,0,1.47.22,2.05.67.58.45,1,.98,1.24,1.61h-.99Z"/>
        <path class="cls-1" d="m142.9,120.56v-6.68h4.4v.83h-3.4v1.98h3.3v.84h-3.3v2.21h3.47v.84h-4.48Z"/>
        <path class="cls-1" d="m154.96,120.69v-5.91h-1.66v-.79h2.62v6.7h-.96Z"/>
        <path class="cls-1" d="m161.7,114.5c.46.45.68,1,.68,1.65,0,.2-.02.37-.06.53-.04.16-.1.32-.19.46l-1.99,3.52h-.98s1.4-2.45,1.4-2.45c-.62.19-1.24.1-1.85-.28-.62-.37-.94-.97-.98-1.79-.03-.63.19-1.17.66-1.63.47-.47,1.03-.69,1.66-.69s1.19.23,1.65.68Zm-.62,2.59c.28-.28.42-.62.42-1.03s-.14-.75-.42-1.03c-.28-.28-.62-.43-1.03-.43s-.75.14-1.04.43c-.28.28-.42.62-.42,1.03s.14.74.42,1.03c.28.28.63.42,1.04.42s.75-.14,1.03-.42Z"/>
        <path class="cls-1" d="m167.78,119.74v.86h-.96v-.86h-3.09v-.73l3.15-5.11h.89s0,4.99,0,4.99h.68v.84h-.68Zm-.96-4.13l-2.06,3.29h2.06v-3.29Z"/>
        <path class="cls-1" d="m174.37,114.76l-2.9,5.84h-1.01s.44-.93,1.33-2.73c.89-1.79,1.4-2.83,1.55-3.13h-3.44v-.83h4.47v.84Z"/>
      </g>
      <path class="cls-1" d="m72.64,132.63c.27-.81.55-1.83.55-2.79,0-.64-.13-1.24-.47-1.73-.57-.83-1.72-1.28-3.5-1.34h-10.73v2.77c1.08,0,9.12,0,9.12,0,.84.05,1.39.31,1.69.79.15.25.22.52.22.82,0,.56-.23,1.19-.51,1.85-2.25,4.49-7.18,5.27-11.4,5.33v2.64c7.89-.15,13.09-3.06,15.03-8.33Zm1.99,7.59c-5.58,0-10.11,4.53-10.11,10.11s4.53,10.11,10.11,10.11,10.11-4.53,10.11-10.11-4.53-10.11-10.11-10.11Zm0,17.18c-3.91,0-7.07-3.17-7.07-7.07s3.17-7.07,7.07-7.07,7.07,3.17,7.07,7.07-3.16,7.07-7.07,7.07Zm-22.61-30.97h-1.02v5.23h-8.9v2.88h8.9v10.25h-3.07c-5.53,0-10.05-4.41-10.3-10.07v-8.28h-3.43c0,1.07,0,8.31,0,8.31-.23,5.42-4.43,9.66-9.67,9.98v3.2c4.41-.2,8.45-2.41,10.88-6.1l.52-.79.51.79c2.54,3.87,6.83,6.17,11.49,6.17h3.07v9.79h3.32v-29.06c0-1.27-1.03-2.3-2.3-2.3Zm29.06,15.12h3.32v-12.7c0-1.27-1.03-2.3-2.3-2.3h-1.02v2.45h-6.12v2.55h6.12v2.91h-6.12v2.54h6.12v4.56Zm95.66,7.47v-15.19c0-4.56-3.66-6.95-7.28-6.95h-15.95v3.03h15.95c1.87,0,3.41,1.16,3.85,3.25v15.85h-4.8v-9.49c0-1.27-1.03-2.3-2.3-2.3h-1.14v11.79h-3.98v-9.49c0-1.27-1.03-2.3-2.3-2.3h-1.02v11.79h-6.05v2.54h28.01v-2.54h-3Zm-30.79-20.28c0-1.27-1.03-2.3-2.3-2.3h-1.13v17.23h3.43v-8.57h4.23v-2.88h-4.23v-3.49Zm-33.15-1.96h-1.02v5.45h-4.02v-3.16h0c0-1.27-1.03-2.3-2.3-2.3h-1.13v15.24h-11.03l-.07-.02c-.35-.08-1.41-.35-1.59-1.94v-10.51h8.12v-2.77h-11.33v13.62c0,2.42,2.07,4.38,4.61,4.38h11.29v13.02h3.44v-22.8h4.02v22.8h3.32v-28.73c0-1.27-1.03-2.3-2.3-2.3Zm26.32,19.25h-16.4v2.88h16.4c2.19,0,3.15.91,3.29,3.17v5.72h3.43v-5.72c0-2.99-.8-6.05-6.72-6.05Zm-2.64-10.71c0-2.14-.84-4.08-2.2-5.55h2.9v-2.88h-7.34v-.59c0-1.27-1.03-2.3-2.3-2.3h-1.02v2.89h-7.34v2.88h2.9c-1.35,1.47-2.2,3.4-2.2,5.55,0,4.55,3.72,8.24,8.3,8.24s8.3-3.69,8.3-8.24Zm-13.59,0c0-2.9,2.37-5.25,5.29-5.25s5.29,2.35,5.29,5.25-2.37,5.26-5.29,5.26-5.29-2.35-5.29-5.26Z"/>
    </g>
  </g>
</svg>