<?xml version="1.0" encoding="UTF-8"?>
<svg id="Layer_2" data-name="Layer 2" xmlns="http://www.w3.org/2000/svg" viewBox="0 0 297.77 286.79">
  <defs>
    <style>
      .cls-1 {
        fill: #25408f;
        stroke-width: 0px;
      }
    </style>
  </defs>
  <g id="Layer_1-2" data-name="Layer 1">
    <g>
      <g>
        <path class="cls-1" d="m126.39,89.31v1.24c3.88,0,4,4.29,4,4.29v11.83h-12.99l-4.76-9.68,1.85-5.87h-12.96v1.34c2.37,0,4.79,1.4,3.74,5.27l-11.38,39.39h6.06l9.83-31.1,16.68,31.1h4.03v2.49h6.92v-50.3h-11.02Zm-6.38,22.66h10.48v21.29l-10.48-21.29Z"/>
        <path class="cls-1" d="m166.06,113.55v5.01h14.14v12.24h-27.13v3.05h31.79l-2.71,4.95h-36.09v-8.23s-.66-3.27-3.13-3.27v-.91h30.25v-3.04h-27.02l-2.16-4.81h14.92v-5.01h-18.6l-2.7-4.73h14.31c-3.12-2.13-5.09-5.19-5.09-8.58,0-5.46,5.09-10.04,11.97-11.29v-.43s-.54-1.01-1.62-1.01v-.79h7.34s1.52.79,1.62,1.8c.02.14.02.27.03.4,6.96,1.21,12.15,5.81,12.15,11.32,0,3.39-1.97,6.45-5.1,8.58h14.11l-2.49,4.73h-18.81Zm-3.46-5.48c4.73,0,8.55-3.5,8.55-7.83s-3.82-7.81-8.55-7.81-8.57,3.51-8.57,7.81,3.85,7.83,8.57,7.83Z"/>
        <path class="cls-1" d="m126.6,146.5v1.5s4.3.6,4.3,3.31h-18.68c-.33-.11-.67-.22-1.02-.3-.31-1.21-.82-3.59-1.31-4.5h-8.07v1.19s2.74,0,2.74,2.86v.2c-7.59,1.34-13.37,8.14-13.37,16.34,0,9.17,7.21,16.6,16.1,16.6,6.33,0,11.8-3.77,14.43-9.23h9.18v25.14h7.08v-53.1h-11.38Zm4.3,23.19h-7.71c.14-.85.2-1.72.2-2.6,0-4.21-1.52-8.04-4.03-10.98h11.54v13.58Zm-32.09-2.75c0-5.99,3.92-10.85,8.77-10.85s8.76,4.86,8.76,10.85-3.93,10.85-8.76,10.85-8.77-4.86-8.77-10.85Z"/>
        <path class="cls-1" d="m140.02,150.32v1.28s3.75-.16,3.75,4.66v27.97l20.88-5.87v15.28h7.13v-23.53h6.62v23.53h7.07v-46.32h-10.66v.97s3.59,1.05,3.59,4.21v12.47h-6.76v-17.66h-10.23v.97s3.25.45,3.25,5.11v19.25l-13.82,4.21v-21.36h8.66l3.02-5.19h-22.48Z"/>
      </g>
      <g>
        <path class="cls-1" d="m110.4,14.11c2.45,0,4.44-1.99,4.44-4.46s-1.99-4.45-4.44-4.45-4.46,1.99-4.46,4.45,2.01,4.46,4.46,4.46Z"/>
        <path class="cls-1" d="m118.52,42.45c2.45,0,4.46-1.99,4.46-4.45s-2.01-4.45-4.46-4.45-4.44,1.98-4.44,4.45,1.99,4.45,4.44,4.45Z"/>
        <path class="cls-1" d="m192.94,24.73c-19.9,0-17.07,5.97-30,7.13-14.57,1.31-37.13-17.07-42.26-20.89,3.98.34,49.72,9.78,61.33,12.43v-1.82c-13.09-3.32-47.24-9.44-62.16-12.76C137.58.71,151.52-.17,161.79,4.35c6.78,2.98,13.74,10.77,17.56,13.75,2.13,1.67,7.62,3.15,12.26,3.32l-1.15-1.99c-3.15,0-6.81-.83-8.62-1.98-4.13-2.65-11.1-11.44-19.56-14.92-16.38-6.75-40.44,1.66-46.57,6.3,3.14,3.48,9.78,8.95,13.09,11.27-1.83,2.82-8.62,9.62-12.44,11.6,9.45-.5,26.86,14.42,45.59,4.8,18.73-9.6,21.22-10.11,31.81-9.77l-.82-2Zm-62.15-3.15s5.47,3.48,8.44,5.15c-2.97.49-16.57,2.81-16.57,2.81,3.31-3.32,7.29-6.47,8.13-7.96Zm-6.8,9.95c2.66-.34,14.59-2.15,18.07-3.16,4.97,1.83,11.92,6.14,19.73,5.81-14.11,7.46-24.71,1.83-37.8-2.65Z"/>
        <path class="cls-1" d="m179.83,13.26c2.12,1.22,4.86.49,6.08-1.64,1.24-2.12.5-4.85-1.63-6.08-2.13-1.22-4.85-.5-6.08,1.63-1.23,2.14-.5,4.86,1.63,6.09Z"/>
        <path class="cls-1" d="m172.7,41.87c2.14,1.23,4.86.5,6.09-1.64,1.22-2.12.5-4.85-1.64-6.07-2.14-1.23-4.86-.5-6.08,1.63-1.24,2.13-.5,4.84,1.63,6.08Z"/>
        <path class="cls-1" d="m190.28,15.68c3.29,2.27,38.2,33.31,46.93,41.4l.91-1.58c-9.7-9.41-36.21-31.78-47.47-42.1,19.41,1.81,31.92,8.03,38.56,17.06,4.38,5.98,6.53,16.2,8.34,20.7,1.02,2.51,5.04,6.54,8.98,9v-2.3c-2.74-1.57-5.49-4.12-6.49-6.01-2.26-4.37-3.91-15.46-9.49-22.71-10.83-14.03-35.85-18.76-43.49-17.8.99,4.58,4,12.63,5.72,16.3-2.99,1.54-12.27,4.02-16.57,3.84,8.44,4.29,16.06,25.91,37.1,26.93,21.02,1.03,23.43,1.85,32.45,7.43l.27-2.14c-17.22-9.93-17.77-3.35-29.55-8.81-13.25-6.13-23.63-33.32-26.19-39.2Zm3.46,14.24s3.01,5.75,4.77,8.67c-2.83-1.06-15.76-5.84-15.76-5.84,4.52-1.21,9.54-1.96,10.99-2.83Zm-10.85,5.22c2.47,1.04,13.71,5.42,17.23,6.3,3.4,4.07,7.26,11.27,14.18,14.88-15.93-.57-22.3-10.76-31.41-21.17Z"/>
        <path class="cls-1" d="m240.4,47.21c1.23,2.13,3.95,2.86,6.08,1.62,2.13-1.22,2.86-3.95,1.63-6.08-1.24-2.13-3.96-2.85-6.09-1.62-2.13,1.22-2.86,3.95-1.62,6.09Z"/>
        <path class="cls-1" d="m219.94,68.43c1.24,2.13,3.95,2.86,6.09,1.63,2.12-1.23,2.85-3.96,1.62-6.09-1.22-2.12-3.95-2.86-6.09-1.61-2.13,1.23-2.84,3.95-1.62,6.07Z"/>
        <path class="cls-1" d="m276.4,86.3c-2.37-17.57-21.68-34.18-28.77-37.15-1.43,4.47-2.85,12.95-3.19,16.99-3.36-.17-12.65-2.64-16.27-4.96,5.14,7.93.96,30.47,18.67,41.87,8.06,5.18,12.81,8.41,16.06,11.26l2.67-.18c-5.31-5.61-8.78-4.85-14.21-12.55-8.42-11.95-3.83-40.69-3.1-47.05,1.71,3.61,17.24,46.27,20.77,57.65l1.57-.92c-3.69-13-16.27-43.96-20.89-58.53,15.91,11.27,23.63,22.9,24.89,34.05.81,7.37-2.43,17.31-3.11,22.1-.18,1.26.06,3.18.59,5.28l1.69-.17c-.32-1.23-.49-2.38-.45-3.29.22-4.91,4.33-15.34,3.1-24.4Zm-32.27-17.7s-.27,6.49-.21,9.89c-1.92-2.34-10.74-12.94-10.74-12.94,4.54,1.21,9.24,3.06,10.95,3.04Zm4.63,33.13c-13.52-8.46-13.95-20.46-16.65-34.03,1.62,2.13,9.17,11.55,11.78,14.06.91,5.21.68,13.4,4.87,19.97Z"/>
        <path class="cls-1" d="m50.86,49.34c2.14-1.23,2.87-3.94,1.64-6.09-1.22-2.13-3.95-2.87-6.07-1.64-2.14,1.22-2.88,3.95-1.65,6.08,1.22,2.13,3.94,2.87,6.08,1.65Z"/>
        <path class="cls-1" d="m72.01,69.88c2.12-1.22,2.86-3.95,1.64-6.08-1.23-2.14-3.95-2.87-6.08-1.65-2.14,1.23-2.87,3.95-1.65,6.08,1.23,2.14,3.94,2.87,6.08,1.65Z"/>
        <path class="cls-1" d="m127.74,17.47c-17.25,9.9-11.84,13.66-22.47,21.11-11.98,8.38-40.71,3.68-47.06,2.93,3.62-1.7,48-16.27,59.38-19.75l-.91-1.58c-13.01,3.64-45.67,15.31-60.27,19.86,11.34-15.86,22.99-23.55,34.14-24.75,7.39-.8,17.3,2.49,22.09,3.19,2.67.38,8.18-1.07,12.29-3.23l-2-1.15c-2.73,1.56-6.32,2.67-8.47,2.57-4.91-.24-15.33-4.39-24.39-3.2-17.58,2.3-34.25,21.56-37.26,28.65,4.47,1.45,12.94,2.89,16.98,3.25-.18,3.36-2.69,12.64-5.02,16.26,7.94-5.14,30.46-.86,41.94-18.53,11.46-17.66,13.35-19.32,22.73-24.32l-1.71-1.31Zm-55.48,28.21s6.48.29,9.89.24c-2.34,1.92-12.98,10.69-12.98,10.69,1.23-4.52,3.11-9.23,3.08-10.93Zm-.94,12c2.13-1.61,11.58-9.13,14.09-11.72,5.22-.9,13.41-.63,20-4.8-8.51,13.5-20.51,13.88-34.09,16.52Z"/>
        <path class="cls-1" d="m16.76,109.52c1.23-2.13.52-4.85-1.6-6.09-2.13-1.24-4.86-.53-6.1,1.6-1.24,2.13-.52,4.85,1.61,6.09,2.13,1.25,4.85.53,6.1-1.6Z"/>
        <path class="cls-1" d="m45.32,116.81c1.25-2.12.53-4.86-1.6-6.09-2.13-1.24-4.85-.53-6.09,1.59-1.24,2.13-.54,4.86,1.59,6.09,2.13,1.24,4.85.53,6.09-1.6Z"/>
        <path class="cls-1" d="m67.56,43.61c-10.03,17.17-3.46,17.75-8.98,29.5-6.22,13.23-33.46,23.45-39.36,25.97,2.29-3.27,33.53-38,41.67-46.69l-1.57-.93c-9.47,9.65-31.99,36.04-42.38,47.25,1.95-19.41,8.22-31.88,17.29-38.47,6-4.36,16.25-6.45,20.74-8.23,2.51-.99,6.57-4.99,9.06-8.92h-2.3c-1.59,2.72-4.15,5.46-6.06,6.44-4.37,2.23-15.48,3.82-22.75,9.36-14.1,10.75-18.96,35.76-18.05,43.39,4.6-.96,12.67-3.93,16.34-5.61,1.5,2.99,3.95,12.29,3.76,16.58,4.33-8.4,25.99-15.91,27.13-36.93,1.15-21.03,1.97-23.43,7.61-32.42l-2.14-.29Zm-31.29,63.11c-1.2-4.53-1.91-9.56-2.79-11.02,0,0,5.77-2.97,8.7-4.71-1.08,2.83-5.92,15.73-5.92,15.73Zm2.38-.14c1.05-2.46,5.49-13.68,6.4-17.19,4.09-3.38,11.31-7.2,14.95-14.1-.66,15.93-10.88,22.24-21.35,31.29Z"/>
        <path class="cls-1" d="m22.01,99.28s3.85,9.32-11.31,18.77c-13.65,8.5-8.96,16.65-2.25,22.5,3.12-9.44,9.08-20,15.18-37.04l1.61.13c-2.6,8.59-9.69,20.64-15.53,38.04,15.66-6.46,20.14-18.39,21.14-23.62-4.22-8.57-3.86-14.67-3.49-20.76l1.86-.62c-3.23,19.52,11.69,29.47,12.19,36.67.19,2.95-3.12,6.72-7.59,9.99-2.48-1.37-6.71-5.51-9.57-9.48-3.6,4.1-9.81,8.45-15.29,9.48-12.3-9.08-11.8-19.31.75-26.39,12.56-7.09,10.81-14.67,10.68-16.91l1.62-.75Zm11.05,41.65c-.24-2.62-2.48-10.07-3.97-13.18-.62,1.24-3.73,5.09-3.73,5.09,3.12,3.98,5.1,6.09,7.71,8.08Zm6.35-7.33c0-2.86-4.6-9.32-7.22-13.05,0,1.6-1.87,6.21-1.87,6.21,1.87,3.36,3.86,12.55,3.97,14.3.76-.75,5.11-4.6,5.11-7.46Z"/>
        <path class="cls-1" d="m110.4,272.69c2.45,0,4.44,1.99,4.44,4.45s-1.99,4.44-4.44,4.44-4.46-1.99-4.46-4.44,2.01-4.45,4.46-4.45Z"/>
        <path class="cls-1" d="m118.52,244.34c2.45,0,4.46,1.99,4.46,4.45s-2.01,4.45-4.46,4.45-4.44-2-4.44-4.45,1.99-4.45,4.44-4.45Z"/>
        <path class="cls-1" d="m162.94,254.93c12.93,1.15,10.1,7.12,30,7.12l.82-1.99c-10.6.33-13.08-.17-31.81-9.78-18.73-9.61-36.14,5.3-45.59,4.81,3.82,1.99,10.61,8.79,12.44,11.6-3.32,2.31-9.96,7.78-13.09,11.27,6.13,4.64,30.19,13.06,46.57,6.31,8.46-3.5,15.42-12.27,19.56-14.93,1.82-1.17,5.47-1.99,8.62-1.99l1.15-2c-4.64.18-10.13,1.67-12.26,3.32-3.82,2.99-10.78,10.78-17.56,13.76-10.27,4.51-24.21,3.65-41.94-4.48,14.92-3.31,49.07-9.44,62.16-12.76v-1.81c-11.6,2.65-57.35,12.09-61.33,12.43,5.13-3.81,27.7-22.2,42.26-20.88Zm-32.15,10.27c-.84-1.48-4.82-4.64-8.13-7.95,0,0,13.6,2.32,16.57,2.82-2.97,1.66-8.44,5.13-8.44,5.13Zm-6.8-9.94c13.09-4.48,23.69-10.11,37.8-2.65-7.81-.32-14.77,3.98-19.73,5.8-3.47-1-15.41-2.83-18.07-3.16Z"/>
        <path class="cls-1" d="m179.83,273.52c2.12-1.23,4.86-.49,6.08,1.64,1.24,2.12.5,4.85-1.63,6.08-2.13,1.23-4.85.51-6.08-1.64-1.23-2.13-.5-4.85,1.63-6.08Z"/>
        <path class="cls-1" d="m172.7,244.92c2.14-1.23,4.86-.5,6.09,1.63,1.22,2.13.5,4.85-1.64,6.08-2.14,1.24-4.86.51-6.08-1.63-1.24-2.12-.5-4.85,1.63-6.07Z"/>
        <path class="cls-1" d="m237.56,235.62c-1.81,4.49-3.95,14.71-8.34,20.69-6.64,9.04-19.15,15.24-38.56,17.08,11.26-10.34,37.78-32.7,47.47-42.12l-.91-1.58c-8.74,8.09-43.65,39.13-46.93,41.39,2.56-5.86,12.94-33.05,26.19-39.2,11.78-5.45,12.33,1.13,29.55-8.81l-.27-2.13c-9.02,5.59-11.43,6.4-32.45,7.43-21.03,1.03-28.66,22.63-37.1,26.93,4.3-.18,13.58,2.31,16.57,3.83-1.71,3.66-4.73,11.72-5.72,16.31,7.64.97,32.67-3.77,43.49-17.81,5.58-7.24,7.23-18.33,9.49-22.7,1-1.92,3.76-4.46,6.48-6.03v-2.3c-3.92,2.46-7.94,6.5-8.97,9Zm-23.25-5.15c-6.92,3.6-10.78,10.81-14.18,14.88-3.52.87-14.76,5.26-17.23,6.29,9.11-10.42,15.48-20.6,31.41-21.17Zm-31.56,23.56s12.93-4.79,15.76-5.84c-1.76,2.93-4.77,8.67-4.77,8.67-1.46-.87-6.47-1.61-10.99-2.83Z"/>
        <path class="cls-1" d="m240.4,239.58c1.23-2.12,3.95-2.85,6.08-1.63,2.13,1.24,2.86,3.97,1.63,6.1-1.24,2.12-3.96,2.86-6.09,1.62-2.13-1.23-2.86-3.95-1.62-6.09Z"/>
        <path class="cls-1" d="m219.94,218.35c1.24-2.13,3.95-2.86,6.09-1.62,2.12,1.23,2.85,3.96,1.62,6.08-1.22,2.14-3.95,2.87-6.09,1.63-2.13-1.24-2.84-3.95-1.62-6.08Z"/>
        <path class="cls-1" d="m273.3,176.08c-.04-.89.13-2.04.45-3.27l-1.69-.18c-.53,2.1-.77,4.01-.59,5.28.68,4.79,3.92,14.72,3.11,22.09-1.25,11.15-8.98,22.77-24.89,34.05,4.61-14.57,17.19-45.53,20.89-58.52l-1.57-.92c-3.53,11.38-19.06,54.03-20.77,57.64-.73-6.35-5.31-35.1,3.1-47.05,5.43-7.71,8.9-6.95,14.21-12.56l-2.67-.18c-3.24,2.86-7.99,6.08-16.06,11.28-17.71,11.39-13.53,33.93-18.67,41.85,3.62-2.29,12.9-4.78,16.27-4.94.34,4.03,1.76,12.51,3.19,16.98,7.09-2.98,26.4-19.58,28.77-37.16,1.23-9.06-2.88-19.48-3.1-24.4Zm-40.12,45.15s8.82-10.6,10.74-12.93c-.06,3.4.21,9.88.21,9.88-1.71-.02-6.41,1.84-10.95,3.05Zm10.72-16.2c-2.61,2.51-10.16,11.93-11.78,14.06,2.7-13.57,3.13-25.58,16.65-34.04-4.18,6.58-3.95,14.76-4.87,19.98Z"/>
        <path class="cls-1" d="m50.86,237.45c2.14,1.22,2.87,3.94,1.64,6.08-1.22,2.13-3.95,2.87-6.07,1.64-2.14-1.23-2.88-3.96-1.65-6.09,1.22-2.12,3.94-2.87,6.08-1.64Z"/>
        <path class="cls-1" d="m72.01,216.92c2.12,1.22,2.86,3.94,1.64,6.08-1.23,2.13-3.95,2.87-6.08,1.64-2.14-1.23-2.87-3.94-1.65-6.08,1.23-2.13,3.94-2.86,6.08-1.64Z"/>
        <path class="cls-1" d="m105.27,248.21c10.63,7.45,5.22,11.21,22.47,21.12l1.71-1.32c-9.38-4.99-11.28-6.66-22.73-24.32-11.47-17.66-33.99-13.39-41.94-18.52,2.32,3.62,4.84,12.89,5.02,16.26-4.04.36-12.51,1.8-16.98,3.26,3.01,7.07,19.69,26.34,37.26,28.64,9.06,1.19,19.48-2.97,24.39-3.19,2.15-.11,5.74,1,8.47,2.56l2-1.14c-4.12-2.17-9.62-3.62-12.29-3.24-4.79.68-14.7,3.98-22.09,3.18-11.15-1.2-22.8-8.88-34.14-24.76,14.6,4.56,47.26,16.24,60.27,19.87l.91-1.58c-11.38-3.47-55.76-18.05-59.38-19.74,6.35-.75,35.08-5.45,47.06,2.92Zm.15-2.59c-6.6-4.16-14.78-3.9-20-4.79-2.51-2.59-11.96-10.11-14.09-11.73,13.58,2.65,25.59,3.04,34.09,16.52Zm-33.16-4.51c.02-1.7-1.86-6.42-3.08-10.94,0,0,10.63,8.78,12.98,10.69-3.42-.04-9.89.25-9.89.25Z"/>
        <path class="cls-1" d="m16.76,177.26c1.23,2.13.52,4.86-1.6,6.1-2.13,1.24-4.86.52-6.1-1.6-1.24-2.13-.52-4.85,1.61-6.09,2.13-1.24,4.85-.53,6.1,1.6Z"/>
        <path class="cls-1" d="m45.32,169.97c1.25,2.13.53,4.86-1.6,6.1-2.13,1.25-4.85.52-6.09-1.6-1.24-2.12-.54-4.84,1.59-6.08,2.13-1.24,4.85-.54,6.09,1.58Z"/>
        <path class="cls-1" d="m58.59,213.67c5.52,11.75-1.06,12.32,8.98,29.5l2.14-.28c-5.64-8.99-6.46-11.39-7.61-32.42-1.15-21.02-22.81-28.51-27.13-36.93.2,4.3-2.25,13.59-3.76,16.59-3.67-1.69-11.74-4.67-16.34-5.63-.91,7.64,3.95,32.63,18.05,43.39,7.27,5.56,18.38,7.13,22.75,9.37,1.91.98,4.48,3.72,6.06,6.44h2.3c-2.49-3.93-6.55-7.93-9.06-8.93-4.49-1.79-14.74-3.87-20.74-8.24-9.07-6.59-15.34-19.06-17.29-38.46,10.39,11.21,32.91,37.59,42.38,47.23l1.57-.93c-8.14-8.68-39.38-43.41-41.67-46.67,5.89,2.51,33.13,12.72,39.36,25.95Zm-25.1-22.58c.88-1.47,1.59-6.49,2.79-11.03,0,0,4.84,12.9,5.92,15.75-2.94-1.75-8.7-4.72-8.7-4.72Zm5.17-10.89c10.46,9.06,20.69,15.37,21.35,31.3-3.64-6.9-10.86-10.74-14.95-14.11-.9-3.5-5.35-14.73-6.4-17.19Z"/>
        <path class="cls-1" d="m20.39,186.75c.13-2.22,1.87-9.81-10.68-16.9-12.56-7.08-13.06-17.31-.75-26.39,5.49,1.02,11.69,5.39,15.29,9.48,2.86-3.97,7.09-8.11,9.57-9.48,4.47,3.28,7.79,7.03,7.59,9.98-.5,7.21-15.42,17.16-12.19,36.68l-1.86-.62c-.37-6.1-.74-12.18,3.49-20.77-.99-5.21-5.48-17.15-21.14-23.61,5.84,17.4,12.93,29.47,15.53,38.05l-1.61.12c-6.1-17.03-12.06-27.59-15.18-37.05-6.71,5.85-11.4,14,2.25,22.49,15.16,9.46,11.31,18.77,11.31,18.77l-1.62-.75Zm4.97-32.81s3.12,3.85,3.73,5.1c1.49-3.1,3.73-10.57,3.97-13.18-2.61,1.99-4.59,4.1-7.71,8.08Zm8.94-8.21c-.11,1.75-2.1,10.94-3.97,14.29,0,0,1.87,4.62,1.87,6.22,2.62-3.74,7.22-10.19,7.22-13.05s-4.36-6.71-5.11-7.46Z"/>
        <path class="cls-1" d="m278.34,108.65c1.24,2.14,3.95,2.86,6.09,1.62,2.14-1.23,2.85-3.95,1.63-6.08-1.23-2.13-3.96-2.86-6.1-1.62-2.12,1.23-2.85,3.96-1.62,6.07Z"/>
        <path class="cls-1" d="m279.58,181.75c1.23,2.13,3.95,2.86,6.09,1.62,2.13-1.24,2.85-3.95,1.63-6.08-1.25-2.14-3.98-2.86-6.09-1.64-2.13,1.24-2.85,3.96-1.63,6.09Z"/>
      </g>
      <g>
        <path class="cls-1" d="m230.23,152.73h9.94l-.12-1.73-1.61-.99-13.18-28.83-3.36,2.48.99,3.48-9.7,22.76c-.62,1.61-2.6,1.61-2.6,1.61v1.23h8.08v-1.23c-.87,0-2.74-1.25-2.74-1.25l2.38-5.34h11.34l2.68,6.58h-2.11v1.23Zm-10.58-10.81l4.62-10.32,4.19,10.32h-8.8Z"/>
        <path class="cls-1" d="m293.8,115.4l-3.32-3.15h-38.5c-2.07,0-5.59,5.8-5.59,5.8,0-2.24-3.1-5.8-4.22-5.8h-.58c.4,1.23.78,2.48,1.14,3.74h-.01c1.45,1,2.76,2.61,2.76,4.39v48.22c-.45-.61-1.02-1.28-1.7-1.91t0-.02s-.02,0-.02-.02c-.3-.28-.62-.55-.94-.82-.11-.09-.21-.16-.32-.25-.26-.19-.51-.39-.79-.58-.11-.07-.24-.15-.34-.23-.37-.23-.76-.46-1.18-.68,0,0,0,0-.03,0-.38-.2-.79-.37-1.19-.53-.13-.04-.26-.08-.39-.12-.32-.09-.64-.19-.95-.26-.15-.04-.28-.06-.39-.08-.45-.07-.91-.12-1.35-.12h-31.66v-48.07h11.73c-.38-.9-.8-1.77-1.21-2.65h-12.01l-3.31,3.15h-3.97v55.85h20.69c.31-.77.66-1.54.95-2.32h-18.82v-51.05l4.14-2.82v49.39h32.15s5.1.2,8.44,5.3c.1.18.24.32.35.5h6.55c3.3-5.63,8.77-5.8,8.77-5.8h32.16v-49.39l4.15,2.82v51.05h-33.49c-6.78,0-5.3,5.8-9.44,5.8h-10.54c-.29.88-.62,1.77-.94,2.65h13.98c2.97,0,1.33-6.13,9.95-6.13h33.31v-55.85h-3.97Zm-4.81,47.57h-31.65c-3.98,0-7.79,3.14-9.61,5.62v-48.22c0-2.99,3.63-5.47,5.46-5.47h35.81v48.07Z"/>
        <path class="cls-1" d="m260.31,149.63s-1.61,1.25-4.22,1.25v1.73h9.58v-1.98s-5.6-5.1-5.6-13.67,3.86-13.31,9.46-13.31,9.44,4.72,9.44,13.31-5.59,13.67-5.59,13.67v1.98h9.56v-1.73c-2.6,0-4.22-1.25-4.22-1.25,1.62-1.37,5.46-5.97,5.46-12.67,0-12.8-10.06-15.67-14.65-15.67s-14.68,2.87-14.68,15.67c0,6.7,3.85,11.31,5.46,12.67Z"/>
      </g>
      <path class="cls-1" d="m242.73,115.99h-.01c-.19-.15-.38-.26-.57-.37-.08-.05-.17-.08-.25-.13-.15-.08-.32-.16-.49-.23-.12-.06-.25-.11-.37-.15-.12-.04-.24-.08-.35-.11-.24-.06-.46-.09-.68-.09h-24.07c-.38-.9-.8-1.77-1.21-2.65-11.81-25.79-37.8-43.73-68.04-43.73-41.35,0-74.86,33.52-74.86,74.87s33.51,74.88,74.86,74.88c31.49,0,58.36-19.48,69.43-47.01.31-.77.66-1.54.95-2.32h14.66c6.78,0,5.3,5.8,9.44,5.8h.31c-.29.88-.62,1.77-.94,2.65-13.93,38.37-50.67,65.8-93.85,65.8-55.14,0-99.85-44.7-99.85-99.86s44.7-99.85,99.85-99.85c44.3,0,81.82,28.84,94.9,68.78.4,1.23.78,2.48,1.14,3.74Zm-169.77,73.78c-2.15,1.63-2.99,5.03-.65,8.11,2.3,3.03,5.82,3.17,7.98,1.53,2.02-1.55,3.07-4.93.66-8.1-2.42-3.17-5.97-3.09-7.99-1.54Zm6.24,2.87c1.2,1.58,1,3.42-.55,4.61-1.55,1.16-3.37.89-4.59-.72-1.22-1.59-1-3.43.55-4.61,1.53-1.18,3.36-.88,4.59.72Zm-26.03-53.63c-.09,3.8,2.57,6.11,5.28,6.17,2.55.05,5.46-1.94,5.55-5.92.09-3.99-2.72-6.13-5.29-6.17-2.69-.08-5.47,2.05-5.55,5.92Zm2.2.05c.04-2.02,1.37-3.31,3.29-3.26,1.93.04,3.2,1.4,3.15,3.41-.04,2-1.36,3.31-3.29,3.26-1.93-.05-3.18-1.4-3.15-3.41Zm20.45-37.78l-1.49-3.53c-.61-1.43-1.52-2.88-2.89-3.67-.99-.56-2.28-.64-3.33-.23-1,.39-1.84,1.31-2.36,2.22-1.23,2.16-1.07,4.78,1.24,6.11,1.74,1.01,4.01.74,5.08-1.12.28-.5.41-.95.47-1.49h.03s1.65,4.51,1.65,4.51l1.6-2.8Zm-7.43-1.7c.87.5,1.94.23,2.43-.62.49-.86.21-1.96-.66-2.45-.86-.5-1.94-.2-2.45.67-.5.86-.19,1.92.68,2.41Zm35.73-24.17l-9.93-12.52-2.86,2.28.25.29c1.01-.79,1.88.25,1.88.25l2.33,2.94-3.36,2.66-3.15-1.42-.67-1.85-3.37,2.67.27.34c.62-.5,1.52-.64,2.01.54l4.82,12.14,1.56-1.24-3.58-9.76,10.46,4.31,1.05-.83.5.62,1.79-1.43Zm-3.05-.16l-6.92-3.14,2.72-2.16,4.2,5.3Zm19.81-9.89l-9.51,4.55-.41-.88,8.11-3.88-1.68-3.49-4.22,2.02-.7-1.44,5.63-2.69.09-1.71-4.21,2.01c.64-1.05.81-2.21.34-3.18-.75-1.58-2.93-2.16-5.18-1.5-.01-.04-.04-.08-.06-.1-.18-.28-.73-.3-.73-.3l-2.2,1.05.11.23c.32-.15.62.06.62.06l.06.12c-1.89,1.34-2.79,3.38-2.04,4.95.48.97,1.48,1.56,2.71,1.73l-4.28,2.05,1.45.96,5.56-2.65.68,1.43-4.44,2.13,1.3,1.06,8.08-3.86.42.87-9.05,4.33.12.27c.75-.36,1.39.48,1.39.48l1.13,2.36,10.78-5.17.14-1.81Zm-13.83-5.21c-.6-1.23.08-2.78,1.49-3.46,1.42-.68,3.03-.22,3.63,1.01.59,1.23-.07,2.78-1.48,3.46-1.42.68-3.04.22-3.63-1.01Zm73.87,156.43l4.84,9.4,2.35-1.2-1.97-3.82.69-.35c1.26-.64,2.56.97,4.6,2.46l2.58-1.3c-2.73-2.09-3.62-3.09-4.83-3.08.81-1.05.96-2.09.42-3.12-.71-1.41-2.53-2.12-4.46-1.12l-4.21,2.16Zm6.31.28c.4.81-.09,1.4-.74,1.74l-1.23.64-1.1-2.14,1.18-.6c.89-.45,1.53-.33,1.89.36Zm-.17-148.48c2.24,1.5,5.06,1.2,6.3-.66.66-1,.74-2.23.33-3.39l1.71,1.13,1.62-.87-4.18-2.78.82-1.24-3.01-2.01-.31.37c1.18.79.51,1.54.51,1.54l-4.12-2.76-.23,1.81,1.78,1.19c-1.23.05-2.34.61-3.01,1.6-1.24,1.85-.44,4.58,1.79,6.06Zm.93-1.3c-1.08-.72-1.33-2.24-.57-3.39.77-1.14,2.26-1.48,3.35-.76,1.08.73,1.35,2.24.57,3.4-.76,1.14-2.26,1.48-3.35.75Zm-49.38-2.98l-3.18-15.5-3.68.75.1.46s1.43-.1,1.6.74l-6.06,1.25c-.11-.02-.23-.02-.35-.04-.19-.34-.5-1.04-.71-1.31l-2.62.55.08.37s.88-.18,1.06.71c0,.02.01.03.01.06-2.38.91-3.82,3.41-3.28,5.97.58,2.85,3.4,4.68,6.27,4.09,2.06-.42,3.58-1.96,4.09-3.83l2.98-.61,1.4,6.8,2.29-.47Zm-14.58-6.53c-.38-1.87.57-3.64,2.15-3.96,1.57-.33,3.16.92,3.53,2.78.39,1.86-.58,3.64-2.15,3.95-1.56.32-3.15-.93-3.53-2.78Zm7.99-1.6c.05.28.08.54.09.81l2.5-.51-.85-4.22-3.75.77c1.01.75,1.75,1.85,2.01,3.15Zm-51.69,31.72c-1.63-1.14-3.91-1.07-5.14.68-.31.46-.48.91-.57,1.44h-.04s-1.26-4.63-1.26-4.63l-1.83,2.63,1.17,3.66c.46,1.48,1.26,3.02,2.55,3.92.92.65,2.19.82,3.28.52,1.03-.31,1.95-1.14,2.55-2.01,1.43-2.03,1.5-4.66-.7-6.19Zm-3.64,5.37c-.8-.56-.99-1.68-.42-2.49.57-.81,1.65-.97,2.45-.41.83.58,1.06,1.65.48,2.47-.56.8-1.69,1.01-2.51.43Zm-18.17,27.96c3.56.98,4.56-4.32,6.1-3.89.5.14.67.81.41,1.72-.24.87-.73,1.69-1.8,2.98l1.98.54c.91-1.12,1.44-2.09,1.75-3.23.65-2.36-.09-4.21-1.85-4.7-3.67-1.02-4.49,4.34-6.16,3.86-.6-.16-.8-.78-.53-1.75.31-1.13.9-1.92,2.29-3.12l-2.2-.6c-.8.86-1.51,1.62-2.01,3.4-.62,2.27.05,4.23,2.01,4.77Zm-4.73,9.43l1.92.3.8-5.09,2.52.39-.76,4.77,1.91.31.77-4.76,2.19.35-.8,4.99,1.91.31,1.23-7.6-10.45-1.68-1.22,7.7Zm5.48,27.4l5.95-.79-.34-2.6-5.84.76c-1.87.24-2.77-.94-2.95-2.32-.2-1.5.56-2.72,2.07-2.91l6.02-.8-.35-2.61-5.96.78c-3.25.42-4.37,2.8-3.97,5.85.37,2.87,1.89,5.08,5.36,4.63Zm.12,11l-1.38-5.24,8.33-2.21-.67-2.54-10.23,2.71,2.06,7.79,1.88-.5Zm141,35.86l1.29,1.44,2.86-2.54,5.76,6.43,1.96-1.76-5.75-6.42,2.84-2.56-1.14-1.29,6.91.37,3.82,3.14,1.67-2.03-3.82-3.14-1.67-6.79-2.03,2.45,1.08,3.88-4.01-.33-1.98,2.41-.11-.11-7.67,6.86Zm-2.99,2.45l6.02,8.7,2.15-1.49-6-8.71-2.17,1.5Zm-6.39,7.37c2.11,3.16,6.23-.36,7.18,1.06.35.52.09,1.13-.74,1.67-.96.66-1.94.88-3.77.89l1.27,1.89c1.18-.14,2.21-.25,3.75-1.27,1.95-1.31,2.71-3.24,1.59-4.92-2.05-3.07-6.27.3-7.16-1.03-.3-.44.02-1.05.8-1.58.75-.5,1.66-.79,3.32-1.08l-1.15-1.72c-1.42.26-2.45.66-3.43,1.31-2.03,1.37-2.68,3.25-1.66,4.78Zm-18.89,5.43l3.71,9.9,7.32-2.72-.69-1.82-4.83,1.82-.89-2.39,4.5-1.7-.66-1.81-4.53,1.68-.78-2.08,4.74-1.76-.68-1.83-7.21,2.7Zm-11.55,2.97l7.48,9.2,1.12-.27,2.24-11.56-2.76.67-1.16,6.49-4.14-5.21-2.78.68Zm-3.57.35l1.5,10.46,2.62-.36-1.5-10.47-2.61.38Zm-12.75.79l.38,10.57,2.64-.11-.24-6.76,6.07,6.56,2.22-.08-.38-10.58-2.63.09.23,6.46-5.87-6.25-2.42.08Zm-8.24,9.97c2.87.33,5.39-.6,5.78-4.08l.68-5.97-2.62-.29-.68,5.85c-.21,1.88-1.57,2.44-2.96,2.3-1.51-.17-2.5-1.2-2.33-2.72l.7-6.03-2.63-.3-.68,5.97c-.36,3.26,1.67,4.92,4.72,5.27Zm-17.87-12c-1.1,3.65,4.23,4.59,3.72,6.25-.17.6-.8.77-1.76.48-1.11-.33-1.91-.93-3.06-2.34l-.64,2.17c.84.83,1.58,1.56,3.35,2.08,2.25.67,4.23.06,4.81-1.9,1.07-3.52-4.21-4.66-3.75-6.18.15-.5.82-.65,1.73-.39.86.26,1.66.78,2.93,1.88l.59-1.97c-1.11-.93-2.06-1.49-3.2-1.82-2.34-.71-4.21,0-4.72,1.74Zm-3.13-.7l1.26.49,1.08-1.8.69-1.77-1.96-.74-.68,1.75-.39,2.07Zm-10.33-8.62l-4.72,9.45,2.35,1.18,3.03-6.05,2.19,8.68,1.99.98,4.73-9.45-2.34-1.18-2.9,5.79-2.15-8.32-2.17-1.07Zm-14.88,2.67l6.34,4.52,1.12-1.59-4.2-2.98,1.48-2.08,3.93,2.79,1.12-1.58-3.92-2.8,1.27-1.8,4.13,2.93,1.12-1.58-6.28-4.46-6.12,8.62Zm-4.4-18.21l-7.29,7.65,1.91,1.82,4.56-4.78-.22,4.36.29.29,4.36-.45-4.55,4.78,1.9,1.82,7.29-7.67-1.67-1.58-5.17.5.25-5.18-1.66-1.58Zm-19.54-19.38l4.1-4.86-1.27-2.49-7.46,9,.51,1,7.64-.19-4.69,6.05.52,1.01,11.65-.71-1.26-2.48-6.33.42,3.99-5.06-.96-1.89-6.45.21Zm6.4-70.03l-9.84-4.67-1.26,2.52,9.88,4.7,1.22-2.55Zm14.37-21.59l-8.24-7.11-1.89,2.04,8.28,7.22,1.85-2.14Zm71.96-32.06h-2.85v-5.63h-3.59v.38s1.28.38,1.28,1v12.06l-5.15-10.06.33-.83h3.01l.76-1.58h-10.28l.88,1.58h3.16l-4.12,12.55h1.97l3.33-8.99,4.59,8.99h1.52v.57h2.31v-8.46h1.79l1.06-1.59Zm22.6.82l-3.33-1.17-.09.29s1.02.71.68,1.65c-.33.95-1.31,3.74-1.31,3.74l-2.13-.74,1.87-5.3-3.2-1.11-.1.29s.95.49.47,1.89c-.49,1.41-2.03,5.77-2.03,5.77l-5.67-.58,2.23-6.39,2.71.94,1.49-1.22-7.03-2.46-.13.37s1.18.38.68,1.82c-.5,1.44-2.94,8.37-2.94,8.37l8.06.87-1.88,5.38,2.23.77,2.75-7.85,2.08.72-2.75,7.86,2.19.78,5.15-14.69Zm13.11,19.08l-11.87-7.97-.14,1.89,9.15,6.13-1.81,2.72,1.95,1.29,2.72-4.06Zm1.96-2.98l1.49,1,1.75-.73-2.37-1.58,3.14-4.68-2.99-2.01-.23.32s.86,1.04.53,1.56c-.27.39-2.9,4.32-5.01,7.45l1.94,1.29,1.74-2.61Zm11.06,16.57l9.03-8.33-9.92-9.38-.46,1.63,7.55,7.15-7.82,7.42-1.37-1.31,5.48-5.78-2.43-2.29-.24.26c.78.74.34,1.31.34,1.31l-4.74,5-1.53-1.44,5.5-5.82-2.36-2.23-.28.28c.82.76.32,1.34.32,1.34l-4.71,4.97-2.38-2.26-.55,1.78,10.74,10.15,1.71-.66-1.87-1.78Zm13.34,5.36c-1.7,0-3.07,1.38-3.07,3.08s1.37,3.09,3.07,3.09,3.08-1.38,3.08-3.09-1.38-3.08-3.08-3.08Zm3.32,88.41c-1.7,0-3.07,1.38-3.07,3.08s1.37,3.07,3.07,3.07,3.08-1.38,3.08-3.07-1.38-3.08-3.08-3.08Z"/>
    </g>
  </g>
</svg>