<svg width="24" height="24" viewBox="0 0 24 24" fill="none" xmlns="http://www.w3.org/2000/svg">
<path d="M21.0329 2.26556C20.7169 3.03471 20.3081 3.71659 19.8558 4.32755C17.8612 2.29283 15.071 1 11.992 1C5.94284 1 1 5.92041 1 11.9973C1 15.1721 2.35697 18.0305 4.50958 20.0488L4.9183 20.4143C6.82024 22.0236 9.29438 23 11.9865 23C17.7631 23 22.5207 18.4887 22.9294 12.7937C23.2564 10.028 22.4172 6.48773 21.0329 2.26556ZM6.10088 20.1416C5.7848 20.5507 5.19624 20.5943 4.78751 20.278C4.37879 19.9616 4.33519 19.3724 4.65127 18.9633C4.96735 18.5542 5.55591 18.5105 5.96464 18.8269C6.35156 19.1433 6.41696 19.7325 6.10088 20.1416ZM20.9676 16.8522C18.27 20.458 12.4715 19.2361 8.77666 19.4161C8.77666 19.4161 8.11725 19.4597 7.46329 19.5524C7.46329 19.5524 7.71398 19.4379 8.03006 19.3233C10.635 18.4178 11.8612 18.2323 13.447 17.4195C16.4171 15.8976 19.3817 12.5646 19.9757 9.11703C18.8422 12.4282 15.398 15.2866 12.2699 16.4431C10.1173 17.2395 6.24257 18.0087 6.24257 18.0087L6.08453 17.9159C3.4578 16.6231 3.36515 10.9063 8.17175 9.06794C10.2808 8.24969 12.2753 8.70245 14.5642 8.16241C16.9893 7.59509 19.8013 5.77858 20.9294 3.4002C22.1883 7.23506 23.7305 13.1756 20.9676 16.8522Z" fill="#6CB52D"/>
<path d="M5.56206 20.8799C5.21725 21.3262 4.57518 21.3738 4.1293 21.0287C3.68341 20.6835 3.63585 20.0408 3.98067 19.5945C4.32548 19.1482 4.96755 19.1006 5.41343 19.4457C5.83553 19.7909 5.90688 20.4336 5.56206 20.8799Z" fill="#6CB52D"/>
</svg>
