<svg width="24" height="24" viewBox="0 0 24 24" fill="none" xmlns="http://www.w3.org/2000/svg">
<path d="M6.42016 2H17.5106C18.0503 2 18.5743 2.08594 19.0827 2.26562C19.8179 2.53125 20.4827 3 20.9832 3.60938C21.4916 4.21875 21.8279 4.96875 21.9452 5.75C21.9922 6.03906 22 6.32812 22 6.61719V17.4219C22 17.7656 21.9844 18.1172 21.914 18.4531C21.7575 19.2266 21.3899 19.9531 20.8581 20.5391C20.3341 21.125 19.6458 21.5625 18.9028 21.7969C18.4492 21.9375 17.9799 22 17.5028 22C17.2916 22 6.38887 22 6.22463 21.9922C5.42686 21.9531 4.63692 21.6953 3.97212 21.25C3.32296 20.8125 2.79112 20.2031 2.44698 19.5C2.14978 18.8984 2.00117 18.2266 2.00117 17.5547V6.44531C1.98553 5.78125 2.12631 5.125 2.4157 4.53125C2.75201 3.82813 3.27603 3.21094 3.92519 2.77344C4.58999 2.32031 5.37211 2.05469 6.16988 2.01562C6.24809 2 6.33412 2 6.42016 2Z" fill="url(#paint0_linear_7193_23583)"/>
<path d="M19.4172 17.9912C19.3447 17.8843 19.264 17.7774 19.1753 17.6781C18.9737 17.449 18.7399 17.2505 18.4819 17.0825C18.1593 16.8763 17.7803 16.7465 17.3933 16.7312C17.1191 16.7159 16.845 16.7617 16.5869 16.8534C16.3289 16.9374 16.0789 17.0596 15.837 17.1817C15.5548 17.3192 15.2726 17.4567 14.9742 17.5712C14.6194 17.7087 14.2485 17.8156 13.8695 17.892C13.3938 17.976 12.91 18.0065 12.4342 17.9989C11.5714 17.9836 10.7086 17.8614 9.88613 17.6323C9.16042 17.4261 8.46695 17.1436 7.81381 16.7846C7.24129 16.4715 6.7091 16.1126 6.20916 15.7079C5.79792 15.3718 5.41894 15.0129 5.06414 14.6311C4.82224 14.3638 4.58839 14.0812 4.37068 13.7911C4.28198 13.6765 4.20134 13.5543 4.12877 13.4321L2 11.2557V6.33C2 3.93972 4.04007 2 6.56396 2H10.636L13.6518 4.90194C20.4574 9.2854 18.2561 14.1194 18.2561 14.1194C18.2561 14.1194 20.1913 16.1813 19.4172 17.9912Z" fill="url(#paint1_linear_7193_23583)"/>
<path d="M13.458 4.39941C20.491 8.95125 18.2161 13.971 18.2161 13.971C18.2161 13.971 20.216 16.12 19.4077 17.9994C19.4077 17.9994 18.5827 16.683 17.1995 16.683C15.8662 16.683 15.0829 17.9994 12.3997 17.9994C6.42497 17.9994 3.6001 13.2493 3.6001 13.2493C8.98318 16.6196 12.658 14.2326 12.658 14.2326C10.2331 12.8925 5.07503 6.48501 5.07503 6.48501C9.56649 10.1249 11.5081 11.0844 11.5081 11.0844C10.3498 10.1725 7.09993 5.7158 7.09993 5.7158C9.69981 8.22169 14.8662 11.7188 14.8662 11.7188C16.3328 7.84898 13.458 4.39941 13.458 4.39941Z" fill="#F6F6F6"/>
<defs>
<linearGradient id="paint0_linear_7193_23583" x1="13.8809" y1="1.28633" x2="10.1062" y2="22.7175" gradientUnits="userSpaceOnUse">
<stop stop-color="#FAAE42"/>
<stop offset="1" stop-color="#EF3E31"/>
</linearGradient>
<linearGradient id="paint1_linear_7193_23583" x1="12.5319" y1="2.31585" x2="9.96374" y2="17.6948" gradientUnits="userSpaceOnUse">
<stop stop-color="#E39F3A"/>
<stop offset="1" stop-color="#D33929"/>
</linearGradient>
</defs>
</svg>
