<?xml version="1.0" encoding="UTF-8"?>
<svg id="Layer_2" data-name="Layer 2" xmlns="http://www.w3.org/2000/svg" viewBox="0 0 101.27 101.27">
  <defs>
    <style>
      .cls-1 {
        fill: #bb8a0b;
      }

      .cls-1, .cls-2, .cls-3 {
        stroke-width: 0px;
      }

      .cls-2 {
        fill: #fff;
      }

      .cls-3 {
        fill: #0066b3;
      }
    </style>
  </defs>
  <g>
    <polygon class="cls-3" points="36.68 12.13 25.77 17.7 26.46 19.03 31.07 16.67 32.68 19.82 34.35 18.96 32.74 15.81 37.35 13.46 36.68 12.13"/>
    <path class="cls-3" d="m30.03,12.56c1.52.99,3.2.12,3.2.12l2.48-1.27-.59-1.16-1.9.98s-1.47.82-2.61-.38l3.82-1.95-.68-1.33-9.94,5.08.68,1.33,3.82-1.95c.31,1.63-1.21,2.34-1.21,2.34l-1.91.97.59,1.16,2.49-1.27s1.69-.85,1.77-2.67Z"/>
  </g>
  <g>
    <polygon class="cls-3" points="18.12 19.75 16.85 21.4 15.47 20.34 14.32 21.83 22.57 28.19 23.72 26.69 18.03 22.31 19.3 20.66 18.12 19.75"/>
    <path class="cls-3" d="m12.78,24.21c-1.01.51-1.96,1.78-1.96,1.78,0,0-.99,1.24-1.23,2.35,0,0-.52,1.91,1.24,3.33,1.82,1.34,3.54.35,3.54.35,1.01-.51,1.96-1.78,1.96-1.78,0,0,1-1.24,1.23-2.35,0,0,.52-1.91-1.24-3.33-1.82-1.34-3.54-.35-3.54-.35Zm3.03,3.71c-.15.63-.72,1.36-.72,1.36,0,0-.55.74-1.13,1.05,0,0-.97.59-1.97-.14-.96-.78-.64-1.87-.64-1.87.15-.63.73-1.36.73-1.36,0,0,.55-.74,1.12-1.04,0,0,.98-.59,1.97.14.96.78.64,1.87.64,1.87Z"/>
  </g>
  <path class="cls-3" d="m53.86,4.93v1.74h-1.29v-1.74h-1.88v5.3h-4.49l-.07-.09v-3.75h3.53v-1.49h-5.31v5.73c0,.6.49,1.09,1.09,1.09.02,0,.03,0,.05,0h5.21v3.6h1.88v-7.16h1.29v7.16h1.89V4.93h-1.89Z"/>
  <path class="cls-3" d="m85.13,32.69l5.55-4.39h0s.01-.01.02-.02c.45-.35.54-.98.24-1.45h0s-5.57-7.03-5.57-7.03l-1.17.93,5.11,6.46-5.25,4.16-1.12-1.41,3.96-3.14-1.07-1.35-3.97,3.14-.96-1.22,3.96-3.14-1.07-1.35-3.97,3.14-1.46-1.84-1.17.93,7.64,9.65,1.17-.92-.88-1.11Z"/>
  <g>
    <polygon class="cls-3" points="76.92 14.07 75.14 13.2 75.95 11.56 74.4 10.8 72.21 15.24 73.76 16 74.56 14.38 76.34 15.25 76.92 14.07"/>
    <path class="cls-3" d="m72.91,17.72c.27-.54.05-1.19-.49-1.46h0l-8.77-4.32-.61,1.23,8.19,4.03-1.46,2.96,1.55.76,1.58-3.2h0s0,0,0,0Z"/>
    <path class="cls-3" d="m65.09,9.12s-.35.71-.28,1.3c0,0,.05.83.8,1.54.37.35.94.67,1.74,1.06.79.39,1.39.65,1.9.73,1.01.16,1.71-.3,1.71-.3.51-.3.86-1.01.86-1.01,0,0,.27-.56.29-1.09l.83.41.66-1.34-3.21-1.58.36-.73-1.55-.76-.36.73-3.21-1.58-.66,1.34.83.41c-.42.34-.69.89-.69.89Zm4.87,3.07s-.32.21-.79.14c-.24-.04-.86-.33-1.23-.51-.37-.18-.93-.47-1.1-.64-.35-.33-.37-.71-.37-.71-.03-.27.13-.61.13-.61,0,0,.16-.33.4-.47,0,0,.32-.21.79-.14.24.04.81.3,1.18.48.37.18.98.5,1.15.66.35.33.37.71.37.71.03.27-.13.61-.13.61,0,0-.16.33-.4.47Z"/>
  </g>
  <g>
    <path class="cls-3" d="m8.71,57.37l-.35-3-3.06-.75-.12-1.02,7,1.9c.45.12.97.29,1.08-.3h.05s.22,1.87.22,1.87l-5.83,3.19c-.65.35-1.28.64-1.58,1.37l-.21-1.79,2.81-1.47Zm3.71-1.96l-3.14-.83.27,2.35,2.87-1.52Z"/>
    <path class="cls-3" d="m13.03,61.59c.53-.16,1.38-.36,1.41-1.01l.05-.02.68,2.18-.04.02c-.39-.5-1.2-.17-1.73,0l-6.49,2.04c-1.21.38-2.15-.17-2.71-1.58v-.06c1.15.71,1.82.63,3.06.24l5.77-1.81Z"/>
    <path class="cls-3" d="m16.03,74.7c-2.26.94-4.68-.26-5.59-2.46-.91-2.2-.1-4.7,2.17-5.64,2.11-.87,4.62.23,5.53,2.58.97,2.32-.12,4.69-2.11,5.52Zm-2.79-6.87c-1.55.64-2.69,2.4-1.97,4.14.69,1.68,2.37,2.25,4.02,1.56,1.62-.67,2.75-2.34,2.03-4.1-.71-1.72-2.4-2.3-4.08-1.61Z"/>
    <path class="cls-3" d="m19.88,83.83l.56-.56c-.87.12-1.76-.37-2.36-.96-.56-.56-.98-1.33-.95-2.13.04-.94.62-1.49,1.23-2.1l2.26-2.27c.38-.38,1.06-.94.83-1.56l1.26,1.25-1.22,1.18-2.26,2.27c-1.13,1.13-1.18,2.13-.3,3,.48.48,1.15.76,1.83.64.44-.07.64-.29.95-.6l2.55-2.55c.38-.38,1.05-.95.82-1.57l1.26,1.25-1.22,1.19-4.38,4.39-.87-.86Z"/>
    <path class="cls-3" d="m35.23,93.07l.29-.7c-.75.44-1.77.33-2.55.01-.73-.3-1.41-.86-1.69-1.6-.32-.89,0-1.62.34-2.42l1.22-2.96c.21-.5.62-1.27.17-1.77l1.64.68-.68,1.55-1.22,2.96c-.61,1.47-.27,2.41.87,2.89.62.26,1.36.26,1.94-.11.38-.23.49-.51.65-.91l1.38-3.34c.21-.5.61-1.28.16-1.77l1.64.68-.67,1.57-2.35,5.7-1.13-.46Z"/>
    <path class="cls-3" d="m49.18,89.37l-.77,6.68c-.81-.38-1.14-.82-1.58-1.56l-3.48-5.65-.71,6.13-.86-.1.73-6.27c.07-.67.13-1.15-.45-1.57v-.05s1.75.2,1.75.2v.02c.03.15.07.21.14.32l.14.26,3.73,6.01.52-4.52c.08-.67.15-1.18-.44-1.62l1.49.17-.19,1.54Z"/>
    <path class="cls-3" d="m53.16,95.68l-.31-6.2c-.03-.55.01-1.42-.61-1.63l1.74-.09.08,1.66.31,6.2-1.22.06Z"/>
    <path class="cls-3" d="m89.17,74.3l-5.35-3.15c-.48-.28-1.19-.79-1.7-.38l.89-1.51,1.43.84,5.35,3.16-.62,1.05Z"/>
    <path class="cls-3" d="m61.88,88.48c.12-.9.29-1.95-.5-2.06v-.05s1.72-.41,1.72-.41l-1.18,8.76c-.94-.34-1.23-.37-1.79-1.21l-2.89-4.36c-.36-.54-.7-1.18-1.3-1.45v-.05s1.69-.4,1.69-.4l.02.15c.06.26.42.78.58,1.01l3.05,4.64.59-4.57Z"/>
    <path class="cls-3" d="m68.16,90.61l-1.98-4.06c-.24-.5-.56-1.31-1.2-1.25l-.02-.04,3.44-1.68c.19-.09.38-.15.48-.29l.03-.02.61,1.26h-.03c-.52-.21-.98-.04-1.48.21-.38.18-.75.38-1.07.61l.98,2,1.28-.63c.17-.08.34-.17.44-.29l.03-.02.56,1.14-.03.02c-.32-.23-.77,0-1.1.17l-.8.39,1.25,2.55,1.43-.54c.74-.28,1.38-.87,1.68-1.61l.04-.02.2,1.65-4.02,1.97-.73-1.52Z"/>
    <path class="cls-3" d="m76.9,87.39l-3.81-4.88c-.34-.44-.81-1.18-1.43-.97l-.03-.04,2.25-1.76c1.27-.99,2.48-.86,3.15,0,.65.83.43,2.05-.21,2.84l2.7.64c.78.18,1.76.21,2.56.13l-.87.67c-.5.39-.91.52-1.47.39l-2.26-.53-1.91-.65c.66-.7,1.28-1.74.58-2.63-.53-.68-1.43-.62-2.04-.1-.21.18-.39.37-.58.58l4.33,5.55-.97.75Z"/>
    <path class="cls-3" d="m81.88,73.88c-.67.05-1.35.45-1.78.97-.43.53-.78,1.36-.14,1.89,1.27,1.04,3.87-2.16,5.58-.75.99.81,1.07,2.61-.12,4.06-.47.56-1.01,1.06-1.64,1.43l-1.38-.68c.92-.16,1.84-.67,2.43-1.39.43-.53.77-1.59.12-2.12-1.44-1.19-3.8,2.21-5.77.6-1.17-.96-.63-2.52.3-3.65.38-.46.83-.89,1.34-1.21l1.05.86Z"/>
    <path class="cls-3" d="m95.24,58.19l-3.4-.49-3.45,1.51c-.57.24-.99.42-1.39.95l.25-1.77,3.74-1.61-2-1.79c-.27-.24-.8-.6-1.21.02h-.04s.3-2.08.3-2.08l3.98,3.55,3.39.49-.17,1.21Z"/>
    <path class="cls-3" d="m84.27,67.27l1.1.85.02-.03c-.19-.47-.11-1.02.07-1.5l.38-.98,6.55,2.57.45-1.14-6.55-2.57.4-1c.14-.37.37-.79.82-.78v-.03s-1.1-.82-1.1-.82l-2.14,5.45Z"/>
  </g>
  <path class="cls-3" d="m50.61,0C22.67,0,0,22.67,0,50.61s22.67,50.67,50.61,50.67,50.66-22.67,50.66-50.67S78.6,0,50.61,0Zm0,99.77C23.5,99.77,1.5,77.77,1.5,50.61S23.5,1.5,50.61,1.5s49.16,22,49.16,49.11-22,49.17-49.16,49.17Z"/>
  <path class="cls-3" d="m83.54,50.61c0,18.19-14.73,32.92-32.92,32.92s-32.89-14.73-32.89-32.92,14.73-32.88,32.89-32.88,32.92,14.74,32.92,32.88Z"/>
  <path class="cls-3" d="m12.2,42.27c0,.75-.61,1.37-1.37,1.37s-1.37-.61-1.37-1.37.61-1.36,1.37-1.36,1.37.61,1.37,1.36Z"/>
  <path class="cls-3" d="m92.02,42.27c0,.75-.61,1.37-1.37,1.37s-1.37-.61-1.37-1.37.61-1.36,1.37-1.36,1.37.61,1.37,1.36Z"/>
  <g>
    <path class="cls-1" d="m44.77,22.53l-13.81,20.25s-3.35,4.17-.58,9.63l7.2,11.1s1.23,2.19,3.77,2.19h5.41s-.86-.33-1.39-1.11l-8.03-12.35s-1.3-2.11-1.21-4.24c0,0,.09-1.87,1.18-3.64l7.52-11.28,8.92,13.8s1.01,1.51-.06,2.72c0,0-.65.68-2.28.15l3.11,4.8s.56.77,1.48.77c0,0,.65,0,1.27-.74l2.31-3.73s1.69-2.22-.09-5.69l-14.72-22.64Z"/>
    <path class="cls-1" d="m62.95,63.85l6.85-10.31s3.35-4.17.58-9.63l-12.4-19.12s-1.23-2.19-3.77-2.19h-5.41s.86.34,1.39,1.11l12.96,19.73s1.74,2.63,1.49,4.87c0,0-.09,1.87-1.19,3.64l-4.47,6.99c-.74.97-1.54.99-1.54.99h-2.71c-.89-.1-1.54-1.14-1.54-1.14l-6.18-9.35s-1-1.51.06-2.72c0,0,.65-.68,2.28-.15l-3.11-4.8s-.56-.77-1.48-.77c0,0-.65,0-1.27.74l-2.31,3.73s-1.69,2.22.09,5.68l8.32,12.78s1.14,1.76,2.81,1.76h7.48s1.86.05,3.08-1.84Z"/>
  </g>
  <g>
    <path class="cls-2" d="m42.24,77.75h-1.1v-7.11l-1.25.84v-1.05c.28-.12,1.07-.72,1.4-1h.95v8.33Z"/>
    <path class="cls-2" d="m49.49,73.62c0,2.17.01,4.31-2.24,4.31-1.25,0-2.08-.85-2.05-2.17h1.1c0,.61.24,1.25.95,1.25,1.07,0,1.14-1.18,1.14-3.31h-.02c-.27.57-.79.78-1.43.78s-1.91-.35-1.91-2.63c0-1.87,1.12-2.55,2.22-2.55,2.28,0,2.24,2.09,2.24,4.33Zm-3.36-1.8c0,.83.16,1.73,1.12,1.73s1.12-.9,1.12-1.73c0-.76-.17-1.73-1.12-1.73s-1.12.97-1.12,1.73Z"/>
    <path class="cls-2" d="m50.77,69.42h4.31v.96l-2.22,7.37h-1.25l2.33-7.37h-3.17v-.96Z"/>
    <path class="cls-2" d="m58.25,72.9c.99.09,1.7-.31,1.7-1.38,0-.76-.34-1.31-1.15-1.31-.91,0-1.06.68-1.05,1.36h-1.1c-.08-1.41.6-2.28,2.15-2.28,1.42,0,2.25.71,2.25,2.16,0,1.57-1.16,1.81-1.64,1.93v.03c1.31.18,1.73.88,1.73,2.12,0,1.62-.87,2.4-2.47,2.4-2.33,0-2.15-2-2.15-2.47h1.1c.01.83.14,1.55,1.14,1.55s1.27-.61,1.27-1.5c0-1.34-.5-1.63-1.79-1.63v-.97Z"/>
  </g>
</svg>