<svg width="24" height="24" viewBox="0 0 24 24" fill="none" xmlns="http://www.w3.org/2000/svg">
<circle cx="12" cy="12" r="12" fill="url(#paint0_linear_7193_1399)"/>
<path d="M7.33992 17.1172C6.73836 17.1172 6.18758 16.9863 5.68758 16.7246C5.18758 16.459 4.78133 16.0195 4.46883 15.4062C4.16023 14.7891 4.00789 13.9844 4.0118 12.9922C4.0118 12.0352 4.15047 11.2129 4.42781 10.5254C4.70516 9.83398 5.09773 9.30664 5.60555 8.94336C6.11727 8.58008 6.71883 8.39844 7.41023 8.39844C7.94539 8.39844 8.42391 8.50195 8.84578 8.70898C9.27156 8.91602 9.61531 9.20312 9.87703 9.57031C10.1388 9.93359 10.3009 10.3438 10.3634 10.8008H8.85164C8.77352 10.4727 8.6075 10.2109 8.35359 10.0156C8.10359 9.82031 7.78914 9.72266 7.41023 9.72266C7.00398 9.72266 6.65633 9.83789 6.36727 10.0684C6.08211 10.2988 5.86336 10.6289 5.71102 11.0586C5.56258 11.4883 5.48836 12 5.48836 12.5938H5.57039C5.78523 12.2305 6.08602 11.9473 6.47273 11.7441C6.85945 11.5371 7.28523 11.4336 7.75008 11.4336C8.25398 11.4336 8.71102 11.5527 9.12117 11.791C9.53133 12.0254 9.85359 12.3516 10.088 12.7695C10.3263 13.1875 10.4454 13.6602 10.4454 14.1875C10.4454 14.7422 10.3145 15.2422 10.0528 15.6875C9.795 16.1328 9.42977 16.4824 8.95711 16.7363C8.48836 16.9902 7.9493 17.1172 7.33992 17.1172ZM7.31648 15.8867C7.62508 15.8867 7.90438 15.8125 8.15438 15.6641C8.40828 15.5156 8.6075 15.3145 8.75203 15.0605C8.89656 14.8066 8.96883 14.5273 8.96883 14.2227C8.96883 13.9258 8.89852 13.6523 8.75789 13.4023C8.61727 13.1523 8.42195 12.9551 8.17195 12.8105C7.92195 12.666 7.64461 12.5938 7.33992 12.5938C7.03133 12.5938 6.74813 12.668 6.49031 12.8164C6.2325 12.9648 6.02938 13.166 5.88094 13.4199C5.7325 13.6699 5.65633 13.9414 5.65242 14.2344C5.65633 14.5312 5.73055 14.8066 5.87508 15.0605C6.01961 15.3105 6.21688 15.5117 6.46688 15.6641C6.72078 15.8125 7.00398 15.8867 7.31648 15.8867ZM19.3905 18.043H18.078V7.44922H19.3905V18.043ZM16.2265 8.57422C16.2265 10.2578 15.8456 11.7363 15.0839 13.0098C14.3222 14.2793 13.0585 15.332 11.2929 16.168L10.6132 15.125C11.9765 14.4766 13.0019 13.7012 13.6894 12.7988C14.3808 11.8926 14.7851 10.8281 14.9023 9.60547H11.1523V8.57422H16.2265Z" fill="white"/>
<defs>
<linearGradient id="paint0_linear_7193_1399" x1="12" y1="-1.07689e-08" x2="12" y2="28.2085" gradientUnits="userSpaceOnUse">
<stop stop-color="#2D9AFF"/>
<stop offset="0.225869" stop-color="#0075FF"/>
<stop offset="0.6" stop-color="#3F74FF"/>
<stop offset="1" stop-color="#555CFF"/>
</linearGradient>
</defs>
</svg>
