<?xml version="1.0" encoding="UTF-8"?>
<svg id="Layer_2" data-name="Layer 2" xmlns="http://www.w3.org/2000/svg" viewBox="0 0 75.99 55.4">
  <defs>
    <style>
      .cls-1 {
        fill: #004098;
        stroke-width: 0px;
      }
    </style>
  </defs>
  <g id="Layer_1-2" data-name="Layer 1">
    <g>
      <g>
        <polygon class="cls-1" points="26.26 35.67 26.26 35.67 24.21 35.67 26.26 35.67"/>
        <polygon class="cls-1" points="23.98 35.67 24.21 35.67 23.98 35.67 23.98 35.67"/>
        <g>
          <path class="cls-1" d="m35.57,21.98l-1.73-.76c-.41-.2-1.87-.8-3.14-1.77-.21-.16-.41-.32-.61-.48-3.39-2.81-3.8-6.3-3.8-8.26,0-2.88,1-5.66,2.82-7.73.32-.36.65-.69.98-.99,1-.9,2.08-1.53,3.13-1.95h-3.13v-.05h-10.22v12.74h-9.68V0H.02v35.67h10.18v-14.4h9.68v14.4h6.37s.04-8.92.04-8.92c.41.35.82.76,1.27,1.06.32.23,1.25.75,2.53,1.1,1.29.36,2.94.55,4.67.09.27-.07,2.76-.57,3.85-2.16.13-.19.27-.71.27-1.37,0-.2,0-.66-.18-1.16-.54-1.36-2-1.86-3.13-2.33Z"/>
          <path class="cls-1" d="m65.86.06v20.46c0,1.1,0,1.97-.27,3.03-.1.45-.32,1.21-1.01,2.12-.68.86-1.72,1.76-3.95,1.76-3.32,0-4.59-1.97-5.09-3.53-.41-1.26-.45-2.58-.45-5.31V.06h-7.66v9.32c-.45-.41-.91-.81-1.37-1.17-.4-.29-1.19-.72-2.17-1.07-1.22-.44-2.75-.74-4.25-.47-.44.08-.89.25-1.35.41-1.14.35-2.04,1.36-2.04,2.82,0,2.13,2.09,2.83,3.5,3.43l2.45,1.11c.59.28,1.15.59,1.69.93,2.04,1.27,3.67,2.97,4.53,5.64.18.6.59,2.02.59,3.74,0,.96-.14,2.92-1.16,5.15l-.7,1.31c-1.44,2.31-3.43,3.63-5.32,4.37-.03.01-.06.02-.09.03l15.2-.03h0s3.7,0,3.7,0v-.02c1.75-.02,2.81-.16,3.62-.3,3.4-.45,6.63-1.52,8.99-4.55,1.64-2.12,2.73-4.89,2.73-10.61V.06h-10.13Z"/>
        </g>
      </g>
      <path class="cls-1" d="m23.75,48.48c-3.01,0-5.46,1.55-5.46,3.46s2.44,3.46,5.46,3.46,5.46-1.55,5.46-3.46-2.45-3.46-5.46-3.46Zm0,4.89c-1.46,0-2.65-.64-2.65-1.42s1.19-1.43,2.65-1.43,2.65.64,2.65,1.43-1.18,1.42-2.65,1.42Zm2.85-10.99h-2.39v2.21h2.39v3.77h2.61v-7.12h-2.61v1.13Zm-6.17,3.08c.9,1.21,2.18,2.17,3.68,2.76l1.31-1.86c-2.08-.76-3.63-2.58-3.63-4.71v-.41h-2.71v.41c0,2.13-1.55,3.96-3.63,4.71l1.31,1.86c1.5-.59,2.77-1.55,3.68-2.76Zm21.43-.16h-.61v-4.06h-2.3v8.31h-4.69v-5.36h3.87v-2.32h-6.49v10.01h7.31v2.87h2.3v-7.1h.61v7.1h2.38v-13.51h-2.38v4.06Zm29.12,6.43v-5.37h-2.58v5.37h-1.26v-5.37h-2.59v5.37h-2.31v2.32h13.74v-2.32h-5.01Zm1.36-.61h2.61v-9.52h-11.69v2.32h9.08v7.2Zm-67.86-2.01c2.22,0,4.02-1.55,4.02-3.47,0-.63-.19-1.21-.53-1.72h1.03v-2.18h-3.12v-1.21h-2.74v1.21H0v2.18h.99c-.34.51-.53,1.09-.53,1.72,0,1.92,1.8,3.47,4.02,3.47Zm0-4.78c.87,0,1.58.61,1.58,1.37s-.71,1.37-1.58,1.37-1.58-.61-1.58-1.37.71-1.37,1.58-1.37Zm46.5,4.52c2.22,0,4.02-1.5,4.02-3.34,0-.58-.18-1.12-.49-1.6h.99v-2.18h-3.12v-1.21h-2.74v1.21h-3.13v2.18h.95c-.31.47-.49,1.02-.49,1.6,0,1.85,1.8,3.34,4.02,3.34Zm0-4.48c.88,0,1.59.53,1.59,1.19s-.71,1.19-1.59,1.19-1.58-.53-1.58-1.19.71-1.19,1.58-1.19ZM3.85,49.8H1.24v4.95h11.77v-2.31H3.85v-2.63Zm9.06-8.56h-2.61v9.37h2.61v-3.77h1.75v-2.34h-1.75v-3.26Zm34.95,10.4h8.91v3.13h2.61v-5.45h-11.52v2.32Zm11.52-10.4h-2.61v7.33h2.61v-2.94h1.75v-2.32h-1.75v-2.07Z"/>
    </g>
  </g>
</svg>